<svg width="34" height="34" viewBox="0 0 34 34" fill="none" xmlns="http://www.w3.org/2000/svg">
<g filter="url(#filter0_d_929_28558)">
<path fill-rule="evenodd" clip-rule="evenodd" d="M28.2192 5.78051C28.3771 5.93842 28.4521 6.16111 28.4218 6.38238C27.9397 9.90764 26.5146 13.2373 24.2972 16.0199C22.2158 18.632 19.5086 20.671 16.4313 21.9509C16.6251 22.9924 16.5126 24.0683 16.1068 25.0479C15.6923 26.0485 14.9904 26.9038 14.0899 27.5055C13.1893 28.1073 12.1306 28.4284 11.0475 28.4284H6.28557C5.89109 28.4284 5.57129 28.1086 5.57129 27.7142V22.9523C5.57129 21.8692 5.89246 20.8104 6.49419 19.9098C7.09592 19.0093 7.95119 18.3074 8.95183 17.8929C9.93146 17.4871 11.0074 17.3747 12.0489 17.5684C13.3287 14.4911 15.3678 11.7839 17.9798 9.70249C20.7624 7.48509 24.0921 6.06008 27.6173 5.57789C27.8386 5.54762 28.0613 5.62259 28.2192 5.78051ZM12.1252 19.0508C12.1564 19.0683 12.1893 19.0837 12.2237 19.0967C12.2838 19.1194 12.3451 19.1334 12.4061 19.1395C12.9693 19.3401 13.4834 19.664 13.9096 20.0902C14.3358 20.5163 14.6596 21.0304 14.8603 21.5936C14.8663 21.6546 14.8804 21.7159 14.9031 21.776C14.9161 21.8105 14.9315 21.8433 14.949 21.8745C14.9752 21.9694 14.998 22.0655 15.0173 22.1626C15.1735 22.9478 15.0933 23.7616 14.787 24.5012C14.4806 25.2408 13.9618 25.873 13.2962 26.3177C12.6306 26.7625 11.848 26.9999 11.0475 26.9999H6.99986V22.9523C6.99986 22.1517 7.23725 21.3691 7.68201 20.7035C8.12677 20.0379 8.75892 19.5191 9.49852 19.2127C10.2381 18.9064 11.052 18.8262 11.8371 18.9824C11.9342 19.0017 12.0303 19.0245 12.1252 19.0508ZM15.987 20.5881C15.7207 20.0315 15.3607 19.521 14.9197 19.08C14.4788 18.639 13.9682 18.2791 13.4117 18.0127C13.968 16.6981 14.674 15.4573 15.5129 14.3138C17.2919 15.2532 18.7465 16.7078 19.6859 18.4869C18.5424 19.3257 17.3017 20.0318 15.987 20.5881ZM20.8207 17.5833C21.6781 16.8433 22.4685 16.0226 23.18 15.1297C25.0342 12.8028 26.2911 10.0637 26.8487 7.15107C23.936 7.7086 21.1969 8.96555 18.8701 10.8197C17.9771 11.5313 17.1564 12.3217 16.4165 13.179C18.2638 14.2108 19.7889 15.7359 20.8207 17.5833Z" fill="#49F829"/>
<path fill-rule="evenodd" clip-rule="evenodd" d="M28.2192 5.78051C28.3771 5.93842 28.4521 6.16111 28.4218 6.38238C27.9397 9.90764 26.5146 13.2373 24.2972 16.0199C22.2158 18.632 19.5086 20.671 16.4313 21.9509C16.6251 22.9924 16.5126 24.0683 16.1068 25.0479C15.6923 26.0485 14.9904 26.9038 14.0899 27.5055C13.1893 28.1073 12.1306 28.4284 11.0475 28.4284H6.28557C5.89109 28.4284 5.57129 28.1086 5.57129 27.7142V22.9523C5.57129 21.8692 5.89246 20.8104 6.49419 19.9098C7.09592 19.0093 7.95119 18.3074 8.95183 17.8929C9.93146 17.4871 11.0074 17.3747 12.0489 17.5684C13.3287 14.4911 15.3678 11.7839 17.9798 9.70249C20.7624 7.48509 24.0921 6.06008 27.6173 5.57789C27.8386 5.54762 28.0613 5.62259 28.2192 5.78051ZM12.1252 19.0508C12.1564 19.0683 12.1893 19.0837 12.2237 19.0967C12.2838 19.1194 12.3451 19.1334 12.4061 19.1395C12.9693 19.3401 13.4834 19.664 13.9096 20.0902C14.3358 20.5163 14.6596 21.0304 14.8603 21.5936C14.8663 21.6546 14.8804 21.7159 14.9031 21.776C14.9161 21.8105 14.9315 21.8433 14.949 21.8745C14.9752 21.9694 14.998 22.0655 15.0173 22.1626C15.1735 22.9478 15.0933 23.7616 14.787 24.5012C14.4806 25.2408 13.9618 25.873 13.2962 26.3177C12.6306 26.7625 11.848 26.9999 11.0475 26.9999H6.99986V22.9523C6.99986 22.1517 7.23725 21.3691 7.68201 20.7035C8.12677 20.0379 8.75892 19.5191 9.49852 19.2127C10.2381 18.9064 11.052 18.8262 11.8371 18.9824C11.9342 19.0017 12.0303 19.0245 12.1252 19.0508ZM15.987 20.5881C15.7207 20.0315 15.3607 19.521 14.9197 19.08C14.4788 18.639 13.9682 18.2791 13.4117 18.0127C13.968 16.6981 14.674 15.4573 15.5129 14.3138C17.2919 15.2532 18.7465 16.7078 19.6859 18.4869C18.5424 19.3257 17.3017 20.0318 15.987 20.5881ZM20.8207 17.5833C21.6781 16.8433 22.4685 16.0226 23.18 15.1297C25.0342 12.8028 26.2911 10.0637 26.8487 7.15107C23.936 7.7086 21.1969 8.96555 18.8701 10.8197C17.9771 11.5313 17.1564 12.3217 16.4165 13.179C18.2638 14.2108 19.7889 15.7359 20.8207 17.5833Z" stroke="#13C259" stroke-width="0.5"/>
</g>
<defs>
<filter id="filter0_d_929_28558" x="0.321289" y="0.321289" width="33.3574" height="33.3569" filterUnits="userSpaceOnUse" color-interpolation-filters="sRGB">
<feFlood flood-opacity="0" result="BackgroundImageFix"/>
<feColorMatrix in="SourceAlpha" type="matrix" values="0 0 0 0 0 0 0 0 0 0 0 0 0 0 0 0 0 0 127 0" result="hardAlpha"/>
<feOffset/>
<feGaussianBlur stdDeviation="2.5"/>
<feComposite in2="hardAlpha" operator="out"/>
<feColorMatrix type="matrix" values="0 0 0 0 0.024549 0 0 0 0 0.843137 0 0 0 0 0.00784314 0 0 0 1 0"/>
<feBlend mode="normal" in2="BackgroundImageFix" result="effect1_dropShadow_929_28558"/>
<feBlend mode="normal" in="SourceGraphic" in2="effect1_dropShadow_929_28558" result="shape"/>
</filter>
</defs>
</svg>
