<svg width="44" height="44" viewBox="0 0 44 44" fill="none" xmlns="http://www.w3.org/2000/svg">
<g filter="url(#filter0_d_929_26453)">
<path fill-rule="evenodd" clip-rule="evenodd" d="M37.7071 6.2929C37.9282 6.51399 38.0331 6.82575 37.9908 7.13553C37.3157 12.0709 35.3207 16.7324 32.2163 20.6281C29.3023 24.2849 25.5123 27.1396 21.2041 28.9314C21.4753 30.3895 21.3178 31.8958 20.7497 33.2673C20.1695 34.6682 19.1868 35.8655 17.926 36.7079C16.6653 37.5504 15.183 38 13.6667 38H7C6.44772 38 6 37.5523 6 37V30.3333C6 28.817 6.44964 27.3348 7.29207 26.074C8.13449 24.8132 9.33186 23.8305 10.7328 23.2503C12.1042 22.6822 13.6105 22.5247 15.0686 22.7959C16.8604 18.4877 19.7151 14.6977 23.3719 11.7837C27.2676 8.67931 31.9291 6.6843 36.8645 6.00923C37.1743 5.96686 37.486 6.07182 37.7071 6.2929ZM15.1755 24.8712C15.2191 24.8958 15.2651 24.9173 15.3134 24.9355C15.3976 24.9673 15.4833 24.987 15.5688 24.9955C16.3572 25.2764 17.077 25.7298 17.6736 26.3264C18.2703 26.9231 18.7236 27.6428 19.0046 28.4312C19.013 28.5167 19.0327 28.6024 19.0645 28.6866C19.0827 28.7349 19.1042 28.7809 19.1288 28.8245C19.1655 28.9574 19.1974 29.0919 19.2245 29.2278C19.4431 30.3271 19.3309 31.4664 18.902 32.5019C18.4731 33.5373 17.7468 34.4223 16.8149 35.045C15.883 35.6677 14.7874 36 13.6667 36H8V30.3333C8 29.2126 8.33234 28.117 8.95501 27.1851C9.57767 26.2532 10.4627 25.5269 11.4981 25.098C12.5336 24.6691 13.673 24.5569 14.7722 24.7756C14.9081 24.8026 15.0426 24.8345 15.1755 24.8712ZM20.5821 27.0235C20.2091 26.2443 19.7052 25.5295 19.0878 24.9122C18.4705 24.2949 17.7557 23.7909 16.9765 23.418C17.7553 21.5775 18.7438 19.8404 19.9182 18.2395C22.4088 19.5547 24.4454 21.5912 25.7605 24.0818C24.1596 25.2562 22.4225 26.2447 20.5821 27.0235ZM27.3492 22.8168C28.5495 21.7809 29.656 20.6318 30.6522 19.3817C33.2481 16.1242 35.0078 12.2894 35.7883 8.2117C31.7106 8.99224 27.8758 10.752 24.6183 13.3478C23.3682 14.344 22.2191 15.4505 21.1832 16.6508C23.7695 18.0954 25.9046 20.2305 27.3492 22.8168Z" fill="#49F829"/>
<path fill-rule="evenodd" clip-rule="evenodd" d="M37.7071 6.2929C37.9282 6.51399 38.0331 6.82575 37.9908 7.13553C37.3157 12.0709 35.3207 16.7324 32.2163 20.6281C29.3023 24.2849 25.5123 27.1396 21.2041 28.9314C21.4753 30.3895 21.3178 31.8958 20.7497 33.2673C20.1695 34.6682 19.1868 35.8655 17.926 36.7079C16.6653 37.5504 15.183 38 13.6667 38H7C6.44772 38 6 37.5523 6 37V30.3333C6 28.817 6.44964 27.3348 7.29207 26.074C8.13449 24.8132 9.33186 23.8305 10.7328 23.2503C12.1042 22.6822 13.6105 22.5247 15.0686 22.7959C16.8604 18.4877 19.7151 14.6977 23.3719 11.7837C27.2676 8.67931 31.9291 6.6843 36.8645 6.00923C37.1743 5.96686 37.486 6.07182 37.7071 6.2929ZM15.1755 24.8712C15.2191 24.8958 15.2651 24.9173 15.3134 24.9355C15.3976 24.9673 15.4833 24.987 15.5688 24.9955C16.3572 25.2764 17.077 25.7298 17.6736 26.3264C18.2703 26.9231 18.7236 27.6428 19.0046 28.4312C19.013 28.5167 19.0327 28.6024 19.0645 28.6866C19.0827 28.7349 19.1042 28.7809 19.1288 28.8245C19.1655 28.9574 19.1974 29.0919 19.2245 29.2278C19.4431 30.3271 19.3309 31.4664 18.902 32.5019C18.4731 33.5373 17.7468 34.4223 16.8149 35.045C15.883 35.6677 14.7874 36 13.6667 36H8V30.3333C8 29.2126 8.33234 28.117 8.95501 27.1851C9.57767 26.2532 10.4627 25.5269 11.4981 25.098C12.5336 24.6691 13.673 24.5569 14.7722 24.7756C14.9081 24.8026 15.0426 24.8345 15.1755 24.8712ZM20.5821 27.0235C20.2091 26.2443 19.7052 25.5295 19.0878 24.9122C18.4705 24.2949 17.7557 23.7909 16.9765 23.418C17.7553 21.5775 18.7438 19.8404 19.9182 18.2395C22.4088 19.5547 24.4454 21.5912 25.7605 24.0818C24.1596 25.2562 22.4225 26.2447 20.5821 27.0235ZM27.3492 22.8168C28.5495 21.7809 29.656 20.6318 30.6522 19.3817C33.2481 16.1242 35.0078 12.2894 35.7883 8.2117C31.7106 8.99224 27.8758 10.752 24.6183 13.3478C23.3682 14.344 22.2191 15.4505 21.1832 16.6508C23.7695 18.0954 25.9046 20.2305 27.3492 22.8168Z" stroke="#13C259" stroke-width="0.5"/>
</g>
<defs>
<filter id="filter0_d_929_26453" x="0.75" y="0.75" width="42.5" height="42.5" filterUnits="userSpaceOnUse" color-interpolation-filters="sRGB">
<feFlood flood-opacity="0" result="BackgroundImageFix"/>
<feColorMatrix in="SourceAlpha" type="matrix" values="0 0 0 0 0 0 0 0 0 0 0 0 0 0 0 0 0 0 127 0" result="hardAlpha"/>
<feOffset/>
<feGaussianBlur stdDeviation="2.5"/>
<feComposite in2="hardAlpha" operator="out"/>
<feColorMatrix type="matrix" values="0 0 0 0 0.024549 0 0 0 0 0.843137 0 0 0 0 0.00784314 0 0 0 1 0"/>
<feBlend mode="normal" in2="BackgroundImageFix" result="effect1_dropShadow_929_26453"/>
<feBlend mode="normal" in="SourceGraphic" in2="effect1_dropShadow_929_26453" result="shape"/>
</filter>
</defs>
</svg>
