<svg width="39" height="50" fill="none" xmlns="http://www.w3.org/2000/svg"><g filter="url(#a)" clip-rule="evenodd"><path fill-rule="evenodd" d="M17.038 6.075a1 1 0 0 1 1.091.224c1.198 1.217 2.831 4.06 3.644 7.377.756 3.082.845 6.752-.953 10.015.817.547 1.413.629 2.02.383.454-.185 1.022-.592 1.726-1.39.7-.794 1.491-1.925 2.404-3.483a1 1 0 0 1 1.616-.154c1.083 1.236 2.176 3.183 2.995 5.202.817 2.014 1.419 4.238 1.419 6.045 0 3.63-1.418 7.114-3.948 9.686A13.398 13.398 0 0 1 19.5 44a13.398 13.398 0 0 1-9.552-4.02A13.813 13.813 0 0 1 6 30.294c0-3.971 1.703-8.416 4.444-11.28l.246-.255c2.54-2.643 5.727-5.96 5.727-11.759a1 1 0 0 1 .62-.925Zm1.137 3.771c-.86 4.916-3.839 8.01-5.99 10.244l-.296.308C9.521 22.871 8 26.812 8 30.294c0 3.11 1.216 6.09 3.374 8.283A11.398 11.398 0 0 0 19.5 42c3.045 0 5.968-1.23 8.126-3.423A11.813 11.813 0 0 0 31 30.294c0-1.437-.498-3.385-1.272-5.293-.535-1.316-1.174-2.548-1.81-3.516-.65 1.02-1.264 1.855-1.852 2.522-.814.923-1.625 1.575-2.474 1.92-1.845.749-3.405-.102-4.735-1.22a1 1 0 0 1-.19-1.32c1.871-2.814 1.908-6.198 1.164-9.235a18.493 18.493 0 0 0-1.656-4.306Z" fill="#FF8A00"/><path d="M17.038 6.075a1 1 0 0 1 1.091.224c1.198 1.217 2.831 4.06 3.644 7.377.756 3.082.845 6.752-.953 10.015.817.547 1.413.629 2.02.383.454-.185 1.022-.592 1.726-1.39.7-.794 1.491-1.925 2.404-3.483a1 1 0 0 1 1.616-.154c1.083 1.236 2.176 3.183 2.995 5.202.817 2.014 1.419 4.238 1.419 6.045 0 3.63-1.418 7.114-3.948 9.686A13.398 13.398 0 0 1 19.5 44a13.398 13.398 0 0 1-9.552-4.02A13.813 13.813 0 0 1 6 30.294c0-3.971 1.703-8.416 4.444-11.28l.246-.255c2.54-2.643 5.727-5.96 5.727-11.759a1 1 0 0 1 .62-.925Zm1.137 3.771c-.86 4.916-3.839 8.01-5.99 10.244l-.296.308C9.521 22.871 8 26.812 8 30.294c0 3.11 1.216 6.09 3.374 8.283A11.398 11.398 0 0 0 19.5 42c3.045 0 5.968-1.23 8.126-3.423A11.813 11.813 0 0 0 31 30.294c0-1.437-.498-3.385-1.272-5.293-.535-1.316-1.174-2.548-1.81-3.516-.65 1.02-1.264 1.855-1.852 2.522-.814.923-1.625 1.575-2.474 1.92-1.845.749-3.405-.102-4.735-1.22a1 1 0 0 1-.19-1.32c1.871-2.814 1.908-6.198 1.164-9.235a18.493 18.493 0 0 0-1.656-4.306Z" stroke="#FCC500" stroke-width=".5"/></g><defs><filter id="a" x=".75" y=".75" width="37.5" height="48.5" filterUnits="userSpaceOnUse" color-interpolation-filters="sRGB"><feFlood flood-opacity="0" result="BackgroundImageFix"/><feColorMatrix in="SourceAlpha" values="0 0 0 0 0 0 0 0 0 0 0 0 0 0 0 0 0 0 127 0" result="hardAlpha"/><feOffset/><feGaussianBlur stdDeviation="2.5"/><feComposite in2="hardAlpha" operator="out"/><feColorMatrix values="0 0 0 0 0.843137 0 0 0 0 0.759608 0 0 0 0 0.00784314 0 0 0 1 0"/><feBlend in2="BackgroundImageFix" result="effect1_dropShadow_929_26443"/><feBlend in="SourceGraphic" in2="effect1_dropShadow_929_26443" result="shape"/></filter></defs></svg>