<svg width="43" height="50" fill="none" xmlns="http://www.w3.org/2000/svg"><g filter="url(#a)" clip-rule="evenodd"><path fill-rule="evenodd" d="M25.579 8.375a2.9 2.9 0 0 0-2.019.812 2.73 2.73 0 0 0-.836 1.959v.791h2.855a2.9 2.9 0 0 0 2.019-.811 2.73 2.73 0 0 0 .836-1.96v-.791H25.58Zm-5.303 2.77a5.07 5.07 0 0 1 1.553-3.638A5.386 5.386 0 0 1 25.58 6h4.079c.676 0 1.224.532 1.224 1.188v1.979a5.07 5.07 0 0 1-1.554 3.638 5.386 5.386 0 0 1-3.75 1.508h-.53C31.898 15.869 37 21.835 37 28.957 37 37.266 30.06 44 21.5 44 12.94 44 6 37.266 6 28.958c0-7.907 6.288-14.39 14.276-14.995v-2.817Zm0 5.202c-6.635.598-11.829 6.016-11.829 12.611 0 6.996 5.844 12.667 13.053 12.667 7.209 0 13.053-5.671 13.053-12.667 0-6.595-5.194-12.013-11.83-12.611v5.382a8.587 8.587 0 0 0 2.308-.76 1.241 1.241 0 0 1 1.642.53c.303.587.058 1.3-.546 1.594-3.064 1.488-6.19 1.488-9.253 0a1.171 1.171 0 0 1-.547-1.593 1.241 1.241 0 0 1 1.642-.53c.774.375 1.542.629 2.307.76v-5.383Z" fill="#00A7DE"/><path d="M25.579 8.375a2.9 2.9 0 0 0-2.019.812 2.73 2.73 0 0 0-.836 1.959v.791h2.855a2.9 2.9 0 0 0 2.019-.811 2.73 2.73 0 0 0 .836-1.96v-.791H25.58Zm-5.303 2.77a5.07 5.07 0 0 1 1.553-3.638A5.386 5.386 0 0 1 25.58 6h4.079c.676 0 1.224.532 1.224 1.188v1.979a5.07 5.07 0 0 1-1.554 3.638 5.386 5.386 0 0 1-3.75 1.508h-.53C31.898 15.869 37 21.835 37 28.957 37 37.266 30.06 44 21.5 44 12.94 44 6 37.266 6 28.958c0-7.907 6.288-14.39 14.276-14.995v-2.817Zm0 5.202c-6.635.598-11.829 6.016-11.829 12.611 0 6.996 5.844 12.667 13.053 12.667 7.209 0 13.053-5.671 13.053-12.667 0-6.595-5.194-12.013-11.83-12.611v5.382a8.587 8.587 0 0 0 2.308-.76 1.241 1.241 0 0 1 1.642.53c.303.587.058 1.3-.546 1.594-3.064 1.488-6.19 1.488-9.253 0a1.171 1.171 0 0 1-.547-1.593 1.241 1.241 0 0 1 1.642-.53c.774.375 1.542.629 2.307.76v-5.383Z" stroke="#107ADC" stroke-width=".5"/></g><defs><filter id="a" x=".75" y=".75" width="41.5" height="48.5" filterUnits="userSpaceOnUse" color-interpolation-filters="sRGB"><feFlood flood-opacity="0" result="BackgroundImageFix"/><feColorMatrix in="SourceAlpha" values="0 0 0 0 0 0 0 0 0 0 0 0 0 0 0 0 0 0 127 0" result="hardAlpha"/><feOffset/><feGaussianBlur stdDeviation="2.5"/><feComposite in2="hardAlpha" operator="out"/><feColorMatrix values="0 0 0 0 0.00760418 0 0 0 0 0.532444 0 0 0 0 0.9125 0 0 0 1 0"/><feBlend in2="BackgroundImageFix" result="effect1_dropShadow_929_26463"/><feBlend in="SourceGraphic" in2="effect1_dropShadow_929_26463" result="shape"/></filter></defs></svg>