<svg width="46" height="47" fill="none" xmlns="http://www.w3.org/2000/svg"><g filter="url(#a)" clip-rule="evenodd"><path fill-rule="evenodd" d="M32.27 8.012a2.473 2.473 0 0 0-2.163.9 2.506 2.506 0 0 0 .164 3.356 1 1 0 0 1 0 1.412l-2.487 2.498a9.71 9.71 0 0 1 2.207 1.949l2.35-2.36a1 1 0 0 1 1.417-.001 2.483 2.483 0 0 0 2.241.683 2.48 2.48 0 0 0 1.811-1.494 2.511 2.511 0 0 0-.23-2.348 2.489 2.489 0 0 0-2.067-1.109 1 1 0 0 1-1-1 2.51 2.51 0 0 0-1.107-2.078 2.476 2.476 0 0 0-1.136-.408Zm-1.141 11.807c1.277 2.405 1.58 5.324 1.055 8.304-.708 4.03-2.932 8.272-6.46 11.816-.002 0-.002.002-.003.002-.75.753-1.762 1.052-2.819 1.059-1.05.007-2.213-.27-3.403-.748-2.383-.958-5.063-2.796-7.517-5.26-2.454-2.463-4.284-5.154-5.237-7.546-.476-1.194-.752-2.36-.745-3.412.007-1.058.304-2.073 1.053-2.825a3.35 3.35 0 0 1 .048-.047c3.52-3.517 7.727-5.735 11.726-6.443 2.49-.442 4.938-.3 7.076.514l2.327-2.338a4.507 4.507 0 0 1 2.078-6.552 4.473 4.473 0 0 1 4.211.416 4.493 4.493 0 0 1 1.9 2.832 4.475 4.475 0 0 1 2.825 1.907 4.508 4.508 0 0 1-.882 5.976 4.48 4.48 0 0 1-5.232.334L31.13 19.82Zm-22.677 2.82a1.05 1.05 0 0 0 .019-.019l.027-.027c.274-.258.71-.438 1.387-.442.707-.005 1.604.186 2.644.604 2.076.834 4.536 2.495 6.846 4.815 2.31 2.319 3.965 4.789 4.796 6.875.416 1.045.607 1.947.602 2.659-.004.707-.197 1.153-.47 1.426-.27.273-.713.465-1.414.47-.707.005-1.604-.187-2.644-.604-2.076-.834-4.537-2.495-6.846-4.815-2.31-2.319-3.965-4.79-4.796-6.875-.417-1.045-.608-1.947-.603-2.659.005-.691.19-1.133.452-1.408Zm18.197 13.153a11.133 11.133 0 0 0-.62-2.087c-.953-2.392-2.783-5.083-5.237-7.547-2.454-2.464-5.134-4.302-7.518-5.259a11.02 11.02 0 0 0-2.089-.624c2.59-1.914 5.372-3.123 7.991-3.587 3.568-.632 6.737.125 8.824 2.221 2.09 2.097 2.845 5.282 2.214 8.868-.462 2.627-1.664 5.417-3.565 8.015Zm-11.883-6.756a1 1 0 0 1 1.414.003l1.743 1.75a1 1 0 0 1-1.417 1.41l-1.743-1.749a1 1 0 0 1 .003-1.414Z" fill="#F20"/><path d="M32.27 8.012a2.473 2.473 0 0 0-2.163.9 2.506 2.506 0 0 0 .164 3.356 1 1 0 0 1 0 1.412l-2.487 2.498a9.71 9.71 0 0 1 2.207 1.949l2.35-2.36a1 1 0 0 1 1.417-.001 2.483 2.483 0 0 0 2.241.683 2.48 2.48 0 0 0 1.811-1.494 2.511 2.511 0 0 0-.23-2.348 2.489 2.489 0 0 0-2.067-1.109 1 1 0 0 1-1-1 2.51 2.51 0 0 0-1.107-2.078 2.476 2.476 0 0 0-1.136-.408Zm-1.141 11.807c1.277 2.405 1.58 5.324 1.055 8.304-.708 4.03-2.932 8.272-6.46 11.816-.002 0-.002.002-.003.002-.75.753-1.762 1.052-2.819 1.059-1.05.007-2.213-.27-3.403-.748-2.383-.958-5.063-2.796-7.517-5.26-2.454-2.463-4.284-5.154-5.237-7.546-.476-1.194-.752-2.36-.745-3.412.007-1.058.304-2.073 1.053-2.825a3.35 3.35 0 0 1 .048-.047c3.52-3.517 7.727-5.735 11.726-6.443 2.49-.442 4.938-.3 7.076.514l2.327-2.338a4.507 4.507 0 0 1 2.078-6.552 4.473 4.473 0 0 1 4.211.416 4.493 4.493 0 0 1 1.9 2.832 4.475 4.475 0 0 1 2.825 1.907 4.508 4.508 0 0 1-.882 5.976 4.48 4.48 0 0 1-5.232.334L31.13 19.82Zm-22.677 2.82a1.05 1.05 0 0 0 .019-.019l.027-.027c.274-.258.71-.438 1.387-.442.707-.005 1.604.186 2.644.604 2.076.834 4.536 2.495 6.846 4.815 2.31 2.319 3.965 4.789 4.796 6.875.416 1.045.607 1.947.602 2.659-.004.707-.197 1.153-.47 1.426-.27.273-.713.465-1.414.47-.707.005-1.604-.187-2.644-.604-2.076-.834-4.537-2.495-6.846-4.815-2.31-2.319-3.965-4.79-4.796-6.875-.417-1.045-.608-1.947-.603-2.659.005-.691.19-1.133.452-1.408Zm18.197 13.153a11.133 11.133 0 0 0-.62-2.087c-.953-2.392-2.783-5.083-5.237-7.547-2.454-2.464-5.134-4.302-7.518-5.259a11.02 11.02 0 0 0-2.089-.624c2.59-1.914 5.372-3.123 7.991-3.587 3.568-.632 6.737.125 8.824 2.221 2.09 2.097 2.845 5.282 2.214 8.868-.462 2.627-1.664 5.417-3.565 8.015Zm-11.883-6.756a1 1 0 0 1 1.414.003l1.743 1.75a1 1 0 0 1-1.417 1.41l-1.743-1.749a1 1 0 0 1 .003-1.414Z" stroke="#FC6A00" stroke-width=".5"/></g><defs><filter id="a" x=".75" y=".75" width="44.5" height="45.5" filterUnits="userSpaceOnUse" color-interpolation-filters="sRGB"><feFlood flood-opacity="0" result="BackgroundImageFix"/><feColorMatrix in="SourceAlpha" values="0 0 0 0 0 0 0 0 0 0 0 0 0 0 0 0 0 0 127 0" result="hardAlpha"/><feOffset/><feGaussianBlur stdDeviation="2.5"/><feComposite in2="hardAlpha" operator="out"/><feColorMatrix values="0 0 0 0 0.843137 0 0 0 0 0.659373 0 0 0 0 0.00784314 0 0 0 1 0"/><feBlend in2="BackgroundImageFix" result="effect1_dropShadow_929_26419"/><feBlend in="SourceGraphic" in2="effect1_dropShadow_929_26419" result="shape"/></filter></defs></svg>