<svg width="41" height="41" viewBox="0 0 41 41" fill="none" xmlns="http://www.w3.org/2000/svg">
<g filter="url(#filter0_d_929_26424)">
<path fill-rule="evenodd" clip-rule="evenodd" d="M16.125 7C16.125 6.44772 16.5727 6 17.125 6H34C34.2652 6 34.5196 6.10536 34.7071 6.29289C34.8946 6.48043 35 6.73478 35 7L35 13.7471C35 13.748 35 13.749 35 13.75C35 13.7509 35 13.7519 35 13.7529L35 28.9375C35 32.2857 32.2857 35 28.9375 35C25.5893 35 22.875 32.2857 22.875 28.9375C22.875 25.5893 25.5893 22.875 28.9375 22.875C30.5003 22.875 31.925 23.4663 33 24.4374L33 14.75H18.125V28.9375C18.125 32.2857 15.4107 35 12.0625 35C8.71427 35 6 32.2857 6 28.9375C6 25.5893 8.71427 22.875 12.0625 22.875C13.6253 22.875 15.05 23.4663 16.125 24.4374V7ZM18.125 12.75H33L33 8H18.125V12.75ZM16.125 28.9375C16.125 26.6938 14.3062 24.875 12.0625 24.875C9.81885 24.875 8 26.6938 8 28.9375C8 31.1812 9.81885 33 12.0625 33C14.3062 33 16.125 31.1812 16.125 28.9375ZM33 28.9375C33 26.6938 31.1811 24.875 28.9375 24.875C26.6938 24.875 24.875 26.6938 24.875 28.9375C24.875 31.1812 26.6938 33 28.9375 33C31.1811 33 33 31.1812 33 28.9375Z" fill="#00FF98"/>
<path fill-rule="evenodd" clip-rule="evenodd" d="M16.125 7C16.125 6.44772 16.5727 6 17.125 6H34C34.2652 6 34.5196 6.10536 34.7071 6.29289C34.8946 6.48043 35 6.73478 35 7L35 13.7471C35 13.748 35 13.749 35 13.75C35 13.7509 35 13.7519 35 13.7529L35 28.9375C35 32.2857 32.2857 35 28.9375 35C25.5893 35 22.875 32.2857 22.875 28.9375C22.875 25.5893 25.5893 22.875 28.9375 22.875C30.5003 22.875 31.925 23.4663 33 24.4374L33 14.75H18.125V28.9375C18.125 32.2857 15.4107 35 12.0625 35C8.71427 35 6 32.2857 6 28.9375C6 25.5893 8.71427 22.875 12.0625 22.875C13.6253 22.875 15.05 23.4663 16.125 24.4374V7ZM18.125 12.75H33L33 8H18.125V12.75ZM16.125 28.9375C16.125 26.6938 14.3062 24.875 12.0625 24.875C9.81885 24.875 8 26.6938 8 28.9375C8 31.1812 9.81885 33 12.0625 33C14.3062 33 16.125 31.1812 16.125 28.9375ZM33 28.9375C33 26.6938 31.1811 24.875 28.9375 24.875C26.6938 24.875 24.875 26.6938 24.875 28.9375C24.875 31.1812 26.6938 33 28.9375 33C31.1811 33 33 31.1812 33 28.9375Z" stroke="#0AB663" stroke-width="0.5"/>
</g>
<defs>
<filter id="filter0_d_929_26424" x="0.75" y="0.75" width="39.5" height="39.5" filterUnits="userSpaceOnUse" color-interpolation-filters="sRGB">
<feFlood flood-opacity="0" result="BackgroundImageFix"/>
<feColorMatrix in="SourceAlpha" type="matrix" values="0 0 0 0 0 0 0 0 0 0 0 0 0 0 0 0 0 0 127 0" result="hardAlpha"/>
<feOffset/>
<feGaussianBlur stdDeviation="2.5"/>
<feComposite in2="hardAlpha" operator="out"/>
<feColorMatrix type="matrix" values="0 0 0 0 0.00784314 0 0 0 0 0.843137 0 0 0 0 0.291843 0 0 0 1 0"/>
<feBlend mode="normal" in2="BackgroundImageFix" result="effect1_dropShadow_929_26424"/>
<feBlend mode="normal" in="SourceGraphic" in2="effect1_dropShadow_929_26424" result="shape"/>
</filter>
</defs>
</svg>
