<svg width="41" height="41" fill="none" xmlns="http://www.w3.org/2000/svg"><g filter="url(#a)" clip-rule="evenodd"><path fill-rule="evenodd" d="M16.125 7a1 1 0 0 1 1-1H34a1 1 0 0 1 1 1V28.937a6.063 6.063 0 1 1-2-4.5V14.75H18.125v14.188a6.063 6.063 0 1 1-2-4.5V7Zm2 5.75H33V8H18.125v4.75Zm-2 16.188a4.062 4.062 0 1 0-8.125 0 4.062 4.062 0 0 0 8.125 0Zm16.875 0a4.063 4.063 0 1 0-8.125 0 4.063 4.063 0 0 0 8.125 0Z" fill="#00FF98"/><path d="M16.125 7a1 1 0 0 1 1-1H34a1 1 0 0 1 1 1V28.937a6.063 6.063 0 1 1-2-4.5V14.75H18.125v14.188a6.063 6.063 0 1 1-2-4.5V7Zm2 5.75H33V8H18.125v4.75Zm-2 16.188a4.062 4.062 0 1 0-8.125 0 4.062 4.062 0 0 0 8.125 0Zm16.875 0a4.063 4.063 0 1 0-8.125 0 4.063 4.063 0 0 0 8.125 0Z" stroke="#0AB663" stroke-width=".5"/></g><defs><filter id="a" x=".75" y=".75" width="39.5" height="39.5" filterUnits="userSpaceOnUse" color-interpolation-filters="sRGB"><feFlood flood-opacity="0" result="BackgroundImageFix"/><feColorMatrix in="SourceAlpha" values="0 0 0 0 0 0 0 0 0 0 0 0 0 0 0 0 0 0 127 0" result="hardAlpha"/><feOffset/><feGaussianBlur stdDeviation="2.5"/><feComposite in2="hardAlpha" operator="out"/><feColorMatrix values="0 0 0 0 0.00784314 0 0 0 0 0.843137 0 0 0 0 0.291843 0 0 0 1 0"/><feBlend in2="BackgroundImageFix" result="effect1_dropShadow_929_26424"/><feBlend in="SourceGraphic" in2="effect1_dropShadow_929_26424" result="shape"/></filter></defs></svg>