<svg width="26" height="26" viewBox="0 0 26 26" fill="none" xmlns="http://www.w3.org/2000/svg">
<path d="M5.76482 0C5.67846 0 5.61369 -5.33089e-06 5.52733 0.0218251C4.858 0.152808 4.3614 0.720405 4.3614 1.41898V11.5046C4.10231 11.4392 3.84322 11.4173 3.58413 11.4173C1.61934 11.4173 0 13.0328 0 15.0412C0 17.0496 1.59775 18.665 3.58413 18.665C5.54892 18.665 7.16824 17.0496 7.16824 15.0412V5.45761C7.47052 5.74141 7.79438 6.00337 8.09666 6.2435C8.18302 6.30899 8.29098 6.39631 8.39894 6.46181C9.34895 7.18221 10.1694 7.79347 10.0399 8.8195C9.91031 9.8237 8.44212 10.2167 8.42053 10.2385C7.68643 10.4131 7.21142 11.1772 7.40574 11.9413C7.55688 12.5743 8.11826 13.0328 8.76599 13.0328C8.87395 13.0328 8.9819 13.0109 9.08986 12.9891C9.2194 12.9673 12.4581 12.1596 12.8251 9.19061C13.1706 6.5273 11.2921 5.13015 10.0615 4.21327C9.97509 4.14778 9.86713 4.0823 9.78076 4.01681C8.33416 2.90345 7.18983 1.30983 7.08188 0.98237C6.88756 0.371118 6.34778 0 5.76482 0ZM3.58413 15.8052C3.15231 15.8052 2.80684 15.4559 2.80684 15.0193C2.80684 14.5827 3.15231 14.2334 3.58413 14.2334C4.01595 14.2334 4.3614 14.5827 4.3614 15.0193C4.3614 15.4559 4.01595 15.8052 3.58413 15.8052Z" fill="#7901B2"/>
<path d="M5.76539 0.262207C5.70062 0.262207 5.63584 0.262202 5.57107 0.284032C5.0097 0.393184 4.62107 0.873451 4.62107 1.44104V11.8323C4.2972 11.7232 3.95174 11.6795 3.60628 11.6795C1.77104 11.6795 0.28125 13.1858 0.28125 15.0414C0.28125 16.897 1.77104 18.4033 3.60628 18.4033C5.44153 18.4033 6.93132 16.897 6.93132 15.0414V4.86842C7.36314 5.30503 7.81655 5.69798 8.24837 6.02544C8.33473 6.09093 8.44269 6.17825 8.55065 6.24374C9.52225 6.96414 10.4291 7.66273 10.2779 8.81974C10.1268 9.97676 8.48586 10.4352 8.48586 10.4352C7.88131 10.588 7.49268 11.2211 7.64382 11.8323C7.77337 12.3563 8.22678 12.7274 8.76656 12.7274C8.85292 12.7274 8.93928 12.7274 9.02564 12.7056C9.15519 12.6837 12.2211 11.9197 12.5882 9.10354C12.912 6.5712 11.12 5.23955 9.93247 4.3445C9.84611 4.27901 9.73815 4.21352 9.65179 4.1262C8.22678 3.03468 7.01767 1.39739 6.86653 0.982609C6.6938 0.567831 6.2404 0.262207 5.76539 0.262207ZM3.5847 16.0674C3.02333 16.0674 2.56991 15.609 2.56991 15.0414C2.56991 14.4738 3.02333 14.0154 3.5847 14.0154C4.14607 14.0154 4.59947 14.4738 4.59947 15.0414C4.59947 15.609 4.14607 16.0674 3.5847 16.0674Z" fill="#9601A5"/>
<path d="M5.76421 0.501953C5.72103 0.501953 5.65625 0.501961 5.61307 0.523792C5.18125 0.611113 4.85738 0.98222 4.85738 1.44066V12.2031C4.46874 12.0284 4.03692 11.9193 3.6051 11.9193C1.89941 11.9193 0.517578 13.3164 0.517578 15.041C0.517578 16.7656 1.89941 18.1628 3.6051 18.1628C5.3108 18.1628 6.69262 16.7656 6.69262 15.041V4.25679C7.25399 4.84621 7.83696 5.39198 8.39833 5.82859C8.48469 5.89408 8.59264 5.9814 8.70059 6.04689C9.69378 6.78913 10.7086 7.55318 10.5358 8.86301C10.3631 10.1947 8.57106 10.6749 8.54947 10.6968C8.05287 10.8059 7.75059 11.308 7.88013 11.8101C7.98809 12.2249 8.33355 12.5305 8.76538 12.5305C8.83015 12.5305 8.91651 12.5305 8.98129 12.5087C9.11083 12.4869 12.0256 11.7446 12.3495 9.12498C12.6518 6.74546 10.9245 5.45746 9.78015 4.60607C9.69378 4.54058 9.58583 4.45326 9.49947 4.38777C8.07445 3.29625 6.80058 1.63714 6.62785 1.13504C6.49831 0.742093 6.15285 0.501953 5.76421 0.501953ZM3.58352 16.3072C2.8926 16.3072 2.33122 15.7396 2.33122 15.041C2.33122 14.3425 2.8926 13.7749 3.58352 13.7749C4.27443 13.7749 4.8358 14.3425 4.8358 15.041C4.8358 15.7396 4.27443 16.3072 3.58352 16.3072Z" fill="#C80289"/>
<path d="M5.7651 0.742188C5.72192 0.742188 5.67873 0.742188 5.65714 0.742188C5.33328 0.807679 5.09578 1.06964 5.09578 1.41893V12.5961C4.64237 12.3123 4.12418 12.1595 3.5844 12.1595C2.00825 12.1595 0.734375 13.4475 0.734375 15.0411C0.734375 16.6348 2.00825 17.9227 3.5844 17.9227C5.16055 17.9227 6.43442 16.6348 6.43442 15.0411V3.6238C7.08215 4.38786 7.83784 5.10828 8.52876 5.65404C8.61512 5.71953 8.72308 5.80685 8.83104 5.87234C9.82423 6.61458 10.947 7.44413 10.7526 8.90677C10.5583 10.4349 8.61512 10.937 8.59353 10.937C8.22648 11.0243 8.01057 11.3954 8.09694 11.7447C8.16171 12.0504 8.44239 12.2687 8.74467 12.2687C8.78785 12.2687 8.85263 12.2687 8.89581 12.2468C9.00377 12.225 11.7674 11.5264 12.0697 9.05958C12.3504 6.81105 10.7095 5.58854 9.60831 4.75898C9.50036 4.69349 9.414 4.60617 9.32763 4.54068C7.83785 3.38366 6.56397 1.70273 6.36965 1.1788C6.30487 0.916831 6.04578 0.742188 5.7651 0.742188ZM3.5844 16.5474C2.76394 16.5474 2.07303 15.8707 2.07303 15.0193C2.07303 14.1897 2.74235 13.4912 3.5844 13.4912C4.40487 13.4912 5.09578 14.1679 5.09578 15.0193C5.09578 15.8707 4.40487 16.5474 3.5844 16.5474Z" fill="#EA60CD"/>
<path d="M11.8536 9.03783C12.1127 6.94211 10.5365 5.76326 9.47857 4.97736C9.37062 4.91187 9.28426 4.82455 9.19789 4.75906C7.70811 3.62387 6.39104 1.92111 6.15354 1.28803C6.08877 1.09155 5.87285 0.982389 5.67853 1.00422C5.48421 1.04788 5.33308 1.22253 5.33308 1.419V13.0983C4.87967 12.6617 4.25353 12.3997 3.58421 12.3997C2.1592 12.3997 0.97168 13.5786 0.97168 15.0412C0.97168 16.482 2.13761 17.6827 3.58421 17.6827C5.00922 17.6827 6.19673 16.5038 6.19673 15.0412V2.92531C6.84446 3.75486 7.75128 4.73723 8.6797 5.43581C8.76606 5.5013 8.87403 5.58862 8.98198 5.65411C9.97517 6.39635 11.2059 7.31323 11.0115 8.92868C10.7956 10.6315 8.7013 11.1554 8.65811 11.1772C8.42061 11.2427 8.29107 11.461 8.33425 11.7011C8.39902 11.9413 8.61492 12.0723 8.85243 12.0286C8.96038 11.9849 11.5513 11.33 11.8536 9.03783ZM3.58421 16.8095C2.61261 16.8095 1.83532 16.0236 1.83532 15.0412C1.83532 14.0588 2.61261 13.2729 3.58421 13.2729C4.55581 13.2729 5.33308 14.0588 5.33308 15.0412C5.33308 16.0017 4.55581 16.8095 3.58421 16.8095Z" fill="#FFA4E7"/>
<path d="M24.571 5.80664C24.4415 5.80664 24.312 5.82847 24.1824 5.8503L13.9914 8.81925C13.3869 8.9939 12.9766 9.56148 12.9766 10.1727V18.8394C12.7175 18.7739 12.4584 18.7521 12.1994 18.7521C10.2346 18.7521 8.61523 20.3676 8.61523 22.376C8.61523 24.3844 10.213 25.9998 12.1994 25.9998C14.1641 25.9998 15.7835 24.3844 15.7835 22.376V14.4733L23.1676 12.2685V16.0451C22.9085 15.9796 22.6494 15.9578 22.3904 15.9578C20.4256 15.9578 18.8062 17.5733 18.8062 19.5817C18.8062 21.5901 20.404 23.2055 22.3904 23.2055C24.3767 23.2055 25.9745 21.5901 25.9745 19.5817V7.22562C25.9745 6.78901 25.7586 6.35241 25.4131 6.09045C25.1756 5.89397 24.8949 5.80664 24.571 5.80664ZM15.7835 11.2424L23.1676 9.10305V9.32135L15.7835 11.5262V11.2424ZM22.4119 20.3457C21.9801 20.3457 21.6347 19.9964 21.6347 19.5598C21.6347 19.1232 21.9801 18.7739 22.4119 18.7739C22.8438 18.7739 23.1892 19.1232 23.1892 19.5598C23.1892 19.9964 22.8222 20.3457 22.4119 20.3457ZM12.221 23.1618C11.7891 23.1618 11.4437 22.8126 11.4437 22.376C11.4437 21.9393 11.7891 21.5901 12.221 21.5901C12.6528 21.5901 12.9982 21.9393 12.9982 22.376C12.9982 22.8126 12.6312 23.1618 12.221 23.1618Z" fill="#7901B2"/>
<path d="M24.5707 6.04688C24.4628 6.04688 24.3548 6.06871 24.2469 6.09054L14.0559 9.05947C13.5593 9.21229 13.2138 9.67073 13.2138 10.1947V19.1888C12.89 19.0797 12.5445 19.036 12.199 19.036C10.3638 19.036 8.87402 20.5423 8.87402 22.3979C8.87402 24.2535 10.3638 25.7598 12.199 25.7598C14.0343 25.7598 15.5241 24.2535 15.5241 22.3979V14.3206L23.4048 11.9629V16.3727C23.081 16.2635 22.7355 16.2199 22.39 16.2199C20.5548 16.2199 19.065 17.7262 19.065 19.5818C19.065 21.4373 20.5548 22.9436 22.39 22.9436C24.2253 22.9436 25.7151 21.4373 25.7151 19.5818V7.22571C25.7151 6.85459 25.5423 6.50531 25.2617 6.287C25.0889 6.13419 24.8298 6.04688 24.5707 6.04688ZM15.5457 11.0679L23.4264 8.77568V9.49608L15.5457 11.8538V11.0679ZM22.4116 20.6078C21.8503 20.6078 21.3969 20.1493 21.3969 19.5818C21.3969 19.0142 21.8503 18.5557 22.4116 18.5557C22.973 18.5557 23.4264 19.0142 23.4264 19.5818C23.4264 20.1493 22.973 20.6078 22.4116 20.6078ZM12.2206 23.4021C11.6593 23.4021 11.2059 22.9436 11.2059 22.376C11.2059 21.8085 11.6593 21.35 12.2206 21.35C12.782 21.35 13.2354 21.8085 13.2354 22.376C13.2354 22.9436 12.7604 23.4021 12.2206 23.4021Z" fill="#9601A5"/>
<path d="M24.5705 6.2876C24.4842 6.2876 24.3978 6.30943 24.3115 6.33126L14.1205 9.3002C13.7318 9.40935 13.4511 9.78047 13.4511 10.1953V19.5387C13.0625 19.364 12.6307 19.2549 12.1989 19.2549C10.4932 19.2549 9.11133 20.652 9.11133 22.3766C9.11133 24.1012 10.4932 25.4984 12.1989 25.4984C13.9045 25.4984 15.2864 24.1012 15.2864 22.3766V14.1029L23.6421 11.5924V16.7007C23.2535 16.5261 22.8217 16.4169 22.3898 16.4169C20.6841 16.4169 19.3023 17.8141 19.3023 19.5387C19.3023 21.2633 20.6841 22.6604 22.3898 22.6604C24.0955 22.6604 25.4774 21.2633 25.4774 19.5387V7.18265C25.4774 6.89886 25.3478 6.61506 25.1103 6.44041C24.9808 6.35309 24.7864 6.2876 24.5705 6.2876ZM15.308 10.872L23.6637 8.44882V9.69315L15.308 12.2037V10.872ZM22.4114 20.8485C21.7205 20.8485 21.1592 20.2809 21.1592 19.5823C21.1592 18.8838 21.7205 18.3162 22.4114 18.3162C23.1023 18.3162 23.6637 18.8838 23.6637 19.5823C23.6637 20.2809 23.1023 20.8485 22.4114 20.8485ZM12.2204 23.6646C11.5295 23.6646 10.9682 23.097 10.9682 22.3985C10.9682 21.6999 11.5295 21.1323 12.2204 21.1323C12.9114 21.1323 13.4727 21.6999 13.4727 22.3985C13.4727 23.0752 12.9114 23.6646 12.2204 23.6646Z" fill="#C80289"/>
<path d="M24.5714 6.52734C24.5067 6.52734 24.4419 6.52734 24.3771 6.54917L14.1861 9.5181C13.9054 9.60543 13.6895 9.86739 13.6895 10.173V19.9312C13.2361 19.6474 12.7179 19.4946 12.1782 19.4946C10.602 19.4946 9.32812 20.7826 9.32812 22.3762C9.32812 23.9699 10.602 25.2579 12.1782 25.2579C13.7543 25.2579 15.0282 23.9699 15.0282 22.3762V13.9279L23.8805 11.2645V17.1151C23.4271 16.8313 22.9089 16.6785 22.3691 16.6785C20.793 16.6785 19.5191 17.9665 19.5191 19.5601C19.5191 21.1537 20.793 22.4417 22.3691 22.4417C23.9453 22.4417 25.2192 21.1537 25.2192 19.5601V7.20408C25.2192 6.98578 25.1112 6.7893 24.9601 6.65832C24.8737 6.59283 24.7226 6.52734 24.5714 6.52734ZM15.0498 10.697L23.9021 8.12096V9.8674L15.0498 12.5307V10.697ZM22.4123 21.0882C21.5919 21.0882 20.9009 20.4115 20.9009 19.5601C20.9009 18.7305 21.5703 18.032 22.4123 18.032C23.2328 18.032 23.9237 18.7087 23.9237 19.5601C23.9021 20.4115 23.2328 21.0882 22.4123 21.0882ZM12.2213 23.9044C11.4009 23.9044 10.71 23.2276 10.71 22.3762C10.71 21.5249 11.3793 20.8481 12.2213 20.8481C13.0418 20.8481 13.7327 21.5249 13.7327 22.3762C13.7327 23.2276 13.0418 23.9044 12.2213 23.9044Z" fill="#EA60CD"/>
<path d="M24.8301 6.87638C24.7222 6.78906 24.5926 6.76723 24.4631 6.81089L14.2721 9.77983C14.0994 9.82349 13.9698 9.99814 13.9698 10.1946V20.4549C13.5164 20.0183 12.8903 19.7563 12.2209 19.7563C10.7959 19.7563 9.6084 20.9352 9.6084 22.3978C9.6084 23.8386 10.7743 25.0393 12.2209 25.0393C13.6459 25.0393 14.8334 23.8605 14.8334 22.3978V13.753L24.1824 10.9587V17.6388C23.729 17.2022 23.1028 16.9402 22.4335 16.9402C21.0085 16.9402 19.821 18.1191 19.821 19.5817C19.821 21.0225 20.9869 22.2232 22.4335 22.2232C23.8585 22.2232 25.046 21.0443 25.046 19.5817V7.22566C25.0028 7.07285 24.9381 6.94187 24.8301 6.87638ZM12.2209 24.1443C11.2493 24.1443 10.472 23.3584 10.472 22.376C10.472 21.3936 11.2493 20.6077 12.2209 20.6077C13.1925 20.6077 13.9698 21.3936 13.9698 22.376C13.9698 23.3584 13.1709 24.1443 12.2209 24.1443ZM14.8119 12.8361V10.5002L24.1608 7.79326V10.0418L14.8119 12.8361ZM22.4119 21.35C21.4403 21.35 20.663 20.5641 20.663 19.5817C20.663 18.5993 21.4403 17.8134 22.4119 17.8134C23.3835 17.8134 24.1608 18.5993 24.1608 19.5817C24.1608 20.5422 23.3619 21.35 22.4119 21.35Z" fill="#FFA4E7"/>
</svg>
