<svg width="43" height="52" fill="none" xmlns="http://www.w3.org/2000/svg"><g filter="url(#a)" clip-rule="evenodd"><path fill-rule="evenodd" d="M25.6 8.353a.909.909 0 0 0-.902.915c0 .5.4.915.902.915a.909.909 0 0 0 .902-.915c0-.5-.398-.915-.902-.915Zm-3.198.915C22.402 7.458 23.84 6 25.6 6 27.362 6 28.8 7.458 28.8 9.268c0 1.81-1.437 3.268-3.199 3.268-1.761 0-3.198-1.458-3.198-3.268Zm.924 7.212a1.13 1.13 0 0 1 1.034.32l5.96 6.08 5.893 2.003c.602.205.928.87.728 1.488-.2.616-.85.95-1.451.746l-6.15-2.092a1.145 1.145 0 0 1-.45-.283l-4.574-4.667-1.568 9.595 7.64 5.845c.29.222.461.571.461.943v8.366c0 .65-.514 1.176-1.148 1.176-.634 0-1.148-.527-1.148-1.176v-7.777l-7.74-5.921a1.19 1.19 0 0 1-.445-1.137l1.775-10.868-7.696 1.57V26c0 .65-.514 1.176-1.148 1.176-.634 0-1.148-.526-1.148-1.176v-6.274c0-.562.387-1.045.924-1.154l10.251-2.092Zm-3.873 17.88c.566.292.795 1 .51 1.58l-1.538 3.137a1.14 1.14 0 0 1-1.25.626L6.925 37.61c-.623-.127-1.026-.746-.903-1.383a1.15 1.15 0 0 1 1.35-.924l9.394 1.916 1.145-2.336c.285-.58.975-.815 1.541-.523Z" fill="#B923FF"/><path d="M25.6 8.353a.909.909 0 0 0-.902.915c0 .5.4.915.902.915a.909.909 0 0 0 .902-.915c0-.5-.398-.915-.902-.915Zm-3.198.915C22.402 7.458 23.84 6 25.6 6 27.362 6 28.8 7.458 28.8 9.268c0 1.81-1.437 3.268-3.199 3.268-1.761 0-3.198-1.458-3.198-3.268Zm.924 7.212a1.13 1.13 0 0 1 1.034.32l5.96 6.08 5.893 2.003c.602.205.928.87.728 1.488-.2.616-.85.95-1.451.746l-6.15-2.092a1.145 1.145 0 0 1-.45-.283l-4.574-4.667-1.568 9.595 7.64 5.845c.29.222.461.571.461.943v8.366c0 .65-.514 1.176-1.148 1.176-.634 0-1.148-.527-1.148-1.176v-7.777l-7.74-5.921a1.19 1.19 0 0 1-.445-1.137l1.775-10.868-7.696 1.57V26c0 .65-.514 1.176-1.148 1.176-.634 0-1.148-.526-1.148-1.176v-6.274c0-.562.387-1.045.924-1.154l10.251-2.092Zm-3.873 17.88c.566.292.795 1 .51 1.58l-1.538 3.137a1.14 1.14 0 0 1-1.25.626L6.925 37.61c-.623-.127-1.026-.746-.903-1.383a1.15 1.15 0 0 1 1.35-.924l9.394 1.916 1.145-2.336c.285-.58.975-.815 1.541-.523Z" stroke="#8808D7" stroke-width=".5"/></g><defs><filter id="a" x=".75" y=".75" width="41.5" height="50.5" filterUnits="userSpaceOnUse" color-interpolation-filters="sRGB"><feFlood flood-opacity="0" result="BackgroundImageFix"/><feColorMatrix in="SourceAlpha" values="0 0 0 0 0 0 0 0 0 0 0 0 0 0 0 0 0 0 127 0" result="hardAlpha"/><feOffset/><feGaussianBlur stdDeviation="2.5"/><feComposite in2="hardAlpha" operator="out"/><feColorMatrix values="0 0 0 0 1 0 0 0 0 0 0 0 0 0 0.84 0 0 0 1 0"/><feBlend in2="BackgroundImageFix" result="effect1_dropShadow_929_26458"/><feBlend in="SourceGraphic" in2="effect1_dropShadow_929_26458" result="shape"/></filter></defs></svg>