<svg width="45" height="45" fill="none" xmlns="http://www.w3.org/2000/svg"><g filter="url(#a)" clip-rule="evenodd"><path fill-rule="evenodd" d="M25.13 7.163a9.75 9.75 0 1 1 3.171 18.23L13.656 38.207a4.5 4.5 0 0 1-6.361-6.367l12.811-14.638a9.75 9.75 0 0 1 5.023-10.04Zm-3.907 11.8L8.78 33.182a1.01 1.01 0 0 1-.046.048 2.5 2.5 0 1 0 3.534 3.538l.048-.045L26.54 24.276l-5.317-5.313Zm7.267 4.434a7.75 7.75 0 1 0-6.389-6.383l6.389 6.383Z" fill="#FFD600"/><path d="M25.13 7.163a9.75 9.75 0 1 1 3.171 18.23L13.656 38.207a4.5 4.5 0 0 1-6.361-6.367l12.811-14.638a9.75 9.75 0 0 1 5.023-10.04Zm-3.907 11.8L8.78 33.182a1.01 1.01 0 0 1-.046.048 2.5 2.5 0 1 0 3.534 3.538l.048-.045L26.54 24.276l-5.317-5.313Zm7.267 4.434a7.75 7.75 0 1 0-6.389-6.383l6.389 6.383Z" stroke="#CAFC00" stroke-width=".5"/></g><defs><filter id="a" x=".75" y=".75" width="43.998" height="43.999" filterUnits="userSpaceOnUse" color-interpolation-filters="sRGB"><feFlood flood-opacity="0" result="BackgroundImageFix"/><feColorMatrix in="SourceAlpha" values="0 0 0 0 0 0 0 0 0 0 0 0 0 0 0 0 0 0 127 0" result="hardAlpha"/><feOffset/><feGaussianBlur stdDeviation="2.5"/><feComposite in2="hardAlpha" operator="out"/><feColorMatrix values="0 0 0 0 0.843137 0 0 0 0 0.70949 0 0 0 0 0.00784314 0 0 0 1 0"/><feBlend in2="BackgroundImageFix" result="effect1_dropShadow_929_26448"/><feBlend in="SourceGraphic" in2="effect1_dropShadow_929_26448" result="shape"/></filter></defs></svg>