<svg width="45" height="45" viewBox="0 0 45 45" fill="none" xmlns="http://www.w3.org/2000/svg">
<g filter="url(#filter0_d_929_26448)">
<path fill-rule="evenodd" clip-rule="evenodd" d="M25.1292 7.16321C26.9748 6.17056 29.0911 5.79898 31.1645 6.10352C33.2378 6.40805 35.1579 7.37252 36.6401 8.85395C38.1223 10.3354 39.0877 12.255 39.3933 14.3282C39.6989 16.4014 39.3284 18.5179 38.3367 20.364C37.345 22.2101 35.7849 23.6875 33.8876 24.5774C32.1432 25.3955 30.199 25.6769 28.301 25.3921L13.6555 38.2077C12.8136 39.0357 11.6795 39.5 10.4977 39.4994C9.90674 39.499 9.32163 39.3823 8.77578 39.1559C8.22992 38.9295 7.73401 38.5977 7.31636 38.1796C6.89871 37.7615 6.5675 37.2653 6.34164 36.7192C6.11578 36.1731 5.99969 35.5878 6 34.9969C6.00063 33.8153 6.46596 32.6818 7.29465 31.8408L20.1064 17.2027C19.8204 15.3044 20.1007 13.3597 20.9181 11.6145C21.807 9.71672 23.2836 8.15585 25.1292 7.16321ZM21.2231 18.9635L8.77895 33.1816C8.76425 33.1984 8.74899 33.2147 8.7332 33.2305C8.26409 33.6991 8.00035 34.3349 8 34.9979C7.99983 35.3263 8.06432 35.6514 8.1898 35.9548C8.31528 36.2582 8.49929 36.5339 8.73132 36.7662C8.96335 36.9984 9.23886 37.1827 9.54212 37.3085C9.84538 37.4343 10.1705 37.4992 10.4988 37.4994C11.1618 37.4997 11.7979 37.2367 12.267 36.768C12.2826 36.7525 12.2986 36.7375 12.3152 36.723L26.5395 24.2759L21.2231 18.9635ZM28.4897 23.3973C30.0326 23.651 31.6187 23.4325 33.0384 22.7666C34.5465 22.0593 35.7866 20.8849 36.5749 19.4175C37.3631 17.9501 37.6576 16.2678 37.4147 14.6198C37.1718 12.9719 36.4044 11.4461 35.2262 10.2685C34.0481 9.09098 32.5219 8.32435 30.8738 8.08228C29.2258 7.84021 27.5436 8.13558 26.0766 8.9246C24.6096 9.71363 23.4358 10.9543 22.7293 12.4628C22.0639 13.8835 21.8462 15.4704 22.1013 17.0137L28.4897 23.3973Z" fill="#FFD600"/>
<path fill-rule="evenodd" clip-rule="evenodd" d="M25.1292 7.16321C26.9748 6.17056 29.0911 5.79898 31.1645 6.10352C33.2378 6.40805 35.1579 7.37252 36.6401 8.85395C38.1223 10.3354 39.0877 12.255 39.3933 14.3282C39.6989 16.4014 39.3284 18.5179 38.3367 20.364C37.345 22.2101 35.7849 23.6875 33.8876 24.5774C32.1432 25.3955 30.199 25.6769 28.301 25.3921L13.6555 38.2077C12.8136 39.0357 11.6795 39.5 10.4977 39.4994C9.90674 39.499 9.32163 39.3823 8.77578 39.1559C8.22992 38.9295 7.73401 38.5977 7.31636 38.1796C6.89871 37.7615 6.5675 37.2653 6.34164 36.7192C6.11578 36.1731 5.99969 35.5878 6 34.9969C6.00063 33.8153 6.46596 32.6818 7.29465 31.8408L20.1064 17.2027C19.8204 15.3044 20.1007 13.3597 20.9181 11.6145C21.807 9.71672 23.2836 8.15585 25.1292 7.16321ZM21.2231 18.9635L8.77895 33.1816C8.76425 33.1984 8.74899 33.2147 8.7332 33.2305C8.26409 33.6991 8.00035 34.3349 8 34.9979C7.99983 35.3263 8.06432 35.6514 8.1898 35.9548C8.31528 36.2582 8.49929 36.5339 8.73132 36.7662C8.96335 36.9984 9.23886 37.1827 9.54212 37.3085C9.84538 37.4343 10.1705 37.4992 10.4988 37.4994C11.1618 37.4997 11.7979 37.2367 12.267 36.768C12.2826 36.7525 12.2986 36.7375 12.3152 36.723L26.5395 24.2759L21.2231 18.9635ZM28.4897 23.3973C30.0326 23.651 31.6187 23.4325 33.0384 22.7666C34.5465 22.0593 35.7866 20.8849 36.5749 19.4175C37.3631 17.9501 37.6576 16.2678 37.4147 14.6198C37.1718 12.9719 36.4044 11.4461 35.2262 10.2685C34.0481 9.09098 32.5219 8.32435 30.8738 8.08228C29.2258 7.84021 27.5436 8.13558 26.0766 8.9246C24.6096 9.71363 23.4358 10.9543 22.7293 12.4628C22.0639 13.8835 21.8462 15.4704 22.1013 17.0137L28.4897 23.3973Z" stroke="#CAFC00" stroke-width="0.5"/>
</g>
<defs>
<filter id="filter0_d_929_26448" x="0.75" y="0.75" width="43.9976" height="43.9995" filterUnits="userSpaceOnUse" color-interpolation-filters="sRGB">
<feFlood flood-opacity="0" result="BackgroundImageFix"/>
<feColorMatrix in="SourceAlpha" type="matrix" values="0 0 0 0 0 0 0 0 0 0 0 0 0 0 0 0 0 0 127 0" result="hardAlpha"/>
<feOffset/>
<feGaussianBlur stdDeviation="2.5"/>
<feComposite in2="hardAlpha" operator="out"/>
<feColorMatrix type="matrix" values="0 0 0 0 0.843137 0 0 0 0 0.70949 0 0 0 0 0.00784314 0 0 0 1 0"/>
<feBlend mode="normal" in2="BackgroundImageFix" result="effect1_dropShadow_929_26448"/>
<feBlend mode="normal" in="SourceGraphic" in2="effect1_dropShadow_929_26448" result="shape"/>
</filter>
</defs>
</svg>
