<svg width="26" height="20" viewBox="0 0 26 20" fill="none" xmlns="http://www.w3.org/2000/svg">
<path d="M24.6452 11.2481H20.6996C20.4164 9.69348 19.688 8.2616 18.5953 7.13654C18.8179 7.09563 19.0203 6.99336 19.1821 6.82971L20.821 5.17281C21.0234 4.96825 21.1448 4.68188 21.1448 4.3955C21.1448 4.10913 21.0234 3.82275 20.821 3.6182C20.6187 3.41364 20.3354 3.29091 20.0521 3.29091C19.7689 3.29091 19.4856 3.41364 19.2833 3.6182L17.6444 5.27509C17.442 5.47964 17.3206 5.76603 17.3206 6.0524C17.3206 6.07286 17.3206 6.07285 17.3206 6.09331C16.2887 5.41827 15.1152 4.98871 13.8809 4.86598C14.0428 4.68188 14.144 4.41596 14.144 4.15003V1.49082C14.144 0.877155 13.6584 0.38623 13.0514 0.38623C12.4444 0.38623 11.9588 0.877155 11.9588 1.49082V4.15003C11.9588 4.43641 12.0599 4.68188 12.2218 4.86598C10.9673 5.00916 9.79379 5.43874 8.78212 6.11377C8.78212 6.09331 8.78212 6.09331 8.78212 6.07286C8.78212 5.78648 8.66072 5.5001 8.45839 5.29555L6.81948 3.63865C6.61715 3.43409 6.33387 3.31136 6.0506 3.31136C5.76733 3.31136 5.48405 3.43409 5.28172 3.63865C5.07938 3.8432 4.95799 4.12959 4.95799 4.41597C4.95799 4.70234 5.07938 4.98872 5.28172 5.19327L6.92065 6.85016C7.08252 7.01381 7.28485 7.11608 7.52765 7.15699C6.55645 8.13886 5.84827 9.38665 5.52454 10.7572C5.3222 10.5117 5.03894 10.3685 4.69497 10.3685H3.15721C2.5502 10.3685 2.06462 10.8594 2.06462 11.4731C2.06462 12.0868 2.5502 12.5777 3.15721 12.5777H4.69497C4.91754 12.5777 5.11987 12.5163 5.30197 12.3936C5.30197 12.4959 5.30197 12.5777 5.30197 12.68C5.30197 12.7004 5.30197 12.7004 5.30197 12.7209H1.29574C0.688733 12.7209 0.203125 13.2118 0.203125 13.8255C0.203125 14.4392 0.688733 14.9301 1.29574 14.9301H6.41481C6.43505 14.9301 6.45526 14.9301 6.4755 14.9301C6.49573 14.9301 6.51597 14.9301 6.53621 14.9301H6.75877C7.83114 14.9301 8.74166 15.0733 9.65217 15.3597C8.84283 16.1983 8.19535 17.1393 7.75022 18.162C7.62882 18.428 7.62882 18.7348 7.72999 19.0007C7.83115 19.2667 8.03347 19.4917 8.29651 19.6144C8.43814 19.6758 8.57979 19.7167 8.74166 19.7167C9.16656 19.7167 9.57121 19.4507 9.73308 19.0621C11.4125 15.1756 16.572 13.4982 18.8381 13.4982H24.6047C25.2117 13.4982 25.6973 13.0073 25.6973 12.3936C25.6973 11.7799 25.2522 11.2481 24.6452 11.2481ZM13.1323 12.8232C12.6062 13.0891 12.0802 13.3959 11.6148 13.7232C10.7448 13.3141 9.38912 12.8232 7.48717 12.7209C7.48717 12.7004 7.48717 12.68 7.48717 12.6595C7.48717 9.55029 9.99612 7.0138 13.0716 7.0138C15.6817 7.0138 17.8669 8.75253 18.4942 11.2686C17.179 11.3299 15.1759 11.7799 13.1323 12.8232Z" fill="#DA2B2B"/>
<path d="M13.0708 0.365573C13.6778 0.365573 14.1634 0.85651 14.1634 1.47017V4.12939C14.1634 4.41577 14.0623 4.66123 13.9004 4.84533C15.1346 4.96806 16.3082 5.39763 17.3401 6.07266C17.3401 6.05221 17.3401 6.0522 17.3401 6.03175C17.3401 5.74537 17.4615 5.459 17.6638 5.25444L19.3027 3.59755C19.5051 3.393 19.7883 3.27026 20.0716 3.27026C20.3549 3.27026 20.6381 3.393 20.8405 3.59755C21.0428 3.80211 21.1642 4.08848 21.1642 4.37486C21.1642 4.66123 21.0428 4.94761 20.8405 5.15216L19.2016 6.80905C19.0397 6.9727 18.8374 7.07498 18.6148 7.11589C19.7074 8.24094 20.456 9.67283 20.7191 11.2274H24.6646C25.2716 11.2274 25.7572 11.7184 25.7572 12.332C25.7572 12.9457 25.2716 13.4366 24.6646 13.4366H18.8981C16.6319 13.4366 11.4724 15.114 9.793 19.0005C9.6109 19.3892 9.22646 19.6551 8.80156 19.6551C8.65992 19.6551 8.49806 19.6142 8.35643 19.5528C8.0934 19.4301 7.89105 19.2255 7.78988 18.9392C7.68872 18.6528 7.68871 18.3664 7.81011 18.1005C8.25525 17.0982 8.88249 16.1572 9.71206 15.2981C8.80156 14.9913 7.89107 14.8685 6.81869 14.8685H6.5961C6.57587 14.8685 6.55565 14.8685 6.53542 14.8685C6.51518 14.8685 6.49494 14.8685 6.47471 14.8685H1.29495C0.687943 14.8685 0.202335 14.3776 0.202335 13.7639C0.202335 13.1503 0.687943 12.6593 1.29495 12.6593H5.30118C5.30118 12.6389 5.30118 12.6184 5.30118 12.6184C5.30118 12.5161 5.30118 12.4343 5.30118 12.332C5.13931 12.4548 4.91675 12.5161 4.69418 12.5161H3.15642C2.54941 12.5161 2.06383 12.0252 2.06383 11.4115C2.06383 10.7979 2.54941 10.307 3.15642 10.307H4.69418C5.01791 10.307 5.32141 10.4501 5.52375 10.6956C5.86771 9.30462 6.57589 8.0773 7.52686 7.09544C7.3043 7.05452 7.10196 6.95225 6.91986 6.7886L5.28093 5.13171C5.07859 4.92716 4.9572 4.64077 4.9572 4.35439C4.9572 4.06802 5.07859 3.78164 5.28093 3.57709C5.48326 3.37253 5.76654 3.24981 6.04981 3.24981C6.33308 3.24981 6.61636 3.37253 6.81869 3.57709L8.4576 5.23399C8.65993 5.43855 8.78133 5.72492 8.78133 6.0113C8.78133 6.03175 8.78133 6.03175 8.78133 6.05221C9.793 5.37718 10.9665 4.92715 12.221 4.80442C12.0591 4.62032 11.958 4.3544 11.958 4.08848V1.42926C11.9782 0.856507 12.4638 0.365573 13.0708 0.365573ZM11.5938 13.723C12.0794 13.3957 12.5852 13.0889 13.1113 12.823C15.1751 11.7797 17.1782 11.3297 18.4732 11.2479C17.8662 8.73187 15.6607 6.99316 13.0506 6.99316C9.9751 6.99316 7.46615 9.52963 7.46615 12.6389C7.46615 12.6593 7.46615 12.6798 7.46615 12.7002C9.38833 12.8025 10.7237 13.3139 11.5938 13.723ZM13.0708 0.120117C12.3424 0.120117 11.7556 0.713327 11.7556 1.44972V4.10894C11.7556 4.29304 11.7961 4.47713 11.8771 4.66123C10.8654 4.82487 9.89416 5.17262 9.00389 5.70446C8.94319 5.47945 8.8218 5.27489 8.65993 5.11125L7.02103 3.45436C6.77822 3.20889 6.43424 3.0657 6.09027 3.0657C5.7463 3.0657 5.40233 3.20889 5.15953 3.45436C4.91673 3.69983 4.77509 4.04756 4.77509 4.39531C4.77509 4.74305 4.91673 5.0908 5.15953 5.33627L6.79844 6.99316C6.89961 7.09544 7.02102 7.17726 7.14242 7.23863C6.35332 8.13867 5.76655 9.18189 5.42258 10.3274C5.22024 10.2047 4.97744 10.1228 4.71441 10.1228H3.17667C2.44826 10.1228 1.86149 10.7161 1.86149 11.4525C1.86149 11.8616 2.04358 12.2093 2.32685 12.4548H1.31518C0.58677 12.4548 0 13.048 0 13.7844C0 14.5208 0.58677 15.114 1.31518 15.114H6.43425C6.45448 15.114 6.47472 15.114 6.51519 15.114C6.53542 15.114 6.55564 15.114 6.5961 15.114H6.81869C7.7292 15.114 8.51829 15.2163 9.30739 15.4413C8.59922 16.239 8.0327 17.0982 7.62803 18.0187C7.4864 18.346 7.48638 18.7142 7.60778 19.0415C7.72918 19.3687 7.99222 19.6347 8.29572 19.7778C8.45759 19.8597 8.63968 19.8801 8.82178 19.8801C9.34785 19.8801 9.81323 19.5733 10.0156 19.0823C11.6545 15.2981 16.7128 13.6616 18.9183 13.6616H24.6848C25.4132 13.6616 26 13.0684 26 12.332C26 11.5956 25.4132 11.0024 24.6848 11.0024H20.9214C20.6381 9.591 19.9907 8.30231 19.0397 7.21816C19.1611 7.1568 19.2825 7.07499 19.3634 6.97271L21.0023 5.31581C21.2451 5.07034 21.3868 4.7226 21.3868 4.37486C21.3868 4.02711 21.2451 3.67936 21.0023 3.4339C20.7595 3.18843 20.4156 3.04525 20.0716 3.04525C19.7276 3.04525 19.3837 3.18843 19.1409 3.4339L17.5019 5.0908C17.3401 5.25444 17.2187 5.45899 17.158 5.684C16.2677 5.15216 15.2965 4.80442 14.2848 4.64078C14.3658 4.47713 14.4062 4.29304 14.4062 4.10894V1.44972C14.3658 0.713327 13.779 0.120117 13.0708 0.120117ZM7.70894 12.4957C7.78988 9.57056 10.1572 7.23863 13.0708 7.23863C15.4988 7.23863 17.5222 8.77279 18.1899 11.0638C16.5914 11.207 14.6895 11.7797 13.0304 12.6389C12.5245 12.8843 12.0389 13.1707 11.5938 13.4776C10.744 13.0889 9.48949 12.6184 7.70894 12.4957Z" fill="#961B1E"/>
<path d="M13.071 5.02979C8.92311 5.02979 5.54413 8.44584 5.54413 12.6392C5.54413 12.721 5.54413 12.8233 5.54413 12.9256H1.29511C0.829738 12.9256 0.445312 13.3143 0.445312 13.7847C0.445312 14.2552 0.829738 14.6439 1.29511 14.6439H6.43441C6.45464 14.6439 6.47486 14.6439 6.4951 14.6439C6.51533 14.6439 6.53557 14.6439 6.55581 14.6439H6.7986C8.01261 14.6439 9.06475 14.828 10.1169 15.2166C9.18615 16.1167 8.47798 17.119 8.01261 18.2031C7.91144 18.4077 7.91144 18.6531 7.99238 18.8577C8.07331 19.0827 8.23519 19.2463 8.43753 19.3282C8.5387 19.3691 8.66009 19.41 8.78149 19.41C9.12546 19.41 9.42896 19.2054 9.5706 18.8986C11.2904 14.9302 16.5714 13.212 18.878 13.212H24.6445C25.1099 13.212 25.4943 12.8233 25.4943 12.3529C25.4943 11.8824 25.1099 11.4937 24.6445 11.4937H20.4967C20.2336 9.77546 19.404 8.20038 18.1293 7.03442C16.7535 5.72527 14.9527 5.02979 13.071 5.02979ZM7.26398 12.9256C7.26398 12.8233 7.26398 12.7415 7.26398 12.6392C7.26398 9.40725 9.87408 6.7685 13.071 6.7685C15.8834 6.7685 18.2305 8.73223 18.7768 11.4733C17.5628 11.4937 15.4383 11.9233 13.2328 13.0279C12.6663 13.3143 12.12 13.6415 11.6344 13.9893C10.7037 13.5597 9.26709 13.0074 7.26398 12.9256Z" fill="#F26764"/>
<path d="M13.0711 5.25439C9.04461 5.25439 5.76679 8.56818 5.76679 12.6388C5.76679 12.8025 5.76679 12.9661 5.78702 13.1502H1.2952C0.951232 13.1502 0.667969 13.4366 0.667969 13.7843C0.667969 14.1321 0.951232 14.4185 1.2952 14.4185H6.4345C6.45474 14.4185 6.45473 14.4185 6.47496 14.4185C6.4952 14.4185 6.49521 14.4185 6.51544 14.4185H6.75824C8.13411 14.4185 9.30765 14.6435 10.5014 15.1344C9.46952 16.0753 8.68041 17.139 8.17458 18.2845C8.11388 18.4482 8.09365 18.6118 8.15435 18.7755C8.21505 18.9391 8.33645 19.0618 8.47808 19.1232C8.55901 19.1641 8.63994 19.1846 8.72087 19.1846C8.96367 19.1846 9.18625 19.0414 9.28742 18.7959C11.068 14.7253 16.4501 12.9661 18.8174 12.9661H24.5839C24.9279 12.9661 25.2111 12.6797 25.2111 12.332C25.2111 11.9842 24.9279 11.6979 24.5839 11.6979H20.3147C20.0921 9.95916 19.2827 8.34318 17.9878 7.17722C16.6322 5.94989 14.8921 5.25439 13.0711 5.25439ZM7.04151 13.1502C7.02128 12.9866 7.02128 12.8025 7.02128 12.6388C7.02128 9.26367 9.73254 6.52264 13.0711 6.52264C16.0656 6.52264 18.5948 8.73183 19.0399 11.6979H18.8781C17.7045 11.6979 15.5598 12.107 13.3341 13.232C12.7473 13.5389 12.1606 13.8662 11.6547 14.2548C10.6633 13.7843 9.16602 13.1911 7.04151 13.1502Z" fill="#F7B1AE"/>
<path d="M24.6447 11.9435H20.1124C19.7684 8.3024 16.7334 5.5 13.0712 5.5C9.1661 5.5 5.98945 8.71151 5.98945 12.6594C5.98945 12.9049 6.0097 13.1503 6.02993 13.3958H1.29529C1.07273 13.3958 0.890625 13.5799 0.890625 13.8049C0.890625 14.0299 1.07273 14.214 1.29529 14.214H6.45483H6.47506C6.49529 14.214 6.4953 14.214 6.51554 14.214H6.77856C8.29607 14.214 9.591 14.48 10.9466 15.0936C9.95521 15.9323 9.00423 17.0369 8.41746 18.4074C8.33653 18.612 8.41746 18.8574 8.6198 18.9393C8.6805 18.9597 8.72097 18.9802 8.78168 18.9802C8.94354 18.9802 9.08519 18.8983 9.14589 18.7347C10.9669 14.5618 16.4704 12.7617 18.8782 12.7617H24.6447C24.8673 12.7617 25.0494 12.5776 25.0494 12.3526C25.0494 12.1276 24.8673 11.9435 24.6447 11.9435ZM13.4354 13.4367C12.8891 13.7231 12.2821 14.0708 11.6751 14.5209C10.5622 13.9686 9.02448 13.3958 6.83927 13.3958C6.81903 13.1503 6.79879 12.9049 6.79879 12.6594C6.79879 9.16153 9.61124 6.31822 13.0712 6.31822C16.2883 6.31822 18.9591 8.75242 19.3031 11.9639H18.8782C17.7249 11.9435 15.6206 12.3321 13.4354 13.4367Z" fill="#FEF6F4"/>
<path d="M13.0705 0.590332C12.6051 0.590332 12.2207 0.978989 12.2207 1.44947V4.10868C12.2207 4.57915 12.6051 4.9678 13.0705 4.9678C13.5359 4.9678 13.9203 4.57915 13.9203 4.10868V1.44947C13.9203 0.978989 13.5359 0.590332 13.0705 0.590332Z" fill="#F26764"/>
<path d="M13.0706 0.81543C12.7266 0.81543 12.4434 1.10181 12.4434 1.44956V4.10877C12.4434 4.45651 12.7266 4.74289 13.0706 4.74289C13.4146 4.74289 13.6978 4.45651 13.6978 4.10877V1.44956C13.6978 1.10181 13.4146 0.81543 13.0706 0.81543Z" fill="#F7B1AE"/>
<path d="M13.0707 4.51796C13.2933 4.51796 13.4754 4.33386 13.4754 4.10885V1.44964C13.4754 1.22463 13.2933 1.04053 13.0707 1.04053C12.8481 1.04053 12.666 1.22463 12.666 1.44964V4.10885C12.666 4.33386 12.8481 4.51796 13.0707 4.51796Z" fill="#FEF6F4"/>
<path d="M6.0705 3.51611C5.84793 3.51611 5.62536 3.59794 5.46349 3.76158C5.30163 3.92523 5.2207 4.15024 5.2207 4.37525C5.2207 4.60026 5.30163 4.82527 5.46349 4.98891L7.1024 6.6458C7.26427 6.80944 7.48684 6.89127 7.7094 6.89127C7.93197 6.89127 8.15454 6.80944 8.31641 6.6458C8.47828 6.48216 8.55922 6.25715 8.55922 6.03214C8.55922 5.80713 8.47828 5.58212 8.31641 5.41847L6.6775 3.76158C6.51564 3.59794 6.29307 3.51611 6.0705 3.51611Z" fill="#F26764"/>
<path d="M6.07059 3.74023C5.90872 3.74023 5.74687 3.80161 5.62547 3.92434C5.50406 4.04707 5.44336 4.21072 5.44336 4.37436C5.44336 4.53801 5.50406 4.70165 5.62547 4.82439L7.26437 6.48128C7.38577 6.60401 7.54763 6.66538 7.7095 6.66538C7.87136 6.66538 8.03325 6.60401 8.15465 6.48128C8.27605 6.35854 8.33675 6.1949 8.33675 6.03125C8.33675 5.86761 8.27605 5.70396 8.15465 5.58123L6.51574 3.92434C6.39434 3.82206 6.23246 3.74023 6.07059 3.74023Z" fill="#F7B1AE"/>
<path d="M7.44585 6.33821C7.52679 6.42004 7.62796 6.46095 7.72913 6.46095C7.83029 6.46095 7.93144 6.42004 8.01238 6.33821C8.17424 6.17457 8.17424 5.92911 8.01238 5.76546L6.37347 4.10857C6.2116 3.94493 5.96882 3.94493 5.80695 4.10857C5.64508 4.27222 5.64508 4.51768 5.80695 4.68132L7.44585 6.33821Z" fill="#FEF6F4"/>
<path d="M20.0512 3.51611C19.8286 3.51611 19.6061 3.59794 19.4442 3.76158L17.8053 5.41847C17.6434 5.58212 17.5625 5.80713 17.5625 6.03214C17.5625 6.25715 17.6434 6.48216 17.8053 6.6458C17.9672 6.80944 18.1897 6.89127 18.4123 6.89127C18.6349 6.89127 18.8574 6.80944 19.0193 6.6458L20.6582 4.98891C20.8201 4.82527 20.901 4.60026 20.901 4.37525C20.901 4.15024 20.8201 3.92523 20.6582 3.76158C20.4963 3.59794 20.2738 3.51611 20.0512 3.51611Z" fill="#F26764"/>
<path d="M20.0513 3.74023C19.8894 3.74023 19.7276 3.80161 19.6062 3.92434L17.9673 5.58123C17.8459 5.70396 17.7852 5.86761 17.7852 6.03125C17.7852 6.1949 17.8459 6.35854 17.9673 6.48128C18.0887 6.60401 18.2505 6.66538 18.4124 6.66538C18.5743 6.66538 18.7361 6.60401 18.8575 6.48128L20.4964 4.82439C20.6178 4.70165 20.6786 4.53801 20.6786 4.37436C20.6786 4.21072 20.6178 4.04707 20.4964 3.92434C20.375 3.82206 20.2132 3.74023 20.0513 3.74023Z" fill="#F7B1AE"/>
<path d="M18.4125 6.46095C18.5137 6.46095 18.6148 6.42004 18.6958 6.33821L20.3347 4.68132C20.4965 4.51768 20.4965 4.27222 20.3347 4.10857C20.1728 3.94493 19.93 3.94493 19.7681 4.10857L18.1292 5.76546C17.9673 5.92911 17.9673 6.17457 18.1292 6.33821C18.1899 6.42004 18.3113 6.46095 18.4125 6.46095Z" fill="#FEF6F4"/>
<path d="M4.71373 10.5933H3.17599C2.71062 10.5933 2.32617 10.9819 2.32617 11.4524C2.32617 11.9229 2.71062 12.3115 3.17599 12.3115H4.71373C5.1791 12.3115 5.56353 11.9229 5.56353 11.4524C5.56353 10.9819 5.1791 10.5933 4.71373 10.5933Z" fill="#F26764"/>
<path d="M4.7148 10.8184H3.17706C2.83309 10.8184 2.5498 11.1047 2.5498 11.4525C2.5498 11.8002 2.83309 12.0866 3.17706 12.0866H4.7148C5.05877 12.0866 5.34203 11.8002 5.34203 11.4525C5.34203 11.1047 5.05877 10.8184 4.7148 10.8184Z" fill="#F7B1AE"/>
<path d="M3.17615 11.8622H4.71389C4.93646 11.8622 5.11856 11.6781 5.11856 11.4531C5.11856 11.228 4.93646 11.0439 4.71389 11.0439H3.17615C2.95359 11.0439 2.77148 11.228 2.77148 11.4531C2.77148 11.6781 2.95359 11.8622 3.17615 11.8622Z" fill="#FEF6F4"/>
</svg>
