<svg width="61" height="65" fill="none" xmlns="http://www.w3.org/2000/svg"><path d="m40.936 11.43-1.46 1.156-17.893-8.277-.67-2.678C20.67.657 19.698.049 18.724.292 17.81.535 17.2 1.387 17.383 2.3c-.851-.304-1.886.061-2.25.913-.427.913 0 2.009.912 2.435l2.495 1.156 4.139 16.493-15.337-7.425-.609-2.678c-.243-.974-1.217-1.582-2.19-1.339a1.88 1.88 0 0 0-1.4 2.07c-.852-.305-1.887.06-2.252.912-.426.913-.06 2.009.852 2.435l2.495 1.217 4.504 19.17-1.34 1.096c-.79.609-.912 1.765-.242 2.556.608.791 1.764.913 2.556.243l2.19-1.764 6.147-4.99c.305.547.67 1.156 1.035 1.886L17.2 42.528c-.182.487-.122.974.122 1.46l9.737 17.285c.244.426.609.73 1.035.852l6.938 2.07c.487.12.974.06 1.4-.123a.838.838 0 0 0 .243-.182c.304-.244.487-.548.609-.913l1.947-7.06a1.87 1.87 0 0 0-1.278-2.252 1.87 1.87 0 0 0-2.252 1.279l-1.46 5.233-4.504-1.338-.913-1.644.548-1.582c.122.243.304.548.426.791.487.852 1.582 1.217 2.434.73.122-.06.183-.121.305-.182.67-.548.852-1.522.426-2.252-.244-.426-.426-.791-.67-1.217.73-.122 1.34-.67 1.461-1.46.182-.975-.426-1.948-1.4-2.13l-2.252-.427c-.547-.974-1.095-1.947-1.582-2.86a1.783 1.783 0 0 0 1.339-1.278c.304-.974-.244-1.948-1.217-2.252l-2.374-.73c-.67-1.217-1.278-2.252-1.765-3.226a1.783 1.783 0 0 0 1.34-1.278 1.87 1.87 0 0 0-1.279-2.252l-2.373-.67c-.609-1.095-1.035-1.886-1.4-2.494l1.643-1.34 2.556-2.069 2.435 2.922-.791 5.66c-.061.487.06 1.034.365 1.4l12.537 15.397c.304.365.73.608 1.217.67l6.938.79c.487.061.974-.06 1.339-.365a1.88 1.88 0 0 0 .669-1.217l.73-7.303c.061-.487-.121-.974-.426-1.339L37.772 30.6a1.616 1.616 0 0 0-1.34-.67l-6.268-.304-2.434-2.921 2.373-1.887 2.13-1.765c.487.426 1.218 1.096 2.252 1.948l.122 2.434c.06.974.913 1.765 1.947 1.704.67-.06 1.279-.487 1.522-1.034.852.73 1.765 1.521 2.8 2.373l.182 2.495c.06.974.974 1.765 1.947 1.644.67-.061 1.218-.487 1.522-1.035.791.67 1.582 1.339 2.434 2.13v2.313a1.83 1.83 0 0 0 1.826 1.825c.791 0 1.46-.486 1.704-1.156.365.304.67.609 1.035.913.67.548 1.643.548 2.313 0 .06-.06.182-.122.243-.243.67-.792.548-1.887-.183-2.556-.243-.183-.426-.366-.67-.548l1.705-.183 1.46 1.217.427 4.687-5.417.365a1.838 1.838 0 0 0-1.704 1.947c.06.974.913 1.765 1.948 1.704l7.303-.487c.365 0 .73-.182 1.034-.426.061-.06.183-.121.244-.243.304-.365.487-.852.426-1.339l-.609-7.242c-.06-.487-.243-.913-.608-1.217L44.465 22.019a1.846 1.846 0 0 0-1.4-.426l-6.086.67c-.669-.61-1.277-1.096-1.764-1.522l8.033-6.512c.791-.609.913-1.765.243-2.556-.669-.73-1.825-.852-2.556-.244ZM21.401 41.067c.547.973 1.095 2.008 1.643 3.043-.122.486-.365 1.095-.548 1.825l-1.704-3.043.608-1.825Zm5.05 11.806-1.399-2.556c.122-.426.304-1.034.487-1.765.487.852.974 1.765 1.46 2.617l-.547 1.704Zm23.066-19.84c-.73-.67-1.521-1.278-2.312-1.947.791-.061 1.4-.122 1.826-.122l2.19 1.887-1.703.182Zm-6.938-7.729 2.617 2.313c-.73.06-1.4.122-1.886.182a610.679 610.679 0 0 0-2.617-2.252l1.887-.243Zm-6.268-10.163-1.035.852-7.546-3.408c-.609-.305-1.339-.183-1.887.243a1.748 1.748 0 0 0-.608 1.826L27 22.749l-.67.548L22.68 8.873l13.632 6.269Zm-6.147 5.051-.608-2.8 2.617 1.157-2.009 1.643Zm-21.787.365 13.389 6.451-.73.548-7.547-3.408c-.609-.305-1.34-.183-1.887.243a1.748 1.748 0 0 0-.608 1.826l1.764 8.094-.973.791-3.408-14.545Zm7.546 11.198-.608-2.8 2.617 1.157-2.009 1.643Zm26.778 10.65h-1.886l-2.313-2.799h1.947l2.252 2.8Zm-7.06 1.522.183-1.826 1.948 2.313-.244 1.765-1.886-2.252Zm-5.05-8.155 2.008 2.434-.183 1.765-2.07-2.556.244-1.643Zm15.7 16.371-4.38-.487-1.34-1.643.305-1.887.912 1.157c.609.79 1.765.852 2.556.243.792-.67.852-1.765.244-2.556l-.791-.913h1.826l1.095 1.339-.426 4.747ZM35.52 33.582l1.947 2.373H35.46l-2.07-2.495 2.13.122Z" fill="#000"/><path d="M48.847 55.31c-.305.243-.73.364-1.096.304l-6.938-.791a1.581 1.581 0 0 1-.974-.548L27.303 38.877a1.526 1.526 0 0 1-.304-1.156l.791-5.66c0-.06 0-.182-.06-.243l-2.435-2.922c-.122-.121-.304-.182-.426-.06l-4.2 3.408c-.12.121-.182.243-.06.426.304.608.791 1.4 1.4 2.495l.182.183 2.374.669c.791.243 1.278 1.035 1.034 1.826-.06.304-.243.547-.486.79-.183.123-.365.244-.609.305-.06 0-.122.061-.122.061-.06.061-.06.061-.06.122-.061.121-.061.182 0 .304.547.974 1.095 2.009 1.764 3.226l.183.182 2.373.73c.792.244 1.218 1.035 1.035 1.826-.06.305-.243.548-.487.73-.182.122-.365.244-.608.305-.061 0-.061.06-.122.06-.061.062-.061.062-.061.122-.06.061-.06.183 0 .305l1.582 2.86c.061.061.122.122.244.183l2.252.426c.365.06.73.304.973.608.244.305.305.73.244 1.096-.061.365-.244.67-.548.852-.183.182-.426.243-.67.304-.06 0-.121.061-.121.061-.061 0-.061.06-.061.122-.06.121-.06.182 0 .304l.67 1.217c.364.609.182 1.4-.366 1.887a.84.84 0 0 1-.243.182 1.438 1.438 0 0 1-2.008-.608l-.427-.791a.334.334 0 0 0-.304-.183c-.06 0-.121.061-.182.061l-.122.122-.548 1.582v.243l.913 1.644c.06.06.122.121.183.121l4.503 1.34h.244s.06 0 .06-.062c.061-.06.061-.121.122-.182l1.46-5.234c.062-.304.244-.548.488-.73a1.503 1.503 0 0 1 1.339-.305c.79.244 1.278 1.035 1.034 1.826l-1.947 7.06c-.061.304-.244.547-.487.73-.061.061-.122.122-.244.122-.365.182-.79.243-1.156.122l-6.938-2.07a1.44 1.44 0 0 1-.852-.73l-9.737-17.284a1.672 1.672 0 0 1-.122-1.217l1.886-5.843v-.243c-.425-.73-.73-1.4-1.034-1.887a.841.841 0 0 0-.244-.182c-.121 0-.182 0-.243.06l-8.338 6.756c-.67.548-1.582.426-2.13-.243-.547-.67-.426-1.583.244-2.13l1.339-1.096c.121-.06.121-.183.121-.304L4.724 18.307c0-.122-.061-.183-.183-.243l-2.495-1.218c-.365-.182-.609-.486-.791-.852a1.528 1.528 0 0 1 .06-1.156c.122-.183.244-.365.427-.487.426-.304.973-.426 1.46-.243.122.06.244 0 .305-.061a.465.465 0 0 0 .121-.304 1.546 1.546 0 0 1 .548-1.4c.183-.122.365-.244.609-.304.365-.122.79 0 1.156.182.365.183.548.548.67.913l.608 2.678c0 .121.06.182.183.243l15.336 7.425c.122.06.244.06.365-.06.122-.062.122-.184.122-.305L19.086 6.622c0-.122-.06-.183-.182-.183l-2.495-1.156c-.73-.365-1.096-1.217-.73-2.008.121-.183.243-.365.425-.548.426-.304.974-.426 1.461-.243.122.06.243 0 .304-.061a.465.465 0 0 0 .122-.305 1.546 1.546 0 0 1 .548-1.4c.182-.121.365-.243.547-.304.366-.121.792-.06 1.157.183.365.182.609.548.67.913l.669 2.678c0 .121.06.182.182.182l17.893 8.277c.122.06.243.06.365-.06l1.46-1.157c.61-.548 1.583-.426 2.13.243.548.67.427 1.583-.243 2.13l-8.033 6.512c-.06.061-.122.122-.122.244 0 .121.061.182.122.243.487.426 1.095.913 1.765 1.522.06.06.182.06.243.06l6.086-.669c.426-.06.852.061 1.157.365l14.97 13.024c.305.244.488.609.488.974l.608 7.242c.061.426-.121.791-.365 1.096l-.182.182a1.455 1.455 0 0 1-.852.305l-7.303.486c-.426 0-.792-.121-1.096-.365a1.3 1.3 0 0 1-.487-1.034c-.06-.487.183-.974.548-1.279.243-.182.548-.304.852-.304l5.416-.365c.061 0 .122 0 .183-.06l.06-.062c.062-.06.062-.121.062-.243l-.426-4.686c0-.061-.061-.183-.122-.244l-1.46-1.217c-.062-.06-.183-.06-.244-.06l-1.704.182c-.061 0-.122.06-.183.06-.06.062-.06.122-.122.183-.06.122 0 .244.122.365l.67.548c.608.548.73 1.46.182 2.13l-.182.183a1.552 1.552 0 0 1-1.887 0l-1.035-.913c-.06-.06-.182-.122-.304-.06-.06 0-.06.06-.121.06l-.122.122a2.184 2.184 0 0 1-.426.608 1.122 1.122 0 0 1-.974.304c-.426 0-.791-.182-1.035-.425a1.425 1.425 0 0 1-.426-1.035v-2.313c0-.121-.06-.182-.121-.243l-2.435-2.13c-.06-.061-.182-.061-.304-.061-.06 0-.122.06-.122.06-.06 0-.06.062-.06.123a3.343 3.343 0 0 1-.427.547c-.243.183-.486.304-.79.304-.792.061-1.522-.547-1.583-1.338l-.183-2.496c0-.06-.06-.182-.121-.243-1.035-.913-1.948-1.704-2.8-2.374-.06-.06-.183-.06-.304-.06-.061 0-.122.06-.122.06-.06.061-.06.061-.06.122-.123.183-.244.426-.427.548a1.454 1.454 0 0 1-.852.304c-.852.061-1.521-.608-1.582-1.4l-.122-2.434c0-.06-.06-.182-.122-.243-1.034-.913-1.765-1.522-2.252-1.948a.294.294 0 0 0-.425 0l-4.504 3.652c-.06.06-.122.121-.122.243 0 .06 0 .183.061.244l2.434 2.92c.061.062.122.122.244.122l6.268.305c.426 0 .792.243 1.096.547l12.233 15.033c.243.304.365.67.304 1.095l-.73 7.303c-.366.609-.609.974-.913 1.278Zm-8.155-7.425c-.061.06-.122.121-.122.182l-.304 1.887c0 .06 0 .182.06.243l1.34 1.643c.06.061.121.122.182.122l4.382.487c.06 0 .182 0 .243-.06.061-.062.122-.123.122-.244l.487-4.747c0-.061 0-.183-.061-.244l-1.096-1.339c-.06-.06-.121-.121-.243-.121h-1.826c-.06 0-.122 0-.182.06-.061 0-.061.061-.061.122-.061.122-.061.244.06.365l.792.913c.547.609.426 1.583-.183 2.13-.67.548-1.582.426-2.13-.182l-.913-1.157c-.06-.121-.182-.121-.304-.121-.183 0-.243.06-.243.06Zm-2.435-8.582c-.06.061-.06.061-.06.122-.062.122-.062.244.06.365l2.313 2.8c.06.06.121.121.243.121H42.7c.06 0 .122 0 .182-.06.061 0 .061-.061.061-.122.061-.122.061-.244-.06-.365l-2.313-2.8a.461.461 0 0 0-.244-.121H38.38s-.061.06-.122.06ZM35.64 41.8c-.06.06-.121.121-.121.243l-.183 1.826c0 .06 0 .182.06.243l1.826 2.252c.061.122.183.122.305.122.06 0 .06-.061.122-.061.06-.06.121-.122.121-.183l.244-1.764c0-.061 0-.183-.061-.244l-1.948-2.313c-.06-.121-.243-.121-.365-.121 0 0 .061 0 0 0Zm11.38-10.955-.12.122c-.062.121 0 .243.12.365l2.313 1.947c.061.061.183.061.244.061l1.765-.182c.06 0 .122-.061.182-.061.061-.061.061-.122.122-.183.061-.121 0-.243-.122-.365l-2.19-1.887c-.061-.06-.122-.06-.244-.06-.426 0-1.095.06-1.826.121-.121.061-.182.061-.243.122ZM25.356 48.311c-.06.06-.06.121-.122.182-.243.73-.365 1.34-.487 1.765v.243l1.4 2.557c.061.121.183.182.305.182.06 0 .121-.06.182-.06.061-.062.06-.062.122-.122l.547-1.705v-.243l-1.46-2.617a.335.335 0 0 0-.304-.182c-.122-.061-.183-.061-.183 0Zm7.85-15.093c-.06 0-.06.06-.06.121-.06.122-.06.244.06.365l2.07 2.496c.06.06.183.121.244.121h2.008c.06 0 .122 0 .182-.06.061 0 .061-.061.061-.122.061-.122.061-.244-.06-.365L35.761 33.4c-.06-.06-.122-.122-.243-.122l-2.13-.121c-.061 0-.122 0-.183.06Zm-2.799 2.312c-.06.061-.121.122-.121.183l-.244 1.643c0 .06 0 .182.061.243l2.07 2.556c.06.122.243.122.364.122.061 0 .061-.06.122-.06.061-.061.122-.122.122-.244l.182-1.765c0-.06 0-.183-.06-.243l-2.009-2.435c-.06-.122-.182-.122-.304-.122-.122.061-.183.061-.183.122ZM40.51 25.306c-.06.06-.06.121-.122.182-.06.122 0 .244.122.366l2.617 2.251c.06.061.122.061.243.061.487-.06 1.157-.122 1.887-.182.06 0 .122-.061.182-.061l.122-.122c.061-.122 0-.243-.122-.365l-2.616-2.313c-.061-.06-.183-.06-.244-.06l-1.886.182c-.061 0-.122 0-.183.06ZM21.217 40.825l-.122.122-.609 1.825v.244l1.704 3.043c.061.122.183.182.305.182.06 0 .121-.06.182-.06.061-.061.061-.122.122-.183.183-.73.426-1.339.548-1.826v-.243c-.548-1.035-1.157-2.07-1.644-3.043a.334.334 0 0 0-.304-.183c-.06.061-.122.061-.182.122Zm4.868-27.752c.426-.365 1.035-.426 1.583-.183l7.546 3.409c.122.06.244.06.305-.061l1.034-.852a.464.464 0 0 0 .122-.305c0-.121-.061-.182-.183-.243L22.86 8.508c-.122-.06-.244-.06-.365.062-.122.06-.122.182-.122.304l3.651 14.423c0 .122.122.183.183.244.122.06.244 0 .304-.061l.67-.548c.121-.06.121-.182.121-.304l-1.764-8.094a1.398 1.398 0 0 1 .547-1.46Zm3.287 4.078c-.122.06-.122.182-.122.304l.609 2.8c0 .121.121.182.182.243.122.06.244 0 .305-.06l2.008-1.644a.464.464 0 0 0 .122-.305c0-.121-.061-.182-.183-.243l-2.617-1.156c-.122-.061-.243-.061-.304.06Zm-17.589 7.546c.426-.365 1.035-.426 1.583-.182l7.546 3.408c.122.06.244.06.305-.061l.73-.548a.465.465 0 0 0 .122-.304c0-.122-.061-.183-.183-.244l-13.389-6.45c-.122-.061-.243-.062-.365.06-.122.061-.122.183-.122.304l3.408 14.607c0 .121.122.182.183.243.121.061.243 0 .304-.06l.974-.792c.122-.06.122-.182.122-.304l-1.765-8.095c-.061-.669.121-1.217.547-1.582Zm3.287 4.017c-.122.06-.122.183-.122.304l.609 2.8c0 .121.121.182.182.243.122.061.244 0 .305-.06l2.008-1.644a.465.465 0 0 0 .122-.304c0-.122-.061-.183-.183-.244l-2.617-1.156c-.06 0-.182 0-.304.06Z" fill="#100098"/><path d="M48.66 55.068c-.243.182-.547.304-.851.243l-6.938-.791c-.305-.061-.609-.183-.792-.426L27.542 38.696c-.182-.243-.304-.608-.243-.913l.791-5.66c0-.182 0-.365-.122-.486l-2.434-2.922c-.243-.243-.608-.304-.913-.06l-4.2 3.408c-.243.182-.303.547-.182.79.305.61.791 1.4 1.4 2.496.06.122.244.244.365.304l2.374.67c.608.182.974.791.852 1.46-.061.244-.183.426-.365.61-.122.12-.305.182-.487.242-.122 0-.183.061-.244.122a.84.84 0 0 0-.182.244c-.061.182-.061.426 0 .547.547.974 1.095 2.009 1.765 3.226.06.122.243.243.365.304l2.373.73c.609.183.974.853.792 1.461a.886.886 0 0 1-.366.548c-.121.122-.304.182-.487.243-.121 0-.182.061-.243.122-.06.06-.122.122-.183.243a.845.845 0 0 0 0 .548l1.583 2.86c.122.183.243.305.426.305l2.252.426c.304.06.547.243.73.487.182.243.243.547.182.852-.06.243-.182.487-.425.67-.183.121-.366.243-.548.243-.122 0-.183.06-.305.121-.06.061-.121.122-.182.244-.061.182-.061.426 0 .608l.67 1.218c.243.486.182 1.095-.305 1.46-.06.061-.122.061-.183.122a1.53 1.53 0 0 1-.912.122c-.305-.061-.548-.305-.73-.548l-.427-.791c-.122-.244-.365-.365-.608-.304-.122 0-.244.06-.366.121a.335.335 0 0 0-.182.304l-.548 1.583c-.06.182-.06.365.061.487l.913 1.643c.06.122.243.243.365.304l4.504 1.34c.182.06.365 0 .486-.062.061 0 .061-.06.122-.06.122-.062.183-.183.244-.305l1.46-5.234c.061-.243.183-.426.365-.608.305-.244.67-.305 1.035-.244.609.183.974.852.791 1.46l-1.947 7.06c-.061.244-.183.426-.365.61-.061.06-.122.06-.183.12a1.53 1.53 0 0 1-.913.122L28.09 61.64c-.304-.06-.548-.304-.67-.547l-9.737-17.285c-.182-.304-.182-.608-.122-.912l1.887-5.843c.061-.182.061-.365-.06-.487-.427-.73-.731-1.4-1.035-1.886-.122-.183-.244-.305-.426-.305-.183-.06-.366 0-.548.122L9.04 41.252c-.487.426-1.217.305-1.643-.182-.426-.487-.304-1.217.183-1.643l1.338-1.096c.183-.182.305-.426.244-.67l-4.504-19.17c-.06-.183-.182-.365-.365-.426L1.8 16.848c-.304-.122-.487-.365-.609-.67-.121-.304-.06-.608.061-.912.061-.183.183-.305.305-.427.304-.243.79-.365 1.156-.182.182.06.426.06.608-.122.183-.121.244-.365.244-.608-.061-.426.122-.852.426-1.096.122-.121.304-.182.487-.243.304-.061.608 0 .913.122.243.182.426.425.547.73l.609 2.678c.06.182.183.365.365.426l15.337 7.424c.243.122.486.061.67-.06.182-.183.303-.426.242-.67L19.023 6.745c-.06-.182-.182-.365-.365-.426l-2.495-1.156c-.609-.244-.852-.974-.548-1.582.06-.183.183-.305.304-.426.305-.244.791-.366 1.157-.183.182.06.426.06.608-.122.183-.121.244-.365.244-.608-.061-.426.121-.852.426-1.096.121-.121.304-.182.426-.243.304-.061.608 0 .913.122.243.182.486.426.547.73l.67 2.678c.06.182.182.365.365.426l17.892 8.277c.244.121.487.06.67-.061l1.46-1.157c.487-.426 1.218-.304 1.644.183.426.487.304 1.217-.183 1.643l-8.033 6.512c-.122.122-.244.304-.244.487s.061.365.244.487c.487.426 1.095.913 1.765 1.521.121.122.304.183.487.122l6.086-.67c.304-.06.669.061.912.305l14.972 13.024c.243.182.365.487.426.79l.608 7.243c0 .304-.06.609-.304.852l-.122.122c-.182.182-.426.243-.67.243l-7.302.487c-.304 0-.609-.06-.852-.304-.244-.183-.365-.487-.426-.791 0-.365.121-.73.426-.974.182-.183.426-.243.67-.243l5.416-.366c.121 0 .243-.06.365-.121l.06-.061a.691.691 0 0 0 .183-.487l-.426-4.686c0-.183-.121-.305-.243-.426l-1.46-1.218a.691.691 0 0 0-.488-.182l-1.704.183c-.121 0-.243.06-.365.121a.335.335 0 0 0-.182.305c-.061.243 0 .486.182.669l.67.548c.243.182.365.487.426.79 0 .305-.061.61-.305.853-.06.06-.122.122-.182.122a1.193 1.193 0 0 1-1.522 0l-1.034-.913c-.183-.122-.365-.183-.548-.122-.122 0-.183.061-.244.122-.06.06-.182.182-.182.243a.947.947 0 0 1-.365.487c-.183.183-.487.244-.73.244-.305 0-.61-.122-.853-.366a1.201 1.201 0 0 1-.365-.852v-2.312a.553.553 0 0 0-.243-.487l-2.435-2.13a.584.584 0 0 0-.547-.122c-.122 0-.183.06-.244.122-.06.06-.121.121-.182.243-.061.183-.183.304-.305.426-.182.122-.426.244-.67.244-.669.06-1.216-.426-1.277-1.096l-.183-2.495c0-.183-.121-.304-.243-.426-1.035-.913-1.948-1.704-2.8-2.373-.182-.122-.365-.183-.547-.122-.122 0-.183.06-.244.122a.839.839 0 0 0-.182.243c-.061.182-.183.304-.305.426-.182.183-.426.243-.67.243-.669.061-1.216-.426-1.216-1.095l-.122-2.434c0-.183-.06-.305-.243-.427-1.035-.912-1.765-1.521-2.252-1.947a.731.731 0 0 0-.852 0l-4.504 3.652c-.122.121-.243.243-.243.426 0 .182.06.365.121.486l2.435 2.922c.122.121.304.243.487.243l6.268.304c.304 0 .67.183.852.426L49.391 45.94c.182.243.304.547.243.852l-.73 7.303c.122.487 0 .73-.243.974Zm-8.215-7.425a.98.98 0 0 0-.244.426l-.304 1.886c0 .183 0 .366.122.487l1.338 1.643c.122.122.244.244.426.244l4.382.487c.183 0 .366-.061.487-.122.122-.122.244-.244.244-.426l.486-4.747c0-.183-.06-.365-.121-.487l-1.096-1.339c-.121-.121-.304-.243-.487-.243h-1.825c-.122 0-.305.06-.426.122a.838.838 0 0 0-.183.243c-.122.243-.06.487.06.67l.792.912c.183.244.304.548.244.852 0 .305-.183.609-.427.791-.486.426-1.217.366-1.643-.182l-.913-1.157c-.182-.182-.426-.304-.669-.182-.06 0-.122.06-.243.122Zm-2.374-8.581a.843.843 0 0 0-.182.243c-.122.243-.061.487.06.67l2.313 2.799c.122.122.304.243.487.243h1.886c.122 0 .305-.06.427-.121a.839.839 0 0 0 .182-.244c.122-.243.06-.487-.06-.67l-2.313-2.799c-.122-.121-.305-.243-.487-.243h-1.948c-.121 0-.243.06-.365.122Zm-2.617 2.495c-.122.121-.243.243-.243.426l-.183 1.826c0 .182.061.365.122.486l1.826 2.252c.182.183.426.305.67.244.06 0 .182-.061.242-.122a.981.981 0 0 0 .244-.426l.243-1.765c0-.183 0-.365-.121-.487l-1.948-2.313c-.182-.182-.426-.304-.67-.182-.06 0-.121.06-.182.06Zm11.38-10.955a.335.335 0 0 0-.182.304c-.06.244 0 .487.183.67l2.313 1.947c.121.122.304.183.486.122l1.765-.183c.122 0 .244-.06.365-.121a.335.335 0 0 0 .183-.305.687.687 0 0 0-.183-.669l-2.19-1.887a.691.691 0 0 0-.487-.182c-.427 0-1.096.06-1.826.122-.244.06-.365.121-.426.182ZM25.109 48.07a.335.335 0 0 0-.183.304c-.243.73-.426 1.339-.486 1.765-.061.183 0 .365.06.487l1.4 2.556c.122.243.365.365.609.304.122 0 .243-.06.365-.121a.335.335 0 0 0 .182-.305l.548-1.704c.061-.182.061-.365-.06-.487l-1.461-2.617c-.122-.243-.365-.365-.609-.304-.121 0-.243.06-.365.122Zm7.912-15.093-.183.182c-.122.244-.06.487.061.67l2.07 2.495c.121.122.304.243.486.243h2.008c.122 0 .305-.06.426-.121a.84.84 0 0 0 .183-.244c.122-.243.06-.487-.06-.67l-1.948-2.373c-.122-.122-.305-.243-.487-.243l-2.13-.122a.552.552 0 0 0-.426.183Zm-2.86 2.251a.98.98 0 0 0-.244.426l-.244 1.644c0 .182 0 .365.122.486l2.07 2.557c.182.182.425.304.669.182.06 0 .182-.06.243-.122.122-.121.244-.243.244-.426l.182-1.764c0-.183-.06-.366-.121-.487l-2.009-2.435c-.182-.182-.426-.304-.67-.182a.461.461 0 0 1-.243.121Zm10.163-10.163a.335.335 0 0 0-.183.304c-.06.244 0 .487.183.67l2.617 2.251a.474.474 0 0 0 .487.122c.487-.06 1.156-.122 1.886-.182.122 0 .244-.061.365-.122a.335.335 0 0 0 .183-.304.687.687 0 0 0-.183-.67l-2.616-2.313a.691.691 0 0 0-.487-.182l-1.887.182c-.183.122-.304.122-.365.244ZM21.03 40.583a.335.335 0 0 0-.182.304l-.609 1.826c-.06.183-.06.365.061.487l1.704 3.043c.122.243.365.365.609.304.122 0 .243-.06.304-.121a.335.335 0 0 0 .183-.305c.182-.73.426-1.339.547-1.826.061-.182 0-.365-.06-.486-.548-1.035-1.157-2.07-1.644-3.043-.121-.244-.365-.366-.608-.305-.122 0-.244 0-.305.122Zm5.234-27.265c.366-.304.791-.365 1.218-.182l7.546 3.408c.244.121.487.06.67-.061l1.034-.852c.183-.122.244-.365.244-.548a.53.53 0 0 0-.366-.487l-13.632-6.33c-.243-.12-.487-.06-.67.062-.182.182-.304.426-.243.67l3.652 14.423c.06.243.182.365.426.426.243.06.426 0 .608-.122l.67-.548a.872.872 0 0 0 .243-.608L25.9 14.474c-.122-.426 0-.852.365-1.156Zm2.86 3.59a.872.872 0 0 0-.243.61l.609 2.799c.06.243.183.365.426.487.183.06.426.06.608-.122l2.009-1.643c.182-.122.243-.365.243-.609a.53.53 0 0 0-.365-.487l-2.617-1.156a.71.71 0 0 0-.67.122Zm-17.1 8.034c.365-.304.79-.365 1.217-.182l7.546 3.408c.243.122.487.06.67-.061l.73-.548c.182-.122.243-.365.243-.548a.53.53 0 0 0-.365-.486L8.676 20.073c-.243-.121-.487-.06-.67.061-.182.183-.304.426-.243.67l3.408 14.606c.061.243.183.365.426.487.183.06.426.06.609-.122l.974-.791a.872.872 0 0 0 .243-.609l-1.765-8.094c-.182-.608 0-1.034.365-1.339Zm2.86 3.53c-.183.183-.305.426-.244.609l.609 2.8c.06.243.182.364.426.486.182.06.426.06.608-.122l2.009-1.643c.182-.122.243-.365.243-.608a.53.53 0 0 0-.365-.487l-2.617-1.157a.845.845 0 0 0-.67.122Z" fill="#1800D2"/><path d="M48.48 54.764a1.174 1.174 0 0 1-.609.182l-6.938-.791a.64.64 0 0 1-.547-.304L27.848 38.453c-.121-.182-.243-.426-.182-.67l.791-5.659c.06-.244-.06-.548-.183-.73l-2.434-2.922c-.365-.426-.913-.486-1.339-.121l-4.2 3.408c-.364.304-.486.791-.242 1.217.304.609.79 1.4 1.4 2.495.121.244.364.365.608.487l2.373.67c.426.121.73.608.609 1.034-.061.183-.122.305-.304.426l-.366.183c-.121.06-.304.121-.365.182a1.274 1.274 0 0 0-.243.365c-.122.305-.122.61.06.852.549.974 1.096 2.009 1.766 3.226.121.243.304.365.547.487l2.374.73c.243.061.426.183.487.426.122.183.122.426.06.67-.06.182-.121.304-.304.426l-.365.182-.365.183a1.272 1.272 0 0 0-.243.365c-.122.243-.122.609.06.852l1.583 2.86a.942.942 0 0 0 .67.487l2.251.426c.243.061.426.183.548.365a.845.845 0 0 1 .122.67c-.061.183-.122.365-.305.487a.553.553 0 0 1-.426.182c-.182 0-.304.122-.426.183-.121.06-.182.182-.243.304-.122.305-.122.609 0 .852l.67 1.218a.93.93 0 0 1-.183 1.095c-.061.06-.061.06-.122.06-.183.123-.426.123-.67.062-.243-.061-.426-.183-.486-.426l-.427-.791c-.182-.366-.547-.548-.912-.487a.691.691 0 0 0-.487.182c-.122.122-.244.244-.304.426l-.548 1.643c-.061.244-.061.548.06.791l.913 1.644a.774.774 0 0 0 .548.426l4.504 1.339c.243.06.487.06.73-.061a.13.13 0 0 0 .122-.122c.182-.122.243-.304.304-.487l1.46-5.234c.062-.182.123-.304.305-.426a.923.923 0 0 1 .791-.182c.426.121.73.608.609 1.034l-1.948 7.06c-.06.183-.121.304-.304.426-.06.06-.06.06-.122.06-.182.123-.426.123-.67.062l-6.937-2.07c-.244-.06-.365-.182-.487-.425l-9.737-17.285c-.122-.182-.122-.425-.061-.669l1.886-5.842c.061-.244.061-.548-.06-.73-.427-.731-.73-1.4-1.035-1.887a.942.942 0 0 0-.67-.487.923.923 0 0 0-.79.182l-8.338 6.756a.868.868 0 0 1-1.218-.122.868.868 0 0 1 .122-1.217l1.339-1.096c.304-.243.426-.608.304-.973L5.27 18.309a.877.877 0 0 0-.548-.67l-2.495-1.217c-.183-.122-.365-.243-.426-.487-.061-.243-.061-.426.06-.669.061-.122.122-.183.244-.304a.855.855 0 0 1 .852-.122c.304.122.67.06.974-.183.243-.243.365-.547.365-.912a.792.792 0 0 1 .304-.792l.365-.182c.244-.061.426 0 .67.121A.886.886 0 0 1 6 13.44l.609 2.678c.06.304.243.548.547.67l15.337 7.424c.304.183.73.122 1.034-.121.305-.244.426-.61.305-.974L19.693 6.624c-.06-.304-.243-.487-.547-.609L16.65 4.86c-.182-.122-.365-.243-.426-.487a1.251 1.251 0 0 1 0-.67c.061-.121.122-.243.244-.304a.855.855 0 0 1 .852-.121.85.85 0 0 0 .913-.183c.243-.243.365-.548.365-.913a.793.793 0 0 1 .304-.79c.122-.062.183-.123.304-.184.244-.06.426 0 .67.122a.886.886 0 0 1 .365.548l.67 2.678c.06.304.243.487.547.608l17.893 8.277c.304.183.73.122 1.035-.121l1.46-1.157a.868.868 0 0 1 1.217.122.868.868 0 0 1-.122 1.217l-8.033 6.512a.868.868 0 0 0-.365.73c0 .305.122.548.304.73.487.427 1.096.914 1.765 1.522.183.183.487.243.73.243l6.086-.669c.244 0 .487.06.67.183l14.971 13.024c.183.121.244.365.304.547l.61 7.242c0 .244-.062.487-.183.61l-.122.12a.69.69 0 0 1-.487.183l-7.303.487c-.244 0-.426-.06-.609-.182a.749.749 0 0 1-.304-.609c0-.304.122-.548.304-.73a.69.69 0 0 1 .487-.183l5.417-.365c.182 0 .365-.06.547-.182l.122-.122c.183-.183.244-.426.244-.73l-.426-4.687c0-.243-.122-.487-.305-.67l-1.46-1.216c-.183-.183-.487-.244-.73-.244l-1.705.183c-.182 0-.365.121-.487.182a1.325 1.325 0 0 0-.304.487.958.958 0 0 0 .304 1.035l.67.608a.749.749 0 0 1 .304.61c0 .242-.06.425-.182.608l-.122.121a.913.913 0 0 1-1.096 0l-1.034-.913c-.244-.182-.548-.304-.852-.182l-.365.182c-.122.122-.244.244-.305.366-.06.121-.121.243-.243.365a.982.982 0 0 1-.548.182c-.243 0-.426-.121-.608-.243a.781.781 0 0 1-.244-.609v-2.312a.868.868 0 0 0-.365-.73l-2.434-2.13c-.244-.183-.548-.244-.852-.183-.122.06-.305.121-.426.182-.122.061-.183.183-.244.305-.06.121-.122.243-.243.304a.69.69 0 0 1-.487.182c-.487.061-.852-.304-.913-.79l-.183-2.496c0-.243-.121-.487-.304-.67-1.035-.912-1.947-1.704-2.8-2.373a1.056 1.056 0 0 0-.852-.182c-.121.06-.304.121-.426.182-.121.122-.182.183-.243.365-.06.122-.122.244-.243.304a.691.691 0 0 1-.487.183c-.487 0-.852-.304-.913-.791l-.122-2.434c0-.244-.122-.487-.304-.67-1.035-.913-1.765-1.521-2.252-1.947a.926.926 0 0 0-1.217 0l-4.504 3.651a1.45 1.45 0 0 0-.365.67c-.06.243.06.487.243.73l2.435 2.921c.182.183.426.305.67.365l6.268.305a.75.75 0 0 1 .608.304l12.233 15.032c.122.183.183.426.183.609l-.73 7.303c-.366.243-.488.426-.61.548ZM40.264 47.4c-.183.121-.305.365-.365.608l-.305 1.887c-.06.243.061.548.183.73l1.339 1.643c.182.183.365.305.67.365l4.381.487c.243 0 .487-.06.73-.182a1.45 1.45 0 0 0 .366-.67l.486-4.747c0-.243-.06-.486-.182-.73l-1.096-1.339a.868.868 0 0 0-.73-.365h-1.826a.781.781 0 0 0-.608.243c-.122.061-.183.183-.244.305-.182.365-.122.73.122 1.034l.791.913c.122.183.244.426.183.609a.64.64 0 0 1-.305.548.868.868 0 0 1-1.217-.122l-.913-1.156c-.243-.305-.608-.426-.973-.305l-.487.244Zm-2.374-8.581c-.121.121-.182.182-.243.365-.183.304-.122.73.122 1.034l2.312 2.8a.868.868 0 0 0 .73.365h1.887c.243 0 .426-.06.609-.244.121-.06.182-.182.243-.304.183-.304.122-.73-.122-1.034L41.116 39a.951.951 0 0 0-.73-.365h-1.948a.981.981 0 0 0-.548.182Zm-2.678 2.495a1.203 1.203 0 0 0-.365.67l-.182 1.825c0 .243.06.487.182.73l1.826 2.252c.243.304.609.426.974.304l.365-.182c.182-.122.304-.365.365-.609l.243-1.765c.061-.243-.06-.547-.182-.73l-1.948-2.313c-.243-.304-.669-.426-1.034-.304l-.244.122Zm11.381-10.955c-.122.122-.243.243-.304.426a.958.958 0 0 0 .304 1.035l2.313 1.947c.182.183.487.244.73.244l1.765-.183c.183 0 .365-.122.487-.183.122-.121.243-.304.304-.486a.958.958 0 0 0-.304-1.035l-2.191-1.887c-.183-.182-.426-.243-.67-.243-.426 0-1.095.06-1.886.122-.183.06-.365.121-.548.243ZM24.927 47.826a1.325 1.325 0 0 0-.304.486c-.244.73-.426 1.34-.487 1.765-.06.244-.06.487.06.73l1.4 2.557c.183.304.548.547.913.487.183 0 .366-.122.487-.183.122-.122.244-.243.305-.426l.548-1.704c.06-.243.06-.548-.061-.73l-1.461-2.617c-.183-.365-.548-.548-.974-.487-.122-.06-.304 0-.426.122Zm7.851-15.093c-.122.06-.182.182-.243.304-.183.365-.122.73.121 1.034l2.07 2.496a.951.951 0 0 0 .73.365h2.008c.244 0 .426-.061.609-.244.121-.06.182-.182.243-.304.183-.304.122-.73-.121-1.035l-1.948-2.373c-.183-.183-.426-.365-.67-.365l-2.13-.122c-.243 0-.486.061-.669.244Zm-2.8 2.251a1.263 1.263 0 0 0-.365.609l-.243 1.643c-.06.244.06.548.182.73l2.07 2.557a.958.958 0 0 0 1.034.304c.122-.061.244-.122.305-.183.182-.182.304-.365.365-.67l.182-1.764c0-.243-.06-.487-.243-.73l-2.008-2.435c-.244-.304-.609-.426-.974-.304-.061.122-.183.182-.304.243Zm10.103-10.163a1.324 1.324 0 0 0-.304.487.958.958 0 0 0 .304 1.034l2.617 2.252c.183.183.426.244.73.244 0 0 1.279-.122 1.887-.183.183 0 .365-.06.548-.183.121-.121.243-.243.304-.426a.958.958 0 0 0-.304-1.034l-2.617-2.313c-.183-.182-.487-.243-.73-.243l-1.887.182c-.183-.06-.365.061-.548.183ZM20.79 40.34c-.122.122-.244.243-.305.426l-.608 1.826c-.061.243-.06.547.06.79l1.705 3.044c.182.365.548.548.974.487.182 0 .365-.122.486-.183.122-.121.244-.304.305-.487.182-.73.426-1.339.547-1.826.061-.243.061-.486-.06-.73-.548-1.034-1.157-2.069-1.644-3.043-.182-.365-.547-.547-.912-.487-.183-.06-.366.061-.548.183Zm5.66-26.778a.97.97 0 0 1 .913-.122l7.546 3.408c.304.122.73.122.974-.121l1.035-.852c.243-.183.365-.548.365-.852-.061-.305-.244-.61-.548-.73L23.1 7.962c-.304-.183-.73-.122-1.034.122-.304.243-.426.608-.304.973l3.651 14.424c.061.304.304.548.609.67a.85.85 0 0 0 .913-.183l.669-.548c.304-.243.426-.608.304-.974l-1.765-8.094c-.06-.243.061-.548.305-.791Zm2.495 3.104c-.304.243-.426.608-.304.973l.608 2.8c.061.304.304.609.609.73a.85.85 0 0 0 .913-.182l2.008-1.643c.244-.183.365-.548.365-.853-.06-.304-.243-.608-.547-.73l-2.617-1.156c-.366-.244-.73-.183-1.035.06Zm-16.736 8.52a.97.97 0 0 1 .912-.122l7.547 3.408c.304.122.73.122.974-.121l.73-.548c.244-.183.365-.548.365-.852-.06-.304-.243-.609-.547-.73L8.799 19.77c-.304-.183-.73-.122-1.034.121-.304.244-.426.609-.304.974l3.408 14.606c.06.305.304.609.608.67a.85.85 0 0 0 .913-.183l.974-.791c.304-.244.426-.609.304-.974L11.903 26.1c-.06-.365.061-.73.305-.913Zm2.495 3.043c-.304.243-.426.608-.304.974l.608 2.8c.061.304.304.608.609.73a.85.85 0 0 0 .913-.183l2.008-1.643c.243-.183.365-.548.365-.852-.06-.305-.243-.609-.548-.73l-2.616-1.157c-.366-.183-.792-.183-1.035.061Z" fill="#009AF1"/><path d="M48.237 54.52c-.122.06-.244.122-.365.122l-6.938-.792c-.122 0-.244-.06-.365-.182L28.03 38.27c-.121-.121-.121-.243-.121-.425l.79-5.66c.062-.366-.06-.73-.303-.974l-2.435-2.921c-.426-.548-1.278-.609-1.765-.183l-4.199 3.408c-.487.365-.608 1.096-.304 1.643.304.548.79 1.4 1.4 2.496.182.304.426.547.79.608l2.374.67c.305.06.426.365.365.67 0 .12-.06.182-.182.243-.061.06-.122.06-.244.121-.182.061-.365.122-.547.244a.947.947 0 0 0-.365.487c-.183.365-.122.79.06 1.156.548.974 1.096 2.008 1.765 3.225.183.305.426.487.791.609l2.374.73c.122.061.243.122.304.244.061.121.061.243.061.426 0 .121-.06.182-.183.243-.06.061-.121.061-.243.122-.182.06-.365.122-.487.243a.947.947 0 0 0-.365.487c-.182.365-.122.791.06 1.157l1.583 2.86c.183.304.487.548.852.67l2.252.425c.122 0 .243.122.365.244.061.122.122.243.061.426 0 .122-.06.243-.182.304a.462.462 0 0 1-.244.122c-.243.06-.426.122-.609.243a2.646 2.646 0 0 0-.365.426 1.13 1.13 0 0 0 .061 1.157l.67 1.217c.121.243.06.487-.122.67l-.061.06c-.122.061-.243.061-.426.061-.122-.06-.243-.122-.304-.243l-.426-.792c-.244-.426-.73-.73-1.218-.669-.243 0-.486.122-.669.304a2.184 2.184 0 0 0-.426.609l-.548 1.643c-.121.365-.06.73.122 1.035l.913 1.643c.183.304.426.487.73.608l4.504 1.34c.304.121.67.06.974-.122.06-.061.121-.061.182-.122.183-.183.365-.365.426-.67l1.46-5.233c0-.122.062-.183.183-.244.122-.122.305-.122.487-.122.122.061.244.122.305.244.06.122.06.243.06.426l-1.947 7.06c0 .121-.061.182-.183.243l-.06.06c-.122.062-.305.062-.427.062l-6.938-2.07c-.121-.06-.243-.121-.304-.243l-9.737-17.284c-.061-.122-.061-.304-.061-.426l1.886-5.843c.122-.365.061-.73-.121-1.034-.426-.73-.73-1.4-1.035-1.887-.182-.304-.487-.547-.852-.608-.365-.061-.73 0-1.034.243L8.86 40.888a.554.554 0 0 1-.73-.061.554.554 0 0 1 .06-.73L9.531 39c.364-.304.547-.791.425-1.278l-4.503-19.17c-.061-.366-.365-.67-.67-.853l-2.495-1.217c-.122-.06-.243-.183-.243-.304 0-.122-.061-.305 0-.426.06-.061.06-.122.121-.183.122-.122.365-.183.548-.06.426.182.913.06 1.278-.183.365-.305.548-.73.487-1.217 0-.183.06-.366.183-.487.06-.061.121-.061.182-.122.122-.061.304 0 .426.06.122.062.183.183.244.305l.608 2.678c.061.365.365.67.67.852l15.336 7.425a1.11 1.11 0 0 0 1.339-.183c.365-.304.548-.852.426-1.278L19.755 6.867a1.439 1.439 0 0 0-.73-.852L16.528 4.86a.733.733 0 0 1-.304-.304.52.52 0 0 1 0-.426c.06-.061.06-.122.121-.183.122-.122.366-.183.548-.06.426.182.913.06 1.278-.183.366-.305.548-.73.487-1.218a.69.69 0 0 1 .183-.487c.06-.06.122-.06.182-.121.122-.061.305 0 .426.06.122.061.183.183.244.305l.67 2.678c.121.365.364.67.73.852l17.892 8.277c.426.182.974.121 1.34-.183l1.46-1.156a.554.554 0 0 1 .73.06.554.554 0 0 1-.06.73l-8.034 6.513a1.27 1.27 0 0 0-.487.973c0 .366.182.73.426.974.487.426 1.095.913 1.765 1.522.243.243.608.365.974.304l6.085-.67c.122 0 .305.061.426.122l14.972 13.024c.122.122.182.244.182.365l.609 7.243c0 .121-.06.304-.122.365l-.06.06a.464.464 0 0 1-.305.122l-7.303.487c-.122 0-.304-.06-.365-.122-.122-.121-.183-.243-.183-.365 0-.182.061-.365.183-.426a.465.465 0 0 1 .304-.121l5.417-.366c.243 0 .486-.121.73-.304l.182-.182c.244-.244.305-.609.305-.974l-.426-4.686c0-.305-.183-.609-.426-.852l-1.46-1.218a1.123 1.123 0 0 0-.975-.304l-1.704.183c-.243 0-.486.121-.67.304-.182.183-.364.365-.425.609-.122.486 0 1.034.365 1.339l.67.608c.121.122.182.244.182.365 0 .122-.06.305-.122.365l-.06.061a.478.478 0 0 1-.67 0l-1.035-.913a1.288 1.288 0 0 0-1.156-.243c-.182.06-.365.122-.487.243a.886.886 0 0 0-.365.548c-.06.061-.06.183-.182.244-.122.06-.244.121-.366.121-.121 0-.304-.06-.365-.182-.122-.122-.182-.244-.182-.366v-2.312c0-.365-.183-.73-.426-.974l-2.435-2.13c-.304-.243-.73-.365-1.095-.304a2.16 2.16 0 0 0-.548.243 2.646 2.646 0 0 0-.365.426c-.061.061-.061.122-.122.183a.465.465 0 0 1-.304.122c-.304 0-.548-.183-.548-.487l-.182-2.496c0-.365-.183-.669-.426-.852-1.035-.913-1.948-1.704-2.8-2.373-.304-.244-.73-.365-1.095-.304a2.16 2.16 0 0 0-.548.243.947.947 0 0 0-.365.487c-.061.06-.061.122-.122.182a.465.465 0 0 1-.304.122c-.122 0-.305-.06-.365-.122-.122-.121-.183-.243-.183-.365l-.122-2.434c0-.365-.182-.67-.426-.913-1.034-.913-1.765-1.521-2.252-1.947a1.216 1.216 0 0 0-1.643 0l-4.503 3.651c-.244.244-.426.548-.487.852-.061.365.06.67.304.974l2.434 2.921c.244.304.548.426.913.487l6.269.304c.121 0 .304.061.365.183L49.15 46.669c.06.122.121.244.121.365l-.73 7.303c-.122 0-.182.122-.304.183Zm-8.155-7.364a1.353 1.353 0 0 0-.487.791l-.305 1.887c-.06.365.061.73.244.973l1.339 1.644c.243.243.487.426.852.487l4.382.486c.365.061.67-.06.973-.304.244-.243.426-.547.487-.852l.487-4.747c.061-.365-.06-.67-.304-.913l-1.096-1.339a1.27 1.27 0 0 0-.973-.486h-1.826c-.304 0-.609.121-.791.304-.122.121-.244.243-.365.426-.244.426-.122.974.182 1.339l.791.913c.061.121.122.243.122.365 0 .121-.06.243-.183.365-.243.183-.547.183-.73-.06l-.913-1.157a1.364 1.364 0 0 0-1.339-.426c-.243.121-.426.182-.547.304Zm-2.435-8.581c-.121.122-.243.304-.365.426-.182.426-.122.974.183 1.339l2.312 2.8c.244.304.609.486.974.486h1.887c.304 0 .608-.121.79-.304.123-.122.244-.244.366-.426.244-.426.122-.974-.183-1.34L41.3 38.758a1.27 1.27 0 0 0-.974-.486h-1.948c-.182 0-.486.121-.73.304ZM35.03 41.07c-.243.243-.426.548-.486.852l-.183 1.826c-.061.365.06.67.304.913l1.826 2.252c.304.365.852.547 1.339.426.182-.061.304-.122.487-.244.243-.182.426-.487.487-.791l.243-1.765c.06-.365-.06-.73-.304-1.035l-1.948-2.312c-.304-.426-.852-.548-1.339-.426-.121.122-.304.182-.426.304Zm11.381-10.955a2.187 2.187 0 0 0-.426.609c-.183.487 0 1.035.365 1.4l2.313 1.947c.243.244.608.365.974.305l1.764-.183c.244 0 .487-.122.67-.304.182-.183.365-.366.426-.609.182-.487 0-1.035-.365-1.339l-2.191-1.886c-.244-.244-.609-.366-.913-.305-.426.061-1.096.061-1.887.122-.304 0-.547.06-.73.243ZM24.745 47.582c-.183.183-.365.365-.426.609a25.7 25.7 0 0 0-.548 1.825c-.121.305-.06.67.122.974l1.4 2.556c.243.426.73.67 1.217.67.243 0 .487-.122.67-.305.182-.182.304-.365.425-.608l.548-1.704c.122-.305.061-.73-.121-1.035l-1.461-2.617c-.244-.426-.73-.73-1.278-.67-.122.062-.365.122-.548.305Zm7.85-15.093a2.646 2.646 0 0 0-.364.426c-.244.426-.183.974.182 1.4l2.07 2.495c.243.304.608.487.973.487h2.009c.304 0 .547-.122.79-.304.123-.122.244-.244.366-.427.183-.425.122-.973-.183-1.338l-1.947-2.374c-.243-.304-.548-.426-.913-.487l-2.13-.121c-.304-.061-.609 0-.852.243Zm-2.799 2.252a1.353 1.353 0 0 0-.486.79l-.244 1.644c-.06.365.061.73.304.974l2.07 2.556c.304.426.852.548 1.338.426a.981.981 0 0 0 .427-.243c.243-.244.426-.548.486-.852l.183-1.766c.06-.365-.06-.669-.304-.973l-2.009-2.435a1.364 1.364 0 0 0-1.339-.425c-.182.121-.304.182-.426.304Zm15.52-5.843c.243 0 .486-.122.73-.304.182-.183.304-.365.426-.609.182-.487 0-1.034-.365-1.339l-2.617-2.312a1.122 1.122 0 0 0-.974-.305l-1.887.183c-.243 0-.487.122-.67.304-.182.183-.364.366-.425.609-.183.487 0 1.035.365 1.339l2.617 2.252c.243.243.609.304.913.304 0 .06 1.278-.06 1.886-.122Zm-24.71 11.198a2.186 2.186 0 0 0-.425.609l-.609 1.826c-.122.365-.06.73.122 1.034l1.704 3.043c.243.426.73.73 1.278.67.243 0 .487-.122.67-.305.182-.182.364-.365.425-.608.183-.73.426-1.34.548-1.826.122-.304.061-.67-.122-.974-.547-1.034-1.156-2.069-1.643-3.043-.243-.426-.73-.73-1.217-.67-.304-.06-.548.062-.73.244Zm6.087-26.29c.182-.123.365-.183.547-.062l7.547 3.408c.426.183.974.122 1.339-.182l1.034-.852c.366-.304.548-.73.487-1.156a1.21 1.21 0 0 0-.73-.974l-13.633-6.33c-.425-.182-.973-.121-1.338.183-.366.304-.548.852-.426 1.278l3.651 14.424c.122.426.426.79.852.913.426.121.852.06 1.217-.244l.67-.548c.365-.304.547-.79.426-1.278l-1.765-8.094c-.122-.122-.061-.304.122-.487Zm2.069 2.555a1.262 1.262 0 0 0-.426 1.278l.608 2.8c.122.426.426.791.852.913.426.121.852.06 1.218-.244l2.008-1.643c.365-.304.548-.73.487-1.156-.061-.426-.365-.792-.73-.974l-2.618-1.156c-.547-.183-1.034-.122-1.4.182ZM12.39 25.43c.182-.121.365-.182.547-.06l7.547 3.407c.426.183.974.122 1.339-.182l.67-.548c.364-.304.486-.73.486-1.156-.06-.426-.304-.791-.73-1.035l-13.39-6.45a1.11 1.11 0 0 0-1.338.182 1.261 1.261 0 0 0-.426 1.278l3.408 14.606c.122.426.426.791.852.913s.852.06 1.217-.243l.974-.792c.365-.304.548-.79.426-1.278l-1.765-8.094c0-.183.061-.426.183-.548Zm2.069 2.556a1.262 1.262 0 0 0-.426 1.278l.608 2.8c.122.426.427.791.853.913.426.121.851.06 1.217-.244l2.008-1.643c.365-.304.548-.73.487-1.156-.061-.426-.365-.852-.73-.974l-2.617-1.156a1.446 1.446 0 0 0-1.4.182Z" fill="#42D1F7"/><path d="M48.055 54.275c-.06.06-.122.06-.182.06l-6.938-.79c-.061 0-.122-.062-.122-.062L28.276 38.086c-.06-.06-.06-.122-.06-.183l.79-5.66a1.67 1.67 0 0 0-.365-1.278l-2.434-2.92c-.548-.67-1.583-.792-2.252-.244l-4.2 3.408c-.608.487-.79 1.339-.364 2.008.304.548.79 1.4 1.4 2.495.182.366.547.67.973.791l2.373.67c.122 0 .183.122.122.243 0 .061-.06.061-.06.122l-.062.061c-.243.06-.486.183-.669.304-.183.183-.365.366-.426.609-.183.487-.183.974.06 1.4.549.974 1.096 2.008 1.766 3.225.182.365.548.67.974.791l2.373.73c.06 0 .122.062.122.122 0 .061.06.122 0 .183 0 .06-.061.06-.061.122l-.06.06c-.244.061-.427.183-.61.305-.182.182-.365.365-.426.608-.182.426-.182.974.061 1.4l1.583 2.86c.243.427.608.73 1.095.792l2.252.426c.06 0 .122.06.122.121.06.061.06.122.06.183s-.06.122-.06.122-.061.06-.122.06c-.244.062-.548.183-.73.366-.183.122-.305.304-.426.547a1.548 1.548 0 0 0 .06 1.461l.67 1.217c.06.061 0 .183-.061.244h-.06c-.062 0-.123.06-.183 0a.13.13 0 0 1-.122-.122l-.426-.791a1.651 1.651 0 0 0-1.582-.852c-.305.06-.609.182-.852.365-.244.183-.427.426-.487.73l-.548 1.644c-.122.425-.06.912.122 1.278l.913 1.643c.182.365.547.608.912.73l4.504 1.339c.426.122.852.06 1.217-.122.061-.06.183-.121.244-.182.243-.183.426-.487.547-.792l1.46-5.233c0-.061.062-.061.062-.122.06-.061.121-.061.182-.061s.122.06.122.122c0 .06.06.122 0 .182l-1.947 7.06c0 .06-.061.06-.061.122h-.061c-.061 0-.122.06-.183 0l-6.938-2.07a.13.13 0 0 1-.121-.121L18.66 43.32c0-.061-.06-.122 0-.183l1.887-5.842c.122-.426.06-.852-.122-1.278-.426-.73-.791-1.4-1.035-1.887-.243-.426-.608-.73-1.095-.791-.487-.061-.913.06-1.339.304l-8.338 6.755c-.121.061-.243.061-.304-.06-.06-.122-.06-.244.061-.305l1.339-1.095c.487-.365.67-1.035.548-1.582L5.758 18.185c-.122-.487-.426-.852-.852-1.095l-2.495-1.218c-.061 0-.061-.06-.122-.121v-.183l.06-.06c.062-.062.123-.062.183-.062.548.183 1.157.122 1.583-.243.426-.365.67-.913.548-1.46 0-.062 0-.123.06-.183l.061-.061h.183c.06 0 .06.06.122.121l.608 2.678c.122.487.426.852.852 1.096l15.337 7.425a1.716 1.716 0 0 0 1.704-.183c.487-.365.67-1.035.547-1.643L20 6.5c-.122-.487-.426-.852-.852-1.035L16.652 4.31c-.061 0-.061-.06-.122-.122v-.182c0-.061.061-.061.061-.061.06-.061.122-.061.182-.061.548.183 1.157.122 1.583-.243.426-.366.67-.913.548-1.461 0-.06 0-.122.06-.183l.061-.06h.183c.06 0 .06.06.122.121L20 4.735c.12.487.425.852.851 1.035l17.893 8.276a1.715 1.715 0 0 0 1.704-.182l1.46-1.156c.061-.061.244-.061.305.06.06.061.06.244-.061.305l-8.034 6.512c-.365.304-.608.73-.608 1.217 0 .487.182.913.547 1.217.487.426 1.096.913 1.765 1.522.305.304.792.426 1.218.365l6.086-.67c.06 0 .121 0 .182.061L58.28 36.321c.061.06.061.06.061.122l.609 7.242c0 .06 0 .122-.06.183-.062 0-.062.06-.123.06l-7.303.487c-.06 0-.121 0-.182-.06-.061-.061-.061-.061-.061-.122s0-.122.06-.183c.062 0 .062-.06.122-.06l5.417-.366c.304 0 .67-.122.913-.365l.182-.183c.305-.304.426-.73.365-1.156l-.426-4.686a1.889 1.889 0 0 0-.547-1.096l-1.46-1.217c-.305-.304-.792-.426-1.218-.365l-1.704.183c-.304.06-.609.182-.852.365-.244.182-.426.487-.548.79-.182.61 0 1.279.487 1.705l.67.609c.06.06.06.06.06.121s0 .122-.06.183a.185.185 0 0 1-.244 0l-1.035-.913c-.365-.365-.913-.487-1.4-.365-.243.06-.425.182-.608.304-.243.183-.365.426-.487.67 0 .06-.06.06-.06.121-.062.061-.062.061-.122.061-.061 0-.122 0-.122-.06-.061-.061-.06-.122-.06-.122v-2.313c0-.487-.184-.913-.549-1.217l-2.434-2.13c-.365-.305-.913-.426-1.4-.366-.243.061-.487.183-.67.305-.182.122-.304.365-.425.548l-.061.06c-.061 0-.061.061-.122.061-.122 0-.243-.06-.243-.182l-.183-2.495a1.888 1.888 0 0 0-.548-1.096c-1.034-.913-1.947-1.704-2.8-2.373-.364-.305-.912-.427-1.399-.366-.243.061-.487.183-.67.305-.182.182-.364.365-.425.608l-.061.061c-.061 0-.061.06-.122.06-.06 0-.122.001-.182-.06-.061-.06-.061-.06-.061-.122l-.122-2.434c0-.426-.244-.852-.548-1.095-1.034-.852-1.765-1.522-2.252-1.948-.608-.487-1.46-.548-2.069-.06l-4.503 3.65c-.305.244-.548.67-.609 1.096-.06.426.06.852.365 1.157l2.434 2.92c.305.366.73.549 1.157.549l6.268.304c.061 0 .122.06.183.06l12.233 15.033c.06.06.06.122.06.182l-.73 7.304c.061 0 .061.06 0 .06ZM39.84 46.91a1.582 1.582 0 0 0-.548.973l-.304 1.887c-.06.426.061.913.365 1.278l1.34 1.643c.243.304.669.548 1.095.609l4.382.487c.425.06.852-.061 1.156-.366.304-.243.548-.67.608-1.095l.487-4.747c.061-.426-.06-.852-.365-1.156l-1.095-1.34c-.305-.364-.73-.608-1.218-.608h-1.825c-.366 0-.73.122-1.035.365-.182.122-.304.365-.426.548a1.597 1.597 0 0 0 .243 1.704l.792.913c.06.06.06.122.06.182 0 .061-.06.122-.06.122-.061.061-.244.061-.305 0l-.913-1.156a1.693 1.693 0 0 0-1.643-.548c-.426.061-.608.122-.79.304Zm-2.373-8.582c-.183.183-.366.365-.426.548a1.597 1.597 0 0 0 .243 1.704l2.313 2.8c.304.365.73.547 1.217.547h1.886c.366 0 .73-.121 1.035-.365.183-.122.304-.365.426-.547a1.715 1.715 0 0 0-.182-1.705l-2.313-2.8a1.713 1.713 0 0 0-1.278-.608h-1.948c-.304.061-.67.183-.973.426Zm-2.617 2.496c-.305.243-.548.669-.609 1.095l-.183 1.826c-.06.426.061.852.366 1.156l1.825 2.252c.427.487 1.035.67 1.644.548.243-.061.426-.183.608-.305.305-.243.487-.608.548-.973l.243-1.765c.061-.426-.06-.913-.365-1.278l-1.947-2.313a1.64 1.64 0 0 0-1.704-.487c-.122 0-.304.122-.426.244Zm11.38-10.955c-.243.182-.426.426-.486.73-.183.609 0 1.278.486 1.704l2.313 1.948c.304.304.791.426 1.217.365l1.765-.183c.304-.06.609-.182.852-.365.244-.182.426-.487.487-.791.183-.609 0-1.278-.487-1.704l-2.19-1.887a1.346 1.346 0 0 0-1.157-.365c-.426 0-1.096.061-1.887.122-.365.06-.67.183-.913.426ZM24.503 47.336c-.244.183-.426.487-.548.792-.243.73-.426 1.4-.548 1.825-.122.426-.06.852.122 1.218l1.4 2.556c.304.548.913.852 1.582.79.304-.06.609-.182.852-.364.244-.183.426-.426.487-.73l.548-1.705c.121-.426.06-.852-.122-1.278l-1.46-2.617c-.305-.547-.914-.913-1.583-.79-.183-.062-.487.06-.73.303Zm7.911-15.093c-.182.122-.304.305-.426.548-.304.548-.182 1.217.183 1.704l2.07 2.495c.303.366.79.609 1.216.548h2.009c.365 0 .73-.121.973-.365.183-.122.366-.365.426-.548a1.715 1.715 0 0 0-.182-1.704l-1.948-2.373c-.304-.366-.73-.548-1.156-.609l-2.13-.122c-.365 0-.73.122-1.035.426Zm-2.86 2.252c-.304.244-.487.609-.548 1.035l-.243 1.643c-.061.426.06.913.365 1.217l2.07 2.556c.425.487 1.095.73 1.703.548.183-.06.365-.182.548-.304.304-.244.548-.67.608-1.096l.183-1.765c.061-.426-.06-.852-.365-1.156l-2.008-2.434c-.426-.487-1.035-.67-1.644-.487-.304 0-.486.121-.67.243ZM45.377 29.2c.305 0 .609-.121.852-.365.244-.182.426-.426.487-.73.183-.609 0-1.278-.487-1.704l-2.617-2.313c-.365-.304-.79-.426-1.217-.365l-1.886.183c-.305.06-.609.182-.852.365-.244.182-.426.487-.548.791-.183.609 0 1.278.487 1.704l2.617 2.252c.304.304.73.426 1.156.365.122 0 1.4-.122 2.008-.183ZM20.425 39.79c-.243.182-.426.426-.487.73l-.608 1.826c-.122.426-.061.913.121 1.278l1.704 3.043c.305.548.913.852 1.583.791.304-.06.608-.182.852-.365.243-.183.426-.487.547-.791.183-.67.427-1.339.548-1.826.122-.426.061-.852-.121-1.217 0 0-1.157-2.07-1.644-3.043-.304-.548-.913-.913-1.582-.791-.365.06-.67.182-.913.365Zm6.451-25.683c.061-.06.122-.06.244 0l7.546 3.409c.548.243 1.217.182 1.643-.244l1.035-.852c.426-.365.67-.913.548-1.46-.061-.548-.426-1.035-.913-1.279L23.346 7.352a1.716 1.716 0 0 0-1.704.183 1.694 1.694 0 0 0-.547 1.643L24.745 23.6c.122.548.548.974 1.035 1.157.547.182 1.095.06 1.521-.305l.67-.547c.486-.365.67-.974.547-1.583l-1.765-8.094s.061-.122.122-.122Zm1.643 2.009c-.486.365-.67.974-.547 1.582l.608 2.8c.122.547.487.973 1.035 1.156.548.183 1.095.06 1.521-.244l2.009-1.643c.426-.365.67-.913.547-1.46-.06-.548-.426-1.035-.913-1.278l-2.617-1.157a1.797 1.797 0 0 0-1.643.244ZM12.635 25.67c.061-.061.122-.061.244 0l7.546 3.408c.548.243 1.217.182 1.643-.244l.73-.547c.427-.366.67-.852.61-1.4-.062-.548-.427-1.035-.914-1.278L9.105 19.159a1.715 1.715 0 0 0-1.704.182c-.487.365-.67 1.035-.547 1.643l3.408 14.607c.121.547.486.973 1.034 1.156.548.183 1.096.06 1.522-.243l.973-.792c.487-.365.67-.973.548-1.582l-1.765-8.094c-.06-.244 0-.305.061-.365Zm1.643 2.069c-.487.365-.67.974-.548 1.582l.61 2.8c.12.547.486.974 1.034 1.156.547.183 1.095.06 1.521-.243l2.009-1.644c.426-.365.669-.912.547-1.46-.06-.548-.426-1.035-.913-1.278l-2.617-1.157c-.547-.243-1.156-.121-1.643.244Z" fill="#ABEFFF"/></svg>