<svg width="18" height="16" fill="none" xmlns="http://www.w3.org/2000/svg"><path d="m16.357.96-12.53.622a.898.898 0 0 0-.839.714L.083 14.208a.929.929 0 0 0 .181.806c.182.23.454.346.75.346l12.302-.438c.204 0 .386-.092.545-.207a.866.866 0 0 0 .317-.484l3.133-12.096c.068-.3 0-.599-.182-.83-.181-.23-.477-.345-.772-.345Zm-3.79 12.119-10.396.369L4.622 3.425l10.578-.53-2.633 10.184Z" fill="#000"/><path d="M13.75 14.6a.648.648 0 0 1-.454.161L.994 15.2c-.227 0-.477-.092-.613-.277a.79.79 0 0 1-.16-.668L3.128 2.343a.83.83 0 0 1 .273-.415c.136-.092.272-.161.43-.161l12.53-.622a.75.75 0 0 1 .636.276.745.745 0 0 1 .136.691L14 14.185a.668.668 0 0 1-.25.415ZM4.512 3.31c-.023.023-.046.046-.046.092L2.015 13.425c-.023.046 0 .092.023.138.022.046.09.07.136.07l10.396-.37c.045 0 .068-.022.09-.046.023-.023.046-.046.046-.092l2.633-10.183c.023-.046 0-.116-.023-.139-.022-.046-.09-.069-.136-.069l-10.577.53a.171.171 0 0 0-.091.046Z" fill="#100098"/><path d="M13.655 14.461a.496.496 0 0 1-.34.138l-12.303.438a.567.567 0 0 1-.477-.23c-.113-.139-.159-.346-.113-.53L3.327 2.365a.531.531 0 0 1 .204-.322.888.888 0 0 1 .34-.139l12.53-.622a.64.64 0 0 1 .5.23.624.624 0 0 1 .113.53l-3.132 12.074a1.006 1.006 0 0 1-.227.345ZM4.417 3.171a.503.503 0 0 0-.114.185L1.852 13.378a.306.306 0 0 0 .068.277c.068.069.159.115.272.115l10.396-.369a.256.256 0 0 0 .182-.069.503.503 0 0 0 .113-.184l2.633-10.184a.371.371 0 0 0-.068-.3c-.068-.092-.159-.138-.272-.115l-10.578.53a.454.454 0 0 0-.181.093Z" fill="#1800D2"/><path d="M13.544 14.324a.338.338 0 0 1-.25.092l-12.303.438a.449.449 0 0 1-.363-.162.487.487 0 0 1-.09-.391L3.442 2.389c.023-.092.068-.184.159-.23a.338.338 0 0 1 .25-.093l12.53-.622c.135 0 .271.046.362.162.091.115.114.253.091.391L13.703 14.07c-.023.115-.068.208-.16.254ZM4.305 3.034a.429.429 0 0 0-.158.277L1.695 13.333a.493.493 0 0 0 .09.438c.092.115.25.184.387.184l10.396-.369a.474.474 0 0 0 .295-.115.439.439 0 0 0 .159-.253l2.633-10.184a.493.493 0 0 0-.091-.438.528.528 0 0 0-.409-.184l-10.577.53c-.091 0-.182.046-.273.092Z" fill="#009AF1"/><path d="M13.454 14.208a.205.205 0 0 1-.16.07l-12.302.437c-.09 0-.159-.046-.227-.092-.045-.07-.068-.161-.045-.23L3.625 2.48c.023-.07.046-.115.091-.138.045-.047.09-.047.159-.07l12.53-.622a.29.29 0 0 1 .226.093c.046.069.069.16.046.253L13.544 14.07a.483.483 0 0 1-.09.138ZM4.215 2.918a.68.68 0 0 0-.227.37L1.537 13.31a.658.658 0 0 0 .136.576.675.675 0 0 0 .522.253l10.396-.369a.611.611 0 0 0 .386-.138.71.71 0 0 0 .227-.345l2.633-10.184a.728.728 0 0 0-.113-.576c-.114-.161-.34-.254-.545-.254L4.6 2.803a.461.461 0 0 0-.386.116Z" fill="#42D1F7"/><path d="M3.442 11.099a.934.934 0 0 0 .885 1.175l6.833-.046c.204 0 .408-.07.567-.208a.966.966 0 0 0 .318-.553l1.316-6.589a.966.966 0 0 0-.204-.783.996.996 0 0 0-.726-.346l-6.447.092c-.408 0-.771.3-.885.691L3.442 11.1Zm7.9-5.415-.954 4.7-4.88.024 1.225-4.655 4.608-.069Z" fill="#000"/><path d="M11.637 11.905a.705.705 0 0 1-.476.16l-6.832.047a.83.83 0 0 1-.613-.3.78.78 0 0 1-.137-.668l1.726-6.543a.967.967 0 0 1 .25-.415.687.687 0 0 1 .453-.161l6.447-.092c.227 0 .454.092.59.276a.742.742 0 0 1 .159.645l-1.317 6.59a.715.715 0 0 1-.25.46Zm-4.97-6.29c-.023.023-.046.046-.046.092L5.395 10.36c-.022.046 0 .092.023.138.023.046.068.07.136.07l4.88-.024c.046 0 .069-.023.091-.046a.316.316 0 0 0 .068-.092l.954-4.7c0-.046 0-.092-.046-.139-.022-.046-.068-.069-.136-.069l-4.585.07c-.068 0-.09.023-.114.046Z" fill="#100098"/><path d="M11.545 11.766a.552.552 0 0 1-.363.138l-6.832.046a.635.635 0 0 1-.477-.23c-.113-.138-.159-.346-.113-.53l1.725-6.543c.022-.115.113-.23.204-.323a.552.552 0 0 1 .363-.138l6.447-.092c.181 0 .363.069.476.23a.667.667 0 0 1 .136.507l-1.316 6.59c-.068.138-.159.276-.25.345Zm-4.994-6.29a.503.503 0 0 0-.113.184l-1.226 4.655a.306.306 0 0 0 .068.276.312.312 0 0 0 .25.138l4.88-.023a.362.362 0 0 0 .204-.069c.069-.046.091-.115.114-.184l.953-4.7a.306.306 0 0 0-.068-.277.362.362 0 0 0-.25-.115l-4.585.069a.26.26 0 0 0-.227.046Z" fill="#1800D2"/><path d="M11.434 11.651c-.068.07-.181.092-.272.092l-6.832.046a.441.441 0 0 1-.34-.16.407.407 0 0 1-.069-.393l1.725-6.543a.39.39 0 0 1 .16-.23c.067-.07.158-.093.271-.093l6.447-.092c.136 0 .25.046.34.162.091.092.114.23.091.368l-1.316 6.59c-.069.092-.114.184-.205.253Zm-4.97-6.29a.439.439 0 0 0-.16.254L5.08 10.269c-.046.138 0 .3.09.438.091.115.25.184.386.184l4.88-.023a.428.428 0 0 0 .296-.115.513.513 0 0 0 .181-.3l.954-4.7c.022-.138 0-.3-.114-.415a.482.482 0 0 0-.386-.184l-4.585.069a.585.585 0 0 0-.318.138Z" fill="#009AF1"/><path d="M11.343 11.514a.243.243 0 0 1-.16.069l-6.831.046c-.091 0-.16-.046-.227-.115-.046-.07-.068-.162-.046-.23L5.804 4.74c.023-.046.046-.115.091-.138a.243.243 0 0 1 .159-.07L12.5 4.44c.091 0 .16.047.205.093.045.069.068.138.068.23l-1.317 6.59c-.045.069-.068.115-.113.16Zm-4.994-6.29a.709.709 0 0 0-.227.345l-1.226 4.654a.728.728 0 0 0 .114.576.642.642 0 0 0 .522.254l4.88-.023a.624.624 0 0 0 .636-.53L12 5.8a.612.612 0 0 0-.136-.553c-.136-.161-.318-.254-.522-.23l-4.585.069a.628.628 0 0 0-.409.138Z" fill="#42D1F7"/><path d="M11.229 11.397c-.023.023-.046.023-.068.023l-6.833.046a.17.17 0 0 1-.09-.046c-.023-.023-.023-.069-.023-.092L5.94 4.785c0-.023.023-.046.045-.07.023-.022.046-.022.068-.022L12.5 4.6c.023 0 .068.023.09.046.023.023.023.069.023.092l-1.316 6.59-.068.068ZM6.258 5.084a.801.801 0 0 0-.273.438L4.76 10.176a.804.804 0 0 0 .136.714.834.834 0 0 0 .658.323l4.88-.023c.182 0 .363-.07.5-.184.159-.116.25-.3.295-.484l.953-4.7a.84.84 0 0 0-.817-.99l-4.585.068c-.205.023-.386.07-.522.184Z" fill="#ABEFFF"/><path d="M9.684 9.67c.817-.669.953-1.89.295-2.72A1.89 1.89 0 0 0 7.3 6.652a1.958 1.958 0 0 0-.295 2.72 1.89 1.89 0 0 0 2.679.299ZM8.458 8.103a.068.068 0 0 1 .09 0 .07.07 0 0 1 0 .092.068.068 0 0 1-.09 0 .07.07 0 0 1 0-.092Z" fill="#000"/><path d="M9.593 9.53a1.719 1.719 0 0 1-2.451-.276 1.78 1.78 0 0 1 .272-2.488 1.719 1.719 0 0 1 2.452.276c.59.76.476 1.89-.273 2.489ZM8.345 7.965c-.091.069-.114.23-.046.322.069.093.227.116.318.047.091-.07.114-.23.046-.323-.068-.115-.205-.115-.318-.046Z" fill="#100098"/><path d="M9.48 9.393a1.57 1.57 0 0 1-2.225-.254 1.626 1.626 0 0 1 .25-2.258 1.57 1.57 0 0 1 2.224.254 1.626 1.626 0 0 1-.25 2.258ZM8.253 7.826c-.16.138-.205.392-.068.553.136.161.386.207.544.069.16-.138.205-.392.069-.553a.415.415 0 0 0-.545-.07Z" fill="#1800D2"/><path d="M9.389 9.278a1.398 1.398 0 0 1-1.998-.23c-.499-.622-.385-1.52.227-2.028a1.398 1.398 0 0 1 1.998.23c.476.623.386 1.521-.227 2.028ZM8.14 7.711c-.25.185-.272.553-.09.784.181.253.544.276.771.092.25-.184.273-.553.091-.783a.52.52 0 0 0-.772-.093Z" fill="#009AF1"/><path d="M9.277 9.14a1.25 1.25 0 0 1-1.77-.208 1.294 1.294 0 0 1 .204-1.797 1.25 1.25 0 0 1 1.77.207c.432.553.34 1.36-.204 1.797ZM8.051 7.571a.716.716 0 0 0-.113 1.014c.25.323.704.369.999.115a.716.716 0 0 0 .113-1.013c-.25-.3-.704-.369-.999-.116Z" fill="#42D1F7"/><path d="M9.185 9.025c-.477.391-1.158.3-1.544-.185a1.119 1.119 0 0 1 .182-1.566c.476-.392 1.157-.3 1.543.184a1.14 1.14 0 0 1-.181 1.567ZM7.936 7.458c-.386.3-.431.875-.136 1.244a.86.86 0 0 0 1.226.138c.386-.3.431-.875.136-1.244a.84.84 0 0 0-1.226-.138Z" fill="#ABEFFF"/><path d="M13.34 14.069c-.023.023-.046.023-.068.023L.969 14.53a.171.171 0 0 1-.09-.046c-.024-.023-.024-.07-.024-.092L3.761 2.48c0-.023.023-.046.045-.07.023-.022.046-.022.068-.022l12.53-.622c.045 0 .068.023.09.046.023.023.023.069.023.092l-3.132 12.073c0 .069-.023.069-.045.092ZM4.1 2.779c-.136.116-.25.277-.272.438L1.378 13.24c-.069.254 0 .53.158.715a.751.751 0 0 0 .659.3l10.396-.37c.181 0 .34-.069.476-.184a.801.801 0 0 0 .273-.437l2.633-10.184a.862.862 0 0 0-.16-.737.767.767 0 0 0-.68-.3l-10.578.53c-.159.046-.317.092-.454.207Z" fill="#ABEFFF"/></svg>