<svg width="132" height="29" fill="none" xmlns="http://www.w3.org/2000/svg"><g clip-path="url(#a)"><path d="M16.155 27.528a2.146 2.146 0 0 1-1.759-.915L9.178 18.04l-2.282 3.193a2.167 2.167 0 0 1-1.726.882 1.703 1.703 0 0 1-.45-.066 2.103 2.103 0 0 1-1.636-1.633L0 5.715a2.145 2.145 0 0 1 2.086-2.547 2.12 2.12 0 0 1 2.078 1.633L6.258 14.83l1.333-1.87a1.995 1.995 0 0 1 1.734-.89 2.096 2.096 0 0 1 1.824 1.045l6.846 11.18a2.104 2.104 0 0 1-.67 2.89 1.95 1.95 0 0 1-1.17.344Z" fill="#100098"/><path d="M16.155 27.12a1.736 1.736 0 0 1-1.423-.735l-5.53-9.081-2.658 3.7a1.717 1.717 0 0 1-3.067-.646L.434 5.618a1.72 1.72 0 0 1 1.3-2c.12-.014.24-.014.36 0a1.711 1.711 0 0 1 1.677 1.281l2.274 10.927 1.881-2.63a1.586 1.586 0 0 1 1.399-.718 1.68 1.68 0 0 1 1.472.816l6.83 11.204a1.704 1.704 0 0 1-.548 2.336c-.27.189-.594.289-.924.286Z" fill="#1800D2"/><path d="M16.155 27.12a1.736 1.736 0 0 1-1.423-.735l-5.53-9.081-2.658 3.7a1.717 1.717 0 0 1-3.067-.646L.434 5.618a1.72 1.72 0 0 1 1.3-2c.12-.014.24-.014.36 0a1.711 1.711 0 0 1 1.677 1.281l2.274 10.927 1.881-2.63a1.586 1.586 0 0 1 1.399-.718 1.68 1.68 0 0 1 1.472.816l6.83 11.204a1.704 1.704 0 0 1-.548 2.336c-.27.189-.594.289-.924.286Z" fill="#100098"/><path d="M10.437 13.524a1.267 1.267 0 0 0-1.112-.637 1.212 1.212 0 0 0-1.072.547l-2.412 3.389L3.387 5.006a1.306 1.306 0 0 0-1.293-1.02 1.73 1.73 0 0 0-.261 0A1.333 1.333 0 0 0 .818 5.536l3.068 14.7a1.297 1.297 0 0 0 1.022 1.036c.09.008.18.008.27 0a1.302 1.302 0 0 0 1.055-.539l3.01-4.205 5.824 9.603a1.315 1.315 0 0 0 1.088.564 1.18 1.18 0 0 0 .703-.213 1.3 1.3 0 0 0 .417-1.78l-6.838-11.18Z" fill="#009AF1"/><path d="M5.84 27.226a2.022 2.022 0 0 1-1.267-.416 1.986 1.986 0 0 1-.818-1.299 2.096 2.096 0 0 1 .368-1.633l3.517-5.096a2.052 2.052 0 0 1 1.734-.922c.447.002.882.145 1.244.408a2.082 2.082 0 0 1 .556 2.858L7.59 26.32a2.264 2.264 0 0 1-1.75.906Z" fill="#100098"/><path d="M5.84 26.818a1.638 1.638 0 0 1-1.022-.335 1.633 1.633 0 0 1-.67-1.045 1.745 1.745 0 0 1 .294-1.315l3.533-5.112a1.635 1.635 0 0 1 1.399-.743 1.736 1.736 0 0 1 1.712 1.772 1.73 1.73 0 0 1-.256.866l-3.575 5.177a1.808 1.808 0 0 1-1.415.735Z" fill="#1800D2"/><path d="M5.84 26.818a1.638 1.638 0 0 1-1.022-.335 1.633 1.633 0 0 1-.67-1.045 1.745 1.745 0 0 1 .294-1.315l3.533-5.112a1.635 1.635 0 0 1 1.399-.743 1.736 1.736 0 0 1 1.712 1.772 1.73 1.73 0 0 1-.256.866l-3.575 5.177a1.808 1.808 0 0 1-1.415.735Z" fill="#100098"/><path d="M10.135 18.929a1.27 1.27 0 0 0-1.824.319L4.778 24.36a1.28 1.28 0 0 0-.221.996 1.215 1.215 0 0 0 .507.816c.225.165.498.25.777.245a1.392 1.392 0 0 0 1.08-.555l3.558-5.161a1.28 1.28 0 0 0-.344-1.772Z" fill="#009AF1"/><path d="M16.883 22.759a2.138 2.138 0 0 1-1.849-1.07l-3.795-6.427a2.104 2.104 0 0 1 .687-2.874c.342-.21.736-.323 1.137-.327a2.113 2.113 0 0 1 1.791 1.005l1.04 1.764 2.101-9.988a2.065 2.065 0 0 1 2.07-1.698c.16-.001.32.018.474.057a2.168 2.168 0 0 1 1.685 2.172c.009.109.009.218 0 .327L18.97 21.069a2.14 2.14 0 0 1-1.685 1.633h-.328l-.073.057Z" fill="#100098"/><path d="M16.883 22.35a1.728 1.728 0 0 1-1.497-.865L11.59 15.05a1.696 1.696 0 0 1 .556-2.32 1.76 1.76 0 0 1 .94-.26 1.72 1.72 0 0 1 1.448.816l1.57 2.67L18.356 4.9a1.633 1.633 0 0 1 1.636-1.372c.154.005.308.027.458.066a1.783 1.783 0 0 1 1.366 1.78c.008.082.008.164 0 .245l-3.247 15.369a1.731 1.731 0 0 1-1.39 1.339h-.246l-.05.024Z" fill="#1800D2"/><path d="M16.883 22.35a1.728 1.728 0 0 1-1.497-.865L11.59 15.05a1.696 1.696 0 0 1 .556-2.32 1.76 1.76 0 0 1 .94-.26 1.72 1.72 0 0 1 1.448.816l1.57 2.67L18.356 4.9a1.633 1.633 0 0 1 1.636-1.372c.154.005.308.027.458.066a1.783 1.783 0 0 1 1.366 1.78c.008.082.008.164 0 .245l-3.247 15.369a1.731 1.731 0 0 1-1.39 1.339h-.246l-.05.024Z" fill="#100098"/><path d="M20.31 3.994a1.098 1.098 0 0 0-.286 0 1.277 1.277 0 0 0-1.268 1.045l-2.454 12.053-2.102-3.568a1.3 1.3 0 0 0-1.112-.645c-.245.002-.485.07-.696.196a1.299 1.299 0 0 0-.425 1.772l3.803 6.435a1.3 1.3 0 0 0 1.137.661h.238a1.317 1.317 0 0 0 1.047-1.02l3.157-15.386a1.012 1.012 0 0 0 0-.163 1.378 1.378 0 0 0-1.039-1.38Z" fill="#009AF1"/><path d="M28.743 28.5a2.153 2.153 0 0 1-2.119-2.123V18.66l-3.157-1.062a2.159 2.159 0 0 1-1.44-2.017 2.096 2.096 0 0 1 1.514-2.025l3.721-1.225a2.038 2.038 0 0 1-.417-1.233V7.774a2.105 2.105 0 0 1-2.028-.343 2.155 2.155 0 0 1-.336-2.972L27.287.817l.122-.123.099-.122c.096-.083.197-.159.302-.229.33-.22.716-.339 1.113-.343.137 0 .275.017.409.049.095.014.188.039.278.073.154.045.3.114.433.205.138.074.262.17.368.285l.066.066c.072.075.14.154.204.237l2.601 3.658a2.137 2.137 0 0 1-.49 2.932 2.096 2.096 0 0 1-1.252.392 2.13 2.13 0 0 1-.458-.05v1.716l2.92.996a2.282 2.282 0 0 1 1.448 1.854 2.16 2.16 0 0 1-1.497 2.188l-3.607 1.176c.335.378.519.867.515 1.372v9.228a2.146 2.146 0 0 1-2.118 2.123Z" fill="#100098"/><path d="M28.743 28.091a1.736 1.736 0 0 1-1.71-1.715v-8.01l-3.435-1.16a1.727 1.727 0 0 1-1.162-1.633 1.697 1.697 0 0 1 1.22-1.634l4.375-1.437a1.733 1.733 0 0 1-.818-1.413V7.08c-.314.264-.71.408-1.12.409-.387 0-.763-.132-1.064-.376a1.739 1.739 0 0 1-.27-2.4l2.806-3.643a.642.642 0 0 1 .115-.106.917.917 0 0 1 .081-.106c.068-.064.139-.124.213-.18a1.638 1.638 0 0 1 1.26-.228c.072.011.144.03.212.057.124.033.24.088.344.163.116.057.222.135.31.229l.058.057c.059.062.113.127.163.196l2.602 3.658a1.713 1.713 0 0 1-.401 2.36c-.291.215-.645.327-1.006.319a1.76 1.76 0 0 1-.867-.229v2.597l3.198 1.095a1.84 1.84 0 0 1 1.17 1.502 1.73 1.73 0 0 1-1.211 1.756l-4.319 1.412a1.742 1.742 0 0 1 .965 1.528v9.227a1.73 1.73 0 0 1-1.71 1.715Z" fill="#1800D2"/><path d="M28.743 28.091a1.736 1.736 0 0 1-1.71-1.715v-8.01l-3.435-1.16a1.727 1.727 0 0 1-1.162-1.633 1.697 1.697 0 0 1 1.22-1.634l4.375-1.437a1.733 1.733 0 0 1-.818-1.413V7.08c-.314.264-.71.408-1.12.409-.387 0-.763-.132-1.064-.376a1.739 1.739 0 0 1-.27-2.4l2.806-3.643a.642.642 0 0 1 .115-.106.917.917 0 0 1 .081-.106c.068-.064.139-.124.213-.18a1.638 1.638 0 0 1 1.26-.228c.072.011.144.03.212.057.124.033.24.088.344.163.116.057.222.135.31.229l.058.057c.059.062.113.127.163.196l2.602 3.658a1.713 1.713 0 0 1-.401 2.36c-.291.215-.645.327-1.006.319a1.76 1.76 0 0 1-.867-.229v2.597l3.198 1.095a1.84 1.84 0 0 1 1.17 1.502 1.73 1.73 0 0 1-1.211 1.756l-4.319 1.412a1.742 1.742 0 0 1 .965 1.528v9.227a1.73 1.73 0 0 1-1.71 1.715Z" fill="#100098"/><path d="m33.74 11.335-3.475-1.185V6.24l.212.294a1.325 1.325 0 0 0 1.832.31 1.314 1.314 0 0 0 .303-1.796L30.02 1.388l-.13-.147-.058-.057a.816.816 0 0 0-.163-.13.229.229 0 0 1-.074-.05.752.752 0 0 0-.237-.106l-.172-.081a1.352 1.352 0 0 0-.254 0c-.24 0-.475.068-.678.195-.052.041-.101.085-.148.131l-.073.098-.09.074-2.822 3.65a1.321 1.321 0 0 0 .237 1.83c.23.19.52.291.818.285a1.343 1.343 0 0 0 1.039-.498l.49-.637v5.153a1.362 1.362 0 0 0 .876 1.233l.662.229-5.43 1.78a1.292 1.292 0 0 0-.925 1.241 1.321 1.321 0 0 0 .834 1.241l3.714 1.25v8.305a1.298 1.298 0 0 0 1.798 1.2 1.301 1.301 0 0 0 .803-1.2v-9.228a1.378 1.378 0 0 0-.876-1.241l-.891-.303 5.44-1.78a1.316 1.316 0 0 0 .915-1.323 1.42 1.42 0 0 0-.883-1.167Z" fill="#009AF1"/><path d="M40.546 28.238a6.77 6.77 0 0 1-4.785-1.796 8.162 8.162 0 0 1-1.848-6.966 2.147 2.147 0 0 1 2.077-1.56c.165.003.33.022.491.058a2.184 2.184 0 0 1 1.57 2.564 4.338 4.338 0 0 0 .761 2.923c.504.382 1.128.57 1.759.531.464.02.925-.088 1.333-.31.949-.817 1.022-1.34.31-2.303a4.522 4.522 0 0 0-1.07-.964l-4.957-3.364a2.107 2.107 0 0 1-.078-3.44 2.113 2.113 0 0 1 1.255-.415c.412-.002.815.114 1.162.335l5.014 3.405a8.4 8.4 0 0 1 2.094 2.026c1.587 2.14 2.151 5.381-1.039 8.035a6.477 6.477 0 0 1-4.049 1.241Z" fill="#100098"/><path d="M40.545 27.83a6.304 6.304 0 0 1-4.49-1.698c-1.947-1.968-2.094-5.3-1.75-6.533a1.756 1.756 0 0 1 1.636-1.257c.135 0 .27.016.4.049a1.767 1.767 0 0 1 1.285 2.025 4.648 4.648 0 0 0 .867 3.266c.579.465 1.31.698 2.052.654a2.826 2.826 0 0 0 1.636-.4c1.121-.94 1.22-1.715.377-2.859a5.141 5.141 0 0 0-1.162-1.094l-4.965-3.373a1.69 1.69 0 0 1-.441-2.27 1.635 1.635 0 0 1 1.415-.768c.333-.002.66.091.94.27l5.006 3.397a7.856 7.856 0 0 1 1.988 1.927c1.48 1.993 2.012 5.014-.965 7.489a6.117 6.117 0 0 1-3.829 1.176Z" fill="#1800D2"/><path d="M40.545 27.83a6.304 6.304 0 0 1-4.49-1.698c-1.947-1.968-2.094-5.3-1.75-6.533a1.756 1.756 0 0 1 1.636-1.257c.135 0 .27.016.4.049a1.767 1.767 0 0 1 1.285 2.025 4.648 4.648 0 0 0 .867 3.266c.579.465 1.31.698 2.052.654a2.826 2.826 0 0 0 1.636-.4c1.121-.94 1.22-1.715.377-2.859a5.141 5.141 0 0 0-1.162-1.094l-4.965-3.373a1.69 1.69 0 0 1-.441-2.27 1.635 1.635 0 0 1 1.415-.768c.333-.002.66.091.94.27l5.006 3.397a7.856 7.856 0 0 1 1.988 1.927c1.48 1.993 2.012 5.014-.965 7.489a6.117 6.117 0 0 1-3.829 1.176Z" fill="#100098"/><path d="m43.082 17.574-4.998-3.39a1.319 1.319 0 0 0-.72-.203 1.246 1.246 0 0 0-1.071.58 1.28 1.28 0 0 0 .352 1.771l4.965 3.373c.48.326.905.725 1.26 1.184.973 1.315.817 2.336-.45 3.422a3.218 3.218 0 0 1-1.866.49 3.324 3.324 0 0 1-2.339-.776 4.992 4.992 0 0 1-.982-3.675 1.321 1.321 0 0 0-.956-1.568 1.236 1.236 0 0 0-.303 0 1.326 1.326 0 0 0-1.268.956c-.286 1.037-.229 4.279 1.636 6.173a5.928 5.928 0 0 0 4.204 1.56 5.684 5.684 0 0 0 3.526-1.086 4.766 4.766 0 0 0 2.008-3.293 4.754 4.754 0 0 0-1.092-3.697 7.564 7.564 0 0 0-1.906-1.821Z" fill="#009AF1"/><path d="M43.286 17.149c-.448 0-.884-.143-1.244-.409l-4.907-3.331a7.356 7.356 0 0 1-2.102-2.058 5.558 5.558 0 0 1-.472-6.344c.385-.65.9-1.214 1.51-1.66a6.42 6.42 0 0 1 4.09-1.273 6.705 6.705 0 0 1 4.785 1.788 8.162 8.162 0 0 1 1.84 6.966 2.156 2.156 0 0 1-2.06 1.552 1.9 1.9 0 0 1-.483-.057 2.26 2.26 0 0 1-1.39-1.095 2.056 2.056 0 0 1-.148-1.584 4.486 4.486 0 0 0-.818-2.801 2.612 2.612 0 0 0-1.759-.539c-.47-.028-.939.08-1.35.31-.948.817-1.022 1.331-.31 2.295.299.389.658.728 1.063 1.005l4.965 3.372a2.098 2.098 0 0 1 .58 2.891 2.174 2.174 0 0 1-1.79.972Z" fill="#100098"/><path d="M43.286 16.748c-.36.004-.71-.11-.998-.326l-4.908-3.34a7.105 7.105 0 0 1-1.996-1.952c-1.472-1.976-1.995-4.99.974-7.464a5.994 5.994 0 0 1 3.77-1.216 6.312 6.312 0 0 1 4.5 1.633 7.744 7.744 0 0 1 1.733 6.533 1.732 1.732 0 0 1-1.636 1.257 1.64 1.64 0 0 1-.392-.049 1.841 1.841 0 0 1-1.12-.882 1.68 1.68 0 0 1-.156-1.143 4.641 4.641 0 0 0-.892-3.266 2.948 2.948 0 0 0-2.045-.662 2.8 2.8 0 0 0-1.636.4c-1.12.94-1.227 1.715-.376 2.858.319.435.709.814 1.153 1.12l4.965 3.372a1.69 1.69 0 0 1 .467 2.335 1.765 1.765 0 0 1-1.407.793Z" fill="#1800D2"/><path d="M43.286 16.748c-.36.004-.71-.11-.998-.326l-4.908-3.34a7.105 7.105 0 0 1-1.996-1.952c-1.472-1.976-1.995-4.99.974-7.464a5.994 5.994 0 0 1 3.77-1.216 6.312 6.312 0 0 1 4.5 1.633 7.744 7.744 0 0 1 1.733 6.533 1.732 1.732 0 0 1-1.636 1.257 1.64 1.64 0 0 1-.392-.049 1.841 1.841 0 0 1-1.12-.882 1.68 1.68 0 0 1-.156-1.143 4.641 4.641 0 0 0-.892-3.266 2.948 2.948 0 0 0-2.045-.662 2.8 2.8 0 0 0-1.636.4c-1.12.94-1.227 1.715-.376 2.858.319.435.709.814 1.153 1.12l4.965 3.372a1.69 1.69 0 0 1 .467 2.335 1.765 1.765 0 0 1-1.407.793Z" fill="#100098"/><path d="M40.128 2.891a5.577 5.577 0 0 0-3.533 1.086 4.748 4.748 0 0 0-1.967 3.267 4.74 4.74 0 0 0 1.075 3.658 6.537 6.537 0 0 0 1.922 1.838l4.908 3.356c.219.159.482.245.753.245a1.334 1.334 0 0 0 1.096-.605 1.297 1.297 0 0 0-.352-1.78l-4.973-3.34a5.46 5.46 0 0 1-1.26-1.184c-.965-1.315-.818-2.335.45-3.413a3.186 3.186 0 0 1 1.873-.498 3.316 3.316 0 0 1 2.34.816 5.049 5.049 0 0 1 .99 3.618 1.321 1.321 0 0 0 .94 1.633c.1.008.202.008.303 0a1.343 1.343 0 0 0 1.276-.972 7.395 7.395 0 0 0-1.636-6.173 5.911 5.911 0 0 0-4.205-1.552Z" fill="#009AF1"/><path d="M50.173 16.047a2.153 2.153 0 0 1-2.118-2.123V4.729a2.146 2.146 0 0 1 2.118-2.124h7.214a2.153 2.153 0 0 1 2.119 2.124 2.146 2.146 0 0 1-2.119 2.115h-5.095v4.965h4.09a2.128 2.128 0 0 1 1.994 2.119 2.12 2.12 0 0 1-1.995 2.119h-6.208Z" fill="#100098"/><path d="M50.173 15.639a1.736 1.736 0 0 1-1.71-1.715V4.729a1.73 1.73 0 0 1 1.71-1.715h7.215a1.719 1.719 0 0 1 1.599 1.71 1.714 1.714 0 0 1-1.6 1.711h-5.504v5.815h4.499a1.719 1.719 0 0 1 1.599 1.71 1.713 1.713 0 0 1-1.6 1.711l-6.208-.032Z" fill="#1800D2"/><path d="M50.173 15.639a1.736 1.736 0 0 1-1.71-1.715V4.729a1.73 1.73 0 0 1 1.71-1.715h7.215a1.719 1.719 0 0 1 1.599 1.71 1.714 1.714 0 0 1-1.6 1.711h-5.504v5.815h4.499a1.719 1.719 0 0 1 1.599 1.71 1.713 1.713 0 0 1-1.6 1.711l-6.208-.032Z" fill="#100098"/><path d="M57.388 3.422h-7.214a1.326 1.326 0 0 0-1.301 1.306v9.196a1.322 1.322 0 0 0 1.3 1.306h6.209a1.31 1.31 0 0 0 1.205-1.302 1.305 1.305 0 0 0-1.205-1.303h-4.908V6.027h5.914a1.31 1.31 0 0 0 1.205-1.303 1.305 1.305 0 0 0-1.205-1.302Z" fill="#009AF1"/><path d="M5.84 26.818a1.638 1.638 0 0 1-1.022-.335 1.633 1.633 0 0 1-.67-1.045 1.745 1.745 0 0 1 .294-1.315l3.533-5.112a1.635 1.635 0 0 1 1.399-.743 1.736 1.736 0 0 1 1.712 1.772 1.73 1.73 0 0 1-.256.866l-3.575 5.177a1.808 1.808 0 0 1-1.415.735Z" fill="#1800D2"/><path d="M50.173 27.708a2.153 2.153 0 0 1-2.118-2.115V16.92a2.146 2.146 0 0 1 2.118-2.123h6.208a2.128 2.128 0 0 1 1.995 2.119 2.121 2.121 0 0 1-1.995 2.12h-4.09v4.433h5.097a2.128 2.128 0 0 1 1.994 2.12 2.121 2.121 0 0 1-1.994 2.119h-7.215Z" fill="#100098"/><path d="M50.173 27.3a1.735 1.735 0 0 1-1.71-1.707V16.92a1.73 1.73 0 0 1 1.71-1.715h6.209a1.719 1.719 0 0 1 1.599 1.71 1.713 1.713 0 0 1-1.6 1.712h-4.498v5.25h5.505a1.719 1.719 0 0 1 1.599 1.711 1.713 1.713 0 0 1-1.6 1.711h-7.214Z" fill="#1800D2"/><path d="M50.173 27.3a1.735 1.735 0 0 1-1.71-1.707V16.92a1.73 1.73 0 0 1 1.71-1.715h6.209a1.719 1.719 0 0 1 1.599 1.71 1.713 1.713 0 0 1-1.6 1.712h-4.498v5.25h5.505a1.719 1.719 0 0 1 1.599 1.711 1.713 1.713 0 0 1-1.6 1.711h-7.214Z" fill="#100098"/><path d="M57.388 24.286h-5.914v-6.068h4.908a1.31 1.31 0 0 0 1.205-1.302 1.305 1.305 0 0 0-1.205-1.303h-6.208a1.326 1.326 0 0 0-1.301 1.307v8.672a1.314 1.314 0 0 0 1.3 1.299h7.215a1.31 1.31 0 0 0 1.205-1.303 1.305 1.305 0 0 0-1.205-1.302Z" fill="#009AF1"/><path d="M16.155 27.12a1.736 1.736 0 0 1-1.423-.735l-5.53-9.081-2.658 3.7a1.717 1.717 0 0 1-3.067-.646L.434 5.618a1.72 1.72 0 0 1 1.3-2c.12-.014.24-.014.36 0a1.711 1.711 0 0 1 1.677 1.281l2.274 10.927 1.881-2.63a1.586 1.586 0 0 1 1.399-.718 1.68 1.68 0 0 1 1.472.816l6.83 11.204a1.704 1.704 0 0 1-.548 2.336c-.27.189-.594.289-.924.286Z" fill="#1800D2"/><path d="M10.437 13.524a1.267 1.267 0 0 0-1.112-.637 1.212 1.212 0 0 0-1.072.547l-2.412 3.389L3.387 5.006a1.306 1.306 0 0 0-1.293-1.02 1.73 1.73 0 0 0-.261 0A1.333 1.333 0 0 0 .818 5.536l3.068 14.7a1.297 1.297 0 0 0 1.022 1.036c.09.008.18.008.27 0a1.302 1.302 0 0 0 1.055-.539l3.01-4.205 5.824 9.603a1.315 1.315 0 0 0 1.088.564 1.18 1.18 0 0 0 .703-.213 1.3 1.3 0 0 0 .417-1.78l-6.838-11.18Z" fill="#009AF1"/><path d="M10.135 18.929a1.27 1.27 0 0 0-1.824.319L4.778 24.36a1.28 1.28 0 0 0-.221.996 1.215 1.215 0 0 0 .507.816c.225.165.498.25.777.245a1.392 1.392 0 0 0 1.08-.555l3.558-5.161a1.28 1.28 0 0 0-.344-1.772Z" fill="#009AF1"/><path d="M16.883 22.35a1.728 1.728 0 0 1-1.497-.865L11.59 15.05a1.696 1.696 0 0 1 .556-2.32 1.76 1.76 0 0 1 .94-.26 1.72 1.72 0 0 1 1.448.816l1.57 2.67L18.356 4.9a1.633 1.633 0 0 1 1.636-1.372c.154.005.308.027.458.066a1.783 1.783 0 0 1 1.366 1.78c.008.082.008.164 0 .245l-3.247 15.369a1.731 1.731 0 0 1-1.39 1.339h-.246l-.05.024Z" fill="#1800D2"/><path d="M20.31 3.994a1.098 1.098 0 0 0-.286 0 1.277 1.277 0 0 0-1.268 1.045l-2.454 12.053-2.102-3.568a1.3 1.3 0 0 0-1.112-.645c-.245.002-.485.07-.696.196a1.299 1.299 0 0 0-.425 1.772l3.803 6.435a1.3 1.3 0 0 0 1.137.661h.238a1.317 1.317 0 0 0 1.047-1.02l3.157-15.386a1.012 1.012 0 0 0 0-.163 1.378 1.378 0 0 0-1.039-1.38Z" fill="#009AF1"/><path d="M28.743 28.091a1.736 1.736 0 0 1-1.71-1.715v-8.01l-3.435-1.16a1.727 1.727 0 0 1-1.162-1.633 1.697 1.697 0 0 1 1.22-1.634l4.375-1.437a1.733 1.733 0 0 1-.818-1.413V7.08c-.314.264-.71.408-1.12.409-.387 0-.763-.132-1.064-.376a1.739 1.739 0 0 1-.27-2.4l2.806-3.643a.642.642 0 0 1 .115-.106.917.917 0 0 1 .081-.106c.068-.064.139-.124.213-.18a1.638 1.638 0 0 1 1.26-.228c.072.011.144.03.212.057.124.033.24.088.344.163.116.057.222.135.31.229l.058.057c.059.062.113.127.163.196l2.602 3.658a1.713 1.713 0 0 1-.401 2.36c-.291.215-.645.327-1.006.319a1.76 1.76 0 0 1-.867-.229v2.597l3.198 1.095a1.84 1.84 0 0 1 1.17 1.502 1.73 1.73 0 0 1-1.211 1.756l-4.319 1.412a1.742 1.742 0 0 1 .965 1.528v9.227a1.73 1.73 0 0 1-1.71 1.715Z" fill="#1800D2"/><path d="m33.74 11.335-3.475-1.185V6.24l.212.294a1.325 1.325 0 0 0 1.832.31 1.314 1.314 0 0 0 .303-1.796L30.02 1.388l-.13-.147-.058-.057a.816.816 0 0 0-.163-.13.229.229 0 0 1-.074-.05.752.752 0 0 0-.237-.106l-.172-.081a1.352 1.352 0 0 0-.254 0c-.24 0-.475.068-.678.195-.052.041-.101.085-.148.131l-.073.098-.09.074-2.822 3.65a1.321 1.321 0 0 0 .237 1.83c.23.19.52.291.818.285a1.343 1.343 0 0 0 1.039-.498l.49-.637v5.153a1.362 1.362 0 0 0 .876 1.233l.662.229-5.43 1.78a1.292 1.292 0 0 0-.925 1.241 1.321 1.321 0 0 0 .834 1.241l3.714 1.25v8.305a1.298 1.298 0 0 0 1.798 1.2 1.301 1.301 0 0 0 .803-1.2v-9.228a1.378 1.378 0 0 0-.876-1.241l-.891-.303 5.44-1.78a1.316 1.316 0 0 0 .915-1.323 1.42 1.42 0 0 0-.883-1.167Z" fill="#009AF1"/><path d="M40.545 27.83a6.304 6.304 0 0 1-4.49-1.698c-1.947-1.968-2.094-5.3-1.75-6.533a1.756 1.756 0 0 1 1.636-1.257c.135 0 .27.016.4.049a1.767 1.767 0 0 1 1.285 2.025 4.648 4.648 0 0 0 .867 3.266c.579.465 1.31.698 2.052.654a2.826 2.826 0 0 0 1.636-.4c1.121-.94 1.22-1.715.377-2.859a5.141 5.141 0 0 0-1.162-1.094l-4.965-3.373a1.69 1.69 0 0 1-.441-2.27 1.635 1.635 0 0 1 1.415-.768c.333-.002.66.091.94.27l5.006 3.397a7.856 7.856 0 0 1 1.988 1.927c1.48 1.993 2.012 5.014-.965 7.489a6.117 6.117 0 0 1-3.829 1.176Z" fill="#1800D2"/><path d="m43.082 17.574-4.998-3.39a1.319 1.319 0 0 0-.72-.203 1.246 1.246 0 0 0-1.071.58 1.28 1.28 0 0 0 .352 1.771l4.965 3.373c.48.326.905.725 1.26 1.184.973 1.315.817 2.336-.45 3.422a3.218 3.218 0 0 1-1.866.49 3.324 3.324 0 0 1-2.339-.776 4.992 4.992 0 0 1-.982-3.675 1.321 1.321 0 0 0-.956-1.568 1.236 1.236 0 0 0-.303 0 1.326 1.326 0 0 0-1.268.956c-.286 1.037-.229 4.279 1.636 6.173a5.928 5.928 0 0 0 4.204 1.56 5.684 5.684 0 0 0 3.526-1.086 4.766 4.766 0 0 0 2.008-3.293 4.754 4.754 0 0 0-1.092-3.697 7.564 7.564 0 0 0-1.906-1.821Z" fill="#009AF1"/><path d="M43.286 16.748c-.36.004-.71-.11-.998-.326l-4.908-3.34a7.105 7.105 0 0 1-1.996-1.952c-1.472-1.976-1.995-4.99.974-7.464a5.994 5.994 0 0 1 3.77-1.216 6.312 6.312 0 0 1 4.5 1.633 7.744 7.744 0 0 1 1.733 6.533 1.732 1.732 0 0 1-1.636 1.257 1.64 1.64 0 0 1-.392-.049 1.841 1.841 0 0 1-1.12-.882 1.68 1.68 0 0 1-.156-1.143 4.641 4.641 0 0 0-.892-3.266 2.948 2.948 0 0 0-2.045-.662 2.8 2.8 0 0 0-1.636.4c-1.12.94-1.227 1.715-.376 2.858.319.435.709.814 1.153 1.12l4.965 3.372a1.69 1.69 0 0 1 .467 2.335 1.765 1.765 0 0 1-1.407.793Z" fill="#1800D2"/><path d="M40.128 2.891a5.577 5.577 0 0 0-3.533 1.086 4.748 4.748 0 0 0-1.967 3.267 4.74 4.74 0 0 0 1.075 3.658 6.537 6.537 0 0 0 1.922 1.838l4.908 3.356c.219.159.482.245.753.245a1.334 1.334 0 0 0 1.096-.605 1.297 1.297 0 0 0-.352-1.78l-4.973-3.34a5.46 5.46 0 0 1-1.26-1.184c-.965-1.315-.818-2.335.45-3.413a3.186 3.186 0 0 1 1.873-.498 3.316 3.316 0 0 1 2.34.816 5.049 5.049 0 0 1 .99 3.618 1.321 1.321 0 0 0 .94 1.633c.1.008.202.008.303 0a1.343 1.343 0 0 0 1.276-.972 7.395 7.395 0 0 0-1.636-6.173 5.911 5.911 0 0 0-4.205-1.552Z" fill="#009AF1"/><path d="M50.173 15.639a1.736 1.736 0 0 1-1.71-1.715V4.729a1.73 1.73 0 0 1 1.71-1.715h7.215a1.719 1.719 0 0 1 1.599 1.71 1.714 1.714 0 0 1-1.6 1.711h-5.504v5.815h4.499a1.719 1.719 0 0 1 1.599 1.71 1.713 1.713 0 0 1-1.6 1.711l-6.208-.032Z" fill="#1800D2"/><path d="M57.388 3.422h-7.214a1.326 1.326 0 0 0-1.301 1.306v9.196a1.322 1.322 0 0 0 1.3 1.306h6.209a1.31 1.31 0 0 0 1.205-1.302 1.305 1.305 0 0 0-1.205-1.303h-4.908V6.027h5.914a1.31 1.31 0 0 0 1.205-1.303 1.305 1.305 0 0 0-1.205-1.302Z" fill="#009AF1"/><path d="M50.173 27.3a1.735 1.735 0 0 1-1.71-1.707V16.92a1.73 1.73 0 0 1 1.71-1.715h6.209a1.719 1.719 0 0 1 1.599 1.71 1.713 1.713 0 0 1-1.6 1.712h-4.498v5.25h5.505a1.719 1.719 0 0 1 1.599 1.711 1.713 1.713 0 0 1-1.6 1.711h-7.214Z" fill="#1800D2"/><path d="M57.388 24.286h-5.914v-6.068h4.908a1.31 1.31 0 0 0 1.205-1.302 1.305 1.305 0 0 0-1.205-1.303h-6.208a1.326 1.326 0 0 0-1.301 1.307v8.672a1.314 1.314 0 0 0 1.3 1.299h7.215a1.31 1.31 0 0 0 1.205-1.303 1.305 1.305 0 0 0-1.205-1.302Z" fill="#009AF1"/><path d="M9.726 13.923a.449.449 0 0 0-.401-.22.435.435 0 0 0-.4.204l-3.51 4.875L2.577 5.194a.49.49 0 0 0-.565-.384.499.499 0 0 0-.376.563l3.067 14.7a.49.49 0 0 0 .868.204l3.721-5.219 6.446 10.616a.515.515 0 0 0 .425.221.467.467 0 0 0 .262-.082.499.499 0 0 0 .163-.67l-6.862-11.22Z" fill="#ABEFFF"/><path d="M9.652 19.6a.474.474 0 0 0-.67.122l-3.542 5.12a.466.466 0 0 0 .122.67c.083.055.18.083.278.081a.515.515 0 0 0 .401-.204l3.575-5.137a.49.49 0 0 0-.164-.653ZM20.122 4.785a.475.475 0 0 0-.564.384l-2.92 14.136-3.166-5.382a.482.482 0 0 0-.662-.163.498.498 0 0 0-.164.67l3.812 6.45a.497.497 0 0 0 .425.246h.074a.507.507 0 0 0 .409-.384l3.182-15.369a.58.58 0 0 0-.426-.588ZM33.478 12.102l-4.032-1.372V3.658l1.693 2.401a.458.458 0 0 0 .4.204.492.492 0 0 0 .287-.081.498.498 0 0 0 .123-.67l-2.601-3.658-.057-.066a.287.287 0 0 0-.066 0 .082.082 0 0 0-.057 0h-.041a.148.148 0 0 1-.082 0 .385.385 0 0 0-.22.058l-.197-.05-2.863 3.675a.49.49 0 0 0 .616.755.49.49 0 0 0 .145-.142l1.955-2.532v7.546a.538.538 0 0 0 .319.465l2.985 1.005-7.778 2.548a.49.49 0 0 0-.344.465.506.506 0 0 0 .327.466l4.27 1.437v8.893a.481.481 0 0 0 .824.34.481.481 0 0 0 .141-.34v-9.228a.53.53 0 0 0-.319-.466L25.7 15.59l7.778-2.523a.483.483 0 0 0 .344-.466.613.613 0 0 0-.344-.498ZM42.623 18.252l-4.997-3.373a.484.484 0 0 0-.67.114.49.49 0 0 0 .122.67l4.973 3.38a6.173 6.173 0 0 1 1.48 1.373c1.227 1.633 1.023 3.176-.589 4.532-1.145.947-4.09.963-5.316-.351-1.227-1.315-1.35-3.814-1.186-4.427a.49.49 0 0 0-.718-.558.492.492 0 0 0-.231.297c-.245.874-.164 3.765 1.431 5.382a5.158 5.158 0 0 0 3.624 1.314 4.914 4.914 0 0 0 3.002-.89c2.724-2.27 1.636-4.654.744-5.847a6.691 6.691 0 0 0-1.669-1.616ZM38.052 12.07l4.973 3.372a.467.467 0 0 0 .662-.139.48.48 0 0 0-.114-.67l-4.982-3.38a6.284 6.284 0 0 1-1.447-1.372c-1.227-1.633-1.03-3.177.58-4.524 1.154-.956 4.09-.972 5.325.343 1.235 1.315 1.35 3.822 1.186 4.426a.488.488 0 0 0 .716.556.499.499 0 0 0 .233-.295 6.741 6.741 0 0 0-1.431-5.381c-1.636-1.633-5.137-1.633-6.626-.4-2.723 2.262-1.636 4.646-.752 5.838a5.894 5.894 0 0 0 1.677 1.625ZM57.387 4.238h-7.214a.499.499 0 0 0-.483.49v9.195a.498.498 0 0 0 .483.49h6.208a.5.5 0 0 0 .483-.49.49.49 0 0 0-.483-.481h-5.725V5.21h6.731a.491.491 0 0 0 .483-.482.498.498 0 0 0-.483-.49ZM57.387 25.103h-6.731v-7.7h5.725a.491.491 0 0 0 .483-.482.498.498 0 0 0-.483-.49h-6.208a.499.499 0 0 0-.483.49v8.672a.49.49 0 0 0 .483.482h7.214a.491.491 0 0 0 .483-.482.498.498 0 0 0-.483-.49Z" fill="#ABEFFF"/><path d="M10.085 13.727a.867.867 0 0 0-.76-.432.82.82 0 0 0-.737.375l-2.96 4.149-2.65-12.723a.898.898 0 0 0-.884-.702h-.172a.916.916 0 0 0-.695 1.061l3.067 14.7a.89.89 0 0 0 .695.693c.06.008.12.008.18 0a.876.876 0 0 0 .72-.367l3.37-4.712 6.135 10.094a.925.925 0 0 0 .76.392.82.82 0 0 0 .483-.147.89.89 0 0 0 .286-1.226l-6.838-11.155Z" fill="#42D1F7"/><path d="M9.89 19.256a.819.819 0 0 0-.516-.172.868.868 0 0 0-.728.392l-3.542 5.128a.874.874 0 0 0-.147.678.816.816 0 0 0 .352.555c.155.11.341.167.531.164a.976.976 0 0 0 .745-.384l3.55-5.145a.889.889 0 0 0-.246-1.216ZM20.212 4.393a.697.697 0 0 0-.189 0 .884.884 0 0 0-.867.719L16.45 18.178l-2.626-4.467a.89.89 0 0 0-.76-.425.95.95 0 0 0-.475.13.907.907 0 0 0-.294 1.226l3.803 6.443a.907.907 0 0 0 .818.449h.156a.916.916 0 0 0 .727-.702l3.15-15.377v-.082a.962.962 0 0 0-.736-.98ZM33.61 11.719l-3.754-1.283V4.95l.948 1.347a.874.874 0 0 0 .737.376.82.82 0 0 0 .523-.139.898.898 0 0 0 .213-1.233l-2.593-3.667-.09-.09-.286.286.229-.343-.09-.106h-.066a.59.59 0 0 0-.163-.073.37.37 0 0 0-.131 0 .467.467 0 0 0-.147 0 .82.82 0 0 0-.45.13.354.354 0 0 0-.082.074l.253.326-.327-.253-.057.066-2.838 3.568a.93.93 0 0 0 .147 1.266c.157.122.35.188.548.188a.933.933 0 0 0 .72-.343l1.219-1.576v6.345a.953.953 0 0 0 .597.816l1.824.621-6.601 2.164a.883.883 0 0 0-.638.817.93.93 0 0 0 .605.857l3.992 1.34v8.664a.89.89 0 0 0 .891.89.892.892 0 0 0 .892-.89v-9.228a.955.955 0 0 0-.597-.817l-2.045-.743 6.6-2.164a.891.891 0 0 0 .63-.898 1.012 1.012 0 0 0-.613-.808ZM42.853 17.917l-4.982-3.389a1.008 1.008 0 0 0-.507-.139.819.819 0 0 0-.728.392.889.889 0 0 0 .237 1.225l4.974 3.373c.516.351.972.784 1.35 1.282 1.103 1.486.94 2.744-.516 3.969a3.546 3.546 0 0 1-2.127.588 3.726 3.726 0 0 1-2.634-.899c-1.17-1.192-1.227-3.503-1.087-4.083a.913.913 0 0 0-.647-1.094.89.89 0 0 0-.212 0 .916.916 0 0 0-.875.661c-.262.931-.189 4.026 1.53 5.774a5.518 5.518 0 0 0 3.917 1.437 5.24 5.24 0 0 0 3.272-.988c3.108-2.58 1.636-5.332.818-6.394a7.265 7.265 0 0 0-1.783-1.715ZM40.129 3.267a5.118 5.118 0 0 0-3.272.996c-3.108 2.58-1.636 5.332-.818 6.378a6.222 6.222 0 0 0 1.783 1.73l4.957 3.365c.146.11.324.167.507.164a.926.926 0 0 0 .752-.417.88.88 0 0 0-.237-1.217l-4.973-3.38a5.819 5.819 0 0 1-1.358-1.282c-1.104-1.487-.932-2.744.516-3.97a3.587 3.587 0 0 1 2.135-.587 3.693 3.693 0 0 1 2.633.906 5.354 5.354 0 0 1 1.088 4.018.906.906 0 0 0 .638 1.127h.213a.917.917 0 0 0 .883-.662 7.06 7.06 0 0 0-1.538-5.773 5.47 5.47 0 0 0-3.91-1.396ZM57.387 3.83h-7.214a.909.909 0 0 0-.892.898v9.196a.906.906 0 0 0 .892.898h6.208a.9.9 0 0 0 .58-1.499.9.9 0 0 0-.58-.29h-5.317V5.618h6.323a.9.9 0 0 0 .58-1.498.9.9 0 0 0-.58-.29ZM57.387 24.695h-6.323v-6.884h5.317a.9.9 0 0 0 .58-1.498.9.9 0 0 0-.58-.29h-6.208a.909.909 0 0 0-.892.898v8.672a.906.906 0 0 0 .892.89h7.214a.9.9 0 0 0 0-1.788Z" fill="#42D1F7"/><path d="M9.726 13.923a.449.449 0 0 0-.401-.22.435.435 0 0 0-.4.204l-3.51 4.875L2.577 5.194a.49.49 0 0 0-.565-.384.499.499 0 0 0-.376.563l3.067 14.7a.49.49 0 0 0 .868.204l3.721-5.219 6.446 10.616a.515.515 0 0 0 .425.221.467.467 0 0 0 .262-.082.499.499 0 0 0 .163-.67l-6.862-11.22Z" fill="#ABEFFF"/><path d="M9.652 19.6a.474.474 0 0 0-.67.122l-3.542 5.12a.466.466 0 0 0 .122.67c.083.055.18.083.278.081a.515.515 0 0 0 .401-.204l3.575-5.137a.49.49 0 0 0-.164-.653ZM20.122 4.785a.475.475 0 0 0-.564.384l-2.92 14.136-3.166-5.382a.482.482 0 0 0-.662-.163.498.498 0 0 0-.164.67l3.812 6.45a.497.497 0 0 0 .425.246h.074a.507.507 0 0 0 .409-.384l3.182-15.369a.58.58 0 0 0-.426-.588ZM33.478 12.102l-4.032-1.372V3.658l1.693 2.401a.458.458 0 0 0 .4.204.492.492 0 0 0 .287-.081.498.498 0 0 0 .123-.67l-2.601-3.658-.057-.066a.287.287 0 0 0-.066 0 .082.082 0 0 0-.057 0h-.041a.148.148 0 0 1-.082 0 .385.385 0 0 0-.22.058l-.197-.05-2.863 3.675a.49.49 0 0 0 .616.755.49.49 0 0 0 .145-.142l1.955-2.532v7.546a.538.538 0 0 0 .319.465l2.985 1.005-7.778 2.548a.49.49 0 0 0-.344.465.506.506 0 0 0 .327.466l4.27 1.437v8.893a.481.481 0 0 0 .824.34.481.481 0 0 0 .141-.34v-9.228a.53.53 0 0 0-.319-.466L25.7 15.59l7.778-2.523a.483.483 0 0 0 .344-.466.613.613 0 0 0-.344-.498ZM42.623 18.252l-4.997-3.373a.484.484 0 0 0-.67.114.49.49 0 0 0 .122.67l4.973 3.38a6.173 6.173 0 0 1 1.48 1.373c1.227 1.633 1.023 3.176-.589 4.532-1.145.947-4.09.963-5.316-.351-1.227-1.315-1.35-3.814-1.186-4.427a.49.49 0 0 0-.718-.558.492.492 0 0 0-.231.297c-.245.874-.164 3.765 1.431 5.382a5.158 5.158 0 0 0 3.624 1.314 4.914 4.914 0 0 0 3.002-.89c2.724-2.27 1.636-4.654.744-5.847a6.691 6.691 0 0 0-1.669-1.616ZM38.052 12.07l4.973 3.372a.467.467 0 0 0 .662-.139.48.48 0 0 0-.114-.67l-4.982-3.38a6.284 6.284 0 0 1-1.447-1.372c-1.227-1.633-1.03-3.177.58-4.524 1.154-.956 4.09-.972 5.325.343 1.235 1.315 1.35 3.822 1.186 4.426a.488.488 0 0 0 .716.556.499.499 0 0 0 .233-.295 6.741 6.741 0 0 0-1.431-5.381c-1.636-1.633-5.137-1.633-6.626-.4-2.723 2.262-1.636 4.646-.752 5.838a5.894 5.894 0 0 0 1.677 1.625ZM57.387 4.238h-7.214a.499.499 0 0 0-.483.49v9.195a.498.498 0 0 0 .483.49h6.208a.5.5 0 0 0 .483-.49.49.49 0 0 0-.483-.481h-5.725V5.21h6.731a.491.491 0 0 0 .483-.482.498.498 0 0 0-.483-.49ZM57.387 25.103h-6.731v-7.7h5.725a.491.491 0 0 0 .483-.482.498.498 0 0 0-.483-.49h-6.208a.499.499 0 0 0-.483.49v8.672a.49.49 0 0 0 .483.482h7.214a.491.491 0 0 0 .483-.482.498.498 0 0 0-.483-.49Z" fill="#ABEFFF"/><path d="M115.069 28.5a2.16 2.16 0 0 1-2.127-2.131V4.467a2.118 2.118 0 0 1 1.313-1.962 2.131 2.131 0 0 1 2.779 1.15c.107.257.162.533.162.812v21.902a2.16 2.16 0 0 1-2.127 2.131Z" fill="#100098"/><path d="M115.069 28.092a1.742 1.742 0 0 1-1.717-1.723V4.467a1.714 1.714 0 0 1 1.717-1.715 1.72 1.72 0 0 1 1.718 1.715v21.902a1.737 1.737 0 0 1-1.718 1.723Z" fill="#1800D2"/><path d="M115.069 28.092a1.742 1.742 0 0 1-1.717-1.723V4.467a1.714 1.714 0 0 1 1.717-1.715 1.72 1.72 0 0 1 1.718 1.715v21.902a1.737 1.737 0 0 1-1.718 1.723Z" fill="#100098"/><path d="M115.068 3.16a1.325 1.325 0 0 0-1.308 1.307v21.901c0 .172.034.342.099.5a1.32 1.32 0 0 0 .709.708 1.306 1.306 0 0 0 1.426-.284 1.32 1.32 0 0 0 .284-.424c.065-.158.099-.328.099-.5V4.468a1.325 1.325 0 0 0-1.309-1.307Z" fill="#009AF1"/><path d="M115.069 28.092a1.742 1.742 0 0 1-1.717-1.723V4.467a1.714 1.714 0 0 1 1.717-1.715 1.72 1.72 0 0 1 1.718 1.715v21.902a1.737 1.737 0 0 1-1.718 1.723Z" fill="#1800D2"/><path d="M115.068 3.16a1.325 1.325 0 0 0-1.308 1.307v21.901c0 .172.034.342.099.5a1.32 1.32 0 0 0 .709.708 1.306 1.306 0 0 0 1.426-.284 1.32 1.32 0 0 0 .284-.424c.065-.158.099-.328.099-.5V4.468a1.325 1.325 0 0 0-1.309-1.307Z" fill="#009AF1"/><path d="M115.069 3.977a.491.491 0 0 0-.491.49v21.901a.501.501 0 0 0 .491.498.507.507 0 0 0 .491-.498V4.467a.5.5 0 0 0-.491-.49Z" fill="#ABEFFF"/><path d="M115.069 3.568a.908.908 0 0 0-.9.899v21.901a.9.9 0 0 0 .555.83.909.909 0 0 0 .689 0 .907.907 0 0 0 .487-.486.9.9 0 0 0 .068-.344V4.467a.905.905 0 0 0-.899-.899Z" fill="#42D1F7"/><path d="M115.069 3.977a.491.491 0 0 0-.491.49v21.901a.501.501 0 0 0 .491.498.507.507 0 0 0 .491-.498V4.467a.5.5 0 0 0-.491-.49Z" fill="#ABEFFF"/><path d="M105.433 28.5a6.738 6.738 0 0 1-4.785-1.797 8.162 8.162 0 0 1-1.84-6.966 2.14 2.14 0 0 1 2.053-1.551c.162 0 .324.016.482.049a2.188 2.188 0 0 1 1.579 2.572 4.325 4.325 0 0 0 .761 2.915 2.611 2.611 0 0 0 1.758.531c.467.03.933-.076 1.342-.302.957-.817 1.03-1.34.319-2.303a4.664 4.664 0 0 0-1.072-.996l-4.957-3.373a2.095 2.095 0 0 1-.588-2.89 2.083 2.083 0 0 1 1.758-.964c.412 0 .816.12 1.162.343l5.022 3.38a8.378 8.378 0 0 1 2.086 2.026c1.595 2.14 2.159 5.381-1.031 8.035a6.55 6.55 0 0 1-4.049 1.29Z" fill="#100098"/><path d="M105.434 28.092a6.321 6.321 0 0 1-4.491-1.633 7.819 7.819 0 0 1-1.742-6.533 1.724 1.724 0 0 1 2.029-1.209 1.758 1.758 0 0 1 1.267 2.074 4.69 4.69 0 0 0 .867 3.267 2.957 2.957 0 0 0 2.053.653c.574.04 1.146-.1 1.636-.4 1.121-.94 1.227-1.715.385-2.85a5.352 5.352 0 0 0-1.162-1.102l-4.965-3.365a1.706 1.706 0 0 1 .138-2.906c.249-.135.528-.206.811-.205.334 0 .661.097.941.278l5.006 3.397a7.796 7.796 0 0 1 1.979 1.919c1.489 1.992 2.02 5.014-.957 7.488a6.117 6.117 0 0 1-3.795 1.127Z" fill="#1800D2"/><path d="M105.434 28.092a6.321 6.321 0 0 1-4.491-1.633 7.819 7.819 0 0 1-1.742-6.533 1.724 1.724 0 0 1 2.029-1.209 1.758 1.758 0 0 1 1.267 2.074 4.69 4.69 0 0 0 .867 3.267 2.957 2.957 0 0 0 2.053.653c.574.04 1.146-.1 1.636-.4 1.121-.94 1.227-1.715.385-2.85a5.352 5.352 0 0 0-1.162-1.102l-4.965-3.365a1.706 1.706 0 0 1 .138-2.906c.249-.135.528-.206.811-.205.334 0 .661.097.941.278l5.006 3.397a7.796 7.796 0 0 1 1.979 1.919c1.489 1.992 2.02 5.014-.957 7.488a6.117 6.117 0 0 1-3.795 1.127Z" fill="#100098"/><path d="m107.97 17.843-4.998-3.389a1.303 1.303 0 0 0-.72-.212 1.25 1.25 0 0 0-1.071.588 1.278 1.278 0 0 0 .351 1.772l4.965 3.373c.479.33.904.733 1.26 1.192.973 1.307.818 2.336-.45 3.414a3.153 3.153 0 0 1-1.865.49 3.274 3.274 0 0 1-2.339-.776 4.983 4.983 0 0 1-.982-3.675 1.331 1.331 0 0 0-.957-1.584 1.22 1.22 0 0 0-.302 0 1.311 1.311 0 0 0-1.268.955c-.286 1.03-.23 4.271 1.636 6.166a5.926 5.926 0 0 0 4.204 1.56 5.73 5.73 0 0 0 3.525-1.078 4.767 4.767 0 0 0 1.969-3.276 4.772 4.772 0 0 0-.154-1.945 4.774 4.774 0 0 0-.923-1.72 7.554 7.554 0 0 0-1.881-1.855Z" fill="#009AF1"/><path d="M108.173 17.419a2.09 2.09 0 0 1-1.243-.4l-4.908-3.332a7.36 7.36 0 0 1-2.102-2.058 5.558 5.558 0 0 1-.465-6.346 5.56 5.56 0 0 1 1.512-1.657 6.371 6.371 0 0 1 4.09-1.282 6.706 6.706 0 0 1 4.785 1.788 8.152 8.152 0 0 1 1.84 6.958 2.146 2.146 0 0 1-2.077 1.56 2.516 2.516 0 0 1-.491-.058 2.247 2.247 0 0 1-1.382-1.086 2.065 2.065 0 0 1-.156-1.592 4.39 4.39 0 0 0-.818-2.801 2.57 2.57 0 0 0-1.75-.54 2.458 2.458 0 0 0-1.35.311c-.949.817-1.022 1.331-.311 2.295.299.389.658.728 1.064 1.004l4.965 3.365a2.099 2.099 0 0 1 .58 2.89 2.187 2.187 0 0 1-1.783.98Z" fill="#100098"/><path d="M108.174 17.01a1.685 1.685 0 0 1-.998-.318l-4.908-3.348a6.966 6.966 0 0 1-2.02-1.911c-1.473-1.977-1.996-4.99.973-7.464a5.994 5.994 0 0 1 3.795-1.184 6.282 6.282 0 0 1 4.491 1.633 7.706 7.706 0 0 1 1.742 6.533 1.75 1.75 0 0 1-1.644 1.298c-.135 0-.27-.016-.401-.049a1.852 1.852 0 0 1-1.112-.882 1.618 1.618 0 0 1-.123-1.274 4.638 4.638 0 0 0-.892-3.209 2.946 2.946 0 0 0-2.044-.661 2.864 2.864 0 0 0-1.636.4c-1.121.947-1.227 1.715-.377 2.858.326.425.718.794 1.162 1.094l4.965 3.357a1.68 1.68 0 0 1 .466 2.327 1.75 1.75 0 0 1-1.439.8Z" fill="#1800D2"/><path d="M108.174 17.01a1.685 1.685 0 0 1-.998-.318l-4.908-3.348a6.966 6.966 0 0 1-2.02-1.911c-1.473-1.977-1.996-4.99.973-7.464a5.994 5.994 0 0 1 3.795-1.184 6.282 6.282 0 0 1 4.491 1.633 7.706 7.706 0 0 1 1.742 6.533 1.75 1.75 0 0 1-1.644 1.298c-.135 0-.27-.016-.401-.049a1.852 1.852 0 0 1-1.112-.882 1.618 1.618 0 0 1-.123-1.274 4.638 4.638 0 0 0-.892-3.209 2.946 2.946 0 0 0-2.044-.661 2.864 2.864 0 0 0-1.636.4c-1.121.947-1.227 1.715-.377 2.858.326.425.718.794 1.162 1.094l4.965 3.357a1.68 1.68 0 0 1 .466 2.327 1.75 1.75 0 0 1-1.439.8Z" fill="#100098"/><path d="M105.017 3.16a5.52 5.52 0 0 0-3.526 1.086 4.751 4.751 0 0 0-1.804 5.21c.185.629.499 1.213.921 1.715a6.69 6.69 0 0 0 1.897 1.838l4.908 3.356c.219.157.483.24.753.237a1.355 1.355 0 0 0 1.096-.596 1.294 1.294 0 0 0-.352-1.78l-4.973-3.373a5.272 5.272 0 0 1-1.252-1.184c-.973-1.315-.818-2.336.442-3.414A3.185 3.185 0 0 1 105 5.757a3.319 3.319 0 0 1 2.34.817 5.039 5.039 0 0 1 .989 3.609 1.305 1.305 0 0 0 .125 1.015 1.32 1.32 0 0 0 1.119.66 1.34 1.34 0 0 0 1.276-.956 7.408 7.408 0 0 0-1.636-6.174 5.912 5.912 0 0 0-4.196-1.568Z" fill="#009AF1"/><path d="M105.434 28.092a6.321 6.321 0 0 1-4.491-1.633 7.819 7.819 0 0 1-1.742-6.533 1.724 1.724 0 0 1 2.029-1.209 1.758 1.758 0 0 1 1.267 2.074 4.69 4.69 0 0 0 .867 3.267 2.957 2.957 0 0 0 2.053.653c.574.04 1.146-.1 1.636-.4 1.121-.94 1.227-1.715.385-2.85a5.352 5.352 0 0 0-1.162-1.102l-4.965-3.365a1.706 1.706 0 0 1 .138-2.906c.249-.135.528-.206.811-.205.334 0 .661.097.941.278l5.006 3.397a7.796 7.796 0 0 1 1.979 1.919c1.489 1.992 2.02 5.014-.957 7.488a6.117 6.117 0 0 1-3.795 1.127Z" fill="#1800D2"/><path d="m107.97 17.843-4.998-3.389a1.303 1.303 0 0 0-.72-.212 1.25 1.25 0 0 0-1.071.588 1.278 1.278 0 0 0 .351 1.772l4.965 3.373c.479.33.904.733 1.26 1.192.973 1.307.818 2.336-.45 3.414a3.153 3.153 0 0 1-1.865.49 3.274 3.274 0 0 1-2.339-.776 4.983 4.983 0 0 1-.982-3.675 1.331 1.331 0 0 0-.957-1.584 1.22 1.22 0 0 0-.302 0 1.311 1.311 0 0 0-1.268.955c-.286 1.03-.23 4.271 1.636 6.166a5.926 5.926 0 0 0 4.204 1.56 5.73 5.73 0 0 0 3.525-1.078 4.767 4.767 0 0 0 1.969-3.276 4.772 4.772 0 0 0-.154-1.945 4.774 4.774 0 0 0-.923-1.72 7.554 7.554 0 0 0-1.881-1.855Z" fill="#009AF1"/><path d="M108.174 17.01a1.685 1.685 0 0 1-.998-.318l-4.908-3.348a6.966 6.966 0 0 1-2.02-1.911c-1.473-1.977-1.996-4.99.973-7.464a5.994 5.994 0 0 1 3.795-1.184 6.282 6.282 0 0 1 4.491 1.633 7.706 7.706 0 0 1 1.742 6.533 1.75 1.75 0 0 1-1.644 1.298c-.135 0-.27-.016-.401-.049a1.852 1.852 0 0 1-1.112-.882 1.618 1.618 0 0 1-.123-1.274 4.638 4.638 0 0 0-.892-3.209 2.946 2.946 0 0 0-2.044-.661 2.864 2.864 0 0 0-1.636.4c-1.121.947-1.227 1.715-.377 2.858.326.425.718.794 1.162 1.094l4.965 3.357a1.68 1.68 0 0 1 .466 2.327 1.75 1.75 0 0 1-1.439.8Z" fill="#1800D2"/><path d="M105.017 3.16a5.52 5.52 0 0 0-3.526 1.086 4.751 4.751 0 0 0-1.804 5.21c.185.629.499 1.213.921 1.715a6.69 6.69 0 0 0 1.897 1.838l4.908 3.356c.219.157.483.24.753.237a1.355 1.355 0 0 0 1.096-.596 1.294 1.294 0 0 0-.352-1.78l-4.973-3.373a5.272 5.272 0 0 1-1.252-1.184c-.973-1.315-.818-2.336.442-3.414A3.185 3.185 0 0 1 105 5.757a3.319 3.319 0 0 1 2.34.817 5.039 5.039 0 0 1 .989 3.609 1.305 1.305 0 0 0 .125 1.015 1.32 1.32 0 0 0 1.119.66 1.34 1.34 0 0 0 1.276-.956 7.408 7.408 0 0 0-1.636-6.174 5.912 5.912 0 0 0-4.196-1.568Z" fill="#009AF1"/><path d="m107.512 18.52-4.974-3.38a.49.49 0 0 0-.683.135.495.495 0 0 0 0 .546c.036.053.082.1.135.135l4.974 3.373c.552.378 1.041.84 1.447 1.372 1.235 1.633 1.031 3.177-.58 4.532-1.146.947-4.09.972-5.317-.343a5.713 5.713 0 0 1-1.186-4.475.513.513 0 0 0-.344-.612.509.509 0 0 0-.605.35c-.237.867-.164 3.757 1.431 5.374a5.16 5.16 0 0 0 3.624 1.315 4.915 4.915 0 0 0 3.002-.89c2.715-2.262 1.636-4.647.744-5.839a6.701 6.701 0 0 0-1.668-1.592ZM102.939 12.331l4.973 3.381a.469.469 0 0 0 .262.082.474.474 0 0 0 .401-.229.48.48 0 0 0-.123-.661l-4.973-3.381a6.292 6.292 0 0 1-1.448-1.372c-1.227-1.633-1.03-3.177.581-4.524 1.153-.956 4.09-.972 5.317.343 1.227 1.315 1.349 3.813 1.194 4.426a.472.472 0 0 0 .04.373.475.475 0 0 0 .295.231.507.507 0 0 0 .606-.343 6.655 6.655 0 0 0-1.432-5.373c-1.636-1.682-5.128-1.633-6.617-.408-2.724 2.262-1.636 4.646-.753 5.838a5.77 5.77 0 0 0 1.677 1.617Z" fill="#ABEFFF"/><path d="m107.74 18.178-4.981-3.381a.94.94 0 0 0-.507-.147.82.82 0 0 0-.728.392.899.899 0 0 0 .237 1.225l4.973 3.373c.513.356.968.788 1.35 1.282 1.104 1.486.94 2.752-.515 3.968a3.49 3.49 0 0 1-2.127.588 3.727 3.727 0 0 1-2.634-.898 5.373 5.373 0 0 1-1.08-4.083.92.92 0 0 0-.654-1.094.893.893 0 0 0-.213 0 .914.914 0 0 0-.875.653c-.261.94-.188 4.026 1.53 5.773a5.519 5.519 0 0 0 3.918 1.438 5.24 5.24 0 0 0 3.271-.988c3.1-2.58 1.636-5.333.818-6.386a7.141 7.141 0 0 0-1.783-1.715ZM105.016 3.568a5.116 5.116 0 0 0-3.271.997c-3.109 2.58-1.636 5.332-.818 6.377a6.21 6.21 0 0 0 1.783 1.732l4.957 3.364a.884.884 0 0 0 .93.044.9.9 0 0 0 .084-1.522l-4.965-3.373a5.827 5.827 0 0 1-1.358-1.282c-1.096-1.486-.932-2.744.515-3.968a3.588 3.588 0 0 1 2.135-.588 3.692 3.692 0 0 1 2.634.906 5.385 5.385 0 0 1 1.088 4.018.878.878 0 0 0-.029.357.893.893 0 0 0 .346.61.9.9 0 0 0 .321.16.948.948 0 0 0 .213 0 .9.9 0 0 0 .875-.662 7.019 7.019 0 0 0-1.53-5.773 5.468 5.468 0 0 0-3.91-1.397Z" fill="#42D1F7"/><path d="m107.512 18.52-4.974-3.38a.49.49 0 0 0-.683.135.495.495 0 0 0 0 .546c.036.053.082.1.135.135l4.974 3.373c.552.378 1.041.84 1.447 1.372 1.235 1.633 1.031 3.177-.58 4.532-1.146.947-4.09.972-5.317-.343a5.713 5.713 0 0 1-1.186-4.475.513.513 0 0 0-.344-.612.509.509 0 0 0-.605.35c-.237.867-.164 3.757 1.431 5.374a5.16 5.16 0 0 0 3.624 1.315 4.915 4.915 0 0 0 3.002-.89c2.715-2.262 1.636-4.647.744-5.839a6.701 6.701 0 0 0-1.668-1.592ZM102.939 12.331l4.973 3.381a.469.469 0 0 0 .262.082.474.474 0 0 0 .401-.229.48.48 0 0 0-.123-.661l-4.973-3.381a6.292 6.292 0 0 1-1.448-1.372c-1.227-1.633-1.03-3.177.581-4.524 1.153-.956 4.09-.972 5.317.343 1.227 1.315 1.349 3.813 1.194 4.426a.472.472 0 0 0 .04.373.475.475 0 0 0 .295.231.507.507 0 0 0 .606-.343 6.655 6.655 0 0 0-1.432-5.373c-1.636-1.682-5.128-1.633-6.617-.408-2.724 2.262-1.636 4.646-.753 5.838a5.77 5.77 0 0 0 1.677 1.617Z" fill="#ABEFFF"/><path d="M89.91 28.5a6.083 6.083 0 0 1-4.298-1.777 6.063 6.063 0 0 1-1.78-4.29V4.466a2.098 2.098 0 0 1 2.098-1.968 2.104 2.104 0 0 1 2.098 1.968v17.965a1.877 1.877 0 0 0 1.881 1.879h1.53c.232-.002.463-.046.679-.131h-.14a2.097 2.097 0 0 1-1.918-1.223 2.088 2.088 0 0 1 .332-2.248 2.122 2.122 0 0 1-.515-1.38 2.072 2.072 0 0 1 .613-1.478l2.814-2.81V4.427a2.098 2.098 0 0 1 2.098-1.968A2.104 2.104 0 0 1 97.5 4.426v11.432a1.99 1.99 0 0 1-.515 1.397 2.058 2.058 0 0 1 .515 1.527v3.691a6.063 6.063 0 0 1-1.774 4.285 6.082 6.082 0 0 1-4.287 1.783l-1.53-.041Z" fill="#100098"/><path d="M89.91 28.092a5.682 5.682 0 0 1-4.001-1.663 5.663 5.663 0 0 1-1.66-3.996V4.467a1.69 1.69 0 0 1 1.69-1.573 1.695 1.695 0 0 1 1.688 1.573v17.966a2.285 2.285 0 0 0 2.29 2.286h1.53a2.284 2.284 0 0 0 2.25-1.952l-.516.515a1.637 1.637 0 0 1-1.194.49 1.638 1.638 0 0 1-1.194-.498 1.68 1.68 0 0 1 0-2.377l.196-.204a1.341 1.341 0 0 1-.205-.171 1.681 1.681 0 0 1 .008-2.384l2.929-2.924V4.434a1.69 1.69 0 0 1 1.689-1.573 1.695 1.695 0 0 1 1.689 1.573v11.433a1.629 1.629 0 0 1-.49 1.209l-.205.204a1.634 1.634 0 0 1 .695 1.43v3.698a5.655 5.655 0 0 1-1.654 3.996 5.674 5.674 0 0 1-3.998 1.663l-1.538.025Z" fill="#1800D2"/><path d="M89.91 28.092a5.682 5.682 0 0 1-4.001-1.663 5.663 5.663 0 0 1-1.66-3.996V4.467a1.69 1.69 0 0 1 1.69-1.573 1.695 1.695 0 0 1 1.688 1.573v17.966a2.285 2.285 0 0 0 2.29 2.286h1.53a2.284 2.284 0 0 0 2.25-1.952l-.516.515a1.637 1.637 0 0 1-1.194.49 1.638 1.638 0 0 1-1.194-.498 1.68 1.68 0 0 1 0-2.377l.196-.204a1.341 1.341 0 0 1-.205-.171 1.681 1.681 0 0 1 .008-2.384l2.929-2.924V4.434a1.69 1.69 0 0 1 1.689-1.573 1.695 1.695 0 0 1 1.689 1.573v11.433a1.629 1.629 0 0 1-.49 1.209l-.205.204a1.634 1.634 0 0 1 .695 1.43v3.698a5.655 5.655 0 0 1-1.654 3.996 5.674 5.674 0 0 1-3.998 1.663l-1.538.025Z" fill="#100098"/><path d="M95.405 3.16a1.277 1.277 0 0 0-1.284 1.274v10.943l-3.05 3.046a1.29 1.29 0 0 0 0 1.813c.167.168.38.284.613.334l-.614.613a1.272 1.272 0 0 0 0 1.805 1.25 1.25 0 0 0 .908.375 1.235 1.235 0 0 0 .9-.375l1.243-1.233v.677a2.682 2.682 0 0 1-1.653 2.488 2.694 2.694 0 0 1-1.03.207h-1.53a2.701 2.701 0 0 1-2.698-2.695V4.467a1.282 1.282 0 0 0-1.28-1.18 1.285 1.285 0 0 0-1.28 1.18v17.965c0 1.393.553 2.729 1.54 3.713a5.264 5.264 0 0 0 3.719 1.538h1.53a5.264 5.264 0 0 0 3.708-1.543 5.246 5.246 0 0 0 1.534-3.708v-3.715a1.248 1.248 0 0 0-.981-1.29l.613-.613a1.265 1.265 0 0 0 .368-.923V4.46a1.27 1.27 0 0 0-.782-1.2 1.277 1.277 0 0 0-.494-.099Z" fill="#009AF1"/><path d="M89.91 28.092a5.682 5.682 0 0 1-4.001-1.663 5.663 5.663 0 0 1-1.66-3.996V4.467a1.69 1.69 0 0 1 1.69-1.573 1.695 1.695 0 0 1 1.688 1.573v17.966a2.285 2.285 0 0 0 2.29 2.286h1.53a2.284 2.284 0 0 0 2.25-1.952l-.516.515a1.637 1.637 0 0 1-1.194.49 1.638 1.638 0 0 1-1.194-.498 1.68 1.68 0 0 1 0-2.377l.196-.204a1.341 1.341 0 0 1-.205-.171 1.681 1.681 0 0 1 .008-2.384l2.929-2.924V4.434a1.69 1.69 0 0 1 1.689-1.573 1.695 1.695 0 0 1 1.689 1.573v11.433a1.629 1.629 0 0 1-.49 1.209l-.205.204a1.634 1.634 0 0 1 .695 1.43v3.698a5.655 5.655 0 0 1-1.654 3.996 5.674 5.674 0 0 1-3.998 1.663l-1.538.025Z" fill="#1800D2"/><path d="M95.405 3.16a1.277 1.277 0 0 0-1.284 1.274v10.943l-3.05 3.046a1.29 1.29 0 0 0 0 1.813c.167.168.38.284.613.334l-.614.613a1.272 1.272 0 0 0 0 1.805 1.25 1.25 0 0 0 .908.375 1.235 1.235 0 0 0 .9-.375l1.243-1.233v.677a2.682 2.682 0 0 1-1.653 2.488 2.694 2.694 0 0 1-1.03.207h-1.53a2.701 2.701 0 0 1-2.698-2.695V4.467a1.282 1.282 0 0 0-1.28-1.18 1.285 1.285 0 0 0-1.28 1.18v17.965c0 1.393.553 2.729 1.54 3.713a5.264 5.264 0 0 0 3.719 1.538h1.53a5.264 5.264 0 0 0 3.708-1.543 5.246 5.246 0 0 0 1.534-3.708v-3.715a1.248 1.248 0 0 0-.981-1.29l.613-.613a1.265 1.265 0 0 0 .368-.923V4.46a1.27 1.27 0 0 0-.782-1.2 1.277 1.277 0 0 0-.494-.099Z" fill="#009AF1"/><path d="M91.979 19.795a.474.474 0 0 0 .327-.14l3.394-3.42a.432.432 0 0 0 .131-.344V4.46a.465.465 0 0 0-.924 0v11.26l-3.272 3.267a.465.465 0 0 0 0 .654.459.459 0 0 0 .344.155Z" fill="#ABEFFF"/><path d="M95.7 18.341a.442.442 0 0 0-.327-.139h-.074a.264.264 0 0 0-.106 0 .522.522 0 0 0-.156.107l-3.419 3.421a.465.465 0 0 0 0 .654.451.451 0 0 0 .327.13c.122.001.24-.046.328-.13l2.633-2.638V22.4c0 .928-.368 1.819-1.024 2.477a3.52 3.52 0 0 1-2.476 1.034h-1.53a3.528 3.528 0 0 1-2.485-1.03A3.516 3.516 0 0 1 86.36 22.4V4.434a.466.466 0 0 0-.924 0V22.4a4.439 4.439 0 0 0 1.303 3.133 4.453 4.453 0 0 0 3.138 1.301h1.53a4.445 4.445 0 0 0 3.13-1.304 4.43 4.43 0 0 0 1.295-3.13v-3.716a.426.426 0 0 0-.131-.343Z" fill="#ABEFFF"/><path d="M95.405 3.568a.868.868 0 0 0-.875.866v11.081l-3.174 3.169a.873.873 0 0 0 .622 1.486.82.82 0 0 0 .614-.261l3.427-3.422a.818.818 0 0 0 .253-.628V4.425a.865.865 0 0 0-.867-.858Z" fill="#42D1F7"/><path d="M95.406 17.794h-.148a.673.673 0 0 0-.18.05.745.745 0 0 0-.294.195l-3.427 3.414a.881.881 0 0 0 0 1.233.876.876 0 0 0 1.235 0l1.938-1.935v1.633a3.1 3.1 0 0 1-.904 2.188 3.11 3.11 0 0 1-2.187.915h-1.53a3.113 3.113 0 0 1-2.872-1.915 3.1 3.1 0 0 1-.236-1.188V4.418a.873.873 0 0 0-.871-.79.876.876 0 0 0-.871.79v17.966a4.847 4.847 0 0 0 1.423 3.422 4.863 4.863 0 0 0 3.427 1.42h1.53a4.854 4.854 0 0 0 3.419-1.424 4.839 4.839 0 0 0 1.415-3.418V18.7a.863.863 0 0 0-.526-.837.869.869 0 0 0-.341-.07Z" fill="#42D1F7"/><path d="M91.979 19.795a.474.474 0 0 0 .327-.14l3.394-3.42a.432.432 0 0 0 .131-.344V4.46a.465.465 0 0 0-.924 0v11.26l-3.272 3.267a.465.465 0 0 0 0 .654.459.459 0 0 0 .344.155Z" fill="#ABEFFF"/><path d="M95.7 18.341a.442.442 0 0 0-.327-.139h-.074a.264.264 0 0 0-.106 0 .522.522 0 0 0-.156.107l-3.419 3.421a.465.465 0 0 0 0 .654.451.451 0 0 0 .327.13c.122.001.24-.046.328-.13l2.633-2.638V22.4c0 .928-.368 1.819-1.024 2.477a3.52 3.52 0 0 1-2.476 1.034h-1.53a3.528 3.528 0 0 1-2.485-1.03A3.516 3.516 0 0 1 86.36 22.4V4.434a.466.466 0 0 0-.924 0V22.4a4.439 4.439 0 0 0 1.303 3.133 4.453 4.453 0 0 0 3.138 1.301h1.53a4.445 4.445 0 0 0 3.13-1.304 4.43 4.43 0 0 0 1.295-3.13v-3.716a.426.426 0 0 0-.131-.343Z" fill="#ABEFFF"/><path d="M124.402 28.5a6.081 6.081 0 0 1-4.292-1.78 6.062 6.062 0 0 1-1.777-4.287v-1.454a1.945 1.945 0 0 1 .319-1.135 2.01 2.01 0 0 1-.319-1.168V8.403a6.06 6.06 0 0 1 1.78-4.282 6.08 6.08 0 0 1 4.289-1.777h1.562a6.082 6.082 0 0 1 4.289 1.777 6.06 6.06 0 0 1 1.78 4.282v3.773a2.1 2.1 0 0 1-3.63 1.568 2.086 2.086 0 0 1-.445-.726 2.083 2.083 0 0 1-.121-.842V8.403a1.883 1.883 0 0 0-1.873-1.87h-1.53a1.883 1.883 0 0 0-1.873 1.87v9.448l2.814 2.81a2.107 2.107 0 0 1 .286 2.604c.194.316.304.676.319 1.046a1.89 1.89 0 0 0 1.857-1.878V18.66a2.103 2.103 0 0 1 4.196 0v3.773c0 1.607-.639 3.15-1.777 4.287a6.083 6.083 0 0 1-4.292 1.78h-1.562Z" fill="#100098"/><path d="M124.402 28.092a5.672 5.672 0 0 1-4.003-1.66 5.652 5.652 0 0 1-1.658-4V20.98a1.63 1.63 0 0 1 .426-1.135 1.632 1.632 0 0 1-.426-1.16V8.403c0-1.499.597-2.936 1.658-3.996a5.666 5.666 0 0 1 4.003-1.655h1.562c1.5.002 2.939.598 4 1.657a5.654 5.654 0 0 1 1.66 3.994v3.773a1.7 1.7 0 0 1-.451 1.27 1.687 1.687 0 0 1-1.238.538 1.695 1.695 0 0 1-1.596-1.126 1.683 1.683 0 0 1-.093-.682V8.403a2.283 2.283 0 0 0-2.282-2.278h-1.53a2.283 2.283 0 0 0-2.282 2.278v9.62l2.928 2.923a1.683 1.683 0 0 1 .066 2.32 1.71 1.71 0 0 1 .401 1.453h.417a2.292 2.292 0 0 0 2.282-2.287V18.66a1.692 1.692 0 0 1 3.378 0v3.773a5.661 5.661 0 0 1-1.66 3.996 5.68 5.68 0 0 1-4 1.663h-1.562Z" fill="#1800D2"/><path d="M124.402 28.092a5.672 5.672 0 0 1-4.003-1.66 5.652 5.652 0 0 1-1.658-4V20.98a1.63 1.63 0 0 1 .426-1.135 1.632 1.632 0 0 1-.426-1.16V8.403c0-1.499.597-2.936 1.658-3.996a5.666 5.666 0 0 1 4.003-1.655h1.562c1.5.002 2.939.598 4 1.657a5.654 5.654 0 0 1 1.66 3.994v3.773a1.7 1.7 0 0 1-.451 1.27 1.687 1.687 0 0 1-1.238.538 1.695 1.695 0 0 1-1.596-1.126 1.683 1.683 0 0 1-.093-.682V8.403a2.283 2.283 0 0 0-2.282-2.278h-1.53a2.283 2.283 0 0 0-2.282 2.278v9.62l2.928 2.923a1.683 1.683 0 0 1 .066 2.32 1.71 1.71 0 0 1 .401 1.453h.417a2.292 2.292 0 0 0 2.282-2.287V18.66a1.692 1.692 0 0 1 3.378 0v3.773a5.661 5.661 0 0 1-1.66 3.996 5.68 5.68 0 0 1-4 1.663h-1.562Z" fill="#100098"/><path d="M129.898 13.458a1.283 1.283 0 0 0 1.284-1.282V8.403a5.246 5.246 0 0 0-1.528-3.693 5.266 5.266 0 0 0-3.69-1.55h-1.53a5.261 5.261 0 0 0-3.71 1.538 5.244 5.244 0 0 0-1.541 3.705v10.29a1.274 1.274 0 0 0 .368.93l.254.253a.966.966 0 0 0-.254.196 1.247 1.247 0 0 0-.368.907v1.453a5.254 5.254 0 0 0 1.54 3.708 5.273 5.273 0 0 0 3.711 1.543h1.53a5.27 5.27 0 0 0 3.711-1.543 5.254 5.254 0 0 0 1.54-3.708V18.66a1.283 1.283 0 0 0-2.56 0v3.772a2.7 2.7 0 0 1-2.691 2.695h-1.022a1.293 1.293 0 0 0-.148-1.633l-.253-.253a.96.96 0 0 0 .253-.196 1.267 1.267 0 0 0 .278-1.391 1.267 1.267 0 0 0-.278-.414l-3.051-3.046v-9.8a2.692 2.692 0 0 1 2.659-2.679h1.562a2.7 2.7 0 0 1 2.691 2.688v3.773a1.276 1.276 0 0 0 1.243 1.282Z" fill="#009AF1"/><path d="M124.402 28.092a5.672 5.672 0 0 1-4.003-1.66 5.652 5.652 0 0 1-1.658-4V20.98a1.63 1.63 0 0 1 .426-1.135 1.632 1.632 0 0 1-.426-1.16V8.403c0-1.499.597-2.936 1.658-3.996a5.666 5.666 0 0 1 4.003-1.655h1.562c1.5.002 2.939.598 4 1.657a5.654 5.654 0 0 1 1.66 3.994v3.773a1.7 1.7 0 0 1-.451 1.27 1.687 1.687 0 0 1-1.238.538 1.695 1.695 0 0 1-1.596-1.126 1.683 1.683 0 0 1-.093-.682V8.403a2.283 2.283 0 0 0-2.282-2.278h-1.53a2.283 2.283 0 0 0-2.282 2.278v9.62l2.928 2.923a1.683 1.683 0 0 1 .066 2.32 1.71 1.71 0 0 1 .401 1.453h.417a2.292 2.292 0 0 0 2.282-2.287V18.66a1.692 1.692 0 0 1 3.378 0v3.773a5.661 5.661 0 0 1-1.66 3.996 5.68 5.68 0 0 1-4 1.663h-1.562Z" fill="#1800D2"/><path d="M129.898 13.458a1.283 1.283 0 0 0 1.284-1.282V8.403a5.246 5.246 0 0 0-1.528-3.693 5.266 5.266 0 0 0-3.69-1.55h-1.53a5.261 5.261 0 0 0-3.71 1.538 5.244 5.244 0 0 0-1.541 3.705v10.29a1.274 1.274 0 0 0 .368.93l.254.253a.966.966 0 0 0-.254.196 1.247 1.247 0 0 0-.368.907v1.453a5.254 5.254 0 0 0 1.54 3.708 5.273 5.273 0 0 0 3.711 1.543h1.53a5.27 5.27 0 0 0 3.711-1.543 5.254 5.254 0 0 0 1.54-3.708V18.66a1.283 1.283 0 0 0-2.56 0v3.772a2.7 2.7 0 0 1-2.691 2.695h-1.022a1.293 1.293 0 0 0-.148-1.633l-.253-.253a.96.96 0 0 0 .253-.196 1.267 1.267 0 0 0 .278-1.391 1.267 1.267 0 0 0-.278-.414l-3.051-3.046v-9.8a2.692 2.692 0 0 1 2.659-2.679h1.562a2.7 2.7 0 0 1 2.691 2.688v3.773a1.276 1.276 0 0 0 1.243 1.282Z" fill="#009AF1"/><path d="M129.898 18.202a.458.458 0 0 0-.458.458v3.772a3.512 3.512 0 0 1-3.509 3.512h-1.53a3.518 3.518 0 0 1-3.509-3.512v-.343l2.618 2.63a.474.474 0 0 0 .327.139.463.463 0 0 0 .461-.466.465.465 0 0 0-.134-.326l-3.427-3.414a.452.452 0 0 0-.655-.008.406.406 0 0 0-.13.335v1.453c0 1.175.466 2.302 1.298 3.133a4.443 4.443 0 0 0 3.135 1.302h1.579a4.445 4.445 0 0 0 3.135-1.302 4.431 4.431 0 0 0 1.298-3.133V18.66a.464.464 0 0 0-.499-.458Z" fill="#ABEFFF"/><path d="M125.964 3.977h-1.529a4.436 4.436 0 0 0-3.135 1.296 4.425 4.425 0 0 0-1.299 3.13v10.305a.406.406 0 0 0 .131.335l3.427 3.43a.469.469 0 0 0 .328.13.453.453 0 0 0 .327-.13.475.475 0 0 0 0-.662l-3.272-3.266V8.403a3.502 3.502 0 0 1 3.46-3.504h1.562c.93.003 1.821.372 2.479 1.029a3.506 3.506 0 0 1 1.03 2.475v3.772a.464.464 0 0 0 .458.466.476.476 0 0 0 .467-.466V8.403c0-1.174-.468-2.3-1.299-3.13a4.436 4.436 0 0 0-3.135-1.296Z" fill="#ABEFFF"/><path d="M129.899 13.066a.874.874 0 0 0 .875-.874v-3.79a4.84 4.84 0 0 0-1.409-3.404 4.856 4.856 0 0 0-3.401-1.43h-1.529c-1.285 0-2.516.51-3.424 1.416a4.832 4.832 0 0 0-1.419 3.419V18.7a.86.86 0 0 0 .246.637l.818.817a.758.758 0 0 0-.188 0 .872.872 0 0 0-.811.537.807.807 0 0 0-.056.337v1.453a4.841 4.841 0 0 0 4.842 4.843h1.521a4.856 4.856 0 0 0 3.425-1.421 4.837 4.837 0 0 0 1.417-3.422V18.66a.872.872 0 0 0-.871-.789.876.876 0 0 0-.871.79v3.772a3.1 3.1 0 0 1-.907 2.192 3.11 3.11 0 0 1-2.193.911h-1.529a3.109 3.109 0 0 1-3.019-2.376l1.857 1.854a.868.868 0 0 0 .614.253.814.814 0 0 0 .613-.253.857.857 0 0 0 .259-.617.857.857 0 0 0-.259-.617l-.818-.816c.063.004.126.004.188 0a.82.82 0 0 0 .614-.253.856.856 0 0 0 .258-.617.87.87 0 0 0-.258-.616l-3.166-3.169V8.403a3.094 3.094 0 0 1 3.1-3.095h1.546c.822 0 1.611.326 2.192.906a3.09 3.09 0 0 1 .908 2.189v3.772a.869.869 0 0 0 .835.89Z" fill="#42D1F7"/><path d="M129.898 18.202a.458.458 0 0 0-.458.458v3.772a3.512 3.512 0 0 1-3.509 3.512h-1.53a3.518 3.518 0 0 1-3.509-3.512v-.343l2.618 2.63a.474.474 0 0 0 .327.139.463.463 0 0 0 .461-.466.465.465 0 0 0-.134-.326l-3.427-3.414a.452.452 0 0 0-.655-.008.406.406 0 0 0-.13.335v1.453c0 1.175.466 2.302 1.298 3.133a4.443 4.443 0 0 0 3.135 1.302h1.579a4.445 4.445 0 0 0 3.135-1.302 4.431 4.431 0 0 0 1.298-3.133V18.66a.464.464 0 0 0-.499-.458Z" fill="#ABEFFF"/><path d="M125.964 3.977h-1.529a4.436 4.436 0 0 0-3.135 1.296 4.425 4.425 0 0 0-1.299 3.13v10.305a.406.406 0 0 0 .131.335l3.427 3.43a.469.469 0 0 0 .328.13.453.453 0 0 0 .327-.13.475.475 0 0 0 0-.662l-3.272-3.266V8.403a3.502 3.502 0 0 1 3.46-3.504h1.562c.93.003 1.821.372 2.479 1.029a3.506 3.506 0 0 1 1.03 2.475v3.772a.464.464 0 0 0 .458.466.476.476 0 0 0 .467-.466V8.403c0-1.174-.468-2.3-1.299-3.13a4.436 4.436 0 0 0-3.135-1.296Z" fill="#ABEFFF"/><path d="M66.597 28.5a2.088 2.088 0 0 1-2.085-2.083V9.268a2.08 2.08 0 0 1 3.55-1.47l3.271 3.267 8.073-8.06a2.088 2.088 0 0 1 2.937 0 2.089 2.089 0 0 1 0 2.948l-9.546 9.464a2.078 2.078 0 0 1-1.472.613 2.129 2.129 0 0 1-1.472-.605l-1.145-1.167v12.16a2.088 2.088 0 0 1-1.306 1.928 2.096 2.096 0 0 1-.805.154Z" fill="#100098"/><path d="M66.598 28.092a1.678 1.678 0 0 1-1.636-1.634V9.31a1.672 1.672 0 0 1 1.03-1.551c.206-.082.425-.123.647-.123.44 0 .864.173 1.178.482l3.541 3.536 8.319-8.387a1.635 1.635 0 0 1 1.186-.49 1.638 1.638 0 0 1 1.609 1.004 1.63 1.63 0 0 1-.423 1.846l-9.546 9.506a1.695 1.695 0 0 1-1.186.49 1.638 1.638 0 0 1-1.177-.49l-1.865-1.862v13.148a1.673 1.673 0 0 1-1.677 1.674Z" fill="#1800D2"/><path d="M66.598 28.092a1.678 1.678 0 0 1-1.636-1.634V9.31a1.672 1.672 0 0 1 1.03-1.551c.206-.082.425-.123.647-.123.44 0 .864.173 1.178.482l3.541 3.536 8.319-8.387a1.635 1.635 0 0 1 1.186-.49 1.638 1.638 0 0 1 1.609 1.004 1.63 1.63 0 0 1-.423 1.846l-9.546 9.506a1.695 1.695 0 0 1-1.186.49 1.638 1.638 0 0 1-1.177-.49l-1.865-1.862v13.148a1.673 1.673 0 0 1-1.677 1.674Z" fill="#100098"/><path d="M80.863 3.16c-.337-.001-.66.131-.9.367l-8.646 8.632-3.827-3.822a1.269 1.269 0 0 0-2.16.899v17.148a1.264 1.264 0 0 0 1.268 1.266 1.27 1.27 0 0 0 1.268-1.265V12.248l2.56 2.564a1.269 1.269 0 0 0 1.791 0l9.578-9.497a1.273 1.273 0 0 0 0-1.789 1.259 1.259 0 0 0-.932-.367Z" fill="#009AF1"/><path d="M80.617 28.5a2.09 2.09 0 0 1-1.934-1.283 2.08 2.08 0 0 1-.16-.8v-12.42l-1.636 1.633a2.037 2.037 0 0 1-1.472.613 2.066 2.066 0 0 1-2.073-2.078c0-.553.219-1.083.609-1.474l5.194-5.186c.393-.39.925-.61 1.48-.612a2.096 2.096 0 0 1 2.07 2.09v17.435a2.08 2.08 0 0 1-2.078 2.082Z" fill="#100098"/><path d="M80.617 28.092a1.678 1.678 0 0 1-1.636-1.633v-13.45l-2.34 2.335a1.635 1.635 0 0 1-1.185.49 1.637 1.637 0 0 1-1.602-1.007 1.631 1.631 0 0 1 .424-1.843l5.194-5.193a1.695 1.695 0 0 1 1.186-.49c.219.003.435.047.638.13a1.636 1.636 0 0 1 .99 1.552v17.435a1.63 1.63 0 0 1-1.023 1.555 1.637 1.637 0 0 1-.646.119Z" fill="#1800D2"/><path d="M80.617 28.092a1.678 1.678 0 0 1-1.636-1.633v-13.45l-2.34 2.335a1.635 1.635 0 0 1-1.185.49 1.637 1.637 0 0 1-1.602-1.007 1.631 1.631 0 0 1 .424-1.843l5.194-5.193a1.695 1.695 0 0 1 1.186-.49c.219.003.435.047.638.13a1.636 1.636 0 0 1 .99 1.552v17.435a1.63 1.63 0 0 1-1.023 1.555 1.637 1.637 0 0 1-.646.119Z" fill="#100098"/><path d="M81.1 7.807a1.254 1.254 0 0 0-1.383.277l-5.194 5.186a1.273 1.273 0 0 0 0 1.788 1.261 1.261 0 0 0 .892.368c.337 0 .66-.132.9-.368l3.026-3.03v14.39a1.265 1.265 0 0 0 1.772 1.26 1.268 1.268 0 0 0 .756-1.26V8.982a1.256 1.256 0 0 0-.77-1.176Z" fill="#009AF1"/><path d="M71.808 11.71a2.087 2.087 0 0 1-1.473-.612l-5.21-5.202a2.073 2.073 0 0 1 1.472-3.552 2.064 2.064 0 0 1 1.464.604l5.219 5.218a2.081 2.081 0 0 1-1.472 3.553v-.009Z" fill="#100098"/><path d="M71.808 11.302a1.638 1.638 0 0 1-1.178-.49l-5.194-5.21a1.65 1.65 0 0 1 1.17-2.819c.438 0 .859.174 1.169.484l5.218 5.21a1.673 1.673 0 0 1-1.185 2.858v-.033Z" fill="#1800D2"/><path d="M71.808 11.302a1.638 1.638 0 0 1-1.178-.49l-5.194-5.21a1.65 1.65 0 0 1 1.17-2.819c.438 0 .859.174 1.169.484l5.218 5.21a1.673 1.673 0 0 1-1.185 2.858v-.033Z" fill="#100098"/><path d="M70.917 10.526a1.27 1.27 0 0 0 1.791 0 1.273 1.273 0 0 0 0-1.788l-5.218-5.21a1.26 1.26 0 0 0-.892-.368c-.336.001-.66.133-.9.368a1.273 1.273 0 0 0 0 1.788l5.219 5.21Z" fill="#009AF1"/><path d="M71.808 11.302a1.638 1.638 0 0 1-1.178-.49l-5.194-5.21a1.65 1.65 0 0 1 1.17-2.819c.438 0 .859.174 1.169.484l5.218 5.21a1.673 1.673 0 0 1-1.185 2.858v-.033Z" fill="#1800D2"/><path d="M66.598 28.092a1.678 1.678 0 0 1-1.636-1.634V9.31a1.672 1.672 0 0 1 1.03-1.551c.206-.082.425-.123.647-.123.44 0 .864.173 1.178.482l3.541 3.536 8.319-8.387a1.635 1.635 0 0 1 1.186-.49 1.638 1.638 0 0 1 1.609 1.004 1.63 1.63 0 0 1-.423 1.846l-9.546 9.506a1.695 1.695 0 0 1-1.186.49 1.638 1.638 0 0 1-1.177-.49l-1.865-1.862v13.148a1.673 1.673 0 0 1-1.677 1.674Z" fill="#1800D2"/><path d="M80.863 3.16c-.337-.001-.66.131-.9.367l-8.646 8.632-3.827-3.822a1.269 1.269 0 0 0-2.16.899v17.148a1.264 1.264 0 0 0 1.268 1.266 1.27 1.27 0 0 0 1.268-1.265V12.248l2.56 2.564a1.269 1.269 0 0 0 1.791 0l9.578-9.497a1.273 1.273 0 0 0 0-1.789 1.259 1.259 0 0 0-.932-.367Z" fill="#009AF1"/><path d="M80.617 28.092a1.678 1.678 0 0 1-1.636-1.633v-13.45l-2.34 2.335a1.635 1.635 0 0 1-1.185.49 1.637 1.637 0 0 1-1.602-1.007 1.631 1.631 0 0 1 .424-1.843l5.194-5.193a1.695 1.695 0 0 1 1.186-.49c.219.003.435.047.638.13a1.636 1.636 0 0 1 .99 1.552v17.435a1.63 1.63 0 0 1-1.023 1.555 1.637 1.637 0 0 1-.646.119Z" fill="#1800D2"/><path d="M81.1 7.807a1.254 1.254 0 0 0-1.383.277l-5.194 5.186a1.273 1.273 0 0 0 0 1.788 1.261 1.261 0 0 0 .892.368c.337 0 .66-.132.9-.368l3.026-3.03v14.39a1.265 1.265 0 0 0 1.772 1.26 1.268 1.268 0 0 0 .756-1.26V8.982a1.256 1.256 0 0 0-.77-1.176ZM70.917 10.526a1.27 1.27 0 0 0 1.791 0 1.273 1.273 0 0 0 0-1.788l-5.218-5.21a1.26 1.26 0 0 0-.892-.368c-.336.001-.66.133-.9.368a1.273 1.273 0 0 0 0 1.788l5.219 5.21Z" fill="#009AF1"/><path d="M81.173 4.083a.433.433 0 0 0-.63 0l-9.226 9.227-4.4-4.393a.442.442 0 0 0-.491-.098.433.433 0 0 0-.278.416v17.15a.449.449 0 0 0 .9 0V10.313l3.95 3.953a.458.458 0 0 0 .638 0l9.537-9.53a.434.434 0 0 0 0-.653Z" fill="#ABEFFF"/><path d="M80.79 8.566a.45.45 0 0 0-.492.09l-5.194 5.226a.433.433 0 0 0 0 .629.45.45 0 0 0 .63 0l4.425-4.459v16.332a.447.447 0 0 0 .26.47.45.45 0 0 0 .632-.47V8.982a.44.44 0 0 0-.262-.416ZM71.497 9.946a.45.45 0 0 0 .31.13.483.483 0 0 0 .32-.13.457.457 0 0 0 0-.637l-5.21-5.226a.441.441 0 0 0-.663 0 .449.449 0 0 0 0 .629l5.243 5.234Z" fill="#ABEFFF"/><path d="M80.863 3.569a.876.876 0 0 0-.606.245l-8.94 8.925-4.09-4.083a.876.876 0 0 0-.605-.245.737.737 0 0 0-.327.066.817.817 0 0 0-.532.816v17.15a.857.857 0 0 0 .86.857.86.86 0 0 0 .858-.858V11.294l3.272 3.266a.817.817 0 0 0 1.21 0l9.505-9.538a.816.816 0 0 0 0-1.208.818.818 0 0 0-.605-.245Z" fill="#42D1F7"/><path d="M80.977 8.166a.934.934 0 0 0-.327-.065.82.82 0 0 0-.605.253l-5.235 5.202a.865.865 0 0 0 0 1.217.877.877 0 0 0 .934.181.817.817 0 0 0 .276-.19l3.738-3.723v15.377a.853.853 0 0 0 .855.853.856.856 0 0 0 .855-.854V8.983a.864.864 0 0 0-.49-.817ZM71.203 10.232a.857.857 0 0 0 1.461-.604.854.854 0 0 0-.25-.604l-5.211-5.21a.82.82 0 0 0-.605-.245.876.876 0 0 0-.606.245.819.819 0 0 0-.198.934.819.819 0 0 0 .198.274l5.21 5.21Z" fill="#42D1F7"/><path d="M81.173 4.083a.433.433 0 0 0-.63 0l-9.226 9.227-4.4-4.393a.442.442 0 0 0-.491-.098.433.433 0 0 0-.278.416v17.15a.449.449 0 0 0 .9 0V10.313l3.95 3.953a.458.458 0 0 0 .638 0l9.537-9.53a.434.434 0 0 0 0-.653Z" fill="#ABEFFF"/><path d="M80.79 8.566a.45.45 0 0 0-.492.09l-5.194 5.226a.433.433 0 0 0 0 .629.45.45 0 0 0 .63 0l4.425-4.459v16.332a.447.447 0 0 0 .26.47.45.45 0 0 0 .632-.47V8.982a.44.44 0 0 0-.262-.416ZM71.497 9.946a.45.45 0 0 0 .31.13.483.483 0 0 0 .32-.13.457.457 0 0 0 0-.637l-5.21-5.226a.441.441 0 0 0-.663 0 .449.449 0 0 0 0 .629l5.243 5.234Z" fill="#ABEFFF"/></g><defs><clipPath id="a"><path fill="#fff" d="M0 0h132v28.5H0z"/></clipPath></defs></svg>