<svg width="324" height="352" fill="none" xmlns="http://www.w3.org/2000/svg"><path d="M87.116 215.676c3.82-4.651 9.384-7.308 15.032-9.301 6.311-2.243 12.789-3.821 19.184-5.98 3.571-1.162 7.142-2.491 10.547-4.069 1.079-.498.083-1.495-.831-1.08-6.311 2.99-13.038 4.9-19.682 6.893-6.146 1.827-12.457 3.571-18.022 6.727-2.906 1.661-5.564 3.737-7.723 6.312-.747.83.997 1.079 1.495.498Z" fill="#0056FE"/><path d="M87.947 215.509c3.405-1.993 7.06-3.488 10.796-4.651 3.821-1.246 7.641-2.408 11.544-3.488 8.056-2.242 16.527-3.737 24.831-2.325.416.083.997 0 1.246-.332.249-.249.249-.582-.166-.665-6.644-1.079-13.454-.498-20.015.914-6.56 1.412-13.121 3.405-19.516 5.564-3.405 1.163-6.727 2.575-9.8 4.402-.332.166-.415.498-.166.747.333.249.997 0 1.246-.166ZM132.542 195.496c4.402-6.395 9.634-13.454 17.523-15.53 2.16-.581 4.319-.581 6.478-.498 2.076.166 4.236.332 6.312.664 3.986.748 7.308 3.405 10.298 6.063 3.239 2.906 6.145 6.145 8.637 9.716.249.415 1.993-.166 1.661-.664-2.409-3.571-5.315-6.81-8.471-9.634-3.073-2.74-6.478-5.481-10.547-6.311-2.326-.499-4.734-.665-7.059-.831-2.077-.083-4.236-.083-6.312.332-3.903.831-7.557 2.741-10.63 5.315-3.82 3.156-6.727 7.226-9.551 11.212-.415.83 1.412.581 1.661.166Z" fill="#0056FE"/><path d="M135.034 205.044c2.906 1.329 5.398 3.82 7.806 5.897 2.408 2.076 4.983 3.986 7.806 5.398.499.249 2.16-.499 1.495-.831-2.906-1.495-5.481-3.571-7.972-5.647-2.409-1.993-4.734-4.319-7.641-5.647-.498-.166-2.159.498-1.494.83Z" fill="#0056FE"/><path d="M150.564 216.341a283.721 283.721 0 0 1 8.304 13.62c2.492 4.235 4.9 8.554 7.973 12.374 5.398 6.81 12.125 12.623 19.599 16.942 4.236 2.408 8.637 4.401 13.288 5.813.747.249 2.159-.83 1.079-1.162-8.221-2.575-15.945-6.81-22.589-12.291-3.321-2.741-6.311-5.814-9.052-9.136-2.99-3.654-5.481-7.723-7.806-11.793-2.99-5.148-5.98-10.131-9.219-15.114-.332-.748-2.076-.083-1.577.747Z" fill="#0056FE"/><path d="M200.146 265.09c7.64 2.823 15.364 5.73 23.502 6.643.415.083.997 0 1.246-.332.249-.249.249-.498-.166-.581-8.056-.914-15.613-3.737-23.17-6.561-.416-.166-.914 0-1.246.166-.166.166-.582.499-.166.665Z" fill="#0056FE"/><path d="M189.514 284.356c4.152-4.734 10.049-7.474 15.945-9.384 6.644-2.076 13.62-3.156 20.596-3.239.332 0 1.08-.083 1.163-.498.166-.333-.083-.499-.499-.499-7.557.083-15.114 1.246-22.256 3.571-6.229 2.077-12.291 4.983-16.61 9.966-.249.332.249.498.498.498.416.084.914-.083 1.163-.415Z" fill="#0056FE"/><path d="M187.852 284.854c.166 3.571 6.146 1.91 8.139 1.329 3.405-.996 6.561-2.657 9.883-4.069 7.059-2.907 14.699-4.651 22.423-4.153.83.083 1.827-1.162.664-1.245-6.976-.415-13.869.747-20.43 3.072-3.156 1.163-6.228 2.575-9.301 3.904-1.578.664-9.384 3.986-9.551.581-.083-.581-1.91-.249-1.827.581Z" fill="#0056FE"/><path d="M243.994 295.235c0-.249-2.242-1.495-2.491-1.661a17.997 17.997 0 0 1-2.741-2.242c-1.661-1.495-3.156-3.239-4.484-5.066-2.907-3.904-4.817-8.471-5.731-13.288-2.242-11.045.166-22.423-1.661-33.468-.913-5.481-2.823-10.796-6.394-15.115-.332-.415-1.993.249-1.661.665 7.059 8.387 7.142 19.848 6.976 30.146-.166 10.381-.166 21.011 5.73 29.98 1.329 2.076 2.99 4.069 4.734 5.813.913.914 1.91 1.744 2.907 2.575.498.332.913.747 1.411 1.079.166.083 1.744.997 1.744 1.08-.166.332 1.661 0 1.661-.498Z" fill="#0056FE"/><path d="M241.253 240.756c4.319 5.979 7.225 12.872 8.554 20.181 1.412 7.308 1.412 15.363-.997 22.506-1.411 4.401-4.069 8.221-6.643 11.958-.499.748 1.328.665 1.661.083 2.325-3.405 4.733-6.809 6.228-10.713 1.412-3.654 2.076-7.64 2.325-11.543.499-7.475-.747-15.115-3.488-22.091-1.577-3.903-3.571-7.64-6.062-11.045-.249-.665-1.993 0-1.578.664ZM228.463 281.782c-4.069.913-7.64 2.99-11.211 5.066-3.903 2.325-7.807 4.567-11.627 6.893-3.488 2.159-6.976 4.401-10.049 7.225a62.895 62.895 0 0 0-7.889 9.052c-2.575 3.488-4.651 7.474-4.9 11.959 0 .249.332.415.581.332 3.987-.249 7.973-.747 11.212-3.322 1.495-1.245 2.74-2.74 3.986-4.152 1.412-1.578 2.824-3.156 4.236-4.651 5.73-5.896 12.125-11.211 19.018-15.862a113.92 113.92 0 0 1 11.875-6.976c.333-.166.416-.415.166-.664-.332-.25-.996.083-1.245.166-13.869 7.059-26.077 16.858-36.292 28.568-1.495 1.744-3.073 3.571-5.232 4.485-2.159.996-4.734 1.162-7.059 1.329.166.083.332.249.581.332.166-3.82 1.744-7.308 3.903-10.381 2.16-3.239 4.734-6.312 7.475-9.052 5.73-5.814 13.37-9.634 20.263-13.703 3.987-2.326 7.89-4.9 12.458-5.98 1.079-.083.83-.913-.25-.664Z" fill="#0056FE"/><path d="M195.327 285.603c-7.89 4.236-14.7 10.796-17.523 19.35-.083.249.166.415.332.499 3.156 1.079 6.81.415 9.966-.499 3.238-.996 6.228-2.491 8.969-4.567.996-.748-.499-1.163-1.163-.665-2.325 1.744-4.983 3.156-7.723 4.07-2.824.913-6.063 1.577-8.97.581.083.166.25.332.333.498 2.657-8.055 9.052-14.367 16.443-18.27 1.246-.665.249-1.495-.664-.997ZM240.507 295.568c-2.491 7.972-5.647 15.779-9.467 23.253-3.488 6.81-7.475 13.786-13.703 18.437-1.495 1.079-2.99 2.076-4.651 2.823-.747.332-1.578.665-2.408.914-.831.249-1.91.747-2.824.664-1.91-.166-.747-4.401-.415-5.564.581-1.91 1.329-3.82 2.076-5.647 2.99-7.059 7.059-13.537 11.71-19.6 2.574-3.322 5.398-6.643 8.388-9.633 2.989-2.99 6.311-5.647 10.214-7.391 1.163-.499.167-1.412-.747-.997-7.474 3.156-13.038 9.717-17.938 15.862-5.232 6.478-9.8 13.454-13.122 21.094-.83 1.91-1.661 3.903-2.242 5.98-.498 1.744-1.08 4.069-.498 5.896.581 1.744 2.574 1.412 3.986 1.163a22.387 22.387 0 0 0 5.398-1.993c7.308-3.655 12.291-10.381 16.277-17.44 4.983-8.804 8.886-18.271 11.876-27.905.166-.913-1.661-.664-1.91.084Z" fill="#0056FE"/><path d="M195.66 316.079a25.07 25.07 0 0 0-2.658 7.973c-.249 1.329-.332 2.741-.332 4.069 0 1.163 0 2.492.581 3.488 1.246 2.243 4.651 1.163 6.644.665 2.658-.665 5.232-1.827 7.391-3.571 2.492-1.91 4.319-4.568 6.063-7.143.498-.664-1.329-.581-1.661-.083-1.661 2.409-3.322 4.9-5.647 6.81-2.492 1.994-5.731 3.156-8.887 3.488-.747.083-1.494.083-1.993-.581-.332-.498-.498-1.163-.581-1.744-.166-1.495-.083-3.073.083-4.485a25.598 25.598 0 0 1 2.658-8.886c.498-.747-1.329-.581-1.661 0ZM241.502 296.149c-5.481 14.035-9.301 29.232-6.81 44.347.581 3.571 1.163 7.807 3.903 10.381.332.332 1.163.083 1.412-.249 2.076-2.907 3.073-6.478 3.903-9.966.997-3.82 1.661-7.64 2.243-11.543 1.162-7.89 2.325-15.946 1.993-23.918-.166-4.402-.748-8.72-1.661-12.956-.166-.913-1.993-.415-1.827.499 1.744 7.557 2.076 15.197 1.329 22.921-.665 7.474-1.661 15.115-3.322 22.423-.914 3.986-1.827 8.554-4.319 11.959.498-.083.997-.166 1.412-.249-2.325-2.243-2.907-6.146-3.405-9.219-.664-3.737-.914-7.474-.831-11.211.167-7.225 1.412-14.451 3.488-21.427a147.74 147.74 0 0 1 3.987-11.626c.581-.914-1.163-.997-1.495-.166Z" fill="#0056FE"/><path d="M251.053 271.649c1.993 3.82 3.072 8.056 3.737 12.291.747 4.568 1.079 9.135 1.328 13.786.167 4.734.167 9.468-.166 14.118-.249 4.319-.664 8.637-1.661 12.873-.996 4.401-2.574 8.72-5.315 12.374.582-.166 1.163-.249 1.827-.415-1.827-3.322-3.155-6.81-3.903-10.548-.083-.332-1.91.083-1.827.499.747 3.737 1.993 7.225 3.903 10.547.249.415 1.578-.083 1.827-.415 4.983-6.644 6.146-15.198 6.81-23.254.748-9.384.582-18.935-.664-28.319-.664-4.9-1.744-9.717-3.986-14.118-.333-.333-2.077.332-1.91.581ZM183.949 194.747c3.903-11.959 9.55-23.336 16.277-34.049 6.727-10.797 14.533-20.928 22.755-30.728 8.471-10.132 17.274-20.015 26.575-29.316 9.302-9.384 19.35-18.104 30.396-25.412 10.713-7.06 22.423-12.79 34.88-15.946 1.495-.415 3.073-.747 4.65-1.08.167 0 1.08-.165 1.08-.498 0-.249-.581-.166-.747-.166-12.541 2.575-24.416 7.558-35.462 14.035-11.46 6.81-21.841 15.198-31.392 24.333-9.716 9.302-18.769 19.267-27.572 29.482-8.471 9.883-16.609 20.015-23.834 30.894-7.142 10.713-13.288 22.174-17.773 34.299-.581 1.495-1.079 3.073-1.578 4.568-.166.166 1.578 0 1.745-.416Z" fill="#0056FE"/><path d="M318.903 57.968c-.083 2.076-1.163 3.737-2.575 5.232-1.578 1.66-3.322 3.156-4.983 4.65-3.654 3.322-7.225 6.644-10.879 9.966l-21.675 19.931c-4.07 3.738-8.222 7.558-12.292 11.295-.332.249-.166.581.167.747.415.167.996-.083 1.245-.332 14.866-13.62 29.731-27.322 44.597-40.942 1.827-1.661 3.82-3.322 5.481-5.15 1.412-1.577 2.658-3.404 2.658-5.564.083-.913-1.744-.58-1.744.167Z" fill="#0056FE"/><path d="M266.168 137.361c13.786-10.547 29.15-18.686 42.936-29.233a115.108 115.108 0 0 0 9.799-8.305c1.495-1.412 3.156-2.823 4.319-4.567.913-1.412 1.412-3.489-.831-3.738-1.993-.166-4.235.166-6.228.416-2.325.249-4.568.58-6.81.996a120.99 120.99 0 0 0-13.122 3.239c-9.799 3.073-19.184 7.391-28.236 12.291-.332.166-.498.332-.166.581.249.25.997-.083 1.246-.166 15.281-8.221 31.89-15.031 49.33-16.36.831-.083 2.326-.415 3.156-.083 1.246.498.166 2.408-.249 3.073-1.08 1.578-2.741 2.99-4.153 4.318a111.173 111.173 0 0 1-9.55 8.056c-6.478 4.9-13.288 9.384-20.098 13.703-7.723 4.983-15.53 9.882-22.838 15.447-.332.249-.166.415.166.498.416.249.997 0 1.329-.166Z" fill="#0056FE"/><path d="M267.58 136.034a92.753 92.753 0 0 1 19.516-7.475c3.405-.83 6.81-1.495 10.215-1.993 3.654-.498 7.391-.747 11.045-.166 1.412.249 3.239.498 4.319 1.495 1.411 1.329.249 3.239-.748 4.401-2.242 2.492-5.066 4.402-7.889 6.229-6.063 3.986-12.208 7.807-18.852 10.879-7.392 3.405-15.198 5.897-22.921 8.388-.167.083-.748.249-.499.498.166.25.997-.083 1.163-.083 7.391-2.408 14.782-4.733 21.925-7.889 7.225-3.156 13.869-7.308 20.429-11.544 2.907-1.91 5.98-3.903 8.305-6.478.914-.996 2.076-2.491 1.495-3.986-.498-1.246-1.827-1.744-2.99-2.076-3.571-.997-7.391-.914-11.045-.581a82.488 82.488 0 0 0-11.045 1.744c-8.139 1.827-16.029 4.65-23.42 8.471-1.163.498.581.332.997.166Z" fill="#0056FE"/><path d="M264.258 158.04c6.311-1.577 12.706-2.906 19.267-3.571 6.229-.581 12.872-.83 19.101.499 1.412.332 2.824.83 3.82 1.993 1.08 1.246 1.08 2.823.249 4.235-1.578 2.492-4.9 3.737-7.391 4.983-5.398 2.658-11.045 4.734-16.859 6.146-6.727 1.661-13.62 2.574-20.596 2.657-.332 0-1.079.083-1.162.498-.166.333.083.582.498.582 13.288-.083 26.575-3.156 38.534-8.886 2.741-1.329 5.897-2.658 7.973-4.983 1.91-2.159 1.91-4.9-.415-6.727-2.409-1.827-6.146-1.91-9.053-2.159-3.488-.249-6.976-.332-10.464-.083-7.972.415-15.945 1.993-23.668 3.903-1.163.249-.914 1.163.166.913Z" fill="#0056FE"/><path d="M261.931 176.061c7.225-.249 14.451-.083 21.593.665 5.647.498 12.457.83 16.775 4.982.582.499 1.246 1.163 1.329 1.91.083.914-.581 1.661-1.162 2.243a10.705 10.705 0 0 1-3.738 2.242c-3.072 1.163-6.394 1.578-9.633 2.159-6.893 1.163-13.786 2.492-20.845 2.243-8.056-.25-16.195-.914-24.25-1.412-.665 0-1.91.83-.748.913 7.807.499 15.613 1.08 23.42 1.412 7.64.249 15.032-1.08 22.506-2.325 3.322-.582 6.727-1.08 9.883-2.243 1.328-.498 2.574-1.079 3.737-1.91 1.079-.747 2.491-1.91 2.574-3.322.083-1.328-1.329-2.491-2.242-3.238-1.163-.914-2.408-1.578-3.82-2.16-2.824-1.079-5.897-1.578-8.886-1.91-8.554-.996-17.191-1.328-25.828-1.079-.333 0-1.08.083-1.163.498-.083.166.166.332.498.332Z" fill="#0056FE"/><path d="M250.638 192.754a134.48 134.48 0 0 1 16.194 3.737c2.658.747 5.232 1.661 7.807 2.574 2.242.831 4.567 1.578 6.561 2.907 1.494.996 3.82 3.239 2.989 5.315-.415.996-1.827.996-2.74.996-1.412.084-2.824.167-4.319.25-5.481.332-11.045.498-16.609.249-6.146-.249-12.291-1.08-18.188-2.741-.415-.083-.996 0-1.246.332-.249.333-.166.748.25.831 11.709 3.322 24 3.322 36.042 2.574 1.412-.083 2.824-.166 4.319-.332 1.163-.083 2.325-.249 3.322-.996 1.827-1.329 1.246-3.821.083-5.482-1.329-1.827-3.488-2.906-5.481-3.737-2.658-1.162-5.482-2.076-8.222-2.989-6.478-2.16-13.205-3.738-19.932-4.817-1.079-.083-1.993 1.163-.83 1.329ZM219.827 226.389c6.561 7.308 14.948 13.37 24.914 14.616 2.243.249 4.9.498 7.142-.083 1.993-.498 2.907-2.242 1.744-4.069-1.162-1.827-2.989-3.405-4.484-4.983a80.53 80.53 0 0 0-5.564-5.066c-4.319-3.654-8.97-6.81-13.869-9.551-.499-.249-1.911.499-1.661.665 7.723 4.318 14.782 9.716 20.928 16.194 1.245 1.329 3.903 3.322 3.322 5.398-.333 1.246-1.827.997-2.824.997-1.163 0-2.408-.083-3.571-.249-4.651-.582-9.135-2.326-13.122-4.817-4.235-2.575-7.972-5.979-11.294-9.717-.332-.332-1.993.333-1.661.665Z" fill="#0056FE"/><path d="M231.537 219.744c8.056 4.9 17.44 7.391 26.825 7.059a49.494 49.494 0 0 0 7.059-.748c1.661-.332 3.82-1.079 3.82-3.072s-1.827-3.904-3.239-5.149c-1.578-1.412-3.405-2.409-5.232-3.405-5.232-2.824-10.63-5.315-16.111-7.558-.665-.249-2.076.665-1.08 1.163a148.2 148.2 0 0 1 12.79 5.896c3.488 1.744 7.557 3.571 9.882 6.81.582.748 1.246 1.744 1.163 2.741-.083 1.329-1.495 1.495-2.575 1.661-1.993.332-4.069.581-6.145.581-4.235.166-8.554-.332-12.706-1.329a46.711 46.711 0 0 1-13.122-5.481c-.498-.581-2.159.333-1.329.831ZM181.955 196.741c4.734 3.903 9.052 8.471 12.208 13.703 3.239 5.398 4.651 11.627 6.229 17.689 2.99 11.295 6.062 23.004 13.204 32.555 3.488 4.65 7.807 8.554 13.039 11.211.747.415 2.076-.747.996-1.245-9.716-4.9-15.945-14.617-19.848-24.5-2.325-5.896-3.903-12.041-5.564-18.104-1.578-5.73-2.907-11.793-5.73-17.108-3.239-5.896-8.056-10.962-13.205-15.198-.581-.664-2.159.333-1.329.997Z" fill="#0056FE"/><path d="M213.431 142.676c1.827-2.076 3.904-3.82 6.312-5.315a26.449 26.449 0 0 1 3.405-1.744c.498-.249.996-.498 1.578-.581 1.162-.249 1.412.498 1.329 1.578-.582 5.315-4.402 9.966-7.807 13.869-3.986 4.484-7.972 8.886-11.71 13.62-3.82 4.733-7.142 9.799-10.713 14.699-2.076 2.741-4.152 5.564-6.228 8.222-1.08 1.412-2.243 2.823-3.322 4.235-.582.748-1.163 1.412-1.744 2.159-.249.333-.499.582-.748.914-.166.166-.332.415-.498.581-.332.249-.332.416.083.416-.664-.167-2.159.747-1.08 1.079 1.495.415 2.326-.83 3.156-1.827 1.08-1.246 2.076-2.574 3.156-3.82 2.242-2.741 4.402-5.481 6.478-8.305 4.235-5.564 8.055-11.46 12.374-17.025 4.235-5.398 8.969-10.381 13.371-15.613 1.91-2.242 3.82-4.65 5.149-7.308.664-1.329 1.245-2.657 1.577-4.069.25-1.08.914-2.741.167-3.737-.748-1.08-2.409-.831-3.488-.499-1.495.499-2.99 1.246-4.402 1.994-2.907 1.577-5.564 3.737-7.806 6.228-.748.748.996.748 1.411.249Z" fill="#0056FE"/><path d="M214.096 157.376a50.948 50.948 0 0 1 14.616-10.215c.665-.333 1.329-.582 2.076-.914.665-.249 1.911-.913 1.994.332.083.665-.416 1.412-.748 1.993a25.78 25.78 0 0 1-1.163 2.077c-1.411 2.408-3.155 4.567-5.065 6.56-3.987 4.236-8.637 7.89-13.122 11.627a435.351 435.351 0 0 0-14.533 12.956c-2.741 2.574-5.398 5.065-8.056 7.723-2.491 2.408-4.817 5.232-7.889 7.059-.333.166-.167.332.083.415.415.083.913-.166 1.245-.332 2.824-1.661 5.066-4.235 7.392-6.561l7.723-7.474c5.232-4.983 10.63-9.8 16.194-14.45 4.817-4.153 9.966-8.056 14.118-12.873 1.911-2.242 3.654-4.65 4.9-7.308.415-.913 1.163-2.491-.332-2.823-1.246-.333-2.657.332-3.737.83a52.992 52.992 0 0 0-17.523 11.627c-.332.332.249.332.415.332.581-.083 1.163-.249 1.412-.581Z" fill="#0056FE"/><path d="M218.664 166.096c5.066-3.405 10.464-6.312 16.112-8.803.747-.333 2.74-1.495 3.488-.665.83.914-1.246 3.239-1.744 3.903-1.661 2.077-3.655 3.904-5.814 5.482-4.484 3.322-9.55 5.979-14.367 8.803-5.315 3.072-10.63 6.311-15.779 9.716-5.647 3.821-10.962 8.222-16.942 11.461-1.079.581-.083 1.661.831 1.163 5.813-3.156 11.045-7.392 16.526-11.129 5.73-3.903 11.71-7.474 17.689-10.962 5.232-2.99 10.713-5.813 15.281-9.8 2.159-1.827 4.069-3.903 5.564-6.311.582-.997 1.163-2.326.249-3.322-.747-.748-1.993-.748-2.906-.499-1.578.333-3.156 1.163-4.651 1.827-1.661.748-3.322 1.578-4.983 2.409-3.322 1.744-6.561 3.737-9.716 5.813-.333.249-.416.748-.083.997.332.332.913.166 1.245-.083Z" fill="#0056FE"/><path d="M222.568 173.238a70.26 70.26 0 0 1 8.305-1.744c1.329-.166 2.657-.332 3.986-.415 1.08-.083 2.325-.249 3.405.166 2.741 1.163.249 4.401-1.163 5.481-1.91 1.495-4.235 2.658-6.394 3.737-9.052 4.568-18.769 7.475-28.32 10.63-2.657.914-5.315 1.744-7.889 2.741-2.907 1.08-5.813 2.325-8.886 2.74-.332.084-.997.25-.997.665 0 .415.499.498.831.415 2.906-.415 5.647-1.495 8.471-2.491a234.666 234.666 0 0 1 8.138-2.907c5.315-1.744 10.713-3.488 16.028-5.315 5.232-1.91 10.464-3.986 15.364-6.644 2.16-1.163 4.651-2.408 6.395-4.235 1.246-1.412 2.574-4.07.581-5.482-.913-.664-2.159-.83-3.239-.83-1.577 0-3.155.166-4.733.415a66.197 66.197 0 0 0-9.966 1.993c-1.329.333-.997 1.329.083 1.08Z" fill="#0056FE"/><path d="M225.723 184.034c1.827-.332 12.54-1.661 11.543 2.326-.498 1.91-3.239 2.74-4.899 3.155-2.077.582-4.153.914-6.312 1.246-4.402.581-8.803.831-13.205 1.412a176.192 176.192 0 0 0-12.955 2.242c-2.409.499-4.817 1.08-7.225 1.744-2.409.665-4.817 1.329-7.309 1.578-.83.083-1.577.997-.249.914 4.9-.499 9.634-2.243 14.451-3.322 4.983-1.08 10.131-1.993 15.197-2.575 4.9-.581 9.883-.747 14.7-1.744 2.076-.415 4.235-.913 6.145-1.827 1.329-.664 3.405-1.827 3.488-3.571.083-2.408-3.238-2.74-4.982-2.99-2.741-.332-5.482-.166-8.139.416-.249.083-.997.249-.997.581 0 .415.499.415.748.415Z" fill="#0056FE"/><path d="M220.822 192.255c1.744.083 3.488.333 5.232.831 1.411.415 3.82.996 3.654 2.907-.083 1.66-2.575 1.66-3.737 1.744-1.828.166-3.572.249-5.399.332-7.308.249-14.699-.249-22.007-.499-4.07-.166-8.222-.166-12.291-.083-.997 0-1.412 1.329-.166 1.246 8.554-.249 17.107.415 25.744.581 4.153.083 8.305.083 12.458-.166 2.242-.166 7.557-.249 7.308-3.654-.166-1.827-1.993-2.74-3.488-3.239-2.159-.747-4.319-1.079-6.561-1.162-.415 0-.997.083-1.163.581-.249.332 0 .581.416.581Z" fill="#0056FE"/><path d="M218.247 199.066c1.828.415 3.489 1.162 4.817 2.491.582.498 1.163 1.246 1.163 2.076 0 1.329-1.578 1.412-2.575 1.495-3.903.415-7.889-.747-11.792-1.495-3.821-.747-7.641-1.495-11.461-2.159-3.571-.581-7.225-1.08-10.464-2.824-.332-.166-.83 0-1.163.083-.083 0-.83.333-.498.499 2.907 1.578 6.146 2.242 9.384 2.74 3.655.582 7.309 1.246 10.963 1.993 3.571.748 7.142 1.661 10.713 1.911 1.661.166 3.322.083 4.983-.167 1.163-.166 2.74-.498 3.405-1.494.913-1.246-.249-2.658-1.163-3.488-1.412-1.163-3.073-1.911-4.817-2.326-.415-.083-.913 0-1.245.249-.166.083-.665.333-.25.416Z" fill="#0056FE"/><path d="M187.521 201.308c6.976 3.571 14.118 7.142 21.758 9.052 1.827.415 3.654.747 5.481.996 1.744.167 3.571.333 5.232-.249 1.246-.415 2.658-1.245 3.073-2.574.415-1.246-.166-2.575-1.412-3.073-.415-.166-2.076.498-1.495.747 1.412.582 1.495 2.492.582 3.488-1.163 1.246-2.99.997-4.485.831-3.239-.332-6.395-1.08-9.55-2.076-6.146-1.993-11.876-4.9-17.606-7.807-.333-.166-.831-.083-1.163.083 0 0-.748.416-.415.582Z" fill="#0056FE"/><path d="M191.59 205.212c3.821 3.654 7.807 7.474 12.79 9.633 2.159.914 4.568 1.661 6.893 1.08 1.91-.498 4.069-2.242 3.073-4.401-.166-.416-1.993.166-1.827.498.415.913.249 1.827-.416 2.574-.913 1.08-2.408.748-3.571.416-2.076-.582-3.986-1.495-5.73-2.575-3.488-2.159-6.561-5.066-9.467-7.889-.416-.333-2.077.415-1.745.664Z" fill="#0056FE"/><path d="M197.072 215.261a14.724 14.724 0 0 0 6.311 3.903c.748.249 1.495.332 2.159-.083.582-.332.997-.914 1.08-1.578.083-1.246-.581-2.658-1.329-3.654-.415-.665-2.159.083-1.661.747.582.831 1.08 1.827 1.163 2.824 0 .249 0 .415-.083.664-.083.249 0-.083.083.083-.083-.083-.498-.166-.581-.166l-.748-.249c-1.744-.664-3.405-1.827-4.733-3.156-.333-.332-.831-.332-1.246-.083-.249 0-.748.415-.415.748ZM233.863 117.845c3.322-3.488 7.142-6.394 11.378-8.72.913-.498 1.91-1.162 2.99-1.328.498-.084.996-.084 1.328.332.416.415.416 1.079.416 1.661-.084 2.491-1.329 4.733-2.658 6.81-5.564 8.803-12.125 16.858-18.686 24.831-3.488 4.235-6.81 8.803-11.46 11.876-.166.083-.083.166.083.249.166.083.415-.083.581-.166 4.318-2.907 7.474-7.059 10.713-11.046 3.488-4.235 7.059-8.554 10.381-12.955 3.322-4.319 6.561-8.72 9.385-13.288 1.245-2.076 2.491-4.401 2.408-6.893-.083-2.408-2.658-1.827-4.152-1.079-5.066 2.491-9.634 5.813-13.454 9.882-.166.167.083.167.166.167.249-.084.415-.167.581-.333Z" fill="#0056FE"/><path d="M231.124 139.022c3.737-3.405 7.806-6.56 12.125-9.135 2.159-1.246 4.401-2.408 6.893-2.907 1.079-.166 2.325-.249 3.156.582.747.747.83 1.827.581 2.74-.249 1.08-.831 1.993-1.412 2.907-.747 1.08-1.495 2.076-2.408 2.99-1.661 1.91-3.488 3.654-5.232 5.398a332.688 332.688 0 0 1-10.963 10.713c-4.235 3.903-8.637 7.64-13.287 11.045-.416.333.249.499.498.333 8.803-6.312 16.527-13.869 24.084-21.593 1.91-1.91 3.82-3.82 5.647-5.813 1.495-1.661 3.239-3.654 3.82-5.897.25-.913.25-1.993-.332-2.823-.581-.831-1.578-1.246-2.574-1.246-2.326-.083-4.817.997-6.81 1.993-2.658 1.329-5.149 2.99-7.558 4.734a75.258 75.258 0 0 0-6.976 5.73c-.166.166-.083.249.083.332.333.166.582.083.665-.083ZM222.069 163.439l15.946-9.965c4.816-2.99 9.633-6.395 15.031-8.222 1.246-.415 2.658-.997 3.904-.914 1.328.083 1.993 1.246 1.744 2.575-.25 1.246-1.08 2.325-1.911 3.322-.83.996-1.744 1.91-2.657 2.74-1.993 1.827-4.236 3.322-6.478 4.9a211.082 211.082 0 0 1-7.059 4.817c-5.398 3.571-11.045 6.893-17.108 9.301-.498.249 0 .332.249.249 5.565-2.242 10.797-5.149 15.862-8.387a239.657 239.657 0 0 0 7.558-5.066c2.325-1.661 4.651-3.239 6.893-5.066 1.079-.914 2.076-1.827 2.99-2.907.83-.913 1.744-1.993 2.242-3.156.415-.996.498-2.325-.415-3.072-.831-.665-2.16-.582-3.156-.333-5.564 1.163-10.63 4.402-15.447 7.475-6.312 3.903-12.623 7.889-18.852 11.792-.166.083-.083.166.083.166.166-.083.415-.166.581-.249ZM226.14 171.827c4.318-1.744 8.72-3.488 13.121-5.066 2.16-.831 4.319-1.578 6.561-2.326 2.242-.747 4.568-1.661 6.976-1.744 1.08-.083 2.409 0 3.405.499.831.498 1.163 1.495.914 2.408-.25.997-.997 1.744-1.827 2.325-.831.665-1.744 1.246-2.658 1.827-3.654 2.492-7.474 4.817-11.294 6.976-4.319 2.409-8.887 4.651-13.537 6.395-.499.166 0 .332.332.249 8.72-3.405 16.942-8.055 24.665-13.287.914-.665 1.827-1.246 2.824-1.91.747-.582 1.578-1.163 2.076-1.994.415-.747.581-1.744.083-2.491-.498-.747-1.412-1.08-2.242-1.246-2.326-.415-4.651.166-6.893.831-2.326.747-4.651 1.495-6.976 2.325-5.315 1.91-10.547 3.986-15.779 6.062-.582.167-.083.333.249.167Z" fill="#0056FE"/><path d="M230.044 182.705c5.564-1.827 11.295-3.073 17.108-3.654.748-.083 1.495-.166 2.242-.166.748-.083 1.578-.166 2.326 0 .664.166 1.162.747.996 1.495-.166.581-.83 1.162-1.245 1.578-.914.83-2.077 1.495-3.239 2.159a54.226 54.226 0 0 1-3.82 1.827c-2.907 1.246-5.98 2.159-9.136 2.824-.083 0-.415.083-.498.249 0 .166.249.166.332.166 3.073-.581 5.98-1.495 8.886-2.658 1.412-.581 2.824-1.245 4.236-1.91 1.245-.664 2.408-1.329 3.488-2.159.747-.664 2.325-1.91 1.744-3.073-.665-1.246-2.492-.913-3.654-.83-3.156.166-6.395.581-9.468 1.162a78.81 78.81 0 0 0-10.547 2.741c-.083 0-.332.166-.249.249 0 .166.332 0 .498 0ZM205.212 219.496a21.666 21.666 0 0 0 5.481 1.993c.831.166 1.744.333 2.658.416.747.083 1.744.332 2.491 0 1.661-.748-.747-2.575-1.412-3.073-1.412-1.08-2.99-1.993-4.734-2.492-.166-.083-.913.167-.664.333 2.907 1.411 5.896 2.657 8.886 3.82 1.495.581 2.99 1.079 4.485 1.661 1.495.498 2.989.996 4.65 1.245.997.084 2.575.333 3.239-.664.582-.913-.166-2.076-.747-2.74-1.578-2.077-3.654-3.572-5.897-4.734-2.574-1.329-5.315-2.242-8.138-3.156-.166-.083-.914.249-.665.332 4.402 1.412 9.053 2.99 12.458 6.229.747.747 1.661 1.661 2.076 2.657.166.416.332.997.083 1.412-.332.664-1.744.332-2.409.249-1.494-.249-2.906-.747-4.235-1.245-1.329-.499-2.741-.997-4.069-1.495-3.073-1.163-6.063-2.492-9.053-3.904-.249.083-.415.25-.664.333 1.412.415 2.824 1.079 3.986 1.993.582.415 1.163.83 1.661 1.412.249.249 1.412 1.494.582 1.661-.333.083-.831-.084-1.08-.084-.415 0-.83-.083-1.163-.166a12.428 12.428 0 0 1-2.408-.498 24.186 24.186 0 0 1-4.651-1.744c-.166-.083-.332 0-.498 0-.083 0-.415.166-.249.249Z" fill="#0056FE"/><path d="M214.596 211.773a74.21 74.21 0 0 0 18.603 3.903c1.163.083 2.408.166 3.571-.166.914-.249 2.242-.914 2.492-1.91.332-1.246-1.329-1.91-2.243-2.409-1.329-.664-2.823-1.162-4.235-1.578l-10.713-3.239c-.333-.083-.914.416-.499.582 2.907.83 5.814 1.744 8.72 2.574 1.329.416 2.741.831 4.07 1.246 1.245.415 2.574.914 3.654 1.744 1.246.997-.249 2.076-1.329 2.408-1.163.333-2.325.25-3.488.167a77.541 77.541 0 0 1-8.637-1.246c-3.156-.665-6.312-1.495-9.467-2.575-.416-.249-.997.333-.499.499ZM223.233 206.292c5.316 1.412 11.046 1.329 16.278-.332.581-.167 1.163-.416 1.744-.582.498-.166 1.079-.415 1.495-.83.747-.914-.332-1.661-1.08-1.993-1.329-.499-2.74-.914-4.069-1.329-1.412-.415-2.907-.748-4.402-1.08-3.239-.664-6.561-1.079-9.799-1.329-.333 0-.831.499-.25.582 5.315.332 10.547 1.245 15.613 2.823.582.166 1.163.416 1.744.582.499.166 1.163.332 1.495.83.416.582-.166.914-.664 1.163-.581.249-1.246.498-1.91.664-2.409.748-4.9 1.163-7.391 1.329a28.637 28.637 0 0 1-8.388-.997c-.333-.083-.914.333-.416.499Z" fill="#0056FE"/><path d="M225.891 199.066c3.571.166 7.142.166 10.796 0 1.744-.083 3.571-.166 5.315-.249 1.329-.083 2.574-.249 3.82-.665 1.08-.415 2.159-.996 2.741-2.076.332-.581.581-1.329.249-1.993-.249-.498-.831-.831-1.329-1.08-2.99-1.328-6.395-1.245-9.634-1.328a299.299 299.299 0 0 0-12.208 0c-.166 0-.498.083-.498.249-.083.166.083.249.249.249h9.883c1.661 0 3.239 0 4.9.083 1.495.083 3.073.083 4.567.415a11.79 11.79 0 0 1 2.243.748c.581.249 1.245.664 1.329 1.328.249 1.329-1.246 2.409-2.326 2.907-1.079.415-2.325.581-3.571.664a50.08 50.08 0 0 1-4.983.25c-3.654.166-7.391.166-11.045 0-.498 0-1.08.498-.498.498Z" fill="#0056FE"/><path d="M263.179 111.699c-6.809 4.983-22.09 16.361-27.904 22.091" stroke="#0056FE" stroke-linecap="round" stroke-linejoin="round"/><path d="M224.062 161.03s20.43-12.789 42.521-24.582M280.036 152.06c-5.896 2.076-11.959 4.152-17.689 6.145-19.848 6.893-37.122 13.039-37.122 13.039M237.6 180.379c7.723-2.325 16.194-3.903 24.25-4.9" stroke="#0056FE" stroke-miterlimit="10" stroke-linecap="round" stroke-linejoin="round"/><path d="M131.713 197.072c2.989.582 6.228.665 9.135-.332 1.412-.498 2.74-1.245 3.82-2.242 1.329-1.163 2.408-2.574 3.737-3.737 1.163-1.08 2.741-2.409 4.402-2.824 1.661-.415 3.405.914 4.9 1.578 2.989 1.412 6.311 2.242 9.633 2.575 3.737.332 7.557 0 11.129-1.08.996-.249.664-1.329-.25-1.08-6.477 1.827-13.536 1.329-19.682-1.578-1.329-.664-2.657-1.494-4.152-1.661-1.495-.166-2.824.416-4.07 1.246-1.328.831-2.657 1.827-3.737 2.99-1.246 1.163-2.242 2.574-3.654 3.571-2.99 2.159-6.976 2.159-10.464 1.495-.997-.166-1.827.913-.747 1.079Z" fill="#0056FE"/><path d="M136.447 204.297c2.242-3.238 5.647-5.398 9.218-6.893 3.737-1.494 8.139-3.238 12.125-1.494 3.156 1.411 5.813 4.318 8.139 6.893 1.245 1.411 2.408 2.989 3.488 4.567a39.8 39.8 0 0 1 1.577 2.409c.416.747.748 1.411 1.412 1.993.332.249 1.744-.332 1.495-.499-.664-.581-.996-1.328-1.412-2.076-.498-.747-.913-1.578-1.495-2.325a64.48 64.48 0 0 0-2.823-3.82c-2.076-2.492-4.402-4.983-7.142-6.81-2.658-1.744-5.648-2.076-8.72-1.412-3.239.664-6.395 1.827-9.302 3.239-3.155 1.578-5.979 3.654-8.055 6.478-.166.249.581.166.664.166.166 0 .665-.083.831-.416Z" fill="#0056FE"/><path d="M149.816 215.342c7.973 1.163 16.195.083 23.586-3.156.997-.415.083-1.329-.747-.997-6.976 3.073-14.783 4.07-22.34 2.907-.831-.083-1.578 1.08-.499 1.246ZM243.662 48.583a93.33 93.33 0 0 0 2.242-9.218c.249-1.08.664-2.658 0-3.737-.582-.914-1.578-.914-2.409-.499-2.574 1.246-4.899 3.322-6.976 5.316-2.159 2.159-4.152 4.484-5.896 6.975-3.571 4.9-6.561 10.215-9.384 15.53-2.824 5.398-5.399 11.046-7.807 16.693-4.734 11.46-8.554 23.253-12.125 35.046-3.737 12.457-7.142 24.998-10.132 37.704a776.318 776.318 0 0 0-8.222 38.534c-.332 1.578-.581 3.156-.83 4.734-.083.415.747.332.83-.083 2.16-12.457 4.734-24.832 7.558-37.123 2.823-12.291 6.062-24.582 9.55-36.707 3.322-11.543 6.893-23.087 11.129-34.382 4.152-10.962 8.969-21.758 14.948-31.89 2.99-5.066 6.312-10.132 10.464-14.367a42.844 42.844 0 0 1 3.488-3.156c.499-.415 1.08-.83 1.661-1.163.665-.498 1.412-1.08 2.16-1.328 2.159-.83 1.495 2.574 1.245 3.57l-.996 4.485-1.246 4.734c-.166.664.664.664.748.332Z" fill="#0056FE"/><path d="M242.748 48.749c-1.993 7.308-4.401 14.533-7.308 21.592-.166.415.664.415.747.083 2.907-7.059 5.315-14.367 7.309-21.758.166-.416-.582-.333-.748.083Z" fill="#0056FE"/><path d="M235.939 68.847c-2.325 5.98-4.734 11.96-7.142 17.939-2.492 6.062-4.9 12.125-7.474 18.187-2.658 6.395-5.316 12.706-7.973 19.101-2.741 6.561-5.481 13.122-8.222 19.599-2.823 6.561-5.564 13.122-8.388 19.683-.332.83-.747 1.661-1.079 2.491-.083.166.664.083.83-.083l8.471-19.682c2.741-6.561 5.564-13.122 8.305-19.682 2.74-6.478 5.398-12.956 8.056-19.351a1662.73 1662.73 0 0 0 7.391-18.021c2.408-5.98 4.9-12.042 7.225-18.104l.83-2.16c.083-.166-.747-.083-.83.083Z" fill="#0056FE"/><path d="M236.437 69.429a108.815 108.815 0 0 1 14.616-19.101 26.644 26.644 0 0 1 2.159-2.16c.665-.664 1.412-1.411 2.326-1.827 2.574-1.08 1.744 3.405 1.495 4.568-.499 2.076-1.329 3.986-2.16 5.98-.83 2.076-1.744 4.152-2.574 6.228l-5.73 13.952c-.083.166.664.083.83-.083l5.481-13.205 2.741-6.727c.83-2.076 1.744-4.069 2.242-6.311.249-.997.332-2.076.332-3.156 0-.83-.249-1.66-1.162-1.827-1.744-.332-3.239 1.163-4.319 2.242-3.073 2.99-5.896 6.229-8.554 9.55-2.99 3.821-5.813 7.807-8.305 11.877-.332.332.499.249.582 0Z" fill="#0056FE"/><path d="M246.484 77.069c-2.325 5.066-4.65 10.215-6.976 15.28-2.242 4.9-4.817 9.717-7.474 14.451-1.495 2.657-3.073 5.315-4.651 7.972-.166.333.582.333.748.083 2.74-4.65 5.481-9.301 7.972-14.118 2.575-4.9 4.817-9.882 7.059-14.948l3.987-8.72c.249-.332-.582-.25-.665 0Z" fill="#0056FE"/><path d="M227.633 114.522c-4.153 6.561-8.305 13.205-11.793 20.181-.498.997-.997 1.993-1.412 2.907-.415.913-.913 1.827-1.661 2.574-.415.415.249.665.581.415 1.246-1.162 1.911-2.823 2.658-4.318a313.33 313.33 0 0 1 2.741-5.315c1.91-3.488 3.986-6.976 6.062-10.381 1.163-1.91 2.325-3.82 3.571-5.73.249-.499-.498-.665-.747-.333ZM247.065 77.483c2.99-4.485 6.893-8.222 11.045-11.627.499-.415.997-.83 1.578-1.246.582-.498 1.08-.996 1.744-1.328.665-.333 1.495-.333 1.994.332.415.415.415 1.08.415 1.66-.083 1.33-.665 2.741-1.246 3.904a153.116 153.116 0 0 1-1.827 3.82c-2.491 5.066-4.983 10.215-7.723 15.115-2.741 4.983-5.897 9.716-9.302 14.284-3.737 4.983-7.806 9.8-11.045 15.115-.083.083.664.083.83-.166 3.156-5.066 6.893-9.717 10.547-14.451a133.332 133.332 0 0 0 9.717-14.782c2.907-5.15 5.481-10.464 8.056-15.78.664-1.328 1.328-2.657 1.827-3.986.498-1.162.996-2.574.913-3.82-.083-1.162-.996-1.827-2.159-1.744-1.246.083-2.159.83-3.073 1.578-4.817 3.986-9.55 8.139-13.038 13.37-.083.167.332.084.332.084.166-.166.332-.25.415-.332Z" fill="#0056FE"/><path d="M258.111 80.556c.913-1.495 2.242-2.74 3.82-3.322.747-.332 1.744-.581 2.491-.166.831.498.997 1.578.914 2.408-.083.914-.415 1.827-.831 2.658-.415.996-.83 1.91-1.328 2.823-.831 1.578-1.661 3.572-3.156 4.651-.166.083-.083.166.083.25.166.082.415-.084.581-.167 1.329-.913 2.076-2.408 2.824-3.737.913-1.66 1.827-3.405 2.408-5.232.416-1.246.748-3.405-.747-4.07-1.246-.58-2.741-.082-3.903.499-1.578.747-2.824 1.91-3.738 3.405-.332.332.416.166.582 0ZM206.623 100.903c1.079-2.16 2.242-4.235 3.571-6.228 1.245-1.828 2.574-3.738 4.235-5.15.831-.664 1.91-1.494 2.99-1.577 1.08 0 1.744.913 1.91 1.91.249 1.08.249 2.325.249 3.405-.083 1.245-.166 2.408-.415 3.654-.415 2.491-1.08 4.817-1.827 7.225-.748 2.408-1.495 4.817-2.159 7.308-1.495 4.9-2.99 9.883-4.568 14.783-1.744 5.481-3.405 10.962-5.232 16.526-.083.249.747.166.83-.083a1927.047 1927.047 0 0 0 9.717-31.06c.831-2.657 1.578-5.232 2.408-7.889.748-2.492 1.412-4.983 1.827-7.558.167-1.328.333-2.574.333-3.903 0-.996 0-2.16-.416-3.156-.332-.83-.913-1.411-1.744-1.578-.996-.166-1.993.167-2.906.665-2.16 1.246-3.737 3.239-5.149 5.232a51.057 51.057 0 0 0-4.402 7.391c-.166.415.665.332.748.083ZM221.073 106.716c.083 0 .249 0 .249-.083s0-.083-.083-.083-.25 0-.25.083c-.083 0 0 .083.084.083Z" fill="#0056FE"/><path d="M221.072 106.716c1.329-2.325 2.658-4.65 4.319-6.81.83-.996 1.661-1.993 2.657-2.823.499-.415.997-.83 1.578-1.246.499-.332 1.08-.83 1.744-.913.831-.083.997.664 1.08 1.245 0 .83-.083 1.578-.249 2.326-.249 1.495-.665 2.989-1.163 4.484-.913 2.99-1.993 5.98-3.156 8.886-1.329 3.239-2.74 6.395-4.235 9.634-.083.166.332.166.415 0 1.329-2.99 2.741-5.98 3.986-8.969 1.246-2.99 2.409-6.063 3.322-9.136a49.38 49.38 0 0 0 1.246-4.733c.166-.83.249-1.661.249-2.492 0-.581-.083-1.245-.664-1.495-.499-.249-1.163 0-1.661.25-.582.332-1.163.664-1.661 1.08-1.08.83-2.076 1.743-2.907 2.823-1.827 2.076-3.239 4.484-4.651 6.893-.166.332-.332.581-.498.913-.166.249.166.25.249.083ZM235.107 102.98c.831-.913 1.661-1.827 2.658-2.574.498-.416.996-.748 1.578-.997.249-.166.581-.249.83-.332.332-.083.747-.25 1.08-.083.249.166.332.498.415.747.083.416.083.831.083 1.163 0 .664-.166 1.412-.332 2.076-.416 1.329-1.163 2.658-1.91 3.82-.831 1.495-1.744 2.907-2.575 4.402-.083.166.332.083.332 0l2.575-4.319c.747-1.328 1.578-2.657 1.993-4.069.249-.747.332-1.495.332-2.242 0-.582-.083-1.495-.581-1.744-.498-.332-1.246-.083-1.744.083-.582.249-1.246.498-1.744.913-1.246.831-2.325 1.994-3.322 3.073-.083.166.249.166.332.083Z" fill="#0056FE"/><path d="M145.084 197.488s14.534-3.073 20.928 9.633c0 0 .997 6.478-23.502 2.409" stroke="#0056FE" stroke-miterlimit="10" stroke-linecap="round" stroke-linejoin="round"/><path d="M156.711 188.518c1.329 1.661 2.741 3.239 4.235 4.817 1.329 1.411 2.741 2.74 4.485 3.571 3.571 1.661 7.723.996 11.461.332 2.408-.415 4.899-.831 7.391-.665.083 0 .498-.166.249-.166-4.152-.415-8.222 1.08-12.374 1.329-1.91.083-3.903 0-5.73-.747-1.828-.665-3.239-1.993-4.568-3.322-1.661-1.661-3.156-3.488-4.651-5.315-.166-.083-.498.083-.498.166Z" fill="#0056FE"/><path d="M176.227 197.322a51.006 51.006 0 0 0 6.311 12.79c1.329 1.993 2.824 3.82 4.402 5.564 1.578 1.744 3.322 3.405 5.232 4.733 2.076 1.495 4.485 2.575 7.059 2.658.249 0 .581-.415.249-.415-4.651-.249-8.554-3.654-11.543-6.893-3.156-3.322-5.814-7.142-7.973-11.295a47.829 47.829 0 0 1-3.073-7.391c-.166-.249-.747-.083-.664.249Z" fill="#0056FE"/><path d="M176.893 197.321c.083 0 .249 0 .249-.083s0-.166-.083-.166-.249 0-.249.083c-.083.166 0 .166.083.166Z" fill="#0056FE"/><path d="M176.725 197.322c4.484.415 8.304 3.239 11.211 6.56a68.506 68.506 0 0 1 4.235 5.482c1.412 1.993 2.658 3.986 3.904 6.145 1.328 2.325 2.491 4.651 3.156 7.225l.249-.166c-.083 0-.166 0-.249.083-.084 0-.25.083-.25.166s.083.083.166.083c.084 0 .167 0 .25-.083.083 0 .249-.083.249-.166-.582-2.242-1.578-4.401-2.741-6.477-1.162-2.16-2.491-4.236-3.903-6.229-2.575-3.737-5.398-7.64-9.218-10.215-2.077-1.329-4.402-2.325-6.893-2.574-.166-.083-.416.166-.166.166ZM159.784 215.509c3.987 1.246 6.976 4.651 8.471 8.471a19.01 19.01 0 0 1 1.246 6.81c.083 2.491-.415 4.983-.581 7.474-.166 2.491 0 5.066 1.411 7.225.084.166.665 0 .582-.249-1.329-1.993-1.495-4.485-1.412-6.81.166-2.491.664-4.9.664-7.391 0-4.485-1.328-8.969-4.401-12.291a12.39 12.39 0 0 0-5.564-3.571c-.249-.083-.748.166-.416.332ZM162.774 198.567c.083 0 .332 0 .415-.083.083-.083.083-.166 0-.166s-.332 0-.415.083c-.083.083-.166.166 0 .166Z" fill="#0056FE"/><path d="M162.94 198.65c.332 0 .498-.416.083-.416-.332 0-.499.416-.083.416Z" fill="#0056FE"/><path d="M163.022 198.485a350.708 350.708 0 0 1 11.045 13.869 54.447 54.447 0 0 1 4.485 6.893c1.246 2.325 2.242 4.733 3.156 7.225 1.827 4.899 3.155 9.965 4.899 14.948 1.744 5.149 3.987 10.132 6.893 14.783 2.409 3.903 5.482 7.806 9.717 9.716.498.249 1.08.416 1.661.582.249.083.747-.249.332-.416-4.568-1.328-7.889-5.065-10.464-8.969-2.99-4.567-5.315-9.467-7.142-14.616-1.744-4.9-3.073-9.966-4.817-14.866-1.744-4.983-3.903-9.716-6.976-13.952-1.661-2.325-3.488-4.65-5.315-6.893a221.947 221.947 0 0 0-5.564-6.81c-.498-.581-.914-1.162-1.412-1.744-.083-.166-.664.083-.498.25Z" fill="#0056FE"/><path d="M169.917 207.205c6.062 4.152 12.54 8.554 16.277 15.031 3.821 6.727 3.405 14.617 4.153 22.008.415 4.152 1.245 8.305 3.322 11.959.083.249.664 0 .581-.249-3.737-6.727-3.239-14.783-4.069-22.174-.416-3.737-1.163-7.474-2.824-10.796-1.661-3.239-4.069-6.063-6.727-8.471-3.156-2.824-6.644-5.232-10.132-7.641-.332-.166-.83.167-.581.333ZM199.067 219.246c2.242 4.485 4.816 8.886 8.055 12.79 3.073 3.654 6.727 6.81 10.88 8.969 2.491 1.246 5.232 2.408 8.055 1.993.332-.083.499-.415.083-.415-2.574.332-5.066-.665-7.308-1.744-2.076-.997-3.986-2.242-5.813-3.737-3.737-2.99-6.727-6.727-9.302-10.713-1.494-2.326-2.823-4.817-4.069-7.309-.083-.249-.664-.083-.581.166ZM202.553 234.527c1.578 4.651 3.737 9.135 6.478 13.205 2.657 3.986 5.813 7.889 9.55 10.796 2.076 1.661 4.319 2.907 6.893 3.654.166 0 .332 0 .415-.083.084 0 .167-.166.084-.166-4.485-1.329-8.222-4.485-11.295-7.973-3.322-3.654-6.063-7.723-8.305-12.125a50.107 50.107 0 0 1-3.156-7.557c-.166-.083-.747.083-.664.249Z" fill="#0056FE"/><path d="M202.553 234.527c2.159 4.236 4.651 8.305 7.557 12.042 2.824 3.488 6.063 6.727 9.8 9.218 2.076 1.329 4.235 2.492 6.561 3.405.166.083.664-.166.498-.249-4.152-1.578-7.806-3.986-11.045-6.893-3.405-3.073-6.312-6.81-8.803-10.63a114.131 114.131 0 0 1-3.987-6.893c-.083-.249-.664-.083-.581 0ZM130.718 196.491c.083 0 .332 0 .415-.166.083-.083 0-.166-.166-.166-.083 0-.332 0-.415.166-.083.083 0 .166.166.166Z" fill="#0056FE"/><path d="M130.717 196.657c3.654.332 7.475.415 10.796 2.242.167.083.748-.166.499-.332-3.322-1.827-7.308-1.91-11.046-2.243-.332-.083-.664.333-.249.333ZM150.814 195.162c-.166-.997-.416-1.994-.249-3.073.166-1.08.581-2.076 1.411-2.575.831-.498 1.993-.415 2.575.416.166.249.249.415.332.747.415 1.412-.083 2.99-.498 4.402" fill="#0056FE"/><path d="M151.064 195.162c-.332-1.661-.665-3.82.664-5.149.498-.581 1.329-.665 1.993-.332.748.415.914 1.411.914 2.242 0 1.08-.332 2.159-.665 3.239-.083.166.499.083.582-.083.332-1.08.664-2.159.664-3.239 0-.914-.249-1.993-1.163-2.408-.664-.333-1.577-.25-2.242.166-.747.415-1.245 1.245-1.495 2.076-.332 1.246-.083 2.491.166 3.737 0 0 .665-.083.582-.249Z" fill="#0056FE"/><path d="M153.639 191.425v.913h.332c.083 0 .166-.083.166-.083l.083-.083v-.913s-.083 0-.083-.083h-.249c-.083 0-.166.083-.166.083-.083.083-.083.083-.083.166Z" fill="#fff"/><path d="M223.482 230.706c4.651 6.146 7.474 13.371 8.637 21.011.581 4.07.913 8.222 1.578 12.375.581 3.986 1.495 8.055 2.74 11.875 1.246 3.904 2.907 7.89 5.731 10.88.249.249.83.083.747-.25-.581-3.571.249-7.142.914-10.63.332-1.744.664-3.488.83-5.232.166-1.827.166-3.654.083-5.564a76.986 76.986 0 0 0-1.245-10.713c-.582-3.322-1.495-6.561-2.99-9.551-1.495-2.989-3.654-5.73-6.395-7.723-.249-.166-.996.166-.581.498 5.315 3.737 7.806 10.049 9.052 16.195.664 3.571 1.163 7.142 1.329 10.713.083 1.827.166 3.654 0 5.481-.083 1.744-.416 3.488-.748 5.232-.747 3.82-1.661 7.64-1.079 11.544l.747-.25c-2.574-2.657-4.152-6.145-5.315-9.633-1.329-3.82-2.242-7.807-2.907-11.876-.664-4.069-.996-8.222-1.577-12.291-.499-3.903-1.329-7.723-2.824-11.378-1.495-3.903-3.571-7.557-6.063-10.879-.166-.498-.913-.166-.664.166Z" fill="#0056FE"/><path d="M236.271 250.888c0 3.405.25 6.81.748 10.215.249 1.66.498 3.321.83 4.982.166.831.333 1.661.582 2.575.083.498.166 1.163.747 1.329.166.083.665 0 .748-.25 1.079-6.477 1.162-13.619-2.575-19.35-.166-.249-.913.083-.83.25 3.737 5.73 3.654 12.789 2.574 19.267l.748-.25c-.582-.249-.665-1.411-.748-1.91-.166-.747-.332-1.578-.498-2.325a48.319 48.319 0 0 1-.748-4.817c-.415-3.239-.664-6.477-.664-9.799-.083-.25-.914-.083-.914.083Z" fill="#0056FE"/><path d="M286.266 80.889s4.65-9.468 16.028-12.125c0 .083-3.654 8.221-16.028 12.125Z" stroke="#0056FE" stroke-miterlimit="10"/><path d="M307.692 100.904s-5.315 7.225-18.27 8.305c0 0 6.644-8.222 18.27-8.305ZM303.125 132.461s-6.312 6.312-19.268 5.564c0 0 7.724-7.142 19.268-5.564ZM298.307 160.282s-7.059 5.398-19.848 2.907c0 0 8.637-5.979 19.848-2.907ZM290.583 183.286s-7.557 4.817-20.015 1.163c0 0 9.136-5.232 20.015-1.163ZM275.305 204.298s-8.222 3.405-19.932-2.325c0 0 9.883-3.655 19.932 2.325ZM259.774 221.822s-8.803 1.411-18.852-6.976c0 0 10.464-1.163 18.852 6.976ZM246.402 237.767s-8.803-1.412-15.779-12.374c0 0 10.298 2.076 15.779 12.374ZM238.846 45.925s.997 8.886-7.806 18.52c0 0-.665-10.548 7.806-18.52ZM249.892 59.047s.083 8.886-9.55 17.606c-.083 0 .332-10.547 9.55-17.606ZM257.116 72.334s-.582 7.308-9.136 13.703c.084 0 1.08-8.637 9.136-13.703ZM257.615 92.181c2.574-4.401 2.657-7.806 2.657-7.806-5.73 4.152-7.474 10.132-8.055 12.873" stroke="#0056FE" stroke-miterlimit="10" stroke-linecap="round"/><path d="M227.717 274.058s-32.471 3.654-37.371 10.214M229.296 279.206s-44.431 18.187-48.251 24.997M231.289 284.355c.332-.415-41.109 23.502-45.926 34.963M236.686 289.172s-36.125 27.738-40.112 41.524M240.922 294.072c-1.163.665-30.645 39.78-32.721 48.085" stroke="#0056FE" stroke-miterlimit="10" stroke-linecap="round" stroke-linejoin="round"/></svg>