<svg width="65" height="72" viewBox="0 0 65 72" fill="none" xmlns="http://www.w3.org/2000/svg">
<path fill-rule="evenodd" clip-rule="evenodd" d="M12.3037 41.3525L47.7094 21.0975L53.2161 30.7232C53.4218 31.0827 53.297 31.5409 52.9375 31.7466C52.578 31.9523 52.1198 31.8276 51.9141 31.4681L47.1523 23.1444L14.3506 41.9097L19.1124 50.2333C19.3181 50.5929 19.1933 51.0511 18.8338 51.2568C18.4743 51.4625 18.0161 51.3377 17.8104 50.9782L12.3037 41.3525Z" fill="#1967FF"/>
<path fill-rule="evenodd" clip-rule="evenodd" d="M33.7281 35.6481C34.0877 35.4424 34.5459 35.5671 34.7516 35.9267L48.3573 59.7095C48.563 60.069 48.4383 60.5272 48.0788 60.7329C47.7192 60.9386 47.261 60.8139 47.0553 60.4543L33.4496 36.6715C33.2439 36.312 33.3686 35.8538 33.7281 35.6481Z" fill="#1967FF"/>
<path fill-rule="evenodd" clip-rule="evenodd" d="M29.7864 28.7596L29.8793 5.30231L9.51823 16.9505L29.7864 28.7596ZM29.7795 30.4916C30.4447 30.8792 31.2799 30.4013 31.283 29.6316L31.3827 4.44223C31.3857 3.67243 30.5543 3.18801 29.8861 3.57027L8.02167 16.0786C7.35348 16.4608 7.34967 17.4231 8.01481 17.8106L29.7795 30.4916Z" fill="#1967FF"/>
<path d="M24.225 16.3598C24.6199 17.0502 24.3804 17.93 23.6901 18.325C22.9997 18.7199 22.1198 18.4805 21.7249 17.7901C21.3299 17.0997 21.5694 16.2199 22.2598 15.8249C22.9502 15.43 23.83 15.6694 24.225 16.3598Z" fill="#0075FE"/>
<path d="M24.8861 58.1196C25.2811 58.81 25.0416 59.6898 24.3512 60.0848C23.6608 60.4797 22.781 60.2402 22.386 59.5498C21.9911 58.8595 22.2306 57.9796 22.9209 57.5847C23.6113 57.1897 24.4912 57.4292 24.8861 58.1196Z" fill="#0075FE"/>
<path d="M58.0931 39.1235C58.4881 39.8139 58.2486 40.6937 57.5582 41.0887C56.8678 41.4836 55.988 41.2441 55.5931 40.5538C55.1981 39.8634 55.4376 38.9835 56.128 38.5886C56.8184 38.1936 57.6982 38.4331 58.0931 39.1235Z" fill="#0075FE"/>
</svg>
