<svg width="101" height="97" viewBox="0 0 101 97" fill="none" xmlns="http://www.w3.org/2000/svg">
<path fill-rule="evenodd" clip-rule="evenodd" d="M96.1998 42.0496C97.0543 42.5011 97.381 43.5599 96.9295 44.4144L73.6831 88.4066C73.4895 88.7729 73.0358 88.9129 72.6695 88.7193C72.3033 88.5258 72.1633 88.0721 72.3568 87.7058L95.6032 43.7136C95.6677 43.5916 95.6211 43.4403 95.499 43.3758L90.2554 40.605C90.1333 40.5405 89.982 40.5871 89.9175 40.7092L68.2665 81.6822C67.4498 83.2277 65.1214 82.7527 64.9754 81.0108L60.3312 25.6084C60.3177 25.4474 60.1573 25.3413 60.0039 25.3918L32.9721 34.294C32.5787 34.4236 32.1547 34.2097 32.0252 33.8163C31.8956 33.4228 32.1095 32.9989 32.5029 32.8693L59.5347 23.9671C60.6089 23.6133 61.7315 24.3561 61.8259 25.4831L66.4701 80.8855C66.4767 80.9641 66.5036 81.0079 66.5304 81.0362C66.5617 81.0691 66.6097 81.0974 66.6693 81.1095C66.7289 81.1217 66.7841 81.1145 66.8258 81.0964C66.8615 81.0809 66.9034 81.0511 66.9403 80.9814L88.5913 40.0084C89.0429 39.1539 90.1017 38.8272 90.9562 39.2787L96.1998 42.0496Z" fill="#0056FE"/>
<path fill-rule="evenodd" clip-rule="evenodd" d="M58.3237 15.0636C58.4758 15.4489 58.2868 15.8846 57.9015 16.0367L17.7093 31.9059L27.9703 72.6537C28.0715 73.0554 27.8279 73.463 27.4262 73.5642C27.0245 73.6653 26.6169 73.4217 26.5158 73.02L15.933 30.9946L57.3507 14.6415C57.736 14.4894 58.1716 14.6784 58.3237 15.0636Z" fill="#0056FE"/>
<path d="M44.6694 55.1356C43.5076 54.5217 43.0635 53.0822 43.6774 51.9205C44.2913 50.7587 45.7307 50.3146 46.8925 50.9285C48.0543 51.5424 48.4984 52.9818 47.8845 54.1436C47.2706 55.3054 45.8311 55.7495 44.6694 55.1356Z" fill="#0056FE"/>
</svg>
