<svg width="114" height="114" viewBox="0 0 114 114" fill="none" xmlns="http://www.w3.org/2000/svg">
<path fill-rule="evenodd" clip-rule="evenodd" d="M73.1903 95.2261C73.3813 95.5936 73.2382 96.0464 72.8706 96.2374L40.8679 112.866C40.5003 113.057 40.0475 112.914 39.8565 112.546C39.6655 112.179 39.8087 111.726 40.1762 111.535L72.179 94.9064C72.5466 94.7154 72.9993 94.8585 73.1903 95.2261Z" fill="#0093FE"/>
<path fill-rule="evenodd" clip-rule="evenodd" d="M86.3856 79.3384C86.5766 79.7059 86.4335 80.1587 86.0659 80.3497L36.2839 106.216C35.9163 106.407 35.4635 106.264 35.2725 105.897C35.0815 105.529 35.2247 105.076 35.5922 104.885L85.3743 79.0187C85.7419 78.8277 86.1947 78.9708 86.3856 79.3384Z" fill="#0093FE"/>
<path fill-rule="evenodd" clip-rule="evenodd" d="M101.786 61.1753C101.977 61.5428 101.834 61.9956 101.466 62.1866L32.9145 97.806C31.4398 98.5723 29.8276 97.0443 30.5138 95.5306L72.6577 2.56597C73.2607 1.236 75.1312 1.18586 75.8045 2.48164L91.4845 32.6587C91.6755 33.0262 91.5323 33.479 91.1648 33.67C90.7972 33.861 90.3444 33.7178 90.1534 33.3503L74.4734 3.17325C74.3773 2.98815 74.11 2.9953 74.0239 3.1853L31.88 96.1499C31.7819 96.3662 32.0122 96.5845 32.2229 96.475L100.775 60.8556C101.142 60.6646 101.595 60.8077 101.786 61.1753Z" fill="#0093FE"/>
<path fill-rule="evenodd" clip-rule="evenodd" d="M22.1787 78.2042C21.8066 78.0221 21.6526 77.5729 21.8346 77.2009L47.0222 25.7283C47.2043 25.3563 47.6535 25.2022 48.0255 25.3843C48.3976 25.5664 48.5516 26.0156 48.3696 26.3876L23.182 77.8602C22.9999 78.2322 22.5507 78.3863 22.1787 78.2042Z" fill="#0093FE"/>
</svg>
