<svg width="118" height="117" viewBox="0 0 118 117" fill="none" xmlns="http://www.w3.org/2000/svg">
<g opacity="0.75">
<path fill-rule="evenodd" clip-rule="evenodd" d="M50.358 43.3092C56.0976 40.1076 58.155 32.8594 54.9534 27.1199C51.7519 21.3803 44.5037 19.3229 38.7641 22.5245C33.0246 25.7261 30.9671 32.9743 34.1687 38.7138C37.3703 44.4534 44.6185 46.5108 50.358 43.3092ZM51.0888 44.6192C57.5518 41.014 59.8686 32.8522 56.2634 26.3892C52.6583 19.9261 44.4964 17.6094 38.0334 21.2145C31.5704 24.8196 29.2536 32.9815 32.8587 39.4445C36.4639 45.9076 44.6257 48.2243 51.0888 44.6192Z" fill="#1C99F3"/>
<path fill-rule="evenodd" clip-rule="evenodd" d="M49.3219 103.343C55.0615 100.142 57.1189 92.8936 53.9173 87.1541C50.7157 81.4145 43.4675 79.3571 37.728 82.5587C31.9884 85.7602 29.931 93.0084 33.1326 98.748C36.3342 104.488 43.5824 106.545 49.3219 103.343ZM50.0526 104.653C56.5157 101.048 58.8324 92.8864 55.2273 86.4233C51.6222 79.9603 43.4603 77.6435 36.9973 81.2487C30.5342 84.8538 28.2175 93.0157 31.8226 99.4787C35.4277 105.942 43.5896 108.259 50.0526 104.653Z" fill="#1C99F3"/>
<path fill-rule="evenodd" clip-rule="evenodd" d="M101.983 73.9684C107.723 70.7668 109.78 63.5186 106.578 57.7791C103.377 52.0395 96.1287 49.9821 90.3891 53.1837C84.6496 56.3852 82.5921 63.6334 85.7937 69.373C88.9953 75.1125 96.2435 77.17 101.983 73.9684ZM102.714 75.2784C109.177 71.6732 111.494 63.5114 107.888 57.0483C104.283 50.5853 96.1214 48.2685 89.6584 51.8737C83.1954 55.4788 80.8786 63.6407 84.4837 70.1037C88.0889 76.5667 96.2507 78.8835 102.714 75.2784Z" fill="#1C99F3"/>
<path fill-rule="evenodd" clip-rule="evenodd" d="M46.0217 35.5369L45.1552 94.1596L96.3572 65.5986L46.0217 35.5369ZM46.0473 33.805C45.3863 33.4103 44.546 33.879 44.5346 34.6488L43.6426 95.0033C43.6312 95.7731 44.4573 96.2664 45.1296 95.8914L97.8442 66.4867C98.5165 66.1117 98.5307 65.1495 97.8698 64.7548L46.0473 33.805Z" fill="#1C99F3"/>
<path fill-rule="evenodd" clip-rule="evenodd" d="M46.6423 36.6503C47.004 36.4485 47.4609 36.5782 47.6626 36.9399L79.4851 93.9888C79.6869 94.3506 79.5572 94.8074 79.1955 95.0092C78.8337 95.2109 78.3769 95.0813 78.1751 94.7195L46.3527 37.6706C46.1509 37.3089 46.2806 36.852 46.6423 36.6503Z" fill="#1C99F3"/>
<path fill-rule="evenodd" clip-rule="evenodd" d="M32.2374 57.4293C32.2897 57.0184 32.6652 56.7277 33.0761 56.78L97.17 64.9401C97.5809 64.9924 97.8716 65.3679 97.8193 65.7788C97.767 66.1897 97.3915 66.4804 96.9806 66.4281L32.8866 58.268C32.4757 58.2157 32.185 57.8402 32.2374 57.4293Z" fill="#1C99F3"/>
<path fill-rule="evenodd" clip-rule="evenodd" d="M70.4948 36.8219C70.8746 36.9872 71.0485 37.4291 70.8832 37.8089L46.7429 93.269C46.5776 93.6487 46.1357 93.8226 45.7559 93.6573C45.3761 93.492 45.2022 93.0501 45.3676 92.6703L69.5078 37.2102C69.6731 36.8304 70.115 36.6566 70.4948 36.8219Z" fill="#1C99F3"/>
</g>
</svg>
