<svg width="80" height="79" viewBox="0 0 80 79" fill="none" xmlns="http://www.w3.org/2000/svg">
<g filter="url(#filter0_d_1938_38028)">
<path fill-rule="evenodd" clip-rule="evenodd" d="M15.7359 42.9403C14.9589 42.3655 14.7951 41.2696 15.37 40.4927L33.8093 15.5729C34.0557 15.24 34.5253 15.1698 34.8583 15.4161C35.1913 15.6625 35.2615 16.1322 35.0151 16.4651L16.5758 41.3849C16.4937 41.4959 16.5171 41.6524 16.6281 41.7345L19.0397 43.519C19.1507 43.6011 19.3072 43.5777 19.3893 43.4667L35.7974 21.292C36.8372 19.8869 39.0678 20.7065 38.9502 22.4506L36.7101 55.6967C36.6992 55.8579 36.8418 55.9869 37.0011 55.96L54.232 53.0513C54.6404 52.9824 55.0274 53.2576 55.0964 53.666C55.1653 54.0745 54.8901 54.4615 54.4817 54.5304L37.2508 57.4391C36.1356 57.6273 35.1374 56.7242 35.2135 55.5958L37.4536 22.3498C37.4589 22.271 37.4389 22.2237 37.4167 22.1917C37.3907 22.1544 37.3476 22.1193 37.2904 22.0983C37.2333 22.0773 37.1777 22.0761 37.1337 22.0877C37.0961 22.0977 37.0502 22.1208 37.0032 22.1842L20.5951 44.359C20.0202 45.1359 18.9244 45.2997 18.1474 44.7248L15.7359 42.9403Z" fill="#0056FE"/>
</g>
<g filter="url(#filter1_d_1938_38028)">
<path fill-rule="evenodd" clip-rule="evenodd" d="M36.3844 62.9706C36.2919 62.5668 36.5442 62.1646 36.948 62.0721L63.2665 56.0447L60.7563 29.9165C60.7167 29.5042 61.0188 29.1379 61.4311 29.0983C61.8435 29.0586 62.2098 29.3608 62.2494 29.7731L64.8856 57.2128L37.2829 63.5342C36.8791 63.6267 36.4768 63.3744 36.3844 62.9706Z" fill="#0056FE"/>
</g>
<g filter="url(#filter2_d_1938_38028)">
<path d="M48.9639 39.2267C49.6298 39.7195 49.7702 40.6588 49.2774 41.3247C48.7847 41.9907 47.8454 42.1311 47.1794 41.6383C46.5135 41.1456 46.3731 40.2062 46.8659 39.5403C47.3586 38.8744 48.2979 38.734 48.9639 39.2267Z" fill="#0056FE"/>
</g>
<defs>
<filter id="filter0_d_1938_38028" x="0.0263672" y="0.268555" width="70.0811" height="72.1953" filterUnits="userSpaceOnUse" color-interpolation-filters="sRGB">
<feFlood flood-opacity="0" result="BackgroundImageFix"/>
<feColorMatrix in="SourceAlpha" type="matrix" values="0 0 0 0 0 0 0 0 0 0 0 0 0 0 0 0 0 0 127 0" result="hardAlpha"/>
<feOffset/>
<feGaussianBlur stdDeviation="7.5"/>
<feComposite in2="hardAlpha" operator="out"/>
<feColorMatrix type="matrix" values="0 0 0 0 0.258824 0 0 0 0 0.819608 0 0 0 0 0.968627 0 0 0 0.5 0"/>
<feBlend mode="normal" in2="BackgroundImageFix" result="effect1_dropShadow_1938_38028"/>
<feBlend mode="normal" in="SourceGraphic" in2="effect1_dropShadow_1938_38028" result="shape"/>
</filter>
<filter id="filter1_d_1938_38028" x="21.3652" y="14.0947" width="58.5205" height="64.459" filterUnits="userSpaceOnUse" color-interpolation-filters="sRGB">
<feFlood flood-opacity="0" result="BackgroundImageFix"/>
<feColorMatrix in="SourceAlpha" type="matrix" values="0 0 0 0 0 0 0 0 0 0 0 0 0 0 0 0 0 0 127 0" result="hardAlpha"/>
<feOffset/>
<feGaussianBlur stdDeviation="7.5"/>
<feComposite in2="hardAlpha" operator="out"/>
<feColorMatrix type="matrix" values="0 0 0 0 0.258824 0 0 0 0 0.819608 0 0 0 0 0.968627 0 0 0 0.5 0"/>
<feBlend mode="normal" in2="BackgroundImageFix" result="effect1_dropShadow_1938_38028"/>
<feBlend mode="normal" in="SourceGraphic" in2="effect1_dropShadow_1938_38028" result="shape"/>
</filter>
<filter id="filter2_d_1938_38028" x="31.5713" y="23.9326" width="33" height="33" filterUnits="userSpaceOnUse" color-interpolation-filters="sRGB">
<feFlood flood-opacity="0" result="BackgroundImageFix"/>
<feColorMatrix in="SourceAlpha" type="matrix" values="0 0 0 0 0 0 0 0 0 0 0 0 0 0 0 0 0 0 127 0" result="hardAlpha"/>
<feOffset/>
<feGaussianBlur stdDeviation="7.5"/>
<feComposite in2="hardAlpha" operator="out"/>
<feColorMatrix type="matrix" values="0 0 0 0 0.258824 0 0 0 0 0.819608 0 0 0 0 0.968627 0 0 0 0.5 0"/>
<feBlend mode="normal" in2="BackgroundImageFix" result="effect1_dropShadow_1938_38028"/>
<feBlend mode="normal" in="SourceGraphic" in2="effect1_dropShadow_1938_38028" result="shape"/>
</filter>
</defs>
</svg>
