<svg width="79" height="80" viewBox="0 0 79 80" fill="none" xmlns="http://www.w3.org/2000/svg">
<path fill-rule="evenodd" clip-rule="evenodd" d="M44.6579 16.9942L35.9213 9.40173L36.9053 8.26953L46.774 16.8459L18.5971 49.2689L8.72832 40.6925L9.71226 39.5603L18.4488 47.1527L44.6579 16.9942Z" fill="#0166F3"/>
<path fill-rule="evenodd" clip-rule="evenodd" d="M14.5789 61.8541L57.5732 12.3809L58.7054 13.3648L15.7111 62.838L14.5789 61.8541Z" fill="#0166F3"/>
<g filter="url(#filter0_d_1938_37977)">
<path fill-rule="evenodd" clip-rule="evenodd" d="M15.032 62.2477L58.0264 12.7744L58.2528 12.9712L15.2584 62.4444L15.032 62.2477Z" fill="#0DC2DB"/>
</g>
<path fill-rule="evenodd" clip-rule="evenodd" d="M48.4404 33.1387L52.8122 36.9379L51.8282 38.0701L48.5887 35.2548L36.7111 48.9223L42.9105 54.3099L41.9266 55.4421L34.5949 49.0706L48.4404 33.1387Z" fill="#0166F3"/>
<path fill-rule="evenodd" clip-rule="evenodd" d="M41.0404 42.7973L30.892 33.9779L31.876 32.8457L42.0243 41.6651L41.0404 42.7973Z" fill="#0166F3"/>
<path d="M22.5833 25.6044C22.9456 25.1875 23.5772 25.1433 23.9941 25.5056L24.1759 25.6635C24.5927 26.0258 24.637 26.6574 24.2747 27.0743L24.1167 27.2561C23.7544 27.673 23.1228 27.7172 22.706 27.3549L22.5242 27.197C22.1073 26.8347 22.063 26.2031 22.4253 25.7862L22.5833 25.6044Z" fill="#0056FE"/>
<path fill-rule="evenodd" clip-rule="evenodd" d="M23.5199 26.4183L23.3381 26.2604L23.1801 26.4422L23.3619 26.6001L23.5199 26.4183ZM23.9941 25.5056C23.5772 25.1433 22.9456 25.1875 22.5833 25.6044L22.4253 25.7862C22.063 26.2031 22.1073 26.8347 22.5242 27.197L22.706 27.3549C23.1228 27.7172 23.7544 27.673 24.1167 27.2561L24.2747 27.0743C24.637 26.6574 24.5927 26.0258 24.1759 25.6635L23.9941 25.5056Z" fill="#0056FE"/>
<path d="M47.1087 46.9169C47.471 46.5 48.1026 46.4558 48.5194 46.8181L48.7012 46.976C49.1181 47.3383 49.1624 47.9699 48.8001 48.3868L48.6421 48.5686C48.2798 48.9855 47.6482 49.0297 47.2313 48.6674L47.0496 48.5095C46.6327 48.1472 46.5884 47.5156 46.9507 47.0987L47.1087 46.9169Z" fill="#0056FE"/>
<path fill-rule="evenodd" clip-rule="evenodd" d="M48.0453 47.7308L47.8635 47.5729L47.7055 47.7547L47.8873 47.9126L48.0453 47.7308ZM48.5194 46.8181C48.1026 46.4558 47.471 46.5 47.1087 46.9169L46.9507 47.0987C46.5884 47.5156 46.6327 48.1472 47.0496 48.5095L47.2313 48.6674C47.6482 49.0297 48.2798 48.9855 48.6421 48.5686L48.8001 48.3868C49.1624 47.9699 49.1181 47.3383 48.7012 46.976L48.5194 46.8181Z" fill="#0056FE"/>
<path d="M54.719 53.5312C55.0813 53.1143 55.7129 53.07 56.1298 53.4323L56.3116 53.5903C56.7285 53.9526 56.7727 54.5842 56.4104 55.0011L56.2525 55.1829C55.8902 55.5997 55.2586 55.644 54.8417 55.2817L54.6599 55.1237C54.243 54.7614 54.1988 54.1298 54.5611 53.713L54.719 53.5312Z" fill="#0056FE"/>
<path fill-rule="evenodd" clip-rule="evenodd" d="M55.6556 54.3451L55.4738 54.1871L55.3159 54.3689L55.4977 54.5269L55.6556 54.3451ZM56.1298 53.4323C55.7129 53.07 55.0813 53.1143 54.719 53.5312L54.5611 53.713C54.1988 54.1298 54.243 54.7614 54.6599 55.1237L54.8417 55.2817C55.2586 55.644 55.8902 55.5997 56.2525 55.1829L56.4104 55.0011C56.7727 54.5842 56.7285 53.9526 56.3116 53.5903L56.1298 53.4323Z" fill="#0056FE"/>
<defs>
<filter id="filter0_d_1938_37977" x="11.0322" y="12.7744" width="51.2207" height="57.6699" filterUnits="userSpaceOnUse" color-interpolation-filters="sRGB">
<feFlood flood-opacity="0" result="BackgroundImageFix"/>
<feColorMatrix in="SourceAlpha" type="matrix" values="0 0 0 0 0 0 0 0 0 0 0 0 0 0 0 0 0 0 127 0" result="hardAlpha"/>
<feOffset dy="4"/>
<feGaussianBlur stdDeviation="2"/>
<feComposite in2="hardAlpha" operator="out"/>
<feColorMatrix type="matrix" values="0 0 0 0 1 0 0 0 0 1 0 0 0 0 1 0 0 0 0.25 0"/>
<feBlend mode="normal" in2="BackgroundImageFix" result="effect1_dropShadow_1938_37977"/>
<feBlend mode="normal" in="SourceGraphic" in2="effect1_dropShadow_1938_37977" result="shape"/>
</filter>
</defs>
</svg>
