<svg width="538" height="538" viewBox="0 0 538 538" fill="none" xmlns="http://www.w3.org/2000/svg">
<g opacity="0.75">
<path fill-rule="evenodd" clip-rule="evenodd" d="M125.609 174.319C125.61 174.319 125.61 174.319 125.038 175.14L125.61 174.319C125.693 174.377 125.767 174.448 125.829 174.528C137.288 189.347 142.35 212.39 144.536 231.895C146.724 251.425 146.051 267.667 145.876 269.069C145.808 269.617 145.308 270.006 144.76 269.938C144.212 269.869 143.823 269.369 143.891 268.821C144.041 267.621 144.725 251.546 142.548 232.117C140.375 212.72 135.375 190.237 124.345 175.879C124.322 175.864 124.297 175.847 124.268 175.828C124.129 175.738 123.922 175.608 123.655 175.449C123.119 175.131 122.343 174.702 121.394 174.265C119.484 173.386 116.925 172.497 114.228 172.37C111.552 172.244 108.762 172.865 106.291 174.984C103.803 177.116 101.53 180.858 100.095 187.181C97.194 199.966 96.08 221.096 96.2562 241.527C96.4323 261.96 97.8971 281.524 100.095 291.171C101.852 298.886 103.724 304.868 105.261 309.776C105.659 311.049 106.035 312.249 106.38 313.389C108.04 318.87 109.05 323.088 108.232 327.057C107.456 330.828 105.858 335.42 104.378 339.303C103.636 341.252 102.917 343.035 102.339 344.463C102.276 344.62 102.214 344.771 102.155 344.918C101.664 346.128 101.308 347.008 101.148 347.465C101.003 347.878 100.871 348.612 100.858 349.487C100.846 350.355 100.953 351.285 101.231 352.097C101.51 352.909 101.936 353.54 102.521 353.924C103.09 354.297 103.936 354.52 105.231 354.284C107.625 353.839 109.094 351.868 110.319 349.005C110.843 347.781 111.293 346.465 111.752 345.123C111.823 344.915 111.895 344.706 111.967 344.497C112.494 342.965 113.049 341.413 113.735 340.069C114.402 338.735 115.18 337.406 116.101 336.302C117.021 335.199 118.13 334.264 119.472 333.811C122.285 332.862 125.45 334.196 129.047 338.346C130.869 340.448 132.967 343.629 135.135 347.176C136.748 349.815 138.423 352.693 140.071 355.526C140.643 356.51 141.212 357.489 141.775 358.45C143.966 362.194 146.052 365.673 147.854 368.259C148.757 369.554 149.568 370.595 150.268 371.325C150.617 371.691 150.921 371.959 151.177 372.14C151.441 372.325 151.601 372.381 151.67 372.393C153.768 372.751 156.434 372.659 158.468 371.794C159.473 371.367 160.281 370.771 160.816 369.991C161.344 369.223 161.657 368.206 161.563 366.832L161.562 366.815C161.53 366.203 161.31 365.419 160.882 364.46C160.459 363.511 159.857 362.448 159.117 361.293C157.636 358.979 155.653 356.38 153.57 353.699C153.262 353.304 152.952 352.906 152.642 352.508C150.861 350.223 149.058 347.909 147.516 345.732C145.717 343.192 144.204 340.745 143.503 338.671C142.834 336.694 142.374 334.737 142.19 333.032C142.011 331.373 142.074 329.787 142.615 328.67C142.899 328.082 143.347 327.564 144.009 327.297C144.665 327.032 145.38 327.074 146.086 327.304C147.451 327.749 149.086 328.992 151.032 331.048C152.247 332.331 153.364 333.539 154.401 334.661C156.694 337.141 158.598 339.202 160.324 340.734C162.844 342.973 164.636 343.758 166.336 343.344C168.419 342.836 170.314 341.811 171.465 340.402C172.573 339.045 173.05 337.269 172.245 334.997C172.09 334.56 171.721 334.033 171.075 333.423C170.438 332.821 169.592 332.193 168.575 331.539C166.539 330.229 163.939 328.89 161.224 327.502L160.921 327.347C158.322 326.018 155.642 324.648 153.373 323.254C151.049 321.826 148.997 320.281 147.942 318.604C146.085 315.655 145.035 313.725 144.446 312.518C144.151 311.915 143.97 311.488 143.86 311.203C143.804 311.061 143.767 310.952 143.741 310.874C143.733 310.848 143.726 310.825 143.72 310.806C143.717 310.796 143.714 310.787 143.712 310.778C143.708 310.766 143.705 310.755 143.703 310.745L143.699 310.733L143.698 310.727L143.697 310.724C143.697 310.723 143.697 310.723 144.667 310.48L143.697 310.723C143.563 310.187 143.889 309.644 144.424 309.51C144.956 309.377 145.494 309.696 145.634 310.225C145.635 310.229 145.638 310.24 145.644 310.258C145.657 310.298 145.682 310.371 145.725 310.482C145.811 310.705 145.969 311.079 146.243 311.641C146.793 312.766 147.804 314.631 149.634 317.538C150.422 318.79 152.111 320.132 154.42 321.55C156.62 322.902 159.237 324.24 161.863 325.582L162.135 325.721C164.828 327.098 167.522 328.483 169.657 329.857C170.727 330.546 171.686 331.249 172.448 331.969C173.201 332.681 173.825 333.466 174.131 334.33C175.17 337.263 174.562 339.771 173.014 341.667C171.508 343.512 169.173 344.71 166.81 345.287C164.063 345.957 161.572 344.518 158.995 342.23C157.194 340.629 155.182 338.453 152.846 335.927C151.823 334.82 150.737 333.645 149.58 332.423C147.676 330.412 146.329 329.487 145.467 329.206C145.06 329.073 144.851 329.114 144.758 329.151C144.67 329.187 144.544 329.275 144.415 329.541C144.129 330.132 144.008 331.244 144.178 332.818C144.343 334.346 144.764 336.158 145.397 338.03C145.998 339.806 147.358 342.049 149.148 344.576C150.661 346.712 152.432 348.984 154.214 351.271C154.525 351.671 154.838 352.072 155.149 352.472C157.227 355.146 159.264 357.813 160.801 360.214C161.571 361.415 162.23 362.571 162.709 363.645C163.182 364.706 163.507 365.744 163.559 366.703C163.679 368.471 163.274 369.945 162.465 371.124C161.661 372.293 160.51 373.099 159.251 373.635C156.759 374.694 153.678 374.765 151.331 374.364L151.327 374.364C150.853 374.281 150.413 374.048 150.025 373.774C149.628 373.494 149.226 373.129 148.823 372.709C148.019 371.869 147.139 370.731 146.214 369.402C144.36 366.743 142.237 363.199 140.049 359.46C139.48 358.489 138.907 357.504 138.333 356.516C136.687 353.688 135.03 350.838 133.428 348.219C131.262 344.676 129.239 341.621 127.536 339.656C124.084 335.674 121.718 335.164 120.112 335.706C119.244 335.999 118.422 336.642 117.637 337.583C116.854 338.521 116.156 339.699 115.522 340.967L115.518 340.974C114.903 342.178 114.388 343.606 113.858 345.147C113.788 345.35 113.718 345.556 113.647 345.762C113.191 347.098 112.714 348.493 112.158 349.792C110.889 352.757 109.051 355.611 105.592 356.251L105.588 356.252C103.901 356.559 102.51 356.307 101.425 355.596C100.356 354.896 99.7117 353.832 99.3394 352.746C98.9672 351.66 98.8438 350.489 98.8585 349.459C98.8731 348.436 99.0251 347.476 99.2602 346.804C99.4375 346.298 99.8146 345.368 100.295 344.183C100.356 344.031 100.42 343.874 100.485 343.713C101.063 342.287 101.774 340.519 102.509 338.591C103.985 334.72 105.532 330.257 106.274 326.654C106.975 323.248 106.14 319.496 104.466 313.969C104.127 312.85 103.756 311.664 103.36 310.402C101.823 305.489 99.9213 299.416 98.1446 291.616C95.8958 281.743 94.4325 261.995 94.2562 241.544C94.0799 221.091 95.1891 199.764 98.1444 186.739C99.6377 180.157 102.068 175.969 104.989 173.465C107.926 170.948 111.251 170.227 114.322 170.372C117.372 170.516 120.195 171.511 122.23 172.449C123.253 172.92 124.091 173.382 124.675 173.729C124.967 173.902 125.197 174.047 125.355 174.15C125.435 174.201 125.496 174.242 125.539 174.271L125.589 174.305L125.603 174.314L125.608 174.318L125.609 174.319Z" fill="#0056FE"/>
<path fill-rule="evenodd" clip-rule="evenodd" d="M139.068 193.639C139.453 193.242 140.086 193.231 140.482 193.615C143.882 196.905 152.47 206.684 155.909 216.114L155.914 216.128C157.58 220.905 159.514 231.442 161.032 244.127C162.554 256.845 163.669 271.824 163.669 285.537C163.669 292.463 162.585 297.69 160.614 301.578C158.631 305.491 155.774 307.997 152.348 309.498C148.948 310.987 145.031 311.467 140.928 311.425C136.822 311.384 132.459 310.818 128.143 310.167C125.55 309.776 123.315 307.679 121.379 304.746C119.417 301.773 117.619 297.722 115.973 293.007C112.678 283.569 109.925 271.267 107.72 259.092C105.512 246.907 103.846 234.809 102.731 225.76C102.174 221.234 101.754 217.47 101.474 214.836C101.334 213.519 101.228 212.484 101.158 211.779C101.123 211.426 101.097 211.155 101.079 210.972L101.059 210.765L101.052 210.696C101.052 210.695 101.052 210.694 101.974 210.608L101.052 210.694C101.001 210.144 101.405 209.657 101.955 209.605C102.504 209.554 102.992 209.958 103.044 210.507L102.14 210.592C103.044 210.508 103.043 210.507 103.044 210.507L103.05 210.576L103.07 210.78C103.087 210.961 103.113 211.229 103.148 211.58C103.218 212.282 103.323 213.312 103.463 214.624C103.742 217.249 104.16 221.002 104.716 225.515C105.828 234.543 107.489 246.601 109.688 258.735C111.888 270.879 114.618 283.059 117.861 292.348C119.484 296.997 121.218 300.871 123.048 303.644C124.905 306.458 126.723 307.93 128.441 308.189C132.747 308.839 136.991 309.385 140.948 309.425C144.906 309.465 148.506 308.996 151.545 307.666C154.558 306.347 157.062 304.163 158.831 300.674C160.611 297.161 161.669 292.275 161.669 285.537C161.669 271.921 160.561 257.023 159.046 244.365C157.529 231.68 155.614 221.345 154.028 216.793C150.742 207.79 142.415 198.269 139.092 195.053C138.695 194.669 138.684 194.035 139.068 193.639Z" fill="#0056FE"/>
<path fill-rule="evenodd" clip-rule="evenodd" d="M129.904 162.292C127.542 164.642 125.514 168.817 126.034 175.056C126.08 175.606 125.671 176.089 125.121 176.135C124.57 176.181 124.087 175.772 124.041 175.222C123.476 168.447 125.678 163.675 128.494 160.874C129.892 159.483 131.449 158.572 132.894 158.164C134.281 157.772 135.76 157.8 136.799 158.607C136.817 158.615 136.864 158.635 136.954 158.663C137.121 158.715 137.363 158.774 137.687 158.838C138.333 158.964 139.231 159.093 140.359 159.22C142.611 159.475 145.708 159.718 149.388 159.934L149.397 159.935L149.397 159.935C157.224 160.467 167.62 160.972 178.057 161.479C182.5 161.695 186.951 161.911 191.214 162.13C198.345 162.496 204.95 162.869 210.101 163.26C212.676 163.455 214.896 163.655 216.641 163.862C218.347 164.065 219.688 164.283 220.452 164.535C221.809 164.961 224.609 166.078 228.372 167.579C229.565 168.055 230.854 168.569 232.225 169.112L232.236 169.116L232.236 169.116C247.86 175.518 274.227 186.911 289.107 193.97C290.516 194.621 291.92 195.269 293.109 195.809L293.12 195.814L293.131 195.82C302.451 200.342 309.144 206.596 313.505 211.714C315.687 214.274 317.289 216.554 318.348 218.199C318.877 219.022 319.272 219.686 319.535 220.148C319.564 220.198 319.591 220.246 319.617 220.292C327.587 219.744 333.867 220.984 338.199 222.392C340.422 223.114 342.131 223.881 343.291 224.472C343.871 224.767 344.315 225.019 344.617 225.199C344.624 225.203 344.631 225.207 344.638 225.211C361.907 218.555 371.555 220.451 376.718 226.083L376.727 226.092C379.695 229.409 380.926 233.857 381.315 238.137C381.705 242.428 381.259 246.669 380.764 249.694L380.762 249.704C380.54 250.983 380.289 252.045 380.076 252.81C379.97 253.191 379.872 253.505 379.79 253.739C379.749 253.854 379.708 253.961 379.669 254.051C379.653 254.087 379.635 254.128 379.613 254.17C379.608 254.181 379.602 254.191 379.597 254.201C379.582 254.229 379.516 254.353 379.4 254.469C379.009 254.86 378.376 254.86 377.985 254.469C377.65 254.133 377.603 253.619 377.844 253.233C377.85 253.217 377.858 253.197 377.867 253.173C377.878 253.146 377.89 253.113 377.904 253.074C377.967 252.894 378.052 252.625 378.149 252.274C378.343 251.576 378.58 250.579 378.791 249.366C379.271 246.428 379.692 242.374 379.323 238.318C378.953 234.249 377.8 230.294 375.24 227.43C370.906 222.706 362.246 220.467 344.896 227.256L344.405 227.449L343.97 227.152L343.969 227.152L343.969 227.152L343.968 227.151L343.968 227.151L343.954 227.141C343.94 227.132 343.917 227.117 343.885 227.097C343.822 227.057 343.724 226.995 343.592 226.916C343.326 226.758 342.922 226.528 342.384 226.254C341.308 225.706 339.695 224.981 337.581 224.294C333.353 222.92 327.114 221.695 319.127 222.334L318.46 222.387M129.904 162.292C131.096 161.107 132.364 160.392 133.438 160.088ZM133.438 160.088C134.55 159.774 135.262 159.942 135.579 160.192ZM135.579 160.192C135.822 160.39 136.134 160.502 136.357 160.572C136.622 160.654 136.943 160.73 137.303 160.8C138.026 160.942 138.985 161.078 140.135 161.208C142.437 161.468 145.574 161.713 149.266 161.93C157.113 162.463 167.54 162.97 177.985 163.478C182.423 163.693 186.864 163.909 191.111 164.127C198.241 164.493 204.825 164.865 209.95 165.254C212.513 165.448 214.701 165.646 216.406 165.848C218.143 166.055 219.289 166.256 219.828 166.436L219.837 166.439L219.846 166.442C221.121 166.84 223.807 167.911 227.538 169.4C228.747 169.882 230.066 170.408 231.483 170.969C247.09 177.364 273.42 188.742 288.254 195.779L288.263 195.784L288.268 195.786C289.671 196.433 291.077 197.083 292.27 197.625C301.272 201.995 307.751 208.046 311.983 213.011C314.098 215.494 315.648 217.701 316.666 219.282C317.175 220.073 317.551 220.706 317.798 221.139C317.922 221.356 318.013 221.522 318.072 221.632C318.085 221.655 318.096 221.676 318.105 221.694C318.119 221.719 318.13 221.74 318.138 221.756L318.153 221.785L318.156 221.791" fill="#0056FE"/>
<path fill-rule="evenodd" clip-rule="evenodd" d="M378.068 253.635C378.498 253.289 379.128 253.357 379.474 253.787C385.437 261.2 388.891 272.277 390.313 282.541C391.026 287.688 391.233 292.671 390.978 296.945C390.724 301.192 390.009 304.837 388.807 307.241C387.638 309.579 385.367 311.743 382.458 313.713C379.532 315.694 375.873 317.538 371.807 319.201C363.676 322.527 353.817 325.175 344.705 326.757C344.69 326.759 344.674 326.762 344.658 326.764C344.26 326.814 343.856 326.889 343.417 326.971L343.403 326.974C342.979 327.053 342.52 327.14 342.055 327.198C341.777 327.232 341.504 327.268 341.229 327.304C340.669 327.377 340.099 327.451 339.439 327.525C339.43 327.526 339.421 327.526 339.411 327.527C329.46 328.352 314.816 326.541 302.65 324.576C296.55 323.591 291.042 322.562 287.016 321.794C286.303 321.658 285.638 321.53 285.024 321.413C283.902 321.197 282.953 321.015 282.203 320.876C281.622 320.768 281.171 320.688 280.857 320.638C280.698 320.613 280.587 320.597 280.517 320.59C280.512 320.589 280.507 320.589 280.503 320.588C280.045 320.617 279.612 320.324 279.481 319.865C279.329 319.334 279.637 318.78 280.168 318.629C280.339 318.58 280.496 318.585 280.532 318.587L280.537 318.587C280.602 318.589 280.669 318.595 280.729 318.601C280.85 318.614 281 318.636 281.17 318.662C281.512 318.717 281.986 318.801 282.568 318.91C283.324 319.05 284.283 319.234 285.411 319.45C286.023 319.568 286.685 319.695 287.391 319.83C291.41 320.596 296.896 321.621 302.969 322.602C315.143 324.568 329.555 326.334 339.232 325.535C339.868 325.464 340.402 325.395 340.946 325.324C341.225 325.287 341.508 325.25 341.807 325.213C342.206 325.163 342.609 325.088 343.048 325.006L343.062 325.003C343.48 324.925 343.93 324.84 344.386 324.782C353.379 323.219 363.084 320.608 371.05 317.35C375.037 315.719 378.562 313.936 381.336 312.057C384.128 310.167 386.072 308.237 387.018 306.346C388.039 304.304 388.733 300.981 388.981 296.826C389.228 292.699 389.029 287.848 388.332 282.815C386.933 272.718 383.555 262.051 377.915 255.041C377.569 254.611 377.637 253.981 378.068 253.635Z" fill="#0056FE"/>
<path fill-rule="evenodd" clip-rule="evenodd" d="M162.152 288.312C162.657 288.088 163.248 288.315 163.473 288.819L163.055 289.005C163.47 288.821 163.473 288.82 163.473 288.82L163.473 288.82L163.474 288.822L163.478 288.832L163.497 288.873C163.513 288.91 163.539 288.966 163.573 289.041C163.642 289.19 163.745 289.412 163.883 289.702C164.158 290.281 164.57 291.129 165.116 292.196C166.207 294.33 167.83 297.34 169.954 300.836C174.205 307.832 180.444 316.743 188.414 324.457C196.387 332.176 206.036 338.642 217.107 340.858C228.141 343.067 240.709 341.078 254.611 331.668L254.617 331.664C255.336 331.185 256.046 330.832 256.838 330.492C257.346 330.275 257.934 330.51 258.151 331.017C258.369 331.525 258.134 332.113 257.626 332.33C256.902 332.641 256.311 332.938 255.729 333.326C241.436 343 228.331 345.145 216.714 342.82C205.133 340.501 195.153 333.765 187.023 325.894C178.888 318.02 172.547 308.955 168.245 301.874C166.092 298.331 164.445 295.277 163.335 293.106C162.78 292.021 162.359 291.156 162.076 290.56C161.935 290.263 161.828 290.032 161.756 289.876C161.72 289.797 161.693 289.737 161.674 289.697L161.653 289.65L161.647 289.637L161.646 289.634C161.645 289.633 161.645 289.632 162.559 289.226L161.645 289.632C161.421 289.128 161.648 288.537 162.152 288.312Z" fill="#0056FE"/>
<path fill-rule="evenodd" clip-rule="evenodd" d="M324.582 326.003C324.693 326.544 324.345 327.072 323.804 327.184C312.808 329.448 302.663 332.792 295.958 335.172L295.955 335.173C291.145 336.861 288.276 339.832 285.839 344.143C284.207 347.03 282.808 350.434 281.17 354.421C280.309 356.516 279.382 358.772 278.321 361.199L278.319 361.202C275.109 368.482 267.991 372.266 261.878 374.235C258.801 375.226 255.924 375.776 253.817 376.078C252.763 376.229 251.898 376.319 251.295 376.371C250.993 376.397 250.756 376.413 250.593 376.424C250.512 376.429 250.449 376.432 250.405 376.434L250.355 376.437L250.341 376.438L250.335 376.438C250.335 376.438 250.334 376.438 250.293 375.439L250.335 376.438C249.783 376.461 249.317 376.032 249.294 375.48C249.271 374.928 249.7 374.462 250.251 374.44C250.251 374.44 250.251 374.44 250.251 374.44M276.489 360.396C273.626 366.888 267.189 370.424 261.265 372.331C258.323 373.279 255.561 373.807 253.533 374.098C252.52 374.243 251.694 374.329 251.123 374.378C250.838 374.403 250.617 374.418 250.468 374.428C250.394 374.432 250.339 374.435 250.302 374.437L250.262 374.439L250.253 374.439L250.251 374.44M276.489 360.396C277.497 358.092 278.4 355.895 279.252 353.822C280.928 349.747 282.406 346.151 284.098 343.158C286.704 338.55 289.907 335.177 295.291 333.286C302.032 330.894 312.275 327.515 323.401 325.225C323.942 325.113 324.47 325.462 324.582 326.003" fill="#0056FE"/>
<path fill-rule="evenodd" clip-rule="evenodd" d="M347.501 324.202C348.008 323.985 348.596 324.22 348.814 324.727C349.172 325.564 349.437 326.461 349.437 327.507C349.437 331.313 346.386 334.363 342.581 334.363C338.775 334.363 335.725 331.313 335.725 327.507C335.725 327.494 335.725 327.481 335.725 327.468C335.724 327.163 335.724 326.697 335.884 326.215C336.059 325.691 336.625 325.408 337.149 325.582C337.673 325.757 337.956 326.323 337.782 326.847C337.733 326.995 337.725 327.159 337.725 327.507C337.725 330.208 339.88 332.363 342.581 332.363C345.282 332.363 347.437 330.208 347.437 327.507C347.437 326.818 347.267 326.197 346.976 325.515C346.758 325.008 346.993 324.42 347.501 324.202Z" fill="#0056FE"/>
<path fill-rule="evenodd" clip-rule="evenodd" d="M369.391 317.942C369.822 317.596 370.451 317.665 370.797 318.095C373.47 321.422 376.944 326.071 379.769 330.802C381.181 333.168 382.442 335.572 383.359 337.854C384.272 340.125 384.869 342.336 384.899 344.3L384.899 344.307V344.315C384.899 349.321 384.899 352.537 385.006 354.453L385.006 354.461C385.06 355.605 385.088 356.371 385.102 356.853C385.108 357.094 385.112 357.264 385.114 357.375C385.115 357.431 385.115 357.472 385.115 357.5L385.116 357.532L385.116 357.541L385.116 357.545C385.116 357.545 385.116 357.545 384.345 357.545L385.116 357.545C385.116 358.097 384.668 358.545 384.116 358.545C383.563 358.545 383.116 358.098 383.116 357.545M383.116 357.545L383.116 357.541L383.115 357.517C383.115 357.494 383.115 357.458 383.114 357.407C383.112 357.305 383.109 357.143 383.102 356.91C383.089 356.443 383.062 355.692 383.008 354.56C382.899 352.58 382.899 349.308 382.899 344.371V344.323C382.873 342.709 382.372 340.761 381.503 338.6C380.638 336.446 379.431 334.139 378.052 331.828C375.292 327.206 371.88 322.636 369.238 319.348C368.892 318.917 368.961 318.288 369.391 317.942" fill="#0056FE"/>
<path fill-rule="evenodd" clip-rule="evenodd" d="M387.997 303.302C388.248 302.81 388.851 302.615 389.343 302.867C394.322 305.41 401.48 308.922 408.169 311.713C411.515 313.11 414.726 314.318 417.477 315.136C420.266 315.965 422.449 316.349 423.809 316.21C424.211 316.165 424.612 316.119 425.011 316.074C428.858 315.635 432.519 315.218 435.365 315.435C436.943 315.555 438.395 315.876 439.529 316.586C440.713 317.327 441.48 318.451 441.713 319.982C442.112 322.603 441.92 324.57 441.453 326.139C441.012 327.616 440.338 328.692 439.813 329.53C439.785 329.575 439.757 329.619 439.729 329.663C439.475 330.07 439.057 330.404 438.635 330.672C438.189 330.954 437.64 331.223 437.018 331.467C435.774 331.956 434.173 332.368 432.39 332.567C428.836 332.964 424.426 332.521 420.644 329.961C413.719 325.274 405.589 322.164 397.277 319.681L397.274 319.68C393.179 318.441 390.171 317.716 388.195 317.302C387.722 317.203 387.308 317.122 386.952 317.055C387.245 317.845 387.634 318.893 388.089 320.125C389.131 322.945 390.525 326.729 391.928 330.58C393.332 334.431 394.747 338.354 395.831 341.45C396.374 342.998 396.835 344.344 397.172 345.374C397.494 346.358 397.737 347.155 397.793 347.529L397.794 347.536C397.794 347.535 397.796 347.55 397.808 347.584C397.819 347.618 397.838 347.664 397.866 347.724C397.924 347.844 398.011 347.995 398.133 348.179C398.379 348.551 398.719 348.99 399.129 349.505C399.221 349.622 399.317 349.741 399.415 349.864C400.164 350.801 401.059 351.92 401.778 353.092C402.583 354.406 403.265 355.937 403.202 357.508C403.136 359.168 402.251 360.662 400.38 361.858C397.053 363.997 393.192 364.127 390.007 363.211C386.88 362.312 384.137 360.314 383.281 357.878L383.278 357.87L383.276 357.862C383.271 357.848 383.266 357.833 383.261 357.818C383.167 357.538 383.024 357.109 383.009 356.647C382.893 355.762 383.02 355.003 383.123 354.384L383.132 354.329L383.135 354.314C383.51 352.441 384.559 350.952 385.465 349.959C385.922 349.457 386.358 349.066 386.681 348.798C386.843 348.664 386.978 348.56 387.075 348.488C387.123 348.452 387.162 348.424 387.19 348.404L387.225 348.38L387.235 348.373L387.239 348.37L387.24 348.369C387.241 348.369 387.242 348.368 387.803 349.196L387.242 348.368C387.699 348.058 388.321 348.177 388.631 348.634C388.94 349.091 388.822 349.712 388.366 350.022L388.366 350.023C388.365 350.023 388.365 350.023 388.365 350.023L388.347 350.035C388.331 350.047 388.304 350.067 388.268 350.093C388.196 350.147 388.089 350.229 387.956 350.339C387.69 350.56 387.325 350.887 386.943 351.307C386.17 352.154 385.378 353.317 385.1 354.691C384.991 355.343 384.914 355.847 384.998 356.429L385.008 356.499V356.57C385.008 356.703 385.053 356.869 385.17 357.222C385.728 358.796 387.754 360.482 390.56 361.289C393.313 362.081 396.555 361.94 399.3 360.175L399.302 360.174C400.738 359.256 401.168 358.31 401.204 357.428C401.242 356.458 400.813 355.345 400.073 354.138C399.424 353.08 398.612 352.064 397.855 351.116C397.757 350.993 397.66 350.871 397.564 350.75C397.157 350.239 396.766 349.737 396.465 349.283C396.187 348.862 395.891 348.346 395.815 347.824C395.789 347.653 395.615 347.048 395.271 345.996C394.941 344.986 394.485 343.654 393.944 342.112C392.863 339.027 391.452 335.114 390.049 331.265C388.647 327.417 387.255 323.637 386.213 320.818C385.692 319.409 385.259 318.24 384.956 317.423C384.804 317.015 384.685 316.695 384.604 316.477L384.48 316.144C384.48 316.144 384.48 316.143 385.417 315.795C385.528 314.801 385.528 314.801 385.528 314.801L385.53 314.801L385.534 314.801L385.545 314.803L385.586 314.808C385.621 314.812 385.671 314.818 385.736 314.827C385.867 314.845 386.06 314.873 386.315 314.914C386.826 314.996 387.587 315.131 388.605 315.344C390.64 315.771 393.705 316.51 397.851 317.765C406.239 320.27 414.593 323.45 421.765 328.305C425.032 330.517 428.919 330.942 432.169 330.58C433.789 330.399 435.217 330.026 436.288 329.605C436.824 329.395 437.253 329.18 437.564 328.982C437.72 328.884 437.836 328.796 437.918 328.724C437.958 328.688 437.987 328.658 438.007 328.636C438.027 328.614 438.034 328.603 438.033 328.603C438.055 328.568 438.077 328.534 438.099 328.499C438.628 327.653 439.175 326.779 439.536 325.567C439.909 324.316 440.096 322.65 439.736 320.283C439.59 319.32 439.151 318.709 438.467 318.281C437.734 317.821 436.658 317.539 435.213 317.429C432.569 317.227 429.108 317.621 425.194 318.066C424.809 318.11 424.42 318.154 424.027 318.198L424.019 318.199C422.232 318.384 419.714 317.887 416.907 317.053C414.06 316.207 410.777 314.969 407.399 313.559C400.641 310.738 393.43 307.201 388.433 304.648C387.941 304.396 387.746 303.794 387.997 303.302ZM385.417 315.795L385.528 314.801L383.914 314.621L384.48 316.144L385.417 315.795Z" fill="#0056FE"/>
<path fill-rule="evenodd" clip-rule="evenodd" d="M157.253 138.761C153.092 139.356 150.051 140.235 148.336 141.289L148.336 141.289C145.784 142.856 145.188 145.788 145.855 149.505C146.518 153.193 148.38 157.281 150.204 160.555C150.473 161.037 150.3 161.646 149.818 161.915C149.335 162.184 148.726 162.011 148.458 161.528C146.595 158.186 144.607 153.87 143.887 149.859C143.172 145.876 143.66 141.813 147.289 139.585M157.253 138.761C161.379 138.172 166.492 137.879 172.259 137.926ZM172.259 137.926C183.793 138.02 197.874 139.476 211.793 142.605ZM212.231 140.654C198.172 137.493 183.949 136.021 172.275 135.926C166.439 135.878 161.222 136.174 156.971 136.781C152.754 137.384 149.37 138.306 147.289 139.585M212.231 140.654C219.104 142.181 225.865 144.144 232.406 146.433L232.418 146.438L232.418 146.438C257.526 155.614 271.41 159.616 278.436 161.642C280.557 162.253 282.052 162.684 283.043 163.023C285.213 163.766 289.692 165.968 293.363 169.136C296.988 172.265 300.159 176.641 298.871 181.675C298.411 183.515 297.614 185.326 296.736 187.082L296.727 187.099L296.718 187.116C294.805 190.604 292.003 193.741 289.305 195.878C288.872 196.22 288.243 196.147 287.9 195.714C287.557 195.281 287.63 194.652 288.063 194.309C290.566 192.328 293.181 189.399 294.955 186.171C295.808 184.463 296.526 182.811 296.932 181.187L296.933 181.181C297.921 177.323 295.561 173.675 292.057 170.65C288.597 167.665 284.347 165.583 282.396 164.916C281.5 164.609 280.088 164.202 278.063 163.619C271.12 161.618 256.973 157.541 231.738 148.319C225.268 146.055 218.584 144.114 211.796 142.606L211.793 142.605" fill="#0056FE"/>
<path fill-rule="evenodd" clip-rule="evenodd" d="M230.857 170.137C230.865 169.585 231.319 169.143 231.871 169.151C239.353 169.26 247.737 169.396 254.347 169.586C257.65 169.681 260.52 169.789 262.615 169.916C263.661 169.979 264.528 170.047 265.165 170.122C265.482 170.159 265.762 170.2 265.986 170.248C266.097 170.271 266.215 170.3 266.325 170.338C266.408 170.366 266.601 170.435 266.776 170.585C267.195 170.944 267.244 171.576 266.885 171.995C266.571 172.361 266.049 172.445 265.643 172.22C265.625 172.216 265.602 172.211 265.574 172.205C265.436 172.175 265.224 172.143 264.932 172.108C264.351 172.04 263.529 171.974 262.495 171.912C260.432 171.788 257.588 171.68 254.29 171.585C247.696 171.395 239.325 171.26 231.842 171.151C231.29 171.143 230.849 170.689 230.857 170.137Z" fill="#0056FE"/>
<path fill-rule="evenodd" clip-rule="evenodd" d="M296.036 130.85C295.291 130.874 294.076 131.415 292.451 133.931C291.158 135.933 290.406 137.613 289.779 139.015C289.615 139.383 289.459 139.732 289.304 140.062C288.585 141.595 287.782 142.987 285.963 143.367C285.763 143.41 285.538 143.412 285.363 143.409C285.162 143.406 284.922 143.391 284.653 143.369C284.114 143.324 283.408 143.245 282.565 143.14C281.323 142.985 279.752 142.77 277.921 142.52C277.264 142.43 276.573 142.336 275.852 142.238C270.384 141.496 263.134 140.55 255.343 139.861C247.549 139.171 239.235 138.741 231.639 139.027C224.021 139.314 217.227 140.319 212.415 142.437C211.909 142.659 211.319 142.43 211.097 141.925C210.874 141.419 211.104 140.829 211.609 140.606C216.774 138.333 223.875 137.318 231.564 137.028C239.277 136.738 247.683 137.175 255.519 137.869C263.358 138.562 270.646 139.514 276.121 140.256C276.849 140.355 277.544 140.45 278.204 140.54C280.03 140.789 281.584 141.002 282.813 141.155C283.65 141.259 284.321 141.335 284.817 141.376C285.066 141.396 285.258 141.407 285.399 141.41C285.517 141.412 285.563 141.407 285.563 141.408C286.336 141.243 286.779 140.735 287.493 139.213C287.631 138.92 287.775 138.597 287.931 138.248C288.56 136.84 289.386 134.991 290.771 132.846C292.508 130.156 294.222 128.908 295.971 128.851C297.674 128.795 298.974 129.901 299.801 130.729C300.89 131.818 301.374 133.554 301.286 135.64C301.198 137.746 300.526 140.344 299.134 143.352C297.808 146.216 295.353 148.808 293.651 150.604C293.506 150.757 293.367 150.904 293.234 151.045C292.941 151.356 292.684 151.634 292.467 151.88C293.142 151.857 293.988 151.958 294.899 152.119C296.066 152.324 297.465 152.652 298.996 153.057C302.059 153.867 305.711 155.006 309.208 156.161C312.709 157.317 316.069 158.492 318.552 159.378C319.794 159.821 320.818 160.192 321.531 160.453C321.696 160.513 321.844 160.567 321.974 160.615C322.05 160.528 322.134 160.433 322.227 160.333C322.699 159.825 323.397 159.156 324.311 158.506C326.14 157.203 328.865 155.953 332.363 156.25C334.181 156.404 335.574 157.098 336.511 158.202C337.435 159.291 337.829 160.678 337.86 162.077C337.921 164.839 336.577 167.94 334.46 169.815C333.81 170.391 332.898 170.759 331.921 171.01C330.925 171.266 329.757 171.425 328.507 171.516C326.004 171.699 323.061 171.618 320.27 171.434C317.473 171.249 314.799 170.959 312.827 170.715C311.84 170.593 311.027 170.483 310.461 170.402C310.177 170.362 309.955 170.33 309.803 170.307C309.728 170.296 309.669 170.287 309.63 170.281L309.597 170.276L309.592 170.276L309.497 170.267C309.414 170.259 309.291 170.248 309.137 170.235C308.827 170.21 308.39 170.176 307.882 170.146C306.859 170.086 305.575 170.041 304.468 170.093C303.983 170.116 303.554 170.156 303.207 170.216C303.323 170.297 303.462 170.389 303.629 170.491C306.388 172.181 309.865 175.232 312.019 178.477C313.095 180.098 313.897 181.85 314.046 183.564C314.2 185.335 313.649 187.026 312.114 188.365L312.108 188.37C310.236 189.974 307.316 190.097 304.469 189.728C301.548 189.349 298.354 188.401 295.627 187.473C295.104 187.296 294.825 186.728 295.002 186.205C295.18 185.682 295.748 185.402 296.271 185.58C298.966 186.496 302.008 187.392 304.726 187.745C307.516 188.107 309.637 187.851 310.803 186.855C311.814 185.971 312.157 184.924 312.053 183.738C311.945 182.493 311.337 181.067 310.353 179.583C308.386 176.62 305.139 173.761 302.584 172.197C301.899 171.777 301.339 171.345 301.028 170.869C300.862 170.616 300.718 170.275 300.746 169.875C300.776 169.457 300.983 169.135 301.217 168.918C301.621 168.541 302.207 168.375 302.666 168.282C303.176 168.179 303.771 168.123 304.375 168.095C305.586 168.038 306.952 168.088 308 168.15C308.527 168.181 308.98 168.215 309.302 168.242C309.464 168.256 309.592 168.267 309.681 168.275L309.783 168.285L309.811 168.288L309.818 168.288L309.82 168.289C309.82 168.289 309.821 168.289 309.722 169.284L309.82 168.289L309.848 168.291L309.875 168.296L309.888 168.298L309.93 168.304C309.968 168.31 310.024 168.318 310.097 168.329C310.245 168.351 310.462 168.383 310.74 168.422C311.297 168.501 312.099 168.61 313.072 168.73C315.021 168.971 317.655 169.257 320.402 169.438C323.155 169.62 325.993 169.695 328.361 169.522C329.545 169.435 330.585 169.288 331.424 169.073C332.282 168.852 332.834 168.584 333.134 168.318C334.812 166.832 335.908 164.294 335.86 162.121C335.837 161.053 335.54 160.149 334.986 159.496C334.445 158.859 333.575 158.36 332.194 158.243C329.293 157.997 327.03 159.024 325.471 160.135C324.69 160.691 324.093 161.263 323.694 161.693C323.494 161.908 323.346 162.086 323.249 162.207C323.201 162.267 323.166 162.313 323.144 162.342C323.134 162.357 323.126 162.367 323.122 162.373L323.12 162.376L323.119 162.377L323.118 162.378L322.677 163.007L321.953 162.738L322.301 161.801C321.953 162.738 321.953 162.738 321.953 162.738L321.952 162.738L321.881 162.712L321.666 162.632C321.478 162.563 321.2 162.461 320.846 162.332C320.136 162.073 319.117 161.703 317.88 161.262C315.406 160.379 312.062 159.209 308.581 158.06C305.098 156.91 301.49 155.786 298.484 154.99C296.98 154.592 295.641 154.28 294.552 154.089C293.426 153.89 292.68 153.842 292.298 153.898C291.992 153.943 291.709 153.969 291.456 153.968C291.214 153.967 290.933 153.942 290.667 153.84C290.379 153.729 290.05 153.499 289.894 153.082C289.752 152.703 289.824 152.35 289.897 152.131C290.036 151.714 290.346 151.297 290.633 150.947C290.945 150.567 291.345 150.135 291.778 149.675C291.905 149.539 292.037 149.4 292.171 149.258C293.907 147.421 296.138 145.061 297.319 142.511C298.638 139.663 299.213 137.326 299.288 135.556C299.363 133.765 298.925 132.681 298.387 132.143C297.588 131.344 296.826 130.824 296.036 130.85Z" fill="#0056FE"/>
<path fill-rule="evenodd" clip-rule="evenodd" d="M288.847 284.687C285.747 286.431 283.86 288.758 283.489 291.217L283.476 291.302L283.449 291.384C283.402 291.525 283.392 291.78 283.392 292.152C283.392 294.769 285.118 297.316 288.247 299.26C291.359 301.194 295.725 302.431 300.611 302.431C305.552 302.431 309.945 301.193 313.071 299.259C316.213 297.315 317.938 294.768 317.938 292.152V291.146C317.541 288.713 315.661 286.414 312.592 284.687C309.509 282.953 305.345 281.874 300.719 281.874C296.093 281.874 291.929 282.953 288.847 284.687ZM287.866 282.944C291.29 281.018 295.802 279.874 300.719 279.874C305.637 279.874 310.148 281.018 313.572 282.944C316.979 284.861 319.43 287.63 319.927 290.919L319.938 290.993V292.152C319.938 295.718 317.597 298.81 314.123 300.96C310.633 303.12 305.863 304.431 300.611 304.431C295.411 304.431 290.667 303.119 287.191 300.959C283.732 298.81 281.392 295.717 281.392 292.152C281.392 292.138 281.392 292.123 281.392 292.107C281.391 291.83 281.39 291.307 281.523 290.844C282.045 287.588 284.485 284.846 287.866 282.944Z" fill="#0056FE"/>
<path d="M318.829 291.068C316.986 296.165 309.503 300.069 300.61 300.069C291.718 300.069 284.235 296.165 282.392 291.068C283.259 285.32 291.067 280.874 300.61 280.874C310.154 280.874 317.962 285.32 318.829 291.068Z" fill="#0056FE"/>
<path d="M379.561 249.643C371.752 243.461 373.704 233.051 375.765 226.869C381.404 233.051 380.645 243.787 379.561 249.643Z" fill="#0056FE"/>
<path fill-rule="evenodd" clip-rule="evenodd" d="M353.985 292.553L363.793 296.702V303.114L357.052 301.241L353.985 292.553ZM355.682 294.357L357.821 300.417L362.793 301.798V297.365L355.682 294.357Z" fill="#0056FE"/>
<path fill-rule="evenodd" clip-rule="evenodd" d="M375.827 272.751L383.274 278.4L381.831 283.909L376.48 280.852L375.827 272.751ZM377.004 274.899L377.435 280.245L381.194 282.393L382.137 278.793L377.004 274.899Z" fill="#0056FE"/>
<path fill-rule="evenodd" clip-rule="evenodd" d="M211.759 317.582C211.717 317.585 211.662 317.589 211.593 317.592C211.422 317.599 211.171 317.603 210.864 317.589C210.247 317.56 209.41 317.457 208.522 317.163C206.763 316.581 204.793 315.252 203.925 312.188L202.963 312.46C203.938 315.903 206.198 317.447 208.208 318.112C209.204 318.442 210.136 318.556 210.817 318.588C211.158 318.604 211.439 318.599 211.637 318.591C211.736 318.587 211.814 318.581 211.868 318.577C211.896 318.574 211.917 318.572 211.933 318.571L211.951 318.569L211.957 318.568L211.958 318.568L211.959 318.568C211.959 318.568 211.96 318.568 211.903 318.071L211.96 318.568L212.047 318.558L212.126 318.519C212.201 318.481 212.3 318.425 212.393 318.373C212.444 318.344 212.493 318.316 212.535 318.293C212.677 318.216 212.808 318.152 212.928 318.112L212.952 318.104L212.975 318.094C215.479 316.972 218.579 316.62 221.909 316.721C225.234 316.821 228.747 317.371 232.059 318.02C233.713 318.344 235.313 318.692 236.812 319.02C236.905 319.04 236.998 319.061 237.091 319.081C238.482 319.385 239.784 319.671 240.949 319.897C242.189 320.139 243.291 320.318 244.193 320.384C245.066 320.448 245.852 320.415 246.392 320.147C247.148 319.782 248.299 319.551 249.653 319.434C250.995 319.318 252.486 319.317 253.888 319.384C255.29 319.451 256.59 319.585 257.547 319.735C258.028 319.81 258.411 319.887 258.674 319.958C258.808 319.994 258.894 320.025 258.942 320.047C258.955 320.053 258.961 320.056 258.961 320.056C258.961 320.056 258.958 320.054 258.952 320.05L258.951 320.049C258.944 320.044 258.873 319.993 258.829 319.884L259.758 319.512C259.699 319.367 259.594 319.281 259.541 319.242C259.479 319.196 259.411 319.162 259.353 319.135C259.236 319.082 259.091 319.035 258.937 318.993C258.623 318.908 258.199 318.824 257.702 318.747C256.704 318.591 255.368 318.454 253.936 318.385C252.504 318.317 250.966 318.316 249.567 318.437C248.18 318.557 246.879 318.801 245.954 319.248L245.954 319.248L245.948 319.251C245.674 319.388 245.134 319.45 244.266 319.387C243.425 319.325 242.37 319.156 241.14 318.916C239.987 318.691 238.696 318.409 237.3 318.103C237.209 318.083 237.118 318.063 237.025 318.043C235.527 317.715 233.918 317.365 232.251 317.039C228.92 316.386 225.344 315.824 221.939 315.721C218.548 315.619 215.284 315.97 212.587 317.172C212.391 317.24 212.207 317.334 212.056 317.416C211.979 317.458 211.916 317.493 211.862 317.524C211.825 317.545 211.791 317.565 211.759 317.582Z" fill="#0056FE"/>
<path fill-rule="evenodd" clip-rule="evenodd" d="M271.939 287.316C270.862 286.793 268.685 286.883 264.633 290.882L264.632 290.882C260.963 294.497 256.817 299.238 253.741 304.235C250.655 309.249 248.695 314.44 249.27 318.984L248.278 319.11C247.659 314.22 249.767 308.783 252.889 303.711C256.021 298.623 260.226 293.82 263.93 290.17C268.011 286.143 270.661 285.583 272.376 286.416C273.204 286.818 273.713 287.508 274.01 288.064C274.16 288.345 274.261 288.602 274.325 288.79C274.357 288.884 274.381 288.962 274.396 289.017C274.404 289.045 274.41 289.068 274.414 289.084L274.419 289.104L274.42 289.11L274.421 289.113L274.421 289.114C274.421 289.114 274.421 289.114 273.933 289.224C273.446 289.335 273.446 289.335 273.446 289.335L273.444 289.327C273.441 289.318 273.438 289.304 273.432 289.284C273.422 289.246 273.404 289.187 273.379 289.113C273.328 288.964 273.247 288.759 273.128 288.535C272.886 288.081 272.507 287.591 271.939 287.316Z" fill="#0056FE"/>
<path fill-rule="evenodd" clip-rule="evenodd" d="M271.779 328.818C268.11 328.818 262.884 329.718 256.729 333.358L256.22 332.497C262.535 328.762 267.938 327.818 271.779 327.818C273.697 327.818 275.222 328.054 276.273 328.292C276.798 328.41 277.205 328.53 277.483 328.621C277.622 328.666 277.729 328.705 277.803 328.732C277.84 328.746 277.869 328.757 277.889 328.765L277.912 328.775L277.919 328.778L277.922 328.779L277.922 328.779C277.923 328.779 277.923 328.779 277.73 329.24C277.536 329.701 277.536 329.701 277.537 329.701L277.534 329.7L277.52 329.695C277.506 329.689 277.483 329.68 277.453 329.669C277.392 329.646 277.298 329.612 277.173 329.571C276.922 329.49 276.545 329.379 276.052 329.267C275.066 329.044 273.615 328.818 271.779 328.818Z" fill="#0056FE"/>
<path fill-rule="evenodd" clip-rule="evenodd" d="M261.201 334.38C259.656 333.9 257.747 334.37 255.831 335.328L255.384 334.433C257.37 333.44 259.579 332.826 261.504 333.427L261.513 333.43L261.513 333.43C264.452 334.41 266.714 337.036 267.81 339.764C268.893 342.456 268.926 345.505 266.999 347.185C265.511 348.507 261.686 351.512 257.432 353.823C255.304 354.98 253.048 355.974 250.911 356.491C248.781 357.007 246.705 357.064 244.985 356.264L245.407 355.357C246.833 356.021 248.647 356.01 250.676 355.519C252.696 355.03 254.867 354.079 256.954 352.945C261.13 350.676 264.895 347.717 266.336 346.436L266.34 346.432L266.34 346.432C267.773 345.184 267.915 342.704 266.883 340.137C265.865 337.606 263.79 335.245 261.201 334.38Z" fill="#0056FE"/>
<path fill-rule="evenodd" clip-rule="evenodd" d="M307.398 226.503C307.601 227.017 307.348 227.597 306.834 227.8C300.005 230.49 294.348 237.554 290.258 244.344C286.826 250.04 284.608 255.344 283.747 257.404C283.586 257.788 283.473 258.059 283.407 258.199C283.174 258.7 282.579 258.916 282.078 258.683C281.578 258.449 281.361 257.854 281.595 257.354C281.645 257.247 281.739 257.021 281.876 256.691C282.687 254.746 285.001 249.193 288.544 243.312C292.669 236.464 298.616 228.888 306.101 225.939C306.615 225.737 307.196 225.989 307.398 226.503Z" fill="#0056FE"/>
<path fill-rule="evenodd" clip-rule="evenodd" d="M120.509 179.461L119.616 179.91L118.617 179.945L118.456 175.379L120.509 179.461ZM120.821 184.625C120.889 186.019 120.974 187.675 121.079 189.531C121.407 195.343 121.928 203.113 122.699 210.95C123.47 218.794 124.489 226.675 125.809 232.722C126.469 235.751 127.196 238.274 127.985 240.092C128.38 241.001 128.774 241.695 129.157 242.179C129.543 242.666 129.858 242.865 130.078 242.93C132 243.448 133.516 243.546 134.684 243.289C135.813 243.041 136.668 242.452 137.304 241.457C137.962 240.427 138.414 238.913 138.589 236.796C138.762 234.687 138.654 232.05 138.252 228.835C137.861 225.705 136.468 221.122 134.553 215.942C132.647 210.785 130.254 205.113 127.907 199.837C125.56 194.562 123.263 189.691 121.553 186.139C121.295 185.603 121.051 185.097 120.821 184.625ZM136.429 215.249C138.348 220.439 139.815 225.21 140.237 228.587C140.648 231.878 140.771 234.664 140.582 236.96C140.393 239.248 139.89 241.123 138.989 242.534C138.066 243.978 136.759 244.881 135.113 245.243C133.507 245.596 131.636 245.422 129.549 244.858L129.537 244.855C128.754 244.633 128.114 244.083 127.589 243.42C127.058 242.75 126.583 241.884 126.151 240.888C125.285 238.895 124.526 236.224 123.854 233.148C122.51 226.985 121.482 219.012 120.708 211.145C119.934 203.271 119.411 195.472 119.082 189.643C118.917 186.729 118.801 184.305 118.726 182.61C118.688 181.763 118.661 181.097 118.643 180.643C118.634 180.416 118.627 180.242 118.623 180.124L118.617 179.945C118.617 179.945 118.617 179.945 119.616 179.91C120.509 179.461 120.509 179.46 120.509 179.461L120.562 179.565C120.596 179.634 120.647 179.736 120.713 179.869C120.846 180.135 121.041 180.527 121.289 181.031C121.786 182.037 122.497 183.489 123.355 185.271C125.071 188.836 127.377 193.725 129.734 199.024C132.09 204.32 134.503 210.036 136.429 215.249Z" fill="#0056FE"/>
<path fill-rule="evenodd" clip-rule="evenodd" d="M278.834 289.516C278.785 289.605 278.707 289.743 278.613 289.858C278.263 290.285 277.633 290.348 277.206 289.998C276.787 289.655 276.718 289.043 277.045 288.617C277.049 288.61 277.062 288.588 277.086 288.545C277.127 288.471 277.181 288.368 277.251 288.23C277.3 288.134 277.359 288.016 277.426 287.884C277.536 287.665 277.666 287.406 277.806 287.133C278.269 286.23 278.915 285.024 279.762 283.682C281.45 281.005 283.959 277.75 287.453 275.261C290.963 272.76 295.46 271.039 301.062 271.452C306.646 271.863 313.23 274.386 320.95 280.183C321.392 280.514 321.481 281.141 321.149 281.583C320.818 282.024 320.191 282.114 319.749 281.782C312.233 276.138 306.006 273.821 300.915 273.446C295.842 273.073 291.8 274.619 288.613 276.89C285.41 279.172 283.066 282.193 281.453 284.749C280.65 286.023 280.033 287.172 279.586 288.045C279.445 288.319 279.328 288.552 279.224 288.76C279.156 288.895 279.094 289.019 279.034 289.137C278.962 289.279 278.894 289.409 278.834 289.516Z" fill="#0056FE"/>
<path fill-rule="evenodd" clip-rule="evenodd" d="M345.012 226.3C345.326 225.846 345.949 225.733 346.403 226.047C346.403 226.047 346.404 226.048 346.406 226.049L346.413 226.053C346.419 226.057 346.428 226.063 346.439 226.07C346.462 226.084 346.491 226.101 346.529 226.123C346.605 226.166 346.703 226.221 346.825 226.287C347.07 226.42 347.392 226.59 347.788 226.8C347.81 226.811 347.832 226.823 347.855 226.835C348.637 227.247 349.676 227.796 350.895 228.465C353.403 229.841 356.681 231.73 360.096 234.023C366.873 238.572 374.397 244.841 377.34 251.972C377.551 252.483 377.308 253.068 376.797 253.278C376.287 253.489 375.702 253.246 375.491 252.735C372.795 246.203 365.734 240.217 358.982 235.684C355.633 233.435 352.41 231.577 349.933 230.218C348.728 229.557 347.701 229.015 346.919 228.602C346.897 228.591 346.876 228.58 346.855 228.568C346.825 228.552 346.794 228.537 346.765 228.521C346.061 228.15 345.496 227.851 345.265 227.691C344.811 227.377 344.698 226.754 345.012 226.3Z" fill="#0056FE"/>
<path fill-rule="evenodd" clip-rule="evenodd" d="M97.5657 246.373C98.0531 246.113 98.6588 246.297 98.9187 246.784C99.0414 247.015 99.1089 247.272 99.1527 247.492C99.1991 247.725 99.2324 247.989 99.258 248.269C99.309 248.827 99.3359 249.524 99.3579 250.309C99.3667 250.623 99.3748 250.952 99.3832 251.297C99.4176 252.699 99.458 254.347 99.5764 256.15C99.8722 260.654 100.648 265.959 102.935 270.324C103.254 270.934 103.59 271.568 103.937 272.222C106.156 276.412 108.825 281.45 110.599 286.593C112.645 292.526 113.586 298.828 111.092 304.28C108.773 309.35 107.768 312.299 107.341 313.955C107.128 314.782 107.064 315.267 107.047 315.52C107.04 315.626 107.042 315.687 107.043 315.711C107.141 316.212 106.843 316.714 106.344 316.861C105.814 317.017 105.258 316.713 105.102 316.183L106.047 315.905C105.102 316.183 105.101 316.182 105.101 316.18L105.1 316.176L105.098 316.169L105.094 316.154C105.091 316.144 105.088 316.133 105.086 316.122C105.081 316.101 105.076 316.077 105.072 316.053C105.063 316.003 105.056 315.947 105.05 315.883C105.04 315.756 105.038 315.594 105.052 315.388C105.079 314.977 105.171 314.364 105.405 313.456C105.873 311.641 106.929 308.572 109.273 303.448C111.442 298.706 110.702 293.025 108.708 287.245C106.989 282.262 104.402 277.376 102.179 273.176C101.83 272.517 101.489 271.875 101.163 271.252C98.6778 266.507 97.8814 260.86 97.5807 256.281C97.4593 254.433 97.4177 252.733 97.3834 251.33C97.3751 250.99 97.3672 250.668 97.3587 250.365C97.3366 249.579 97.3109 248.939 97.2663 248.451C97.244 248.207 97.2186 248.02 97.1912 247.883C97.1673 247.763 97.1489 247.717 97.1495 247.717C97.1495 247.717 97.1495 247.717 97.1496 247.717C96.8962 247.232 97.0812 246.631 97.5657 246.373Z" fill="#0056FE"/>
<path fill-rule="evenodd" clip-rule="evenodd" d="M254.996 388.344C253.905 388.083 253.521 388.312 253.364 388.518C253.22 388.706 253.093 389.097 253.658 390.036C254.207 390.948 255.246 392.065 256.707 393.336C259.609 395.862 263.91 398.772 268.42 401.609C271.735 403.695 275.13 405.721 278.128 407.51C279.203 408.152 280.226 408.762 281.176 409.334C281.713 409.657 282.227 409.969 282.714 410.266C282.155 409.718 281.525 409.105 280.836 408.441C278.022 405.728 274.231 402.173 270.312 398.794C266.383 395.406 262.365 392.229 259.089 390.245C257.441 389.248 256.052 388.596 254.996 388.344ZM286.9 413.013C287.283 412.625 287.285 412 286.901 411.61L286.188 412.311C286.901 411.61 286.902 411.611 286.901 411.61L286.9 411.609L286.879 411.588L286.815 411.523C286.759 411.466 286.675 411.381 286.566 411.272C286.349 411.052 286.03 410.732 285.622 410.327C284.807 409.516 283.639 408.365 282.224 407.001C279.395 404.274 275.575 400.692 271.618 397.279C267.67 393.876 263.549 390.608 260.125 388.534C258.422 387.504 256.822 386.724 255.461 386.399C254.135 386.081 252.675 386.126 251.775 387.303C250.862 388.498 251.246 389.907 251.945 391.067C252.659 392.253 253.889 393.535 255.394 394.845C258.422 397.48 262.837 400.46 267.355 403.302C270.692 405.402 274.119 407.447 277.122 409.239C278.191 409.877 279.206 410.483 280.145 411.048C281.94 412.128 283.445 413.054 284.523 413.774C285.064 414.135 285.477 414.431 285.758 414.66C285.9 414.776 285.99 414.859 286.042 414.914C286.045 414.918 286.048 414.921 286.051 414.924C286.272 415.37 286.796 415.592 287.277 415.424C287.799 415.241 288.073 414.671 287.891 414.149C287.795 413.875 287.612 413.664 287.497 413.543C287.362 413.399 287.197 413.253 287.021 413.109C286.982 413.078 286.942 413.046 286.9 413.013Z" fill="#0056FE"/>
<path fill-rule="evenodd" clip-rule="evenodd" d="M228.699 200.525C223.033 197.587 216.533 199.307 214.084 204.104C211.634 208.901 214.053 215.133 219.618 218.074C225.284 221.011 231.782 219.29 234.232 214.494L234.235 214.487L234.235 214.487C236.786 209.691 234.368 203.36 228.706 200.529L228.699 200.525L228.699 200.525ZM229.156 199.636C223.111 196.503 215.948 198.253 213.193 203.65C210.437 209.046 213.223 215.827 219.152 218.959L219.156 218.961C225.2 222.095 232.363 220.347 235.12 214.953C237.988 209.556 235.203 202.661 229.156 199.636Z" fill="#0056FE"/>
<path fill-rule="evenodd" clip-rule="evenodd" d="M252.714 213.236C247.007 211.017 241.189 212.98 239.59 217.178C237.99 221.378 240.969 226.676 246.678 228.896L246.688 228.9L246.688 228.9C248.47 229.634 250.238 229.943 251.888 229.839C252.164 229.822 252.401 230.032 252.419 230.307C252.436 230.583 252.226 230.82 251.951 230.838C250.133 230.951 248.215 230.61 246.311 229.827C240.311 227.491 236.786 221.729 238.656 216.822C240.527 211.91 247.071 209.969 253.076 212.304C255.995 213.427 258.355 215.448 259.821 217.703C259.972 217.935 259.906 218.244 259.675 218.395C259.443 218.545 259.134 218.48 258.983 218.248C257.63 216.166 255.435 214.283 252.716 213.237L252.714 213.236Z" fill="#0056FE"/>
<path fill-rule="evenodd" clip-rule="evenodd" d="M259.794 217.948C259.809 218.224 259.599 218.46 259.323 218.476C255.647 218.686 252.511 220.462 251.411 223.359L251.411 223.36C250.611 225.46 250.997 227.899 252.345 230.076C252.49 230.311 252.418 230.619 252.183 230.765C251.948 230.91 251.64 230.837 251.495 230.603C250.023 228.225 249.542 225.459 250.477 223.004C251.764 219.612 255.35 217.701 259.266 217.477C259.541 217.462 259.778 217.672 259.794 217.948Z" fill="#0056FE"/>
<path fill-rule="evenodd" clip-rule="evenodd" d="M196.546 186.851C196.546 186.574 196.77 186.351 197.046 186.351C199.775 186.351 202.588 187.373 205.151 189.268L205.157 189.272L205.157 189.272C210.279 193.17 211.983 199.759 208.833 203.96C207.255 206.064 204.732 207.087 201.996 207.101C199.261 207.115 196.282 206.125 193.707 204.166L193.701 204.161L193.701 204.161C192.143 202.938 190.789 201.477 189.881 199.774C189.751 199.53 189.843 199.228 190.087 199.098C190.331 198.968 190.634 199.06 190.764 199.303C191.59 200.853 192.838 202.211 194.315 203.373C196.728 205.207 199.495 206.114 201.991 206.101C204.488 206.088 206.683 205.16 208.033 203.36C210.738 199.753 209.406 193.764 204.554 190.07C202.13 188.279 199.522 187.351 197.046 187.351C196.77 187.351 196.546 187.127 196.546 186.851Z" fill="#0056FE"/>
<path fill-rule="evenodd" clip-rule="evenodd" d="M196.805 186.412C197.048 186.279 197.352 186.368 197.484 186.61C199.393 190.091 199.549 194.109 197.336 197.022L197.332 197.026L197.332 197.026C195.698 199.128 193.04 200.147 190.322 200.147C190.046 200.147 189.822 199.923 189.822 199.647C189.822 199.371 190.046 199.147 190.322 199.147C192.809 199.147 195.139 198.216 196.541 196.414C198.447 193.905 198.386 190.333 196.607 187.091C196.475 186.849 196.563 186.545 196.805 186.412Z" fill="#0056FE"/>
<path fill-rule="evenodd" clip-rule="evenodd" d="M260.506 225.452C258.9 228.95 260.286 233.266 263.71 235.326C262.405 232.986 262.215 230.107 263.505 227.519C265.077 224.09 268.637 222.258 272.267 222.624C271.874 222.36 271.451 222.119 271.003 221.895C266.908 219.952 262.335 221.594 260.506 225.452ZM264.038 236.632C259.591 234.557 257.64 229.293 259.598 225.032L259.601 225.027C261.675 220.647 266.859 218.819 271.437 220.994L271.446 220.998C272.564 221.557 273.601 222.243 274.418 223.177L275.612 224.541L273.888 223.981C270.098 222.752 266.033 224.396 264.411 227.943L264.408 227.951L264.404 227.959C262.985 230.797 263.587 234.047 265.628 236.291L266.915 237.707L265.082 237.096C264.774 236.994 264.408 236.872 264.038 236.632Z" fill="#0056FE"/>
<path fill-rule="evenodd" clip-rule="evenodd" d="M273.777 223.981C270.097 222.755 265.926 224.398 264.304 227.944L264.303 227.947C262.982 230.791 263.588 234.048 265.629 236.293C265.815 236.497 265.8 236.813 265.596 236.999C265.391 237.185 265.075 237.17 264.889 236.965C262.593 234.439 261.897 230.756 263.395 227.527C265.245 223.484 269.965 221.657 274.093 223.033C274.355 223.12 274.497 223.403 274.409 223.665C274.322 223.927 274.039 224.069 273.777 223.981Z" fill="#0056FE"/>
<path fill-rule="evenodd" clip-rule="evenodd" d="M182.817 179.32L184.557 179.637C185.813 179.865 186.972 180.325 188.019 181.137C192.019 184.001 193.066 189.508 190.298 193.43C187.533 197.348 182.016 198.259 178.002 195.397L177.982 195.384C177.677 195.181 177.317 194.941 177.065 194.689L175.883 193.507L177.519 193.845C180.489 194.46 183.635 193.435 185.461 190.696L185.465 190.69L185.469 190.684C187.697 187.544 187.103 183.163 184.133 180.501L182.817 179.32ZM186.044 181.118C188.254 184.094 188.471 188.177 186.289 191.257C184.612 193.767 181.962 194.996 179.259 195.017C182.752 197.02 187.194 196.093 189.481 192.854C191.916 189.404 191.015 184.506 187.43 181.945L187.422 181.939L187.414 181.933C186.981 181.597 186.525 181.329 186.044 181.118Z" fill="#0056FE"/>
<path fill-rule="evenodd" clip-rule="evenodd" d="M184.095 179.903C184.279 179.697 184.595 179.68 184.801 179.864C188.121 182.841 188.828 187.786 186.285 191.37L186.283 191.373C184.213 194.248 180.759 195.514 177.425 194.824C177.155 194.768 176.981 194.503 177.037 194.233C177.093 193.963 177.357 193.789 177.628 193.845C180.583 194.456 183.636 193.337 185.47 190.79C187.697 187.651 187.102 183.271 184.133 180.609C183.928 180.424 183.91 180.108 184.095 179.903Z" fill="#0056FE"/>
<path d="M174.814 187.719C176.007 187.827 177.526 187.502 178.285 186.526C179.044 185.55 178.718 184.357 177.742 183.706C176.441 182.839 174.706 182.513 173.188 182.188C171.344 181.646 169.501 181.212 167.657 180.778C160.283 178.935 152.908 177.091 146.076 174.055C145.317 173.729 142.498 174.922 143.474 175.356C149.004 177.85 154.86 179.477 160.825 180.995C163.753 181.754 166.572 182.405 169.501 183.164C170.91 183.598 172.429 183.923 173.838 184.357C174.489 184.574 175.14 184.899 175.465 185.441C175.574 185.658 175.573 185.875 175.573 185.984C175.573 186.2 175.574 186.417 175.465 186.526C175.14 187.068 175.682 186.96 176.875 186.309C176.224 186.2 175.14 186.417 174.706 186.851C174.164 187.393 174.164 187.61 174.814 187.719Z" fill="#0056FE"/>
<path d="M272.635 232.834C271.876 232.4 272.418 232.075 272.31 231.532C272.418 231.315 272.418 231.315 272.093 231.532C271.659 231.641 271.768 231.641 272.201 231.749C272.418 231.858 272.744 231.966 273.069 232.075C274.479 232.617 275.78 233.159 277.19 233.81C279.901 235.003 282.612 236.196 285.323 237.388C290.746 239.666 296.276 241.835 302.024 243.245C302.675 243.461 303.542 243.245 304.193 242.811C304.518 242.702 305.277 242.052 304.518 241.943C297.252 240.208 290.312 237.172 283.48 234.244C281.853 233.484 280.118 232.834 278.491 232.075C276.973 231.424 275.238 230.556 273.611 230.339C272.31 230.231 270.683 230.556 269.707 231.424C268.948 232.075 268.623 233.484 269.599 234.027C270.141 234.352 271.117 234.135 271.659 233.918C271.876 233.701 273.177 233.159 272.635 232.834Z" fill="#0056FE"/>
<path d="M221.664 214.182C223.616 211.037 225.459 207.783 227.086 204.53C227.195 204.204 226.761 203.988 226.652 204.204C225.026 207.458 223.182 210.711 221.23 213.856C221.013 214.182 221.447 214.507 221.664 214.182Z" fill="#0056FE"/>
<path d="M223.073 203.986C223.182 205.071 223.399 206.155 223.724 207.24C223.832 207.565 224.375 207.457 224.266 207.131C223.941 206.155 223.724 205.071 223.615 204.095C223.615 203.986 223.507 203.77 223.29 203.77C223.182 203.77 223.073 203.878 223.073 203.986Z" fill="#0056FE"/>
<path d="M224.701 211.035C224.81 212.336 224.918 213.529 225.027 214.831C225.027 215.156 225.569 215.156 225.569 214.831C225.46 213.529 225.352 212.336 225.243 211.035C225.243 210.71 224.701 210.71 224.701 211.035Z" fill="#0056FE"/>
<path d="M218.193 210.167C219.386 209.95 220.579 209.733 221.663 209.516C221.989 209.407 221.88 208.974 221.555 208.974C220.362 209.191 219.169 209.407 218.085 209.624C217.651 209.624 217.759 210.167 218.193 210.167Z" fill="#0056FE"/>
<path d="M226.219 208.867C227.628 208.433 228.93 208.107 230.34 207.782C230.665 207.674 230.556 207.131 230.231 207.24C228.821 207.565 227.411 207.891 226.11 208.324C225.676 208.433 225.785 208.975 226.219 208.867Z" fill="#0056FE"/>
<path d="M218.736 205.722C222.314 208.216 225.893 210.71 229.472 213.205C229.797 213.421 230.014 212.879 229.797 212.771C226.219 210.276 222.64 207.782 219.061 205.288C218.736 204.963 218.519 205.505 218.736 205.722Z" fill="#0056FE"/>
<path d="M234.894 198.889C234.46 198.456 235.111 197.805 235.328 197.48C235.653 197.046 236.087 196.504 236.412 196.07C237.063 195.202 237.822 194.335 238.581 193.467C240.099 191.732 241.726 190.214 243.678 188.912C245.63 187.611 247.69 186.635 250.076 186.31C252.245 185.984 254.848 186.093 255.715 188.479C256.149 189.563 255.932 190.864 255.282 191.84C254.956 192.383 254.414 192.925 253.763 193.142C253.004 193.359 252.137 192.925 252.137 192.057C252.137 191.623 251.161 191.732 251.052 192.166C250.944 193.467 252.245 194.118 253.33 193.901C254.522 193.684 255.607 192.816 256.258 191.84C257.667 189.563 256.691 186.635 254.197 185.876C251.594 185.117 248.449 185.767 246.064 186.852C243.353 188.045 241.075 189.888 239.015 191.949C237.822 193.25 236.629 194.551 235.544 195.961C235.002 196.612 234.46 197.263 234.026 197.913C233.701 198.347 233.484 198.998 233.918 199.432C234.243 199.648 235.219 199.215 234.894 198.889Z" fill="#0056FE"/>
<path d="M228.821 195.528C231.966 191.624 235.22 187.069 233.81 181.755C232.508 176.767 228.062 173.405 223.291 172.103C218.627 170.802 212.988 171.019 209.301 174.489C207.674 176.007 206.59 178.068 206.59 180.345C206.59 181.538 207.024 182.731 207.891 183.49C208.867 184.249 210.169 184.792 211.253 185.009C212.554 185.334 213.964 185.334 215.374 185.009C216.458 184.792 217.76 184.466 218.519 183.49C219.061 182.731 219.061 181.321 217.977 181.104C217.218 180.996 216.025 181.321 215.916 182.189C215.916 182.406 216.892 182.297 217.001 181.972C217.109 181.43 217.434 181.538 217.76 181.864C218.085 182.297 218.085 182.84 217.868 183.382C217.326 184.466 215.916 184.683 214.832 184.792C212.771 185.008 210.06 184.466 208.65 182.84C207.241 181.321 207.674 178.827 208.542 177.092C209.409 175.357 210.819 173.947 212.554 173.079C216.458 171.019 221.664 171.887 225.568 173.73C229.255 175.465 232.292 178.719 233.159 182.84C234.135 187.828 231.099 192.057 228.171 195.745C227.628 195.853 228.604 195.745 228.821 195.528Z" fill="#0056FE"/>
<path d="M241.725 179.26C240.64 180.345 239.339 181.321 238.58 182.731C238.038 183.815 237.821 185.333 238.797 186.309C239.014 186.526 239.448 186.418 239.556 186.309C240.857 185.442 242.267 184.466 243.135 183.056C243.894 181.863 244.111 180.345 243.243 179.152C243.026 178.827 242.05 179.26 242.267 179.586C243.026 180.67 242.809 182.08 242.05 183.056C241.291 184.249 239.99 185.116 238.797 185.876C239.122 185.876 239.339 185.876 239.556 185.876C238.688 185.008 238.905 183.598 239.448 182.514C240.207 181.321 241.291 180.345 242.267 179.369C242.376 179.26 242.376 179.044 242.159 179.044C242.267 178.935 241.942 179.044 241.725 179.26Z" fill="#0056FE"/>
<path d="M210.602 220.578C206.915 225.242 204.312 230.772 200.191 235.11C196.613 239.014 191.733 242.051 186.31 241.075C184.033 240.641 181.756 239.556 180.346 237.604C178.719 235.544 178.068 232.833 178.068 230.23C177.96 225.133 179.044 217.976 184.358 215.698C186.853 214.614 190.106 215.807 191.407 218.301C191.95 219.386 192.058 220.687 191.516 221.88C191.082 223.073 189.997 224.374 188.588 224.374C188.371 224.374 187.937 224.374 187.829 224.591C187.72 224.699 187.612 224.808 187.937 224.808C190.323 224.808 192.492 223.181 192.817 220.795C193.251 218.193 191.299 216.024 189.021 215.373C186.527 214.614 183.816 215.373 181.756 216.891C179.261 218.843 177.96 221.88 177.418 224.916C176.442 230.555 176.659 237.821 182.515 240.641C187.612 243.027 193.468 241.508 197.806 238.255C203.987 233.7 207.023 226.326 211.687 220.47C211.795 220.362 211.253 220.362 211.253 220.362C211.036 220.362 210.711 220.47 210.602 220.578Z" fill="#0056FE"/>
<path d="M202.579 241.29C201.061 242.917 199.651 244.652 198.349 246.496C197.699 247.363 197.048 248.339 196.506 249.315C195.964 250.183 195.313 251.051 194.988 252.027C194.771 252.677 194.771 253.545 195.638 253.762C196.506 253.979 197.373 253.436 198.024 253.003C199.651 252.027 200.952 250.508 201.928 248.882C203.121 246.713 203.772 244.11 204.206 241.724C204.314 241.29 203.23 241.399 203.121 241.833C202.579 245.303 201.603 249.099 198.892 251.593C198.241 252.135 197.59 252.677 196.831 253.003C196.506 253.111 196.181 253.219 196.072 252.894C195.964 252.786 195.964 252.569 196.072 252.46C196.181 252.027 196.397 251.701 196.614 251.267C197.482 249.641 198.458 248.123 199.542 246.604C200.735 244.869 202.145 243.242 203.555 241.616C203.88 241.074 202.904 240.965 202.579 241.29Z" fill="#0056FE"/>
<path d="M216.783 225.35C215.048 228.495 213.53 231.749 212.337 235.111C211.686 236.846 211.035 238.581 210.71 240.316C210.385 241.726 210.059 243.786 210.927 244.979C211.794 246.064 213.313 246.497 214.614 246.497C216.132 246.497 217.542 246.064 218.735 245.196C220.904 243.786 223.398 240.533 222.422 237.822C221.988 236.52 220.795 235.653 219.386 235.87C218.193 236.087 216.783 237.063 217.108 238.472C217.217 238.689 218.193 238.472 218.193 238.147C218.084 237.605 218.193 237.063 218.627 236.629C219.277 235.978 220.036 236.303 220.579 236.846C221.446 237.605 221.663 238.906 221.446 240.099C221.012 242.376 219.06 244.871 216.783 245.738C215.373 246.28 213.746 246.172 212.554 245.304C211.361 244.545 211.252 243.244 211.361 241.943C211.577 239.123 212.77 236.303 213.746 233.701C214.831 230.773 216.241 227.953 217.759 225.242C217.976 225.025 217 225.025 216.783 225.35Z" fill="#0056FE"/>
<path fill-rule="evenodd" clip-rule="evenodd" d="M345.942 255.222C342.616 255.222 339.919 257.918 339.919 261.245C339.919 264.572 342.616 267.268 345.942 267.268C349.269 267.268 351.966 264.572 351.966 261.245C351.966 257.918 349.269 255.222 345.942 255.222ZM339.169 261.245C339.169 257.504 342.201 254.472 345.942 254.472C349.683 254.472 352.716 257.504 352.716 261.245C352.716 264.986 349.683 268.018 345.942 268.018C342.201 268.018 339.169 264.986 339.169 261.245Z" fill="#0056FE"/>
<path d="M345.943 254.956C344.858 253.764 343.449 252.245 344.208 250.51C344.533 249.643 345.509 249.317 346.16 248.883C346.81 248.45 347.353 247.907 347.895 247.365C348.762 246.389 349.413 245.088 349.305 243.678C349.196 242.377 348.437 241.292 347.244 240.75C347.027 240.967 346.81 241.184 346.593 241.401C349.413 242.268 351.04 245.522 349.305 248.124C348.871 248.775 348.22 249.1 347.678 249.643C347.244 250.076 346.919 250.619 346.81 251.161C346.485 252.354 346.485 253.98 347.244 254.956C347.569 255.282 348.545 254.848 348.22 254.523C347.678 253.872 347.678 253.004 347.678 252.245C347.678 251.486 347.786 250.727 348.329 250.185C348.871 249.643 349.521 249.209 350.064 248.667C350.497 248.124 350.714 247.582 350.931 246.931C351.69 244.22 349.738 241.618 347.136 240.858C346.702 240.75 345.943 241.292 346.485 241.509C347.786 242.051 348.22 243.57 348.003 244.871C347.786 246.498 346.485 247.691 345.184 248.558C343.991 249.317 342.798 249.968 342.798 251.595C342.798 253.113 343.882 254.414 344.858 255.499C345.292 255.824 346.268 255.39 345.943 254.956Z" fill="#0056FE"/>
<path d="M352.991 261.028C354.184 259.835 356.245 258.317 357.655 260.161C358.197 260.811 358.522 261.57 358.956 262.113C359.39 262.763 360.04 263.306 360.691 263.739C362.643 265.041 366.113 264.824 367.089 262.438C366.764 262.546 366.439 262.546 366.005 262.546C365.571 263.956 364.704 265.149 363.294 265.691C361.884 266.234 360.149 265.691 359.173 264.499C358.631 263.956 358.305 263.306 357.655 262.98C357.112 262.655 356.57 262.546 355.919 262.546C354.727 262.438 353.317 262.546 352.449 263.414C352.232 263.631 352.666 263.631 352.666 263.631C352.883 263.631 353.208 263.522 353.317 263.414C353.967 262.872 355.269 263.089 356.028 263.197C356.895 263.414 357.329 263.956 357.871 264.607C358.739 265.691 359.932 266.342 361.342 266.451C363.945 266.667 366.33 264.932 367.089 262.438C367.198 262.113 366.113 262.33 366.005 262.546C365.354 264.065 363.728 264.282 362.318 263.739C360.8 263.089 359.715 261.679 358.956 260.378C358.197 259.185 357.221 258.642 355.703 258.859C354.184 259.076 352.991 260.052 351.907 261.028C351.69 261.245 352.015 261.245 352.124 261.245C352.558 261.354 352.775 261.245 352.991 261.028Z" fill="#0056FE"/>
<path d="M344.75 268.078C345.509 269.38 346.702 271.44 345.401 272.85C344.859 273.5 343.883 273.609 343.123 273.934C342.473 274.26 341.822 274.585 341.28 275.019C340.195 275.778 339.436 276.971 339.219 278.272C339.111 279.573 339.436 280.875 340.521 281.634C340.738 281.417 341.063 281.2 341.28 281.092C338.677 279.682 337.593 276.103 339.979 273.934C340.521 273.392 341.171 273.175 341.822 272.85C342.364 272.524 342.798 271.982 343.015 271.44C343.557 270.356 343.883 268.729 343.232 267.644C343.015 267.211 342.039 267.644 342.256 268.078C342.69 268.729 342.473 269.596 342.256 270.356C342.039 271.223 341.714 271.982 340.955 272.416C340.304 272.741 339.762 272.958 339.219 273.5C338.786 273.934 338.352 274.476 338.027 275.019C336.725 277.513 338.026 280.441 340.412 281.742C340.738 281.959 341.714 281.525 341.171 281.2C339.979 280.333 339.762 278.706 340.304 277.404C340.955 275.995 342.364 275.019 343.774 274.476C345.075 273.934 346.377 273.5 346.702 271.982C347.028 270.464 346.268 268.946 345.509 267.644C345.509 267.211 344.425 267.536 344.75 268.078Z" fill="#0056FE"/>
<path d="M339.653 260.055C338.569 259.079 337.376 258.103 335.857 257.994C334.448 257.994 333.363 258.536 332.713 259.729C331.845 261.031 330.761 262.657 329.242 263.091C327.832 263.525 326.206 262.766 325.664 261.464C325.555 261.139 324.579 261.464 324.579 261.79C325.338 264.392 327.832 266.019 330.544 265.477C331.737 265.26 332.929 264.609 333.689 263.633C334.339 262.874 334.773 262.332 335.857 262.224C336.725 262.115 337.593 262.115 338.243 262.766C338.46 262.983 339.436 262.549 339.219 262.44C338.243 261.573 336.725 261.681 335.641 261.898C335.098 262.007 334.448 262.115 334.014 262.44C333.363 262.874 333.038 263.416 332.604 263.959C330.218 266.561 326.531 264.392 325.664 261.573C325.338 261.681 325.013 261.79 324.579 261.898C325.664 264.501 329.134 264.067 331.086 262.766C331.628 262.332 332.17 261.898 332.604 261.248C333.146 260.597 333.472 259.838 334.014 259.187C335.424 257.56 337.593 259.512 338.677 260.488C338.894 260.705 339.87 260.272 339.653 260.055Z" fill="#0056FE"/>
<path d="M349.955 255.39C349.955 254.739 350.171 253.98 350.605 253.438C351.147 252.787 351.907 252.571 352.666 252.571C353.967 252.462 355.16 252.245 356.353 251.703C358.413 250.727 360.148 248.883 360.908 246.714C360.908 246.606 360.799 246.498 360.691 246.498C359.064 246.281 358.956 248.45 358.956 249.534C359.064 251.052 359.389 253.113 357.654 253.98C356.244 254.631 354.726 254.631 353.533 255.715C352.34 256.8 351.798 258.427 351.364 259.836C351.256 260.162 352.34 260.053 352.449 259.728C352.883 258.318 353.316 256.691 354.509 255.715C355.594 254.848 357.112 254.848 358.413 254.197C359.606 253.547 360.148 252.462 360.148 251.161C360.148 250.51 360.04 249.859 360.04 249.209C360.04 248.775 360.04 248.341 360.04 248.016C360.04 247.799 360.148 247.04 360.365 246.931C360.148 246.931 360.04 246.931 359.823 247.04H359.932C359.823 246.931 359.823 246.931 359.715 246.823C358.956 249.317 356.787 251.378 354.184 251.811C352.883 252.028 351.473 251.92 350.28 252.679C349.304 253.33 348.762 254.523 348.87 255.715C348.87 256.041 349.955 255.824 349.955 255.39Z" fill="#0056FE"/>
<path d="M342.364 255.932C343.123 254.848 343.123 253.438 342.581 252.245C341.93 251.052 340.737 250.185 339.436 249.643C337.05 248.667 332.821 248.775 332.929 245.196C332.929 244.654 331.953 244.763 331.845 245.305C331.519 246.823 331.302 248.558 331.736 250.076C332.17 251.595 333.58 251.812 334.881 252.245C336.182 252.679 337.592 253.438 338.026 254.956C338.351 256.258 338.351 257.993 340.086 258.21C340.629 258.318 341.171 257.451 340.412 257.451C339.653 257.342 339.327 256.475 339.219 255.824C339.11 255.173 339.002 254.414 338.677 253.872C338.134 252.896 337.05 252.245 335.965 251.812C334.773 251.378 333.146 251.269 332.712 249.86C332.278 248.45 332.604 246.715 332.821 245.305L331.736 245.413C331.628 246.715 332.278 248.016 333.363 248.775C334.339 249.534 335.64 249.751 336.833 250.076C338.134 250.402 339.544 250.727 340.52 251.703C341.605 252.679 342.147 254.414 341.279 255.716C341.062 256.149 342.038 256.366 342.364 255.932Z" fill="#0056FE"/>
<path d="M340.736 264.174C340.302 263.306 339.326 263.414 338.567 263.631C337.483 264.065 337.049 265.15 336.615 266.126C335.531 268.62 333.362 271.982 330.217 270.897C330.108 270.897 329.132 271.114 329.241 271.331C331.084 272.958 334.229 273.608 336.29 272.09C337.266 271.331 337.7 270.247 338.459 269.271C339.435 267.969 340.845 267.21 342.471 267.427C342.688 267.427 343.664 266.993 343.122 266.993C340.736 266.776 338.459 267.861 337.157 269.813C336.398 270.897 335.748 272.524 334.229 272.632C332.711 272.741 331.301 272.09 330.217 271.114C329.891 271.223 329.566 271.331 329.349 271.548C331.518 272.307 334.012 271.223 335.531 269.596C336.398 268.728 337.049 267.535 337.591 266.451C337.917 265.909 339.001 262.872 339.76 264.607C339.76 264.716 340.736 264.39 340.736 264.174Z" fill="#0056FE"/>
<path d="M351.691 265.367C351.799 265.15 351.799 265.15 352.016 265.15C352.233 265.15 352.341 265.258 352.558 265.367C352.884 265.584 353.101 265.909 353.209 266.234C353.534 266.885 353.751 267.644 353.968 268.403C354.293 269.813 354.402 271.331 355.161 272.633C355.703 273.609 356.679 274.259 357.872 274.259C358.848 274.259 359.933 273.934 360.583 273.066C360.692 272.958 359.716 273.066 359.716 273.175C359.173 273.5 358.848 273.826 358.414 274.259C357.981 274.802 357.438 275.452 356.679 275.561C355.269 275.778 353.86 274.802 353.209 273.609C352.884 273.066 352.558 272.416 352.45 271.765C352.341 271.114 352.341 270.355 352.125 269.705C351.908 269.054 351.582 268.62 350.932 268.295C350.172 267.861 349.522 267.427 348.763 266.994C348.546 266.885 347.678 267.319 347.787 267.319C348.546 267.861 349.413 268.295 350.172 268.837C351.04 269.379 351.04 270.247 351.148 271.114C351.365 272.633 351.908 274.151 353.209 275.127C354.293 275.995 355.812 276.103 357.113 275.778C357.764 275.561 358.306 275.235 358.848 274.693C359.39 274.151 359.824 273.5 360.583 273.066C360.258 273.066 359.933 273.175 359.716 273.175C358.848 274.476 357.221 273.392 356.571 272.416C355.812 271.223 355.595 269.813 355.378 268.403C355.161 267.21 354.836 265.475 353.751 264.825C352.992 264.391 351.582 264.608 351.04 265.367C350.932 265.475 351.365 265.475 351.474 265.475C351.257 265.584 351.474 265.475 351.691 265.367Z" fill="#0056FE"/>
<path d="M347.786 274.584C348.003 275.777 348.328 276.861 348.545 278.054C348.653 278.38 349.63 278.054 349.63 277.729L348.87 274.259C348.762 273.933 347.677 274.259 347.786 274.584Z" fill="#0056FE"/>
<path d="M356.787 268.73C357.763 269.056 358.848 269.273 359.824 269.381C360.041 269.381 360.366 269.273 360.474 269.056C360.583 268.839 360.366 268.622 360.149 268.622C359.607 268.622 359.173 268.513 358.739 268.405C358.305 268.297 357.872 268.188 357.438 268.08C357.221 267.971 356.896 268.08 356.679 268.297C356.462 268.405 356.57 268.622 356.787 268.73Z" fill="#0056FE"/>
<path d="M360.909 257.232C361.993 256.798 362.969 256.473 364.162 256.256C364.271 256.256 364.704 256.148 364.596 255.931C364.596 255.714 364.054 255.822 364.054 255.931C362.861 256.256 361.668 256.582 360.583 257.015C360.475 257.015 360.15 257.232 360.258 257.341C360.367 257.341 360.692 257.232 360.909 257.232Z" fill="#0056FE"/>
<path d="M351.69 250.726C352.015 250.401 352.341 250.076 352.666 249.75C352.774 249.642 352.883 249.642 352.883 249.534L352.991 249.425C352.883 249.534 352.991 249.425 352.991 249.425C352.991 249.425 352.991 249.425 353.1 249.425C353.316 249.317 353.425 249.1 353.642 248.991C353.75 248.883 353.859 248.883 353.859 248.774C353.859 248.666 353.859 248.558 353.75 248.558C353.533 248.449 353.208 248.449 352.991 248.666C352.232 249.317 351.473 249.967 350.714 250.726C350.605 250.943 350.605 251.16 350.822 251.16C351.148 250.943 351.473 250.835 351.69 250.726Z" fill="#0056FE"/>
<path d="M340.194 242.377C340.519 243.895 340.953 245.521 341.279 247.04C341.387 247.474 342.472 247.257 342.363 246.714C342.038 245.196 341.604 243.569 341.279 242.051C341.17 241.726 340.086 241.943 340.194 242.377Z" fill="#0056FE"/>
<path d="M330.435 254.848C331.953 255.282 333.471 255.824 334.99 256.366C335.206 256.475 335.532 256.366 335.749 256.258C335.857 256.149 336.074 255.932 335.857 255.932C334.339 255.39 332.821 254.956 331.302 254.414C331.085 254.306 330.76 254.414 330.543 254.522C330.435 254.522 330.109 254.848 330.435 254.848Z" fill="#0056FE"/>
<path d="M332.388 267.645L334.774 265.91C334.882 265.91 334.882 265.802 334.882 265.693C334.882 265.585 334.774 265.585 334.665 265.585C334.449 265.585 334.123 265.585 333.906 265.802L331.521 267.537C331.412 267.537 331.412 267.645 331.412 267.754C331.412 267.862 331.521 267.862 331.629 267.862C331.954 267.862 332.171 267.754 332.388 267.645Z" fill="#0056FE"/>
<path d="M333.58 276.97C334.664 275.886 335.64 274.801 336.725 273.717C336.942 273.5 336.616 273.5 336.508 273.5C336.291 273.5 335.966 273.608 335.857 273.717C334.773 274.801 333.797 275.886 332.712 276.97C332.604 277.187 332.821 277.187 332.929 277.187C333.038 277.187 333.363 277.079 333.58 276.97Z" fill="#0056FE"/>
<path fill-rule="evenodd" clip-rule="evenodd" d="M175.094 148.065C174.874 148.145 174.62 148.06 174.495 147.852C174.353 147.615 174.43 147.308 174.667 147.166C174.727 147.13 174.783 147.113 174.801 147.107C174.828 147.099 174.855 147.093 174.877 147.088C174.916 147.08 174.962 147.072 175.009 147.065C175.103 146.856 175.332 146.731 175.566 146.779L175.52 147.006C175.52 147.006 175.52 147.006 175.52 147.006C175.566 146.779 175.566 146.779 175.566 146.779L175.721 146.81C175.823 146.831 175.975 146.862 176.173 146.901C176.225 146.912 176.281 146.923 176.339 146.934C176.523 146.92 176.723 146.905 176.937 146.89C178.189 146.8 179.95 146.698 182.063 146.607C186.289 146.423 191.932 146.281 197.732 146.362C203.529 146.444 209.498 146.749 214.373 147.466C216.809 147.824 218.988 148.287 220.742 148.882C222.478 149.472 223.872 150.216 224.655 151.184C225.035 151.653 225.279 152.19 225.106 152.729C224.939 153.252 224.447 153.558 223.93 153.747C222.876 154.135 221.121 154.258 218.966 154.22C214.615 154.143 208.314 153.396 201.867 152.44C195.413 151.483 188.788 150.313 183.778 149.382C181.272 148.917 179.17 148.511 177.694 148.222C177.126 148.11 176.65 148.016 176.28 147.942C175.993 147.966 175.751 147.987 175.557 148.007C175.386 148.024 175.257 148.04 175.169 148.052C175.134 148.057 175.11 148.062 175.094 148.065ZM180.228 147.694C181.325 147.905 182.582 148.143 183.96 148.399C188.964 149.329 195.576 150.497 202.014 151.451C208.458 152.407 214.703 153.144 218.984 153.22C221.145 153.258 222.727 153.124 223.585 152.809C224.025 152.647 224.133 152.49 224.154 152.424C224.17 152.375 224.19 152.198 223.878 151.813C223.279 151.073 222.111 150.403 220.42 149.829C218.747 149.261 216.634 148.809 214.227 148.455C209.416 147.748 203.497 147.443 197.718 147.362C191.941 147.281 186.319 147.423 182.106 147.606C181.444 147.635 180.816 147.664 180.228 147.694Z" fill="#0056FE"/>
<path d="M228.061 226.11C229.146 234.569 230.339 243.028 231.748 251.487C233.158 260.054 234.785 268.621 236.52 277.08C236.954 279.249 237.387 281.418 237.93 283.587C238.363 285.213 239.231 286.84 240.966 287.274C241.292 287.382 241.725 287.274 241.834 286.948C243.677 278.815 242.268 270.356 240.641 262.331C239.014 254.306 236.954 246.39 234.134 238.69C232.616 234.352 230.881 230.014 228.929 225.785C228.929 225.351 227.953 225.676 228.061 226.11C231.423 233.593 234.243 241.293 236.411 249.101C238.58 256.909 240.424 264.825 241.292 272.959C241.834 277.731 241.834 282.502 240.749 287.165C241.075 287.057 241.292 286.948 241.617 286.84C239.99 286.298 239.34 284.563 238.906 283.153C238.364 281.309 238.038 279.357 237.604 277.514C236.737 273.393 235.869 269.272 235.11 265.151C233.483 256.8 232.182 248.45 230.881 239.991C230.23 235.328 229.579 230.665 228.929 226.002C229.146 225.351 228.061 225.676 228.061 226.11Z" fill="#0056FE"/>
<path d="M249.1 203.552C257.993 200.732 267.211 198.997 276.429 198.346C277.622 198.238 278.706 198.129 279.899 198.129C280.875 198.129 281.959 198.129 282.61 198.78C283.152 199.214 283.261 199.973 282.502 200.19C281.959 200.407 281.417 200.515 280.875 200.624C279.79 200.84 278.598 201.057 277.513 201.166C272.85 201.6 268.078 201.708 263.415 202.033C260.704 202.142 257.884 202.359 255.173 202.467C253.872 202.576 252.462 202.576 251.161 202.684C250.51 202.684 249.751 202.684 249.1 202.792C248.558 202.901 247.907 203.118 247.365 203.335C246.714 203.552 246.931 204.094 247.474 203.877C248.016 203.66 248.558 203.443 249.209 203.335C249.859 203.226 250.51 203.226 251.269 203.226L255.282 203.009C257.884 202.901 260.487 202.684 263.09 202.576C265.693 202.467 268.404 202.25 271.006 202.142C273.501 202.033 275.995 201.925 278.381 201.6C279.574 201.491 280.658 201.274 281.742 200.949C282.502 200.732 283.803 200.515 284.02 199.648C284.237 198.78 283.478 198.021 282.719 197.696C281.851 197.37 280.983 197.262 280.116 197.262C275.127 197.37 270.139 197.912 265.259 198.78C259.728 199.756 254.197 201.057 248.775 202.684C248.341 203.226 248.45 203.768 249.1 203.552Z" fill="#0056FE"/>
<path d="M244.111 242.81C246.714 251.703 249.642 260.595 253.979 268.837C254.739 270.138 255.715 272.633 257.558 272.416C258.317 272.307 258.968 271.982 259.293 271.223C259.619 270.355 259.51 269.162 259.293 268.186C258.86 265.801 257.992 263.523 257.016 261.246C256.148 259.077 255.172 257.016 254.088 255.064C251.594 250.51 248.557 246.28 245.087 242.485C244.978 242.268 244.002 242.702 244.111 242.81C249.967 249.208 254.413 256.691 257.233 264.825C257.667 265.909 257.992 267.102 258.209 268.186C258.426 269.162 258.643 270.355 258.317 271.331C258.1 271.874 257.884 272.09 257.341 271.765C256.908 271.548 256.582 271.114 256.257 270.681C255.715 269.922 255.281 268.945 254.739 268.078C252.787 264.282 251.16 260.27 249.642 256.257C248.015 251.811 246.497 247.148 245.195 242.593C245.087 242.268 244.002 242.593 244.111 242.81Z" fill="#0056FE"/>
<path d="M270.247 210.601C277.73 209.625 285.321 209.191 292.804 209.3C294.105 209.3 296.274 209.3 297.142 210.493C297.793 211.469 296.166 211.686 295.515 211.794C294.539 211.902 293.563 212.011 292.696 212.011C289.225 211.902 285.863 211.143 282.393 210.818C280.441 210.601 278.598 210.601 276.646 210.493C275.67 210.384 274.585 210.276 273.609 210.276C272.633 210.167 271.657 210.276 270.681 210.276C270.464 210.276 270.03 210.276 269.922 210.493C269.813 210.601 269.705 210.71 270.03 210.71C271.006 210.71 271.982 210.601 272.958 210.71C273.934 210.818 275.019 210.926 275.995 210.926C277.947 211.035 279.899 211.035 281.851 211.252C285.647 211.686 289.442 212.553 293.346 212.445C294.214 212.445 295.081 212.336 295.84 212.119C296.491 212.011 297.25 211.902 297.901 211.469C299.419 210.276 296.816 209.3 295.949 209.083C294.214 208.758 292.37 208.866 290.527 208.866C288.466 208.866 286.406 208.974 284.345 208.974C279.682 209.191 275.019 209.625 270.464 210.167C270.03 210.276 269.597 210.71 270.247 210.601Z" fill="#0056FE"/>
<path d="M187.503 293.996C183.274 292.912 178.719 291.393 175.791 287.923C173.297 284.887 172.321 280.115 174.815 276.862C174.598 276.97 174.273 276.97 174.056 277.078C176.225 277.729 177.743 279.356 179.153 281.091C180.563 282.826 181.864 284.67 183.382 286.405C186.31 289.658 189.889 292.586 194.118 293.888C195.853 294.43 197.805 294.647 199.541 293.996C201.167 293.454 202.36 292.044 202.252 290.309C202.035 285.429 195.745 284.67 192.275 282.935C188.045 280.766 184.467 277.512 181.105 274.15C179.587 272.632 177.201 270.789 177.201 268.511C177.201 267.427 177.634 266.342 178.827 266.125C180.02 266.017 181.213 266.559 182.189 267.21C185.985 269.596 187.828 273.825 190.756 276.97C192.166 278.488 193.901 279.79 195.962 280.332C197.697 280.766 200.083 280.874 200.95 278.922C201.709 277.187 200.842 275.126 199.649 273.825C198.348 272.307 196.613 271.331 194.877 270.572C193.251 269.813 191.082 269.27 189.997 267.644C189.347 266.559 189.672 265.475 190.323 264.499C190.973 263.306 191.732 262.113 192.383 261.028C193.142 259.836 193.793 258.643 194.552 257.45C194.877 257.016 193.793 257.016 193.576 257.341C192.166 259.727 190.756 262.004 189.347 264.39C188.804 265.258 188.479 266.125 188.696 267.101C188.913 267.861 189.347 268.511 189.997 269.053C191.407 270.246 193.359 270.789 195.094 271.548C196.829 272.415 198.565 273.5 199.541 275.235C200.083 276.102 200.3 277.187 200.191 278.163C200.083 278.705 199.974 279.247 199.541 279.573C199.107 280.006 198.348 280.006 197.805 279.898C195.528 279.681 193.576 278.271 192.058 276.753C189.13 273.825 187.286 269.813 183.924 267.21C182.406 266.017 180.237 264.932 178.285 265.583C176.55 266.125 175.899 268.077 176.442 269.704C177.092 271.765 179.153 273.391 180.671 274.91C182.298 276.536 184.033 278.163 185.768 279.573C187.503 280.982 189.455 282.392 191.407 283.368C193.468 284.453 195.637 284.995 197.805 285.971C199.649 286.839 201.601 288.682 201.384 290.851C201.167 292.912 199.107 293.671 197.263 293.562C195.203 293.454 193.034 292.586 191.299 291.502C189.347 290.417 187.612 288.899 186.093 287.381C184.575 285.754 183.057 284.127 181.755 282.284C180.563 280.657 179.261 278.814 177.634 277.621C176.875 277.078 176.008 276.536 175.032 276.319C174.815 276.211 174.49 276.319 174.273 276.536C172.212 279.139 172.212 282.609 173.514 285.646C174.923 289.007 177.851 291.176 181.105 292.586C183.057 293.454 185.117 294.104 187.178 294.647C187.286 294.755 188.154 294.213 187.503 293.996Z" fill="#0056FE"/>
</g>
</svg>
