<?xml version="1.0" encoding="UTF-8" standalone="no"?>
<!DOCTYPE svg PUBLIC "-//W3C//DTD SVG 1.1//EN" "http://www.w3.org/Graphics/SVG/1.1/DTD/svg11.dtd">
<svg width="100%" height="100%" viewBox="0 0 1920 2166" version="1.1" xmlns="http://www.w3.org/2000/svg" xmlns:xlink="http://www.w3.org/1999/xlink" xml:space="preserve" xmlns:serif="http://www.serif.com/" style="fill-rule:evenodd;clip-rule:evenodd;">
    <g transform="matrix(1,0,0,1,0,-1100)">
        <g opacity="0.75">
            <g>
                <path d="M2456.67,755.336L2802.11,3563L197.882,2458.33L2456.67,755.336Z" style="fill:none;fill-rule:nonzero;stroke:rgb(0,99,239);stroke-width:8px;"/>
            </g>
            <g>
                <path d="M2456.67,755.336L2802.11,3563L197.882,2458.33L2456.67,755.336Z" style="fill:none;fill-rule:nonzero;stroke:rgb(1,102,243);stroke-width:8px;"/>
            </g>
            <g>
                <path d="M2456.67,755.336L2802.11,3563L197.882,2458.33L2456.67,755.336Z" style="fill:none;fill-rule:nonzero;stroke:white;stroke-width:2px;"/>
            </g>
            <g>
                <path d="M2352.31,998.143L2641.73,3350.51L459.808,2424.97L2352.31,998.143Z" style="fill:none;fill-rule:nonzero;stroke:rgb(0,99,239);stroke-width:8px;"/>
            </g>
            <g>
                <path d="M2352.31,998.143L2641.73,3350.51L459.808,2424.97L2352.31,998.143Z" style="fill:none;fill-rule:nonzero;stroke:rgb(1,102,243);stroke-width:8px;"/>
            </g>
            <g opacity="0.9">
                <path d="M2352.31,998.143L2641.73,3350.51L459.808,2424.97L2352.31,998.143Z" style="fill:none;fill-rule:nonzero;stroke:white;stroke-width:2px;"/>
            </g>
            <g>
                <path d="M2275.2,1181.02L2522.61,3191.91L657.414,2400.73L2275.2,1181.02Z" style="fill:none;fill-rule:nonzero;stroke:rgb(0,99,239);stroke-width:8px;"/>
            </g>
            <g>
                <path d="M2275.2,1181.02L2522.61,3191.91L657.414,2400.73L2275.2,1181.02Z" style="fill:none;fill-rule:nonzero;stroke:rgb(1,102,243);stroke-width:8px;"/>
            </g>
            <g opacity="0.8">
                <path d="M2275.2,1181.02L2522.61,3191.91L657.414,2400.73L2275.2,1181.02Z" style="fill:none;fill-rule:nonzero;stroke:white;stroke-width:2px;"/>
            </g>
            <g>
                <path d="M2214.83,1323.56L2429.57,3068.86L810.721,2382.17L2214.83,1323.56Z" style="fill:none;fill-rule:nonzero;stroke:rgb(0,99,239);stroke-width:8px;"/>
            </g>
            <g>
                <path d="M2214.83,1323.56L2429.57,3068.86L810.721,2382.17L2214.83,1323.56Z" style="fill:none;fill-rule:nonzero;stroke:rgb(1,102,243);stroke-width:8px;"/>
            </g>
            <g opacity="0.7">
                <path d="M2214.83,1323.56L2429.57,3068.86L810.721,2382.17L2214.83,1323.56Z" style="fill:none;fill-rule:nonzero;stroke:white;stroke-width:2px;"/>
            </g>
            <g>
                <path d="M2163.28,1446.04L2350,2963.7L942.308,2366.58L2163.28,1446.04Z" style="fill:none;fill-rule:nonzero;stroke:rgb(0,99,239);stroke-width:8px;"/>
            </g>
            <g>
                <path d="M2163.28,1446.04L2350,2963.7L942.308,2366.58L2163.28,1446.04Z" style="fill:none;fill-rule:nonzero;stroke:rgb(1,102,243);stroke-width:8px;"/>
            </g>
            <g opacity="0.6">
                <path d="M2163.28,1446.04L2350,2963.7L942.308,2366.58L2163.28,1446.04Z" style="fill:none;fill-rule:nonzero;stroke:white;stroke-width:2px;"/>
            </g>
            <g opacity="0.25">
                <g>
                    <path d="M1991.15,1852.74L2084.52,2611.57L1380.67,2313.01L1991.15,1852.74Z" style="fill:none;fill-rule:nonzero;stroke:rgb(0,99,239);stroke-width:8px;"/>
                </g>
                <g>
                    <path d="M1991.15,1852.74L2084.52,2611.57L1380.67,2313.01L1991.15,1852.74Z" style="fill:none;fill-rule:nonzero;stroke:rgb(1,102,243);stroke-width:8px;"/>
                </g>
                <g>
                    <path d="M1991.15,1852.74L2084.52,2611.57L1380.67,2313.01L1991.15,1852.74Z" style="fill:none;fill-rule:nonzero;stroke:white;stroke-width:2px;"/>
                </g>
            </g>
            <g opacity="0.2">
                <g>
                    <path d="M1973.62,1892.85L2057.65,2575.8L1424.19,2307.1L1973.62,1892.85Z" style="fill:none;fill-rule:nonzero;stroke:rgb(0,99,239);stroke-width:8px;"/>
                </g>
                <g>
                    <path d="M1973.62,1892.85L2057.65,2575.8L1424.19,2307.1L1973.62,1892.85Z" style="fill:none;fill-rule:nonzero;stroke:rgb(1,102,243);stroke-width:8px;"/>
                </g>
                <g>
                    <path d="M1973.62,1892.85L2057.65,2575.8L1424.19,2307.1L1973.62,1892.85Z" style="fill:none;fill-rule:nonzero;stroke:white;stroke-width:2px;"/>
                </g>
            </g>
            <g opacity="0.15">
                <g>
                    <path d="M1956.02,1932.96L2030.71,2540.03L1467.63,2301.18L1956.02,1932.96Z" style="fill:none;fill-rule:nonzero;stroke:rgb(0,99,239);stroke-width:8px;"/>
                </g>
                <g>
                    <path d="M1956.02,1932.96L2030.71,2540.03L1467.63,2301.18L1956.02,1932.96Z" style="fill:none;fill-rule:nonzero;stroke:rgb(1,102,243);stroke-width:8px;"/>
                </g>
                <g>
                    <path d="M1956.02,1932.96L2030.71,2540.03L1467.63,2301.18L1956.02,1932.96Z" style="fill:none;fill-rule:nonzero;stroke:white;stroke-width:2px;"/>
                </g>
            </g>
            <g opacity="0.1">
                <g>
                    <path d="M1939.04,1974.15L2004.39,2505.33L1511.7,2296.34L1939.04,1974.15Z" style="fill:none;fill-rule:nonzero;stroke:rgb(0,99,239);stroke-width:8px;"/>
                </g>
                <g>
                    <path d="M1939.04,1974.15L2004.39,2505.33L1511.7,2296.34L1939.04,1974.15Z" style="fill:none;fill-rule:nonzero;stroke:rgb(1,102,243);stroke-width:8px;"/>
                </g>
                <g>
                    <path d="M1939.04,1974.15L2004.39,2505.33L1511.7,2296.34L1939.04,1974.15Z" style="fill:none;fill-rule:nonzero;stroke:white;stroke-width:2px;"/>
                </g>
            </g>
            <g opacity="0.1">
                <g>
                    <path d="M1922.29,2014.48L1978.31,2469.78L1556,2290.65L1922.29,2014.48Z" style="fill:none;fill-rule:nonzero;stroke:rgb(0,99,239);stroke-width:8px;"/>
                </g>
                <g>
                    <path d="M1922.29,2014.48L1978.31,2469.78L1556,2290.65L1922.29,2014.48Z" style="fill:none;fill-rule:nonzero;stroke:rgb(1,102,243);stroke-width:8px;"/>
                </g>
                <g>
                    <path d="M1922.29,2014.48L1978.31,2469.78L1556,2290.65L1922.29,2014.48Z" style="fill:none;fill-rule:nonzero;stroke:white;stroke-width:2px;"/>
                </g>
            </g>
            <g opacity="0.1">
                <g>
                    <path d="M1905.31,2055.68L1951.99,2435.09L1600.07,2285.81L1905.31,2055.68Z" style="fill:none;fill-rule:nonzero;stroke:rgb(0,99,239);stroke-width:8px;"/>
                </g>
                <g>
                    <path d="M1905.31,2055.68L1951.99,2435.09L1600.07,2285.81L1905.31,2055.68Z" style="fill:none;fill-rule:nonzero;stroke:rgb(1,102,243);stroke-width:8px;"/>
                </g>
                <g>
                    <path d="M1905.31,2055.68L1951.99,2435.09L1600.07,2285.81L1905.31,2055.68Z" style="fill:none;fill-rule:nonzero;stroke:white;stroke-width:2px;"/>
                </g>
            </g>
            <g opacity="0.1">
                <g>
                    <path d="M1887.71,2095.78L1925.06,2399.31L1643.52,2279.89L1887.71,2095.78Z" style="fill:none;fill-rule:nonzero;stroke:rgb(0,99,239);stroke-width:8px;"/>
                </g>
                <g>
                    <path d="M1887.71,2095.78L1925.06,2399.31L1643.52,2279.89L1887.71,2095.78Z" style="fill:none;fill-rule:nonzero;stroke:rgb(1,102,243);stroke-width:8px;"/>
                </g>
                <g>
                    <path d="M1887.71,2095.78L1925.06,2399.31L1643.52,2279.89L1887.71,2095.78Z" style="fill:none;fill-rule:nonzero;stroke:white;stroke-width:2px;"/>
                </g>
            </g>
            <g opacity="0.3">
                <g>
                    <path d="M2008.2,1811.56L2110.9,2646.27L1336.67,2317.85L2008.2,1811.56Z" style="fill:none;fill-rule:nonzero;stroke:rgb(0,99,239);stroke-width:8px;"/>
                </g>
                <g>
                    <path d="M2008.2,1811.56L2110.9,2646.27L1336.67,2317.85L2008.2,1811.56Z" style="fill:none;fill-rule:nonzero;stroke:rgb(1,102,243);stroke-width:8px;"/>
                </g>
                <g>
                    <path d="M2008.2,1811.56L2110.9,2646.27L1336.67,2317.85L2008.2,1811.56Z" style="fill:none;fill-rule:nonzero;stroke:white;stroke-width:2px;"/>
                </g>
            </g>
            <g opacity="0.35">
                <g>
                    <path d="M2025.18,1770.37L2137.21,2680.97L1292.6,2322.69L2025.18,1770.37Z" style="fill:none;fill-rule:nonzero;stroke:rgb(0,99,239);stroke-width:8px;"/>
                </g>
                <g>
                    <path d="M2025.18,1770.37L2137.21,2680.97L1292.6,2322.69L2025.18,1770.37Z" style="fill:none;fill-rule:nonzero;stroke:rgb(1,102,243);stroke-width:8px;"/>
                </g>
                <g>
                    <path d="M2025.18,1770.37L2137.21,2680.97L1292.6,2322.69L2025.18,1770.37Z" style="fill:none;fill-rule:nonzero;stroke:white;stroke-width:2px;"/>
                </g>
            </g>
            <g opacity="0.4">
                <g>
                    <path d="M2051.58,1710.21L2177.62,2734.63L1227.43,2331.57L2051.58,1710.21Z" style="fill:none;fill-rule:nonzero;stroke:rgb(0,99,239);stroke-width:8px;"/>
                </g>
                <g>
                    <path d="M2051.58,1710.21L2177.62,2734.63L1227.43,2331.57L2051.58,1710.21Z" style="fill:none;fill-rule:nonzero;stroke:rgb(0,99,239);stroke-width:8px;"/>
                </g>
                <g>
                    <path d="M2051.58,1710.21L2177.62,2734.63L1227.43,2331.57L2051.58,1710.21Z" style="fill:none;fill-rule:nonzero;stroke:white;stroke-width:2px;"/>
                </g>
            </g>
            <g opacity="0.47">
                <g>
                    <path d="M2077.36,1648.96L2217.41,2787.21L1161.64,2339.37L2077.36,1648.96Z" style="fill:none;fill-rule:nonzero;stroke:rgb(0,99,239);stroke-width:8px;"/>
                </g>
                <g>
                    <path d="M2077.36,1648.96L2217.41,2787.21L1161.64,2339.37L2077.36,1648.96Z" style="fill:none;fill-rule:nonzero;stroke:rgb(1,102,243);stroke-width:8px;"/>
                </g>
                <g>
                    <path d="M2077.36,1648.96L2217.41,2787.21L1161.64,2339.37L2077.36,1648.96Z" style="fill:none;fill-rule:nonzero;stroke:white;stroke-width:2px;"/>
                </g>
            </g>
            <g opacity="0.5">
                <g>
                    <path d="M2111.95,1567.67L2270.66,2857.68L1074.12,2350.13L2111.95,1567.67Z" style="fill:none;fill-rule:nonzero;stroke:rgb(0,99,239);stroke-width:8px;"/>
                </g>
                <g>
                    <path d="M2111.95,1567.67L2270.66,2857.68L1074.12,2350.13L2111.95,1567.67Z" style="fill:none;fill-rule:nonzero;stroke:rgb(1,102,243);stroke-width:8px;"/>
                </g>
                <g>
                    <path d="M2111.95,1567.67L2270.66,2857.68L1074.12,2350.13L2111.95,1567.67Z" style="fill:none;fill-rule:nonzero;stroke:white;stroke-width:2px;"/>
                </g>
            </g>
        </g>
    </g>
</svg>
