<?xml version="1.0" encoding="UTF-8" standalone="no"?>
<!DOCTYPE svg PUBLIC "-//W3C//DTD SVG 1.1//EN" "http://www.w3.org/Graphics/SVG/1.1/DTD/svg11.dtd">
<svg width="100%" height="100%" viewBox="0 0 1366 1002" version="1.1" xmlns="http://www.w3.org/2000/svg" xmlns:xlink="http://www.w3.org/1999/xlink" xml:space="preserve" xmlns:serif="http://www.serif.com/" style="fill-rule:evenodd;clip-rule:evenodd;">
    <g opacity="0.65">
        <g>
            <path d="M1742,-592.691L1365.19,985.984L186.423,-129.677L1742,-592.691Z" style="fill:none;fill-rule:nonzero;stroke:rgb(0,99,239);stroke-width:8px;"/>
        </g>
        <g>
            <path d="M1742,-592.691L1365.19,985.984L186.423,-129.677L1742,-592.691Z" style="fill:none;fill-rule:nonzero;stroke:rgb(1,102,243);stroke-width:8px;"/>
        </g>
        <g>
            <path d="M1742,-592.691L1365.19,985.984L186.423,-129.677L1742,-592.691Z" style="fill:none;fill-rule:nonzero;stroke:white;stroke-width:2px;"/>
        </g>
        <g>
            <path d="M1637.24,-483.063L1321.54,839.611L333.923,-95.131L1637.24,-483.063Z" style="fill:none;fill-rule:nonzero;stroke:rgb(0,99,239);stroke-width:8px;"/>
        </g>
        <g>
            <path d="M1637.24,-483.063L1321.54,839.611L333.923,-95.131L1637.24,-483.063Z" style="fill:none;fill-rule:nonzero;stroke:rgb(1,102,243);stroke-width:8px;"/>
        </g>
        <g opacity="0.9">
            <path d="M1637.24,-483.063L1321.54,839.611L333.923,-95.131L1637.24,-483.063Z" style="fill:none;fill-rule:nonzero;stroke:white;stroke-width:2px;"/>
        </g>
        <g>
            <path d="M1559.15,-400.195L1289.27,730.478L445.018,-68.576L1559.15,-400.195Z" style="fill:none;fill-rule:nonzero;stroke:rgb(0,99,239);stroke-width:8px;"/>
        </g>
        <g>
            <path d="M1559.15,-400.195L1289.27,730.478L445.018,-68.576L1559.15,-400.195Z" style="fill:none;fill-rule:nonzero;stroke:rgb(1,102,243);stroke-width:8px;"/>
        </g>
        <g opacity="0.8">
            <path d="M1559.15,-400.195L1289.27,730.478L445.018,-68.576L1559.15,-400.195Z" style="fill:none;fill-rule:nonzero;stroke:white;stroke-width:2px;"/>
        </g>
        <g>
            <path d="M1498.14,-335.656L1263.91,645.682L531.157,-47.836L1498.14,-335.656Z" style="fill:none;fill-rule:nonzero;stroke:rgb(0,99,239);stroke-width:8px;"/>
        </g>
        <g>
            <path d="M1498.14,-335.656L1263.91,645.682L531.157,-47.836L1498.14,-335.656Z" style="fill:none;fill-rule:nonzero;stroke:rgb(1,102,243);stroke-width:8px;"/>
        </g>
        <g opacity="0.7">
            <path d="M1498.14,-335.656L1263.91,645.682L531.157,-47.836L1498.14,-335.656Z" style="fill:none;fill-rule:nonzero;stroke:white;stroke-width:2px;"/>
        </g>
        <g>
            <path d="M1445.88,-280.137L1242.2,573.201L605.027,-29.858L1445.88,-280.137Z" style="fill:none;fill-rule:nonzero;stroke:rgb(0,99,239);stroke-width:8px;"/>
        </g>
        <g>
            <path d="M1445.88,-280.137L1242.2,573.201L605.027,-29.858L1445.88,-280.137Z" style="fill:none;fill-rule:nonzero;stroke:rgb(1,102,243);stroke-width:8px;"/>
        </g>
        <g opacity="0.6">
            <path d="M1445.88,-280.137L1242.2,573.201L605.027,-29.858L1445.88,-280.137Z" style="fill:none;fill-rule:nonzero;stroke:white;stroke-width:2px;"/>
        </g>
        <g opacity="0.25">
            <g>
                <path d="M1271.86,-95.968L1170.02,330.701L851.432,29.171L1271.86,-95.968Z" style="fill:none;fill-rule:nonzero;stroke:rgb(0,99,239);stroke-width:8px;"/>
            </g>
            <g>
                <path d="M1271.86,-95.968L1170.02,330.701L851.432,29.171L1271.86,-95.968Z" style="fill:none;fill-rule:nonzero;stroke:rgb(1,102,243);stroke-width:8px;"/>
            </g>
            <g>
                <path d="M1271.86,-95.968L1170.02,330.701L851.432,29.171L1271.86,-95.968Z" style="fill:none;fill-rule:nonzero;stroke:white;stroke-width:2px;"/>
            </g>
        </g>
        <g opacity="0.2">
            <g>
                <path d="M1254.39,-77.916L1162.74,306.086L876.011,34.709L1254.39,-77.916Z" style="fill:none;fill-rule:nonzero;stroke:rgb(0,99,239);stroke-width:8px;"/>
            </g>
            <g>
                <path d="M1254.39,-77.916L1162.74,306.086L876.011,34.709L1254.39,-77.916Z" style="fill:none;fill-rule:nonzero;stroke:rgb(1,102,243);stroke-width:8px;"/>
            </g>
            <g>
                <path d="M1254.39,-77.916L1162.74,306.086L876.011,34.709L1254.39,-77.916Z" style="fill:none;fill-rule:nonzero;stroke:white;stroke-width:2px;"/>
            </g>
        </g>
        <g opacity="0.15">
            <g>
                <path d="M1236.9,-59.88L1155.42,281.455L900.555,40.232L1236.9,-59.88Z" style="fill:none;fill-rule:nonzero;stroke:rgb(0,99,239);stroke-width:8px;"/>
            </g>
            <g>
                <path d="M1236.9,-59.88L1155.42,281.455L900.555,40.232L1236.9,-59.88Z" style="fill:none;fill-rule:nonzero;stroke:rgb(1,102,243);stroke-width:8px;"/>
            </g>
            <g>
                <path d="M1236.9,-59.88L1155.42,281.455L900.555,40.232L1236.9,-59.88Z" style="fill:none;fill-rule:nonzero;stroke:white;stroke-width:2px;"/>
            </g>
        </g>
        <g opacity="0.1">
            <g>
                <path d="M1219.52,-41.139L1148.23,257.53L925.218,46.459L1219.52,-41.139Z" style="fill:none;fill-rule:nonzero;stroke:rgb(0,99,239);stroke-width:8px;"/>
            </g>
            <g>
                <path d="M1219.52,-41.139L1148.23,257.53L925.218,46.459L1219.52,-41.139Z" style="fill:none;fill-rule:nonzero;stroke:rgb(1,102,243);stroke-width:8px;"/>
            </g>
            <g>
                <path d="M1219.52,-41.139L1148.23,257.53L925.218,46.459L1219.52,-41.139Z" style="fill:none;fill-rule:nonzero;stroke:white;stroke-width:2px;"/>
            </g>
        </g>
        <g opacity="0.1">
            <g>
                <path d="M1202.43,-22.809L1141.33,233.193L950.174,52.275L1202.43,-22.809Z" style="fill:none;fill-rule:nonzero;stroke:rgb(0,99,239);stroke-width:8px;"/>
            </g>
            <g>
                <path d="M1202.43,-22.809L1141.33,233.193L950.174,52.275L1202.43,-22.809Z" style="fill:none;fill-rule:nonzero;stroke:rgb(1,102,243);stroke-width:8px;"/>
            </g>
            <g>
                <path d="M1202.43,-22.809L1141.33,233.193L950.174,52.275L1202.43,-22.809Z" style="fill:none;fill-rule:nonzero;stroke:white;stroke-width:2px;"/>
            </g>
        </g>
        <g opacity="0.1">
            <g>
                <path d="M1185.05,-4.065L1134.13,209.269L974.836,58.504L1185.05,-4.065Z" style="fill:none;fill-rule:nonzero;stroke:rgb(0,99,239);stroke-width:8px;"/>
            </g>
            <g>
                <path d="M1185.05,-4.065L1134.13,209.269L974.836,58.504L1185.05,-4.065Z" style="fill:none;fill-rule:nonzero;stroke:rgb(1,102,243);stroke-width:8px;"/>
            </g>
            <g>
                <path d="M1185.05,-4.065L1134.13,209.269L974.836,58.504L1185.05,-4.065Z" style="fill:none;fill-rule:nonzero;stroke:white;stroke-width:2px;"/>
            </g>
        </g>
        <g opacity="0.1">
            <g>
                <path d="M1167.55,13.969L1126.81,184.637L999.38,64.025L1167.55,13.969Z" style="fill:none;fill-rule:nonzero;stroke:rgb(0,99,239);stroke-width:8px;"/>
            </g>
            <g>
                <path d="M1167.55,13.969L1126.81,184.637L999.38,64.025L1167.55,13.969Z" style="fill:none;fill-rule:nonzero;stroke:rgb(1,102,243);stroke-width:8px;"/>
            </g>
            <g>
                <path d="M1167.55,13.969L1126.81,184.637L999.38,64.025L1167.55,13.969Z" style="fill:none;fill-rule:nonzero;stroke:white;stroke-width:2px;"/>
            </g>
        </g>
        <g opacity="0.3">
            <g>
                <path d="M1289.27,-114.695L1177.25,354.641L826.805,22.958L1289.27,-114.695Z" style="fill:none;fill-rule:nonzero;stroke:rgb(0,99,239);stroke-width:8px;"/>
            </g>
            <g>
                <path d="M1289.27,-114.695L1177.25,354.641L826.805,22.958L1289.27,-114.695Z" style="fill:none;fill-rule:nonzero;stroke:rgb(1,102,243);stroke-width:8px;"/>
            </g>
            <g>
                <path d="M1289.27,-114.695L1177.25,354.641L826.805,22.958L1289.27,-114.695Z" style="fill:none;fill-rule:nonzero;stroke:white;stroke-width:2px;"/>
            </g>
        </g>
        <g opacity="0.35">
            <g>
                <path d="M1306.65,-133.437L1184.45,378.566L802.143,16.73L1306.65,-133.437Z" style="fill:none;fill-rule:nonzero;stroke:rgb(0,99,239);stroke-width:8px;"/>
            </g>
            <g>
                <path d="M1306.65,-133.437L1184.45,378.566L802.143,16.73L1306.65,-133.437Z" style="fill:none;fill-rule:nonzero;stroke:rgb(1,102,243);stroke-width:8px;"/>
            </g>
            <g>
                <path d="M1306.65,-133.437L1184.45,378.566L802.143,16.73L1306.65,-133.437Z" style="fill:none;fill-rule:nonzero;stroke:white;stroke-width:2px;"/>
            </g>
        </g>
        <g opacity="0.4">
            <g>
                <path d="M1332.9,-160.491L1195.42,415.512L765.328,8.446L1332.9,-160.491Z" style="fill:none;fill-rule:nonzero;stroke:rgb(0,99,239);stroke-width:8px;"/>
            </g>
            <g>
                <path d="M1332.9,-160.491L1195.42,415.512L765.328,8.446L1332.9,-160.491Z" style="fill:none;fill-rule:nonzero;stroke:rgb(0,99,239);stroke-width:8px;"/>
            </g>
            <g>
                <path d="M1332.9,-160.491L1195.42,415.512L765.328,8.446L1332.9,-160.491Z" style="fill:none;fill-rule:nonzero;stroke:white;stroke-width:2px;"/>
            </g>
        </g>
        <g opacity="0.47">
            <g>
                <path d="M1359.03,-188.252L1206.27,451.752L728.395,-0.543L1359.03,-188.252Z" style="fill:none;fill-rule:nonzero;stroke:rgb(0,99,239);stroke-width:8px;"/>
            </g>
            <g>
                <path d="M1359.03,-188.252L1206.27,451.752L728.395,-0.543L1359.03,-188.252Z" style="fill:none;fill-rule:nonzero;stroke:rgb(1,102,243);stroke-width:8px;"/>
            </g>
            <g>
                <path d="M1359.03,-188.252L1206.27,451.752L728.395,-0.543L1359.03,-188.252Z" style="fill:none;fill-rule:nonzero;stroke:white;stroke-width:2px;"/>
            </g>
        </g>
        <g opacity="0.5">
            <g>
                <path d="M1393.91,-225.029L1220.79,500.309L679.188,-12.292L1393.91,-225.029Z" style="fill:none;fill-rule:nonzero;stroke:rgb(0,99,239);stroke-width:8px;"/>
            </g>
            <g>
                <path d="M1393.91,-225.029L1220.79,500.309L679.188,-12.292L1393.91,-225.029Z" style="fill:none;fill-rule:nonzero;stroke:rgb(1,102,243);stroke-width:8px;"/>
            </g>
            <g>
                <path d="M1393.91,-225.029L1220.79,500.309L679.188,-12.292L1393.91,-225.029Z" style="fill:none;fill-rule:nonzero;stroke:white;stroke-width:2px;"/>
            </g>
        </g>
    </g>
</svg>
