<svg width="79" height="18" viewBox="0 0 79 18" fill="none" xmlns="http://www.w3.org/2000/svg">
<g filter="url(#filter0_d_920_621)">
<path fill-rule="evenodd" clip-rule="evenodd" d="M73.9004 8.99961C73.9004 8.50255 73.4974 8.09961 73.0004 8.09961L9.0004 8.09962C8.50334 8.09962 8.10039 8.50256 8.10039 8.99962C8.10039 9.49667 8.50334 9.89962 9.0004 9.89962L73.0004 9.89961C73.4974 9.89961 73.9004 9.49667 73.9004 8.99961Z" fill="#ABEFFF"/>
</g>
<g filter="url(#filter1_d_920_621)">
<path d="M5 9C5 11.2091 6.79086 13 9 13C11.2091 13 13 11.2091 13 9C13 6.79086 11.2091 5 9 5C6.79086 5 5 6.79086 5 9Z" fill="#ABEFFF"/>
</g>
<path d="M7 9C7 10.1046 7.89543 11 9 11C10.1046 11 11 10.1046 11 9C11 7.89543 10.1046 7 9 7C7.89543 7 7 7.89543 7 9Z" fill="#000124"/>
<defs>
<filter id="filter0_d_920_621" x="3.10059" y="3.09961" width="75.7998" height="11.7998" filterUnits="userSpaceOnUse" color-interpolation-filters="sRGB">
<feFlood flood-opacity="0" result="BackgroundImageFix"/>
<feColorMatrix in="SourceAlpha" type="matrix" values="0 0 0 0 0 0 0 0 0 0 0 0 0 0 0 0 0 0 127 0" result="hardAlpha"/>
<feOffset/>
<feGaussianBlur stdDeviation="2.5"/>
<feComposite in2="hardAlpha" operator="out"/>
<feColorMatrix type="matrix" values="0 0 0 0 0.670588 0 0 0 0 0.937255 0 0 0 0 1 0 0 0 0.63 0"/>
<feBlend mode="normal" in2="BackgroundImageFix" result="effect1_dropShadow_920_621"/>
<feBlend mode="normal" in="SourceGraphic" in2="effect1_dropShadow_920_621" result="shape"/>
</filter>
<filter id="filter1_d_920_621" x="0" y="0" width="18" height="18" filterUnits="userSpaceOnUse" color-interpolation-filters="sRGB">
<feFlood flood-opacity="0" result="BackgroundImageFix"/>
<feColorMatrix in="SourceAlpha" type="matrix" values="0 0 0 0 0 0 0 0 0 0 0 0 0 0 0 0 0 0 127 0" result="hardAlpha"/>
<feOffset/>
<feGaussianBlur stdDeviation="2.5"/>
<feComposite in2="hardAlpha" operator="out"/>
<feColorMatrix type="matrix" values="0 0 0 0 0.670588 0 0 0 0 0.937255 0 0 0 0 1 0 0 0 0.63 0"/>
<feBlend mode="normal" in2="BackgroundImageFix" result="effect1_dropShadow_920_621"/>
<feBlend mode="normal" in="SourceGraphic" in2="effect1_dropShadow_920_621" result="shape"/>
</filter>
</defs>
</svg>
