<svg width="79" height="18" viewBox="0 0 79 18" fill="none" xmlns="http://www.w3.org/2000/svg">
<g filter="url(#filter0_d_920_629)">
<path fill-rule="evenodd" clip-rule="evenodd" d="M5.09961 8.99961C5.09961 8.50255 5.50255 8.09961 5.99961 8.09961L69.9996 8.09962C70.4967 8.09962 70.8996 8.50256 70.8996 8.99962C70.8996 9.49667 70.4967 9.89962 69.9996 9.89962L5.99961 9.89961C5.50255 9.89961 5.09961 9.49667 5.09961 8.99961Z" fill="#ABEFFF"/>
</g>
<g filter="url(#filter1_d_920_629)">
<path d="M74 9C74 11.2091 72.2091 13 70 13C67.7909 13 66 11.2091 66 9C66 6.79086 67.7909 5 70 5C72.2091 5 74 6.79086 74 9Z" fill="#ABEFFF"/>
</g>
<path d="M72 9C72 10.1046 71.1046 11 70 11C68.8954 11 68 10.1046 68 9C68 7.89543 68.8954 7 70 7C71.1046 7 72 7.89543 72 9Z" fill="#000124"/>
<defs>
<filter id="filter0_d_920_629" x="0.0996094" y="3.09961" width="75.7998" height="11.7998" filterUnits="userSpaceOnUse" color-interpolation-filters="sRGB">
<feFlood flood-opacity="0" result="BackgroundImageFix"/>
<feColorMatrix in="SourceAlpha" type="matrix" values="0 0 0 0 0 0 0 0 0 0 0 0 0 0 0 0 0 0 127 0" result="hardAlpha"/>
<feOffset/>
<feGaussianBlur stdDeviation="2.5"/>
<feComposite in2="hardAlpha" operator="out"/>
<feColorMatrix type="matrix" values="0 0 0 0 0.670588 0 0 0 0 0.937255 0 0 0 0 1 0 0 0 0.63 0"/>
<feBlend mode="normal" in2="BackgroundImageFix" result="effect1_dropShadow_920_629"/>
<feBlend mode="normal" in="SourceGraphic" in2="effect1_dropShadow_920_629" result="shape"/>
</filter>
<filter id="filter1_d_920_629" x="61" y="0" width="18" height="18" filterUnits="userSpaceOnUse" color-interpolation-filters="sRGB">
<feFlood flood-opacity="0" result="BackgroundImageFix"/>
<feColorMatrix in="SourceAlpha" type="matrix" values="0 0 0 0 0 0 0 0 0 0 0 0 0 0 0 0 0 0 127 0" result="hardAlpha"/>
<feOffset/>
<feGaussianBlur stdDeviation="2.5"/>
<feComposite in2="hardAlpha" operator="out"/>
<feColorMatrix type="matrix" values="0 0 0 0 0.670588 0 0 0 0 0.937255 0 0 0 0 1 0 0 0 0.63 0"/>
<feBlend mode="normal" in2="BackgroundImageFix" result="effect1_dropShadow_920_629"/>
<feBlend mode="normal" in="SourceGraphic" in2="effect1_dropShadow_920_629" result="shape"/>
</filter>
</defs>
</svg>
