<svg width="26" height="26" viewBox="0 0 26 26" fill="none" xmlns="http://www.w3.org/2000/svg">
<g clip-path="url(#clip0_1576_1259)">
<g filter="url(#filter0_d_1576_1259)">
<path fill-rule="evenodd" clip-rule="evenodd" d="M7.8001 2.59961C7.45532 2.59961 7.12466 2.73657 6.88086 2.98037C6.63706 3.22417 6.5001 3.55483 6.5001 3.89961V5.19961H5.2001C4.51053 5.19961 3.84921 5.47354 3.36162 5.96113C2.87403 6.44873 2.6001 7.11005 2.6001 7.79961V20.7996C2.6001 21.4892 2.87403 22.1505 3.36162 22.6381C3.84921 23.1257 4.51053 23.3996 5.2001 23.3996H20.8001C21.4897 23.3996 22.151 23.1257 22.6386 22.6381C23.1262 22.1505 23.4001 21.4892 23.4001 20.7996V7.79961C23.4001 7.11005 23.1262 6.44873 22.6386 5.96113C22.151 5.47354 21.4897 5.19961 20.8001 5.19961H19.5001V3.89961C19.5001 3.55483 19.3631 3.22417 19.1193 2.98037C18.8755 2.73657 18.5449 2.59961 18.2001 2.59961C17.8553 2.59961 17.5247 2.73657 17.2809 2.98037C17.0371 3.22417 16.9001 3.55483 16.9001 3.89961V5.19961H9.1001V3.89961C9.1001 3.55483 8.96313 3.22417 8.71934 2.98037C8.47554 2.73657 8.14488 2.59961 7.8001 2.59961ZM7.8001 9.09961C7.45532 9.09961 7.12466 9.23657 6.88086 9.48037C6.63706 9.72417 6.5001 10.0548 6.5001 10.3996C6.5001 10.7444 6.63706 11.075 6.88086 11.3188C7.12466 11.5626 7.45532 11.6996 7.8001 11.6996H18.2001C18.5449 11.6996 18.8755 11.5626 19.1193 11.3188C19.3631 11.075 19.5001 10.7444 19.5001 10.3996C19.5001 10.0548 19.3631 9.72417 19.1193 9.48037C18.8755 9.23657 18.5449 9.09961 18.2001 9.09961H7.8001Z" fill="#ABEFFF"/>
</g>
</g>
<defs>
<filter id="filter0_d_1576_1259" x="-0.399902" y="-0.400391" width="26.8" height="26.7998" filterUnits="userSpaceOnUse" color-interpolation-filters="sRGB">
<feFlood flood-opacity="0" result="BackgroundImageFix"/>
<feColorMatrix in="SourceAlpha" type="matrix" values="0 0 0 0 0 0 0 0 0 0 0 0 0 0 0 0 0 0 127 0" result="hardAlpha"/>
<feOffset/>
<feGaussianBlur stdDeviation="1.5"/>
<feComposite in2="hardAlpha" operator="out"/>
<feColorMatrix type="matrix" values="0 0 0 0 0.670588 0 0 0 0 0.937255 0 0 0 0 1 0 0 0 0.7 0"/>
<feBlend mode="normal" in2="BackgroundImageFix" result="effect1_dropShadow_1576_1259"/>
<feBlend mode="normal" in="SourceGraphic" in2="effect1_dropShadow_1576_1259" result="shape"/>
</filter>
<clipPath id="clip0_1576_1259">
<rect width="26" height="26" fill="white"/>
</clipPath>
</defs>
</svg>
