<svg width="50" height="50" viewBox="0 0 50 50" fill="none" xmlns="http://www.w3.org/2000/svg">
<path fill-rule="evenodd" clip-rule="evenodd" d="M31.7676 13.2325C32.2363 13.7013 32.4995 14.337 32.4995 15C32.4995 15.6629 32.2363 16.2986 31.7676 16.7675L23.5351 25L31.7676 33.2325C32.223 33.704 32.475 34.3355 32.4693 34.991C32.4636 35.6464 32.2006 36.2735 31.7371 36.737C31.2736 37.2005 30.6466 37.4634 29.9911 37.4691C29.3356 37.4748 28.7041 37.2228 28.2326 36.7675L18.2326 26.7675C17.7639 26.2986 17.5006 25.6629 17.5006 25C17.5006 24.337 17.7639 23.7013 18.2326 23.2325L28.2326 13.2325C28.7014 12.7638 29.3372 12.5005 30.0001 12.5005C30.663 12.5005 31.2988 12.7638 31.7676 13.2325Z" fill="#72DDF6"/>
</svg>
