<svg width="22" height="22" viewBox="0 0 22 22" fill="none" xmlns="http://www.w3.org/2000/svg">
<path d="M3.34546 1.18776L11 8.84226L18.623 1.21926C18.7566 1.07707 18.9175 0.963316 19.0961 0.88483C19.2747 0.806344 19.4674 0.76474 19.6625 0.762512C20.0802 0.762512 20.4808 0.928449 20.7762 1.22382C21.0715 1.51919 21.2375 1.9198 21.2375 2.33751C21.2411 2.53061 21.2053 2.72242 21.1322 2.90118C21.0591 3.07993 20.9502 3.24185 20.8122 3.37701L13.1105 11L20.8122 18.7018C21.0718 18.9557 21.224 19.2996 21.2375 19.6625C21.2375 20.0802 21.0715 20.4808 20.7762 20.7762C20.4808 21.0716 20.0802 21.2375 19.6625 21.2375C19.4617 21.2458 19.2615 21.2123 19.0744 21.1391C18.8873 21.0659 18.7175 20.9546 18.5757 20.8123L11 13.1578L3.36121 20.7965C3.22813 20.934 3.06915 21.0437 2.89344 21.1194C2.71773 21.1951 2.52877 21.2352 2.33746 21.2375C1.91975 21.2375 1.51914 21.0716 1.22377 20.7762C0.9284 20.4808 0.762463 20.0802 0.762463 19.6625C0.758791 19.4694 0.794618 19.2776 0.867744 19.0988C0.940871 18.9201 1.04975 18.7582 1.18771 18.623L8.88946 11L1.18771 3.29826C0.92813 3.04431 0.775913 2.70041 0.762463 2.33751C0.762463 1.9198 0.9284 1.51919 1.22377 1.22382C1.51914 0.928449 1.91975 0.762512 2.33746 0.762512C2.71546 0.767237 3.07771 0.920012 3.34546 1.18776Z" fill="#42D1F7"/>
</svg>
