<svg width="32" height="32" viewBox="0 0 32 32" fill="none" xmlns="http://www.w3.org/2000/svg">
<path d="M26.6667 4H8.92408C8.38157 4.0018 7.85237 4.16821 7.40646 4.47723C6.96055 4.78625 6.61892 5.22332 6.42675 5.73067L2.75075 15.532C2.69494 15.6817 2.66648 15.8402 2.66675 16V18.6667C2.66675 20.1373 3.86275 21.3333 5.33342 21.3333H12.8161L11.3201 25.8227C11.1867 26.2235 11.1503 26.6503 11.2138 27.0679C11.2773 27.4856 11.4389 27.8822 11.6854 28.2253C12.1867 28.9187 12.9947 29.3333 13.8507 29.3333H16.0001C16.3961 29.3333 16.7707 29.1573 17.0254 28.8533L23.2921 21.3333H26.6667C28.1374 21.3333 29.3334 20.1373 29.3334 18.6667V6.66667C29.3334 5.196 28.1374 4 26.6667 4ZM15.3747 26.6667H13.8481L15.9307 20.4213C15.9975 20.221 16.0157 20.0077 15.9838 19.7989C15.952 19.5902 15.871 19.392 15.7476 19.2207C15.6242 19.0493 15.4618 18.9098 15.2739 18.8135C15.086 18.7171 14.8779 18.6668 14.6667 18.6667H5.33342V16.2413L8.92408 6.66667H21.3334V19.5173L15.3747 26.6667ZM24.0001 18.6667V6.66667H26.6667L26.6681 18.6667H24.0001Z" fill="#72DDF6"/>
</svg>
