<svg width="42" height="42" viewBox="0 0 42 42" fill="none" xmlns="http://www.w3.org/2000/svg">
<path d="M4.2063 12.3564L21 20.7522L37.7937 12.3564C37.7315 11.2864 37.2626 10.2805 36.4829 9.545C35.7033 8.80945 34.6719 8.39983 33.6 8.40002H8.4C7.32813 8.39983 6.29674 8.80945 5.51707 9.545C4.73741 10.2805 4.26847 11.2864 4.2063 12.3564Z" fill="#97EBFF"/>
<path d="M37.7999 17.0477L21 25.4477L4.19995 17.0477V29.3999C4.19995 30.5138 4.64245 31.5821 5.4301 32.3698C6.21776 33.1574 7.28604 33.5999 8.39995 33.5999H33.5999C34.7139 33.5999 35.7821 33.1574 36.5698 32.3698C37.3574 31.5821 37.7999 30.5138 37.7999 29.3999V17.0477Z" fill="#97EBFF"/>
</svg>
