<svg width="24" height="24" viewBox="0 0 24 24" fill="none" xmlns="http://www.w3.org/2000/svg">
<path d="M11.4505 15.4C12.0871 15.4 12.6975 15.1471 13.1476 14.6971C13.5977 14.247 13.8505 13.6365 13.8505 13C13.8505 12.3635 13.5977 11.753 13.1476 11.303C12.6975 10.8529 12.0871 10.6 11.4505 10.6C10.814 10.6 10.2036 10.8529 9.75348 11.303C9.30339 11.753 9.05054 12.3635 9.05054 13C9.05054 13.6365 9.30339 14.247 9.75348 14.6971C10.2036 15.1471 10.814 15.4 11.4505 15.4Z" fill="#42D1F7"/>
<path fill-rule="evenodd" clip-rule="evenodd" d="M0 13C1.5288 8.13161 6.0768 4.60001 11.4504 4.60001C16.824 4.60001 21.372 8.13161 22.9008 13C21.372 17.8684 16.824 21.4 11.4504 21.4C6.0768 21.4 1.5288 17.8684 0 13ZM16.2504 13C16.2504 14.273 15.7447 15.4939 14.8445 16.3941C13.9443 17.2943 12.7234 17.8 11.4504 17.8C10.1774 17.8 8.95646 17.2943 8.05629 16.3941C7.15611 15.4939 6.6504 14.273 6.6504 13C6.6504 11.727 7.15611 10.5061 8.05629 9.60589C8.95646 8.70572 10.1774 8.20001 11.4504 8.20001C12.7234 8.20001 13.9443 8.70572 14.8445 9.60589C15.7447 10.5061 16.2504 11.727 16.2504 13Z" fill="#42D1F7"/>
</svg>
