<svg width="14" height="15" viewBox="0 0 14 15" fill="none" xmlns="http://www.w3.org/2000/svg">
<path d="M2.33374 6.14285L2.33374 3.03174L2.33374 6.14285ZM2.33374 3.03174L5.44485 3.03174L2.33374 3.03174ZM2.33374 3.03174L5.44485 6.14285L2.33374 3.03174ZM11.6671 6.14285L11.6671 3.03174L11.6671 6.14285ZM11.6671 3.03174L8.55596 3.03174L11.6671 3.03174ZM11.6671 3.03174L8.55596 6.14285L11.6671 3.03174ZM2.33374 9.25396L2.33374 12.3651L2.33374 9.25396ZM2.33374 12.3651L5.44485 12.3651L2.33374 12.3651ZM2.33374 12.3651L5.44485 9.25396L2.33374 12.3651ZM11.6671 12.3651L8.55596 9.25396L11.6671 12.3651ZM11.6671 12.3651L11.6671 9.25396L11.6671 12.3651ZM11.6671 12.3651L8.55596 12.3651L11.6671 12.3651Z" fill="#42D1F7"/>
<path fill-rule="evenodd" clip-rule="evenodd" d="M4.1444 3.78174L5.97518 5.61252C6.26807 5.90541 6.26807 6.38029 5.97518 6.67318C5.68229 6.96607 5.20741 6.96607 4.91452 6.67318L3.08374 4.8424L3.08374 6.14285C3.08374 6.55706 2.74795 6.89285 2.33374 6.89285C1.91953 6.89285 1.58374 6.55706 1.58374 6.14285L1.58374 3.03189C1.58374 3.03184 1.58374 3.03179 1.58374 3.03174C1.58374 2.8398 1.65696 2.64785 1.80341 2.50141C1.87532 2.4295 1.95819 2.37525 2.04665 2.33865C2.13508 2.30198 2.23205 2.28174 2.33374 2.28174C2.33379 2.28174 2.33384 2.28174 2.33389 2.28174L5.44485 2.28174C5.85906 2.28174 6.19485 2.61752 6.19485 3.03174C6.19485 3.44595 5.85906 3.78174 5.44485 3.78174L4.1444 3.78174ZM7.80596 3.03174C7.80596 2.61752 8.14175 2.28174 8.55596 2.28174L11.6671 2.28174C11.7688 2.28174 11.8657 2.30198 11.9542 2.33865C12.0426 2.37525 12.1255 2.4295 12.1974 2.50141C12.2693 2.57332 12.3236 2.65619 12.3602 2.74465C12.3968 2.83308 12.4171 2.93005 12.4171 3.03174L12.4171 6.14285C12.4171 6.55706 12.0813 6.89285 11.6671 6.89285C11.2529 6.89285 10.9171 6.55706 10.9171 6.14285L10.9171 4.8424L9.08629 6.67318C8.7934 6.96607 8.31852 6.96607 8.02563 6.67318C7.73274 6.38029 7.73274 5.90541 8.02563 5.61252L9.85641 3.78174L8.55596 3.78174C8.14175 3.78174 7.80596 3.44595 7.80596 3.03174ZM4.91452 8.72363C5.20741 8.43074 5.68229 8.43074 5.97518 8.72363C6.26807 9.01652 6.26807 9.4914 5.97518 9.78429L4.1444 11.6151L5.44485 11.6151C5.85906 11.6151 6.19485 11.9509 6.19485 12.3651C6.19485 12.7793 5.85906 13.1151 5.44485 13.1151L2.33374 13.1151C2.23205 13.1151 2.13508 13.0948 2.04665 13.0582C1.95885 13.0218 1.87654 12.9681 1.805 12.897C1.80447 12.8965 1.80394 12.8959 1.80341 12.8954C1.80288 12.8949 1.80235 12.8943 1.80182 12.8938C1.7307 12.8223 1.67698 12.74 1.64065 12.6522C1.60271 12.5605 1.58374 12.4628 1.58374 12.3651L1.58374 9.25396C1.58374 8.83974 1.91953 8.50396 2.33374 8.50396C2.74795 8.50396 3.08374 8.83974 3.08374 9.25396L3.08374 10.5544L4.91452 8.72363ZM9.85641 11.6151L8.02563 9.78429C7.73274 9.4914 7.73274 9.01652 8.02563 8.72363C8.31853 8.43074 8.7934 8.43074 9.08629 8.72363L10.9171 10.5544L10.9171 9.25396C10.9171 8.83974 11.2529 8.50396 11.6671 8.50396C12.0813 8.50396 12.4171 8.83974 12.4171 9.25396L12.4171 12.3651C12.4171 12.4668 12.3968 12.5637 12.3602 12.6522C12.3244 12.7386 12.2718 12.8197 12.2023 12.8905C12.199 12.8938 12.1958 12.897 12.1925 12.9003C12.1217 12.9698 12.0406 13.0224 11.9542 13.0582C11.8657 13.0948 11.7688 13.1151 11.6671 13.1151L8.55596 13.1151C8.14175 13.1151 7.80596 12.7793 7.80596 12.3651C7.80596 11.9509 8.14175 11.6151 8.55596 11.6151L9.85641 11.6151Z" fill="#42D1F7"/>
</svg>
