<svg width="14" height="14" viewBox="0 0 14 14" fill="none" xmlns="http://www.w3.org/2000/svg">
<path d="M2.33362 5.44436L2.33362 2.33325L2.33362 5.44436ZM2.33362 2.33325L5.44473 2.33325L2.33362 2.33325ZM2.33362 2.33325L5.44473 5.44436L2.33362 2.33325ZM11.667 5.44436L11.667 2.33325L11.667 5.44436ZM11.667 2.33325L8.55584 2.33325L11.667 2.33325ZM11.667 2.33325L8.55584 5.44436L11.667 2.33325ZM2.33362 8.55547L2.33362 11.6666L2.33362 8.55547ZM2.33362 11.6666L5.44473 11.6666L2.33362 11.6666ZM2.33362 11.6666L5.44473 8.55547L2.33362 11.6666ZM11.667 11.6666L8.55584 8.55547L11.667 11.6666ZM11.667 11.6666L11.667 8.55547L11.667 11.6666ZM11.667 11.6666L8.55584 11.6666L11.667 11.6666Z" fill="#42D1F7"/>
<path d="M11.667 11.6666L8.55584 11.6666M2.33362 5.44436L2.33362 2.33325L2.33362 5.44436ZM2.33362 2.33325L5.44473 2.33325L2.33362 2.33325ZM2.33362 2.33325L5.44473 5.44436L2.33362 2.33325ZM11.667 5.44436L11.667 2.33325L11.667 5.44436ZM11.667 2.33325L8.55584 2.33325L11.667 2.33325ZM11.667 2.33325L8.55584 5.44436L11.667 2.33325ZM2.33362 8.55547L2.33362 11.6666L2.33362 8.55547ZM2.33362 11.6666L5.44473 11.6666L2.33362 11.6666ZM2.33362 11.6666L5.44473 8.55547L2.33362 11.6666ZM11.667 11.6666L8.55584 8.55547L11.667 11.6666ZM11.667 11.6666L11.667 8.55547L11.667 11.6666Z" stroke="#42D1F7" stroke-width="1.5" stroke-linecap="round" stroke-linejoin="round"/>
</svg>
