<svg width="24" height="24" viewBox="0 0 24 24" fill="none" xmlns="http://www.w3.org/2000/svg">
<path fill-rule="evenodd" clip-rule="evenodd" d="M5.59436 4.73389C6.22669 4.47197 6.90441 4.33716 7.58883 4.33716C8.27326 4.33716 8.95098 4.47197 9.5833 4.73389C10.2156 4.99581 10.7902 5.37971 11.2741 5.86367L12.0006 6.59014L12.7271 5.86367C13.7045 4.88627 15.0301 4.33717 16.4124 4.33717C17.7946 4.33717 19.1203 4.88627 20.0977 5.86367C21.0751 6.84107 21.6242 8.16671 21.6242 9.54896C21.6242 10.9312 21.0751 12.2569 20.0977 13.2343L12.5663 20.7656C12.4163 20.9157 12.2128 20.9999 12.0006 20.9999C11.7884 20.9999 11.5849 20.9157 11.4349 20.7656L3.90354 13.2343C3.41958 12.7503 3.03568 12.1758 2.77376 11.5434C2.51184 10.9111 2.37703 10.2334 2.37703 9.54896C2.37703 8.86454 2.51184 8.18682 2.77376 7.55449C3.03568 6.92217 3.41958 6.34762 3.90354 5.86366C4.38749 5.37971 4.96204 4.99581 5.59436 4.73389ZM7.58883 5.93716C7.11453 5.93716 6.64486 6.03058 6.20666 6.21209C5.76846 6.3936 5.3703 6.65965 5.03491 6.99504C4.69953 7.33042 4.43347 7.72859 4.25196 8.16679C4.07045 8.60499 3.97703 9.07466 3.97703 9.54896C3.97703 10.0233 4.07045 10.4929 4.25196 10.9311C4.43347 11.3693 4.69952 11.7675 5.03491 12.1029L12.0006 19.0686L18.9663 12.1029C19.6436 11.4255 20.0242 10.5069 20.0242 9.54896C20.0242 8.59106 19.6436 7.67238 18.9663 6.99504C18.2889 6.3177 17.3703 5.93717 16.4124 5.93717C15.4545 5.93717 14.5358 6.3177 13.8584 6.99504L12.5663 8.2872C12.4163 8.43723 12.2128 8.52151 12.0006 8.52151C11.7884 8.52151 11.5849 8.43723 11.4349 8.2872L10.1428 6.99504C9.80737 6.65965 9.40921 6.3936 8.97101 6.21209C8.5328 6.03058 8.06314 5.93716 7.58883 5.93716Z" fill="#72DDF6"/>
</svg>
