<svg width="24" height="24" viewBox="0 0 24 24" fill="none" xmlns="http://www.w3.org/2000/svg">
<path fill-rule="evenodd" clip-rule="evenodd" d="M3.85581 7.24169C4.75595 6.34183 5.97663 5.83631 7.24941 5.83631C8.5222 5.83631 9.74288 6.34183 10.643 7.24169L12.0494 8.64689L13.4558 7.24169C13.8986 6.78324 14.4283 6.41757 15.0139 6.166C15.5995 5.91444 16.2293 5.78203 16.8667 5.77649C17.504 5.77095 18.1361 5.8924 18.726 6.13375C19.3159 6.37509 19.8518 6.73151 20.3025 7.18219C20.7532 7.63288 21.1096 8.16881 21.351 8.75871C21.5923 9.34861 21.7138 9.98067 21.7082 10.618C21.7027 11.2554 21.5703 11.8852 21.3187 12.4708C21.0671 13.0565 20.7015 13.5861 20.243 14.0289L12.0494 22.2237L3.85581 14.0289C2.95595 13.1288 2.45044 11.9081 2.45044 10.6353C2.45044 9.3625 2.95595 8.14182 3.85581 7.24169Z" fill="#42D1F7"/>
</svg>
