<svg width="26" height="26" viewBox="0 0 26 26" fill="none" xmlns="http://www.w3.org/2000/svg">
<g clip-path="url(#clip0_920_1072)">
<g filter="url(#filter0_d_920_1072)">
<path d="M25.9738 7.64407C25.9129 6.26259 25.6895 5.31284 25.3695 4.48986C25.0393 3.61629 24.5314 2.83419 23.866 2.18402C23.2158 1.52374 22.4285 1.01067 21.5651 0.685681C20.7373 0.365657 19.7926 0.142255 18.4111 0.0813452C17.0193 0.015277 16.5774 0 13.0475 0C9.51747 0 9.07562 0.015277 7.68899 0.0761868C6.30751 0.137096 5.35775 0.360697 4.53498 0.680522C3.66121 1.01067 2.87911 1.51858 2.22894 2.18402C1.56866 2.83419 1.05578 3.62145 0.730602 4.4849C0.410578 5.31284 0.187177 6.25743 0.126267 7.63891C0.0601989 9.03071 0.0449219 9.47255 0.0449219 13.0025C0.0449219 16.5325 0.0601989 16.9744 0.121109 18.361C0.182018 19.7425 0.405618 20.6922 0.725642 21.5152C1.05578 22.3888 1.56866 23.1709 2.22894 23.8211C2.87911 24.4813 3.66637 24.9944 4.52982 25.3194C5.35775 25.6394 6.30235 25.8628 7.68403 25.9237C9.07047 25.9848 9.51251 25.9999 13.0425 25.9999C16.5725 25.9999 17.0143 25.9848 18.401 25.9237C19.7824 25.8628 20.7322 25.6394 21.555 25.3194C23.3023 24.6438 24.6838 23.2624 25.3593 21.5152C25.6792 20.6873 25.9028 19.7425 25.9637 18.361C26.0246 16.9744 26.0399 16.5325 26.0399 13.0025C26.0399 9.47255 26.0347 9.03071 25.9738 7.64407ZM23.6324 18.2594C23.5765 19.5292 23.3632 20.2149 23.1854 20.672C22.7486 21.8047 21.8496 22.7037 20.7169 23.1405C20.2598 23.3183 19.5691 23.5316 18.3043 23.5873C16.933 23.6485 16.5217 23.6635 13.0526 23.6635C9.58354 23.6635 9.16709 23.6485 7.80069 23.5873C6.53091 23.5316 5.84523 23.3183 5.38811 23.1405C4.82445 22.9322 4.31138 22.6021 3.89493 22.1703C3.4632 21.7487 3.13306 21.2408 2.92474 20.6772C2.74697 20.22 2.53369 19.5292 2.47794 18.2646C2.41683 16.8932 2.40175 16.4817 2.40175 13.0127C2.40175 9.54358 2.41683 9.12713 2.47794 7.76093C2.53369 6.49115 2.74697 5.80547 2.92474 5.34835C3.13306 4.78449 3.4632 4.27162 3.90009 3.85497C4.3215 3.42325 4.82941 3.0931 5.39327 2.88498C5.85039 2.70721 6.54123 2.49393 7.80585 2.43798C9.17721 2.37707 9.58869 2.36179 13.0576 2.36179C16.5318 2.36179 16.9431 2.37707 18.3095 2.43798C19.5793 2.49393 20.2649 2.70721 20.7221 2.88498C21.2857 3.0931 21.7988 3.42325 22.2152 3.85497C22.647 4.27658 22.9771 4.78449 23.1854 5.34835C23.3632 5.80547 23.5765 6.49611 23.6324 7.76093C23.6933 9.13229 23.7086 9.54358 23.7086 13.0127C23.7086 16.4817 23.6933 16.8881 23.6324 18.2594Z" fill="#ABEFFF"/>
</g>
<g filter="url(#filter1_d_920_1072)">
<path d="M13.0472 6.32422C9.35988 6.32422 6.36816 9.31574 6.36816 13.0033C6.36816 16.6908 9.35988 19.6823 13.0472 19.6823C16.7347 19.6823 19.7262 16.6908 19.7262 13.0033C19.7262 9.31574 16.7347 6.32422 13.0472 6.32422ZM13.0472 17.3358C10.6551 17.3358 8.71468 15.3956 8.71468 13.0033C8.71468 10.6109 10.6551 8.67073 13.0472 8.67073C15.4395 8.67073 17.3797 10.6109 17.3797 13.0033C17.3797 15.3956 15.4395 17.3358 13.0472 17.3358Z" fill="#ABEFFF"/>
</g>
<g filter="url(#filter2_d_920_1072)">
<path d="M21.5504 6.05925C21.5504 6.92032 20.8522 7.61851 19.9909 7.61851C19.1298 7.61851 18.4316 6.92032 18.4316 6.05925C18.4316 5.19798 19.1298 4.5 19.9909 4.5C20.8522 4.5 21.5504 5.19798 21.5504 6.05925Z" fill="#ABEFFF"/>
</g>
</g>
<defs>
<filter id="filter0_d_920_1072" x="-8.95508" y="-9" width="43.9951" height="44" filterUnits="userSpaceOnUse" color-interpolation-filters="sRGB">
<feFlood flood-opacity="0" result="BackgroundImageFix"/>
<feColorMatrix in="SourceAlpha" type="matrix" values="0 0 0 0 0 0 0 0 0 0 0 0 0 0 0 0 0 0 127 0" result="hardAlpha"/>
<feMorphology radius="6" operator="dilate" in="SourceAlpha" result="effect1_dropShadow_920_1072"/>
<feOffset/>
<feGaussianBlur stdDeviation="1.5"/>
<feComposite in2="hardAlpha" operator="out"/>
<feColorMatrix type="matrix" values="0 0 0 0 0 0 0 0 0 0.603922 0 0 0 0 0.945098 0 0 0 0.78 0"/>
<feBlend mode="normal" in2="BackgroundImageFix" result="effect1_dropShadow_920_1072"/>
<feBlend mode="normal" in="SourceGraphic" in2="effect1_dropShadow_920_1072" result="shape"/>
</filter>
<filter id="filter1_d_920_1072" x="-2.63184" y="-2.67578" width="31.3584" height="31.3574" filterUnits="userSpaceOnUse" color-interpolation-filters="sRGB">
<feFlood flood-opacity="0" result="BackgroundImageFix"/>
<feColorMatrix in="SourceAlpha" type="matrix" values="0 0 0 0 0 0 0 0 0 0 0 0 0 0 0 0 0 0 127 0" result="hardAlpha"/>
<feMorphology radius="6" operator="dilate" in="SourceAlpha" result="effect1_dropShadow_920_1072"/>
<feOffset/>
<feGaussianBlur stdDeviation="1.5"/>
<feComposite in2="hardAlpha" operator="out"/>
<feColorMatrix type="matrix" values="0 0 0 0 0 0 0 0 0 0.603922 0 0 0 0 0.945098 0 0 0 0.78 0"/>
<feBlend mode="normal" in2="BackgroundImageFix" result="effect1_dropShadow_920_1072"/>
<feBlend mode="normal" in="SourceGraphic" in2="effect1_dropShadow_920_1072" result="shape"/>
</filter>
<filter id="filter2_d_920_1072" x="9.43164" y="-4.5" width="21.1191" height="21.1191" filterUnits="userSpaceOnUse" color-interpolation-filters="sRGB">
<feFlood flood-opacity="0" result="BackgroundImageFix"/>
<feColorMatrix in="SourceAlpha" type="matrix" values="0 0 0 0 0 0 0 0 0 0 0 0 0 0 0 0 0 0 127 0" result="hardAlpha"/>
<feMorphology radius="6" operator="dilate" in="SourceAlpha" result="effect1_dropShadow_920_1072"/>
<feOffset/>
<feGaussianBlur stdDeviation="1.5"/>
<feComposite in2="hardAlpha" operator="out"/>
<feColorMatrix type="matrix" values="0 0 0 0 0 0 0 0 0 0.603922 0 0 0 0 0.945098 0 0 0 0.78 0"/>
<feBlend mode="normal" in2="BackgroundImageFix" result="effect1_dropShadow_920_1072"/>
<feBlend mode="normal" in="SourceGraphic" in2="effect1_dropShadow_920_1072" result="shape"/>
</filter>
<clipPath id="clip0_920_1072">
<rect width="26" height="26" fill="white"/>
</clipPath>
</defs>
</svg>
