<svg width="19" height="16" viewBox="0 0 19 16" fill="none" xmlns="http://www.w3.org/2000/svg">
<path d="M0.299805 3.24517C0.299805 2.60464 0.542125 1.99036 0.973459 1.53744C1.40479 1.08452 1.98981 0.830078 2.5998 0.830078H16.3998C17.0098 0.830078 17.5948 1.08452 18.0261 1.53744C18.4575 1.99036 18.6998 2.60464 18.6998 3.24517V5.66025C18.0898 5.66025 17.5048 5.9147 17.0735 6.36762C16.6421 6.82053 16.3998 7.43482 16.3998 8.07534C16.3998 8.71586 16.6421 9.33015 17.0735 9.78306C17.5048 10.236 18.0898 10.4904 18.6998 10.4904V12.9055C18.6998 13.546 18.4575 14.1603 18.0261 14.6132C17.5948 15.0662 17.0098 15.3206 16.3998 15.3206H2.5998C1.98981 15.3206 1.40479 15.0662 0.973459 14.6132C0.542125 14.1603 0.299805 13.546 0.299805 12.9055V10.4904C0.909803 10.4904 1.49482 10.236 1.92615 9.78306C2.35748 9.33015 2.5998 8.71586 2.5998 8.07534C2.5998 7.43482 2.35748 6.82053 1.92615 6.36762C1.49482 5.9147 0.909803 5.66025 0.299805 5.66025V3.24517Z" fill="#ABEFFF"/>
</svg>
