<svg width="32" height="32" viewBox="0 0 32 32" fill="none" xmlns="http://www.w3.org/2000/svg">
<path d="M26.6667 10.6666H19.1841L20.6814 6.17729C20.9507 5.36663 20.8147 4.46796 20.3147 3.77463C19.8147 3.08129 19.0041 2.66663 18.1494 2.66663H16.0001C15.6041 2.66663 15.2294 2.84263 14.9747 3.14663L8.70808 10.6666H5.33341C3.86275 10.6666 2.66675 11.8626 2.66675 13.3333V25.3333C2.66675 26.804 3.86275 28 5.33341 28H23.0761C23.6186 27.9982 24.1478 27.8317 24.5937 27.5227C25.0396 27.2137 25.3812 26.7766 25.5734 26.2693L29.2494 16.468C29.3052 16.3183 29.3337 16.1597 29.3334 16V13.3333C29.3334 11.8626 28.1374 10.6666 26.6667 10.6666ZM5.33341 13.3333H8.00008V25.3333H5.33341V13.3333ZM26.6667 15.7586L23.0761 25.3333H10.6667V12.4826L16.6241 5.33329H18.1521L16.0694 11.5773C16.0018 11.7777 15.9829 11.9914 16.0144 12.2005C16.0459 12.4097 16.1267 12.6083 16.2503 12.78C16.3739 12.9517 16.5366 13.0914 16.7249 13.1876C16.9133 13.2839 17.1219 13.3338 17.3334 13.3333H26.6667V15.7586Z" fill="#72DDF6"/>
</svg>
