<svg width="22" height="22" viewBox="0 0 22 22" fill="none" xmlns="http://www.w3.org/2000/svg">
<path fill-rule="evenodd" clip-rule="evenodd" d="M10.3214 3.38353C10.5224 3.46685 10.6941 3.60788 10.8149 3.7888C10.9357 3.96972 11.0002 4.18239 11.0001 4.39993L11.0001 17.5999C11.0001 17.8175 10.9355 18.0301 10.8146 18.2109C10.6938 18.3918 10.522 18.5327 10.321 18.616C10.12 18.6992 9.89891 18.721 9.68556 18.6786C9.47221 18.6362 9.27623 18.5314 9.1224 18.3776L5.0447 14.2999L2.2001 14.2999C1.90836 14.2999 1.62857 14.184 1.42228 13.9778C1.21599 13.7715 1.1001 13.4917 1.1001 13.1999L1.1001 8.79993C1.1001 8.50819 1.21599 8.22841 1.42228 8.02212C1.62857 7.81583 1.90836 7.69993 2.2001 7.69993L5.0447 7.69993L9.1224 3.62223C9.27623 3.46831 9.47225 3.36347 9.68568 3.32098C9.89911 3.27849 10.1203 3.30026 10.3214 3.38353ZM13.5224 8.02223C13.7287 7.81601 14.0084 7.70017 14.3001 7.70017C14.5918 7.70017 14.8715 7.81601 15.0778 8.02223L16.5001 9.44453L17.9224 8.02223C18.0239 7.91717 18.1452 7.83337 18.2795 7.77572C18.4137 7.71807 18.558 7.68773 18.7041 7.68646C18.8501 7.68519 18.995 7.71302 19.1301 7.76833C19.2653 7.82364 19.3881 7.90532 19.4914 8.0086C19.5947 8.11188 19.6764 8.2347 19.7317 8.36988C19.787 8.50507 19.8148 8.64992 19.8136 8.79597C19.8123 8.94203 19.782 9.08637 19.7243 9.22058C19.6667 9.35478 19.5829 9.47616 19.4778 9.57763L18.0555 10.9999L19.4778 12.4222C19.6782 12.6297 19.789 12.9076 19.7865 13.196C19.784 13.4844 19.6683 13.7603 19.4644 13.9642C19.2604 14.1682 18.9846 14.2839 18.6961 14.2864C18.4077 14.2889 18.1299 14.178 17.9224 13.9776L16.5001 12.5553L15.0778 13.9776C14.8703 14.178 14.5925 14.2889 14.3041 14.2864C14.0156 14.2839 13.7397 14.1682 13.5358 13.9642C13.3318 13.7603 13.2162 13.4844 13.2137 13.196C13.2111 12.9076 13.322 12.6297 13.5224 12.4222L14.9447 10.9999L13.5224 9.57763C13.3162 9.37135 13.2003 9.09161 13.2003 8.79993C13.2003 8.50825 13.3162 8.22851 13.5224 8.02223Z" fill="#72DDF6"/>
</svg>
