<svg width="34" height="34" viewBox="0 0 34 34" fill="none" xmlns="http://www.w3.org/2000/svg">
<path d="M12.75 7.08301H9.91667C9.13426 7.08301 8.5 7.71727 8.5 8.49967V25.4997C8.5 26.2821 9.13426 26.9163 9.91667 26.9163H12.75C13.5324 26.9163 14.1667 26.2821 14.1667 25.4997V8.49967C14.1667 7.71727 13.5324 7.08301 12.75 7.08301Z" fill="#72DDF6"/>
<path d="M24.083 7.08301H21.2497C20.4673 7.08301 19.833 7.71727 19.833 8.49967V25.4997C19.833 26.2821 20.4673 26.9163 21.2497 26.9163H24.083C24.8654 26.9163 25.4997 26.2821 25.4997 25.4997V8.49967C25.4997 7.71727 24.8654 7.08301 24.083 7.08301Z" fill="#72DDF6"/>
</svg>
