<svg width="42" height="42" viewBox="0 0 42 42" fill="none" xmlns="http://www.w3.org/2000/svg">
<path d="M4.19995 6.29995C4.19995 5.743 4.4212 5.20885 4.81503 4.81503C5.20885 4.4212 5.743 4.19995 6.29995 4.19995H10.8213C11.3183 4.20018 11.7992 4.37673 12.1784 4.6982C12.5575 5.01966 12.8103 5.4652 12.8919 5.95555L14.4459 15.2691C14.5201 15.7126 14.45 16.1683 14.2459 16.569C14.0417 16.9697 13.7143 17.2943 13.3119 17.4951L10.0611 19.1184C11.2268 22.0072 12.9629 24.6314 15.1657 26.8342C17.3685 29.037 19.9927 30.7731 22.8815 31.9388L24.507 28.6881C24.7075 28.286 25.0318 27.9589 25.4321 27.7547C25.8324 27.5506 26.2876 27.4803 26.7309 27.5541L36.0443 29.108C36.5347 29.1896 36.9802 29.4424 37.3017 29.8215C37.6232 30.2007 37.7997 30.6816 37.7999 31.1786V35.6999C37.7999 36.2569 37.5787 36.791 37.1849 37.1849C36.791 37.5787 36.2569 37.7999 35.6999 37.7999H31.5C16.422 37.7999 4.19995 25.5779 4.19995 10.5V6.29995Z" fill="#97EBFF"/>
</svg>
