<svg width="28" height="28" viewBox="0 0 28 28" fill="none" xmlns="http://www.w3.org/2000/svg">
<path d="M17.6161 1.05197L17.5001 0.947972C17.2436 0.745514 16.9218 0.64426 16.5956 0.663432C16.2695 0.682603 15.9617 0.820866 15.7307 1.05197L15.6267 1.16797C15.4244 1.4242 15.3232 1.74582 15.3423 2.07176C15.3615 2.3977 15.4997 2.70524 15.7307 2.93597L17.4627 4.66531H9.99875L9.67875 4.67064C7.26148 4.75291 4.97064 5.77074 3.28936 7.50949C1.60807 9.24823 0.667768 11.572 0.666748 13.9906C0.666748 15.9173 1.25075 17.708 2.25208 19.1893C2.45771 19.4768 2.76913 19.6708 3.11782 19.7287C3.46651 19.7866 3.82392 19.7036 4.11141 19.498C4.39891 19.2923 4.59294 18.9809 4.65083 18.6322C4.70871 18.2835 4.62571 17.9261 4.42008 17.6386L4.24008 17.348C3.64991 16.3353 3.33735 15.1848 3.33395 14.0127C3.33054 12.8405 3.63641 11.6883 4.22069 10.6721C4.80496 9.65602 5.64696 8.81202 6.66168 8.22533C7.67641 7.63864 8.82796 7.33002 10.0001 7.33064H17.4601L15.7307 9.05997L15.6267 9.17597C15.4102 9.44222 15.3048 9.78175 15.3325 10.1238C15.3602 10.4658 15.5188 10.784 15.7753 11.012C16.0318 11.2399 16.3664 11.3601 16.7094 11.3474C17.0523 11.3348 17.3771 11.1902 17.6161 10.944L21.6241 6.93997L21.7267 6.82397C21.9291 6.56775 22.0303 6.24612 22.0111 5.92018C21.992 5.59425 21.8538 5.2867 21.6227 5.05597L17.6161 1.05197ZM25.7161 8.74664C25.5453 8.52751 25.3103 8.36725 25.044 8.2883C24.7776 8.20934 24.4933 8.21564 24.2307 8.3063C23.9681 8.39697 23.7404 8.56746 23.5795 8.79393C23.4186 9.0204 23.3326 9.29151 23.3334 9.56931C23.3334 9.84797 23.4188 10.1053 23.5627 10.3173C24.2257 11.3216 24.6043 12.4866 24.6584 13.6888C24.7124 14.8909 24.4399 16.0852 23.8697 17.1449C23.2995 18.2046 22.453 19.0901 21.42 19.7074C20.387 20.3246 19.2061 20.6506 18.0027 20.6506H10.5521L12.2774 18.9306L12.3881 18.8026C12.5697 18.5675 12.6675 18.2784 12.666 17.9813C12.6646 17.6841 12.564 17.396 12.3801 17.1626L12.2774 17.0453L12.1507 16.9333C11.9153 16.7513 11.6257 16.6532 11.328 16.6547C11.0304 16.6561 10.7418 16.757 10.5081 16.9413L10.3907 17.0453L6.38408 21.0493L6.27341 21.176C6.0915 21.4113 5.99348 21.7006 5.99493 21.998C5.99638 22.2954 6.09722 22.5838 6.28141 22.8173L6.38408 22.9333L10.3907 26.9373L10.5174 27.0493C10.7748 27.2481 11.0961 27.346 11.4206 27.3245C11.7452 27.303 12.0507 27.1636 12.2796 26.9325C12.5086 26.7015 12.6451 26.3947 12.6636 26.0699C12.6821 25.7452 12.5813 25.4249 12.3801 25.1693L12.2774 25.0533L10.5387 23.316H18.0001L18.3201 23.312C19.9877 23.2547 21.6095 22.7512 23.0164 21.8539C24.4232 20.9566 25.5637 19.6985 26.3189 18.2105C27.0741 16.7226 27.4164 15.0593 27.3102 13.3941C27.2039 11.7288 26.653 10.1225 25.7147 8.74264V8.74664H25.7161Z" fill="#72DDF6"/>
</svg>
