<svg width="28" height="25" viewBox="0 0 28 25" fill="none" xmlns="http://www.w3.org/2000/svg">
<path d="M27.2321 5.82269C27.165 5.66105 27.0667 5.51425 26.9427 5.39069L22.9427 1.39069C22.8198 1.26335 22.6726 1.16177 22.51 1.09189C22.3473 1.02201 22.1723 0.985231 21.9953 0.983693C21.8182 0.982154 21.6427 1.01589 21.4788 1.08293C21.3149 1.14997 21.1661 1.24898 21.0409 1.37417C20.9157 1.49936 20.8167 1.64823 20.7497 1.81209C20.6826 1.97595 20.6489 2.15152 20.6504 2.32856C20.652 2.5056 20.6887 2.68056 20.7586 2.84323C20.8285 3.0059 20.9301 3.15303 21.0574 3.27603L22.7814 5.00003H18.3534C17.202 4.99997 16.0702 5.29813 15.0682 5.86546C14.0663 6.4328 13.2284 7.24996 12.6361 8.23736L7.74275 16.3907C7.38762 16.9828 6.88525 17.473 6.28454 17.8134C5.68383 18.1538 5.00522 18.333 4.31475 18.3334H2.00008C1.64646 18.3334 1.30732 18.4738 1.05727 18.7239C0.807224 18.9739 0.666748 19.3131 0.666748 19.6667C0.666748 20.0203 0.807224 20.3595 1.05727 20.6095C1.30732 20.8596 1.64646 21 2.00008 21H4.31342C5.46483 21.0001 6.59664 20.7019 7.59858 20.1346C8.60053 19.5673 9.43846 18.7501 10.0307 17.7627L14.9241 9.60936C15.2792 9.01722 15.7816 8.52709 16.3823 8.18666C16.983 7.84623 17.6616 7.6671 18.3521 7.66669H22.7787L21.0561 9.39069C20.8132 9.64216 20.6788 9.97897 20.6819 10.3286C20.6849 10.6782 20.8251 11.0126 21.0723 11.2598C21.3195 11.507 21.654 11.6472 22.0035 11.6503C22.3531 11.6533 22.6899 11.5189 22.9414 11.276L26.9414 7.27603C27.0657 7.15248 27.1642 7.0056 27.2315 6.84383C27.2988 6.68205 27.3334 6.50857 27.3334 6.33336L27.2321 5.82269ZM27.2321 5.82269C27.2987 5.98332 27.3331 6.15547 27.3334 6.32936L27.2321 5.82269Z" fill="#72DDF6"/>
<path d="M26.9414 20.6107L22.9427 24.6107C22.6926 24.8607 22.3533 25.0011 21.9996 25.0009C21.6459 25.0008 21.3068 24.8602 21.0567 24.61C20.8067 24.3598 20.6664 24.0206 20.6665 23.6669C20.6666 23.3132 20.8072 22.974 21.0574 22.724L22.7814 21H18.3534C17.202 21.0001 16.0702 20.7019 15.0682 20.1346C14.0663 19.5672 13.2284 18.7501 12.6361 17.7627L7.74275 9.60933C7.38762 9.01719 6.88525 8.52706 6.28454 8.18664C5.68383 7.84621 5.00522 7.66707 4.31475 7.66667H2.00008C1.64646 7.66667 1.30732 7.52619 1.05727 7.27614C0.807224 7.02609 0.666748 6.68696 0.666748 6.33333C0.666748 5.97971 0.807224 5.64057 1.05727 5.39052C1.30732 5.14048 1.64646 5 2.00008 5H4.31342C5.46483 4.99994 6.59664 5.2981 7.59858 5.86544C8.60053 6.43277 9.43846 7.24993 10.0307 8.23733L14.9241 16.3907C15.2792 16.9828 15.7816 17.4729 16.3823 17.8134C16.983 18.1538 17.6616 18.3329 18.3521 18.3333H22.7787L21.0561 16.6093C20.8132 16.3579 20.6788 16.0211 20.6819 15.6715C20.6849 15.3219 20.8251 14.9875 21.0723 14.7402C21.3195 14.493 21.654 14.3528 22.0035 14.3498C22.3531 14.3467 22.6899 14.4811 22.9414 14.724L26.9414 18.724C27.2014 18.9827 27.3307 19.324 27.3321 19.6627V19.6667C27.3323 19.8421 27.2977 20.0158 27.2304 20.1778C27.1632 20.3399 27.0645 20.487 26.9401 20.6107H26.9414Z" fill="#72DDF6"/>
</svg>
