<svg width="22" height="22" viewBox="0 0 22 22" fill="none" xmlns="http://www.w3.org/2000/svg">
<path fill-rule="evenodd" clip-rule="evenodd" d="M8.25004 3.552C8.81958 3.552 9.28129 4.01371 9.28129 4.58325V8.24992C9.28129 8.81946 8.81958 9.28117 8.25004 9.28117H4.58337C4.01383 9.28117 3.55212 8.81946 3.55212 8.24992C3.55212 7.68037 4.01383 7.21867 4.58337 7.21867H7.21879V4.58325C7.21879 4.01371 7.6805 3.552 8.25004 3.552Z" fill="#42D1F7"/>
<path fill-rule="evenodd" clip-rule="evenodd" d="M2.0208 2.0208C2.42352 1.61807 3.07648 1.61807 3.4792 2.0208L8.9792 7.5208C9.38193 7.92352 9.38193 8.57648 8.9792 8.9792C8.57648 9.38193 7.92352 9.38193 7.5208 8.9792L2.0208 3.4792C1.61807 3.07648 1.61807 2.42352 2.0208 2.0208Z" fill="#42D1F7"/>
<path fill-rule="evenodd" clip-rule="evenodd" d="M3.55212 13.75C3.55212 13.1805 4.01383 12.7188 4.58337 12.7188H8.25004C8.81958 12.7188 9.28129 13.1805 9.28129 13.75V17.4167C9.28129 17.9862 8.81958 18.4479 8.25004 18.4479C7.6805 18.4479 7.21879 17.9862 7.21879 17.4167V14.7812H4.58337C4.01383 14.7812 3.55212 14.3195 3.55212 13.75Z" fill="#42D1F7"/>
<path fill-rule="evenodd" clip-rule="evenodd" d="M8.9792 13.0208C9.38193 13.4235 9.38193 14.0765 8.9792 14.4792L3.4792 19.9792C3.07648 20.3819 2.42352 20.3819 2.0208 19.9792C1.61807 19.5765 1.61807 18.9235 2.0208 18.5208L7.5208 13.0208C7.92352 12.6181 8.57648 12.6181 8.9792 13.0208Z" fill="#42D1F7"/>
<path fill-rule="evenodd" clip-rule="evenodd" d="M13.75 3.552C14.3195 3.552 14.7812 4.01371 14.7812 4.58325V7.21867H17.4167C17.9862 7.21867 18.4479 7.68037 18.4479 8.24992C18.4479 8.81946 17.9862 9.28117 17.4167 9.28117H13.75C13.1805 9.28117 12.7188 8.81946 12.7188 8.24992V4.58325C12.7188 4.01371 13.1805 3.552 13.75 3.552Z" fill="#42D1F7"/>
<path fill-rule="evenodd" clip-rule="evenodd" d="M19.9792 2.0208C20.3819 2.42352 20.3819 3.07648 19.9792 3.4792L14.4792 8.9792C14.0765 9.38193 13.4235 9.38193 13.0208 8.9792C12.6181 8.57648 12.6181 7.92352 13.0208 7.5208L18.5208 2.0208C18.9235 1.61807 19.5765 1.61807 19.9792 2.0208Z" fill="#42D1F7"/>
<path fill-rule="evenodd" clip-rule="evenodd" d="M12.7188 13.75C12.7188 13.1805 13.1805 12.7188 13.75 12.7188H17.4167C17.9862 12.7188 18.4479 13.1805 18.4479 13.75C18.4479 14.3195 17.9862 14.7812 17.4167 14.7812H14.7812V17.4167C14.7812 17.9862 14.3195 18.4479 13.75 18.4479C13.1805 18.4479 12.7188 17.9862 12.7188 17.4167V13.75Z" fill="#42D1F7"/>
<path fill-rule="evenodd" clip-rule="evenodd" d="M13.0208 13.0208C13.4235 12.6181 14.0765 12.6181 14.4792 13.0208L19.9792 18.5208C20.3819 18.9235 20.3819 19.5765 19.9792 19.9792C19.5765 20.3819 18.9235 20.3819 18.5208 19.9792L13.0208 14.4792C12.6181 14.0765 12.6181 13.4235 13.0208 13.0208Z" fill="#42D1F7"/>
</svg>
