<svg width="19" height="16" viewBox="0 0 19 16" fill="none" xmlns="http://www.w3.org/2000/svg">
<path fill-rule="evenodd" clip-rule="evenodd" d="M9.3214 0.383532C9.52235 0.466851 9.69409 0.607884 9.81489 0.7888C9.9357 0.969716 10.0002 1.18239 10.0001 1.39993L10.0001 14.5999C10.0001 14.8175 9.93551 15.0301 9.81464 15.2109C9.69377 15.3918 9.52199 15.5327 9.32102 15.616C9.12005 15.6992 8.89891 15.721 8.68556 15.6786C8.47221 15.6362 8.27623 15.5314 8.1224 15.3776L4.0447 11.2999L1.2001 11.2999C0.908359 11.2999 0.62857 11.184 0.42228 10.9778C0.21599 10.7715 0.100097 10.4917 0.100097 10.1999L0.100098 5.79993C0.100098 5.50819 0.21599 5.22841 0.42228 5.02212C0.62857 4.81583 0.908359 4.69993 1.2001 4.69993L4.0447 4.69993L8.1224 0.622232C8.27623 0.468306 8.47225 0.363466 8.68568 0.320976C8.89911 0.278487 9.12035 0.300257 9.3214 0.383532ZM12.5224 5.02223C12.7287 4.81601 13.0084 4.70017 13.3001 4.70017C13.5918 4.70017 13.8715 4.81601 14.0778 5.02223L15.5001 6.44453L16.9224 5.02223C17.0239 4.91717 17.1452 4.83337 17.2795 4.77572C17.4137 4.71807 17.558 4.68773 17.7041 4.68646C17.8501 4.68519 17.995 4.71302 18.1301 4.76833C18.2653 4.82364 18.3881 4.90532 18.4914 5.0086C18.5947 5.11188 18.6764 5.2347 18.7317 5.36988C18.787 5.50507 18.8148 5.64992 18.8136 5.79597C18.8123 5.94203 18.782 6.08637 18.7243 6.22058C18.6667 6.35478 18.5829 6.47616 18.4778 6.57763L17.0555 7.99993L18.4778 9.42223C18.6782 9.6297 18.789 9.90756 18.7865 10.196C18.784 10.4844 18.6683 10.7603 18.4644 10.9642C18.2604 11.1682 17.9846 11.2839 17.6961 11.2864C17.4077 11.2889 17.1299 11.178 16.9224 10.9776L15.5001 9.55533L14.0778 10.9776C13.8703 11.178 13.5925 11.2889 13.3041 11.2864C13.0156 11.2839 12.7397 11.1682 12.5358 10.9642C12.3318 10.7603 12.2162 10.4844 12.2137 10.196C12.2111 9.90756 12.322 9.6297 12.5224 9.42223L13.9447 7.99993L12.5224 6.57763C12.3162 6.37135 12.2003 6.09161 12.2003 5.79993C12.2003 5.50825 12.3162 5.22851 12.5224 5.02223Z" fill="#72DDF6"/>
</svg>
