<svg width="12" height="10" viewBox="0 0 12 10" fill="none" xmlns="http://www.w3.org/2000/svg">
<path fill-rule="evenodd" clip-rule="evenodd" d="M5.62232 0.759161C5.73421 0.805555 5.82984 0.884084 5.89711 0.984822C5.96438 1.08556 6.00026 1.20398 6.00023 1.32511L6.00023 8.67511C6.00021 8.79623 5.96427 8.91463 5.89697 9.01533C5.82966 9.11603 5.73401 9.19452 5.62211 9.24086C5.5102 9.28721 5.38707 9.29934 5.26828 9.27572C5.14948 9.2521 5.04035 9.19378 4.95469 9.10815L2.68416 6.83761L1.10023 6.83761C0.937787 6.83761 0.781995 6.77308 0.667129 6.65821C0.552263 6.54335 0.487732 6.38756 0.487732 6.22511L0.487732 3.77511C0.487732 3.61267 0.552263 3.45687 0.667129 3.34201C0.781995 3.22714 0.937787 3.16261 1.10023 3.16261L2.68416 3.16261L4.95469 0.892074C5.04035 0.806365 5.1495 0.747988 5.26834 0.724329C5.38718 0.70067 5.51037 0.712792 5.62232 0.759161ZM8.85264 0.669124C8.96751 0.554298 9.12327 0.489792 9.28568 0.489792C9.4481 0.489792 9.60386 0.554298 9.71872 0.669124C10.2882 1.23731 10.7399 1.91241 11.0478 2.65565C11.3556 3.39889 11.5137 4.19563 11.5127 5.00011C11.5137 5.80459 11.3556 6.60133 11.0478 7.34457C10.7399 8.08781 10.2882 8.76291 9.71872 9.3311C9.6032 9.44267 9.44848 9.50441 9.28789 9.50301C9.12729 9.50162 8.97367 9.4372 8.86011 9.32364C8.74654 9.21008 8.68213 9.05645 8.68073 8.89586C8.67934 8.73526 8.74107 8.58054 8.85264 8.46502C9.30843 8.01058 9.66987 7.47051 9.91616 6.87586C10.1624 6.28122 10.2887 5.64374 10.2877 5.00011C10.2877 3.64649 9.74016 2.42271 8.85264 1.5352C8.73782 1.42034 8.67331 1.26457 8.67331 1.10216C8.67331 0.939748 8.73782 0.783984 8.85264 0.669124ZM7.11988 2.40127C7.17677 2.34433 7.24432 2.29915 7.31867 2.26832C7.39303 2.2375 7.47273 2.22164 7.55323 2.22164C7.63372 2.22164 7.71342 2.2375 7.78778 2.26832C7.86213 2.29915 7.92968 2.34433 7.98657 2.40127C8.32827 2.74223 8.59925 3.14734 8.78393 3.59333C8.96861 4.03932 9.06336 4.5174 9.06273 5.00011C9.06332 5.48282 8.96856 5.96089 8.78388 6.40688C8.5992 6.85286 8.32825 7.25797 7.98657 7.59895C7.87164 7.71388 7.71576 7.77845 7.55323 7.77845C7.39069 7.77845 7.23481 7.71388 7.11988 7.59895C7.00495 7.48402 6.94038 7.32814 6.94038 7.16561C6.94038 7.00307 7.00495 6.84719 7.11988 6.73226C7.34784 6.50513 7.52862 6.23516 7.65182 5.93789C7.77501 5.64061 7.8382 5.3219 7.83773 5.00011C7.83823 4.67831 7.77506 4.3596 7.65186 4.06232C7.52866 3.76504 7.34786 3.49507 7.11988 3.26796C7.06293 3.21108 7.01776 3.14352 6.98693 3.06917C6.95611 2.99481 6.94024 2.91511 6.94024 2.83462C6.94024 2.75413 6.95611 2.67442 6.98693 2.60007C7.01776 2.52571 7.06293 2.45816 7.11988 2.40127Z" fill="#72DDF6"/>
</svg>
