<svg width="16" height="12" viewBox="0 0 16 12" fill="none" xmlns="http://www.w3.org/2000/svg">
<path fill-rule="evenodd" clip-rule="evenodd" d="M7.50633 0.460716C7.65248 0.521311 7.77738 0.623881 7.86523 0.755456C7.95309 0.887031 7.99997 1.0417 7.99993 1.19992V10.7999C7.99989 10.9581 7.95296 11.1128 7.86505 11.2443C7.77714 11.3758 7.65221 11.4783 7.50605 11.5389C7.35989 11.5994 7.19906 11.6152 7.0439 11.5844C6.88874 11.5535 6.74621 11.4774 6.63433 11.3655L3.66873 8.39992H1.59993C1.38775 8.39992 1.18427 8.31563 1.03424 8.1656C0.884212 8.01557 0.799927 7.81209 0.799927 7.59992V4.39992C0.799927 4.18774 0.884212 3.98426 1.03424 3.83423C1.18427 3.6842 1.38775 3.59992 1.59993 3.59992H3.66873L6.63433 0.634316C6.7462 0.52237 6.88877 0.446122 7.04399 0.415221C7.19921 0.384319 7.36011 0.400152 7.50633 0.460716ZM11.7255 0.343116C11.8755 0.193139 12.079 0.108887 12.2911 0.108887C12.5033 0.108887 12.7067 0.193139 12.8567 0.343116C13.6006 1.08524 14.1905 1.967 14.5926 2.93776C14.9948 3.90853 15.2011 4.94916 15.1999 5.99992C15.2011 7.05067 14.9948 8.09131 14.5926 9.06207C14.1905 10.0328 13.6006 10.9146 12.8567 11.6567C12.7058 11.8024 12.5038 11.8831 12.294 11.8813C12.0842 11.8794 11.8836 11.7953 11.7353 11.647C11.5869 11.4986 11.5028 11.298 11.501 11.0882C11.4992 10.8785 11.5798 10.6764 11.7255 10.5255C12.3208 9.93196 12.7929 9.22655 13.1146 8.44987C13.4363 7.67319 13.6012 6.84057 13.5999 5.99992C13.5999 4.23192 12.8847 2.63352 11.7255 1.47432C11.5756 1.32429 11.4913 1.12085 11.4913 0.908716C11.4913 0.696584 11.5756 0.493138 11.7255 0.343116ZM9.46233 2.60552C9.53663 2.53113 9.62486 2.47213 9.72198 2.43187C9.81909 2.39161 9.92319 2.37089 10.0283 2.37089C10.1335 2.37089 10.2376 2.39161 10.3347 2.43187C10.4318 2.47213 10.52 2.53113 10.5943 2.60552C11.0406 3.05085 11.3946 3.57997 11.6358 4.16248C11.877 4.745 12.0007 5.36943 11.9999 5.99992C12.0007 6.63039 11.8769 7.25481 11.6357 7.83732C11.3945 8.41983 11.0406 8.94896 10.5943 9.39432C10.4442 9.54443 10.2406 9.62876 10.0283 9.62876C9.81604 9.62876 9.61244 9.54443 9.46233 9.39432C9.31221 9.2442 9.22788 9.04061 9.22788 8.82831C9.22788 8.61602 9.31221 8.41243 9.46233 8.26232C9.76006 7.96566 9.99619 7.61304 10.1571 7.22476C10.318 6.83649 10.4005 6.42022 10.3999 5.99992C10.4006 5.57961 10.3181 5.16333 10.1572 4.77504C9.99624 4.38676 9.7601 4.03415 9.46233 3.73752C9.38795 3.66322 9.32894 3.57499 9.28868 3.47787C9.24842 3.38075 9.2277 3.27665 9.2277 3.17152C9.2277 3.06638 9.24842 2.96228 9.28868 2.86516C9.32894 2.76804 9.38795 2.67981 9.46233 2.60552Z" fill="#72DDF6"/>
</svg>
