<svg width="24" height="28" viewBox="0 0 24 28" fill="none" xmlns="http://www.w3.org/2000/svg">
<path d="M12.293 0.666992H16.853C16.853 0.666992 16.5996 6.52566 23.1863 6.93633V11.4643C23.1863 11.4643 19.6716 11.6857 16.853 9.53366L16.9023 18.8817C16.9023 20.5529 16.4068 22.1867 15.4783 23.5763C14.5499 24.966 13.2302 26.0491 11.6862 26.6888C10.1422 27.3285 8.44318 27.496 6.80399 27.1701C5.16479 26.8443 3.65902 26.0397 2.47707 24.8581C1.29511 23.6765 0.490055 22.171 0.163683 20.5319C-0.162689 18.8928 0.00428192 17.1938 0.643484 15.6496C1.28269 14.1054 2.36541 12.7854 3.75477 11.8565C5.14412 10.9276 6.77771 10.4315 8.44898 10.431H9.63565V15.0603C8.86285 14.8193 8.03368 14.8285 7.26642 15.0866C6.49917 15.3448 5.83302 15.8386 5.36302 16.4977C4.89301 17.1567 4.64315 17.9474 4.64908 18.7569C4.65502 19.5664 4.91644 20.3533 5.39605 21.0055C5.87567 21.6576 6.54898 22.1416 7.31993 22.3884C8.09089 22.6353 8.9201 22.6323 9.68929 22.38C10.4585 22.1277 11.1283 21.639 11.6033 20.9834C12.0783 20.3279 12.3341 19.5392 12.3343 18.7297L12.293 0.666992Z" fill="#ABEFFF"/>
</svg>
