<svg width="51" height="54" viewBox="0 0 51 54" fill="none" xmlns="http://www.w3.org/2000/svg">
<path fill-rule="evenodd" clip-rule="evenodd" d="M37.7969 15.6025C41.5179 18.261 46.0766 19.8253 50.9998 19.8253V10.356C50.068 10.3564 49.1387 10.2592 48.2271 10.066V17.5198C43.3042 17.5198 38.7462 15.9555 35.0242 13.297V32.6209C35.0242 42.2878 27.1838 50.1238 17.5125 50.1238C13.9041 50.1238 10.55 49.0334 7.76367 47.1634C10.9437 50.4131 15.3783 52.4293 20.2845 52.4293C29.9565 52.4293 37.7972 44.5933 37.7972 34.9261V15.6025H37.7969ZM41.2173 6.04921C39.3157 3.97283 38.0672 1.28921 37.7969 -1.67763V-2.89551H35.1694C35.8307 0.875092 38.0866 4.09659 41.2173 6.04921ZM13.8806 39.7456C12.8183 38.3533 12.244 36.6499 12.2466 34.8986C12.2466 30.4772 15.8329 26.8926 20.2573 26.8926C21.0818 26.892 21.9014 27.0185 22.6873 27.2676V17.5868C21.769 17.461 20.8423 17.4077 19.9156 17.4273V24.9624C19.1293 24.7133 18.3094 24.5868 17.4846 24.5874C13.0602 24.5874 9.47421 28.172 9.47421 32.5937C9.47421 35.72 11.2667 38.4271 13.8806 39.7456Z" fill="#EE1D52"/>
<path fill-rule="evenodd" clip-rule="evenodd" d="M35.0242 13.297C38.7461 15.9555 43.3042 17.5198 48.227 17.5198V10.066C45.4792 9.48118 43.0465 8.0457 41.2173 6.04922C38.0865 4.09659 35.8306 0.875094 35.1693 -2.89551H28.2677V34.9258C28.2521 39.3349 24.6719 42.9049 20.257 42.9049C17.6553 42.9049 15.344 41.6656 13.8803 39.7456C11.2663 38.4271 9.47386 35.72 9.47386 32.5937C9.47386 28.172 13.0598 24.5874 17.4843 24.5874C18.3319 24.5874 19.1489 24.7193 19.9153 24.9624V17.4273C10.414 17.6235 2.77246 25.383 2.77246 34.9261C2.77246 39.6898 4.67544 44.0085 7.76366 47.1637C10.55 49.0337 13.9041 50.1241 17.5125 50.1241C27.1838 50.1241 35.0242 42.2878 35.0242 32.6212V13.297Z" fill="white"/>
<path fill-rule="evenodd" clip-rule="evenodd" d="M48.2268 10.0665V8.05097C45.7487 8.0547 43.3195 7.36108 41.217 6.04939C43.0781 8.08592 45.5288 9.49033 48.2268 10.0665ZM35.1691 -2.89499C35.106 -3.25531 35.0575 -3.61805 35.024 -3.98231V-5.2002H25.4945V32.6214C25.4792 37.0302 21.8993 40.6002 17.4841 40.6002C16.1877 40.6002 14.964 40.2928 13.8801 39.7461C15.3438 41.6661 17.6551 42.9054 20.2568 42.9054C24.6713 42.9054 28.2519 39.3354 28.2675 34.9263V-2.89499H35.1691ZM19.9154 17.4278V15.2821C19.1191 15.1732 18.3164 15.1188 17.5127 15.1192C7.84037 15.1192 0 22.9556 0 32.6214C0 38.6816 3.08141 44.0223 7.76387 47.1639C4.67566 44.0087 2.77269 39.69 2.77269 34.9263C2.77269 25.3835 10.4138 17.624 19.9154 17.4278Z" fill="#69C9D0"/>
</svg>
