<svg width="14" height="14" viewBox="0 0 14 14" fill="none" xmlns="http://www.w3.org/2000/svg">
<g clip-path="url(#clip0_824_2299)">
<path fill-rule="evenodd" clip-rule="evenodd" d="M6.56842 2.15331C6.6963 2.20633 6.80558 2.29608 6.88246 2.41121C6.95934 2.52634 7.00035 2.66167 7.00032 2.80011L7.00032 11.2001C7.00029 11.3385 6.95922 11.4738 6.8823 11.5889C6.80538 11.704 6.69606 11.7937 6.56818 11.8467C6.44029 11.8997 6.29956 11.9135 6.1638 11.8865C6.02803 11.8595 5.90331 11.7929 5.80542 11.695L3.21052 9.10011L1.40032 9.10011C1.21467 9.10011 1.03662 9.02636 0.905342 8.89508C0.774067 8.76381 0.700317 8.58576 0.700317 8.40011L0.700317 5.60011C0.700317 5.41446 0.774067 5.23641 0.905343 5.10513C1.03662 4.97386 1.21467 4.90011 1.40032 4.90011L3.21052 4.90011L5.80542 2.30521C5.90331 2.20726 6.02805 2.14054 6.16387 2.1135C6.29969 2.08646 6.44048 2.10032 6.56842 2.15331ZM10.2602 2.05041C10.3915 1.91918 10.5695 1.84546 10.7551 1.84546C10.9407 1.84546 11.1187 1.91918 11.25 2.05041C11.9009 2.69977 12.4171 3.47131 12.7689 4.32073C13.1208 5.17014 13.3014 6.0807 13.3003 7.00011C13.3014 7.91952 13.1208 8.83008 12.7689 9.67949C12.4171 10.5289 11.9009 11.3005 11.25 11.9498C11.118 12.0773 10.9412 12.1479 10.7576 12.1463C10.5741 12.1447 10.3985 12.0711 10.2687 11.9413C10.139 11.8115 10.0653 11.6359 10.0637 11.4524C10.0621 11.2689 10.1327 11.092 10.2602 10.96C10.7811 10.4406 11.1942 9.82342 11.4757 9.14382C11.7571 8.46423 11.9015 7.73569 11.9003 7.00011C11.9003 5.45311 11.2745 4.05451 10.2602 3.04021C10.129 2.90894 10.0553 2.73092 10.0553 2.54531C10.0553 2.35969 10.129 2.18168 10.2602 2.05041ZM8.27992 4.03001C8.34493 3.96493 8.42213 3.91329 8.50711 3.87807C8.59209 3.84284 8.68318 3.82471 8.77517 3.82471C8.86716 3.82471 8.95825 3.84284 9.04323 3.87807C9.1282 3.91329 9.20541 3.96493 9.27042 4.03001C9.66094 4.41968 9.97062 4.88266 10.1817 5.39236C10.3927 5.90206 10.501 6.44844 10.5003 7.00011C10.501 7.55178 10.3927 8.09814 10.1816 8.60784C9.97057 9.11754 9.6609 9.58052 9.27042 9.97021C9.13907 10.1016 8.96092 10.1753 8.77517 10.1753C8.58941 10.1753 8.41127 10.1016 8.27992 9.97021C8.14857 9.83886 8.07478 9.66071 8.07478 9.47496C8.07478 9.2892 8.14857 9.11106 8.27992 8.97971C8.54044 8.72013 8.74704 8.4116 8.88784 8.07185C9.02864 7.73211 9.10085 7.36787 9.10032 7.00011C9.10089 6.63234 9.0287 6.26809 8.88789 5.92835C8.74709 5.5886 8.54047 5.28006 8.27992 5.02051C8.21483 4.9555 8.1632 4.8783 8.12798 4.79332C8.09275 4.70834 8.07462 4.61725 8.07462 4.52526C8.07462 4.43327 8.09275 4.34218 8.12798 4.2572C8.1632 4.17222 8.21483 4.09502 8.27992 4.03001Z" fill="#72DDF6"/>
</g>
<defs>
<clipPath id="clip0_824_2299">
<rect width="14" height="14" fill="white" transform="translate(0.000244141)"/>
</clipPath>
</defs>
</svg>
