<svg width="766" height="727" viewBox="0 0 766 727" fill="none" xmlns="http://www.w3.org/2000/svg">
<path fill-rule="evenodd" clip-rule="evenodd" d="M764 363.5L691.235 587.537L500.735 726H265.264L74.7645 587.537L2 363.5L74.7645 139.463L265.264 1L500.735 1L691.235 139.463L764 363.5Z" fill="#040435"/>
<path fill-rule="evenodd" clip-rule="evenodd" d="M264.939 0H501.06L692.086 138.845L765.051 363.5L692.086 588.155L501.06 727H264.939L73.9135 588.155L0.948242 363.5L73.9135 138.845L264.939 0ZM265.589 2L75.6149 140.081L3.05108 363.5L75.6149 586.919L265.589 725H500.41L690.384 586.919L762.948 363.5L690.384 140.081L500.41 2H265.589Z" fill="#ABEFFF" fill-opacity="0.7"/>
</svg>
